%TF.GenerationSoftware,Altium Limited,Altium Designer,21.6.4 (81)*%
G04 Layer_Physical_Order=1*
G04 Layer_Color=255*
%FSLAX26Y26*%
%MOIN*%
%TF.SameCoordinates,9211681A-A755-4052-9ADE-E47D4287157B*%
%TF.FilePolarity,Positive*%
%TF.FileFunction,Copper,L1,Top,Signal*%
%TF.Part,Single*%
G01*
G75*
%TA.AperFunction,Conductor*%
%ADD10C,0.005000*%
%ADD11C,0.007874*%
%ADD12C,0.015748*%
%ADD13C,0.011811*%
%ADD14C,0.005906*%
%TA.AperFunction,SMDPad,SMDef*%
%ADD15R,0.070866X0.031496*%
%ADD16R,0.062992X0.011811*%
%ADD17R,0.064961X0.015748*%
G04:AMPARAMS|DCode=18|XSize=31.496mil|YSize=39.37mil|CornerRadius=7.874mil|HoleSize=0mil|Usage=FLASHONLY|Rotation=180.000|XOffset=0mil|YOffset=0mil|HoleType=Round|Shape=RoundedRectangle|*
%AMROUNDEDRECTD18*
21,1,0.031496,0.023622,0,0,180.0*
21,1,0.015748,0.039370,0,0,180.0*
1,1,0.015748,-0.007874,0.011811*
1,1,0.015748,0.007874,0.011811*
1,1,0.015748,0.007874,-0.011811*
1,1,0.015748,-0.007874,-0.011811*
%
%ADD18ROUNDEDRECTD18*%
%TA.AperFunction,SMDPad,CuDef*%
%ADD19R,0.007874X0.011811*%
%TA.AperFunction,SMDPad,SMDef*%
%ADD20R,0.021654X0.008661*%
%TA.AperFunction,Conductor*%
%ADD21C,0.008661*%
%ADD22C,0.017716*%
%TA.AperFunction,ComponentPad*%
%ADD23C,0.027559*%
%TA.AperFunction,ViaPad*%
%ADD24C,0.027559*%
G36*
X1393598Y3178398D02*
X1393848Y3174915D01*
X1394081Y3173369D01*
X1394386Y3171951D01*
X1394764Y3170664D01*
X1395214Y3169506D01*
X1395737Y3168479D01*
X1396332Y3167581D01*
X1396999Y3166812D01*
X1393464Y3163277D01*
X1392695Y3163944D01*
X1391797Y3164539D01*
X1390769Y3165061D01*
X1389612Y3165512D01*
X1388324Y3165889D01*
X1386907Y3166195D01*
X1385360Y3166428D01*
X1383684Y3166589D01*
X1379941Y3166694D01*
X1393582Y3180335D01*
X1393598Y3178398D01*
D02*
G37*
G36*
X1356197D02*
X1356446Y3174915D01*
X1356679Y3173369D01*
X1356985Y3171951D01*
X1357362Y3170664D01*
X1357813Y3169506D01*
X1358335Y3168479D01*
X1358930Y3167581D01*
X1359597Y3166812D01*
X1356062Y3163277D01*
X1355294Y3163944D01*
X1354396Y3164539D01*
X1353368Y3165061D01*
X1352210Y3165512D01*
X1350923Y3165889D01*
X1349506Y3166195D01*
X1347959Y3166428D01*
X1346282Y3166589D01*
X1342539Y3166694D01*
X1356180Y3180335D01*
X1356197Y3178398D01*
D02*
G37*
G36*
X1366911Y3159599D02*
X1367809Y3159005D01*
X1368837Y3158482D01*
X1369995Y3158032D01*
X1371282Y3157654D01*
X1372699Y3157348D01*
X1374246Y3157115D01*
X1375923Y3156954D01*
X1379665Y3156850D01*
X1366024Y3143209D01*
X1366008Y3145145D01*
X1365759Y3148628D01*
X1365526Y3150175D01*
X1365220Y3151592D01*
X1364842Y3152879D01*
X1364392Y3154037D01*
X1363870Y3155065D01*
X1363275Y3155963D01*
X1362607Y3156731D01*
X1366143Y3160267D01*
X1366911Y3159599D01*
D02*
G37*
G36*
X1449388Y3165571D02*
X1448417Y3164439D01*
X1447561Y3163298D01*
X1446819Y3162148D01*
X1446191Y3160989D01*
X1445677Y3159821D01*
X1445278Y3158645D01*
X1444992Y3157459D01*
X1444851Y3156475D01*
X1444882Y3155684D01*
X1445236Y3152986D01*
X1445827Y3150606D01*
X1446654Y3148543D01*
X1447716Y3146798D01*
X1449016Y3145370D01*
X1450551Y3144259D01*
X1452323Y3143466D01*
X1454331Y3142990D01*
X1456575Y3142831D01*
X1425079D01*
X1427323Y3142990D01*
X1429331Y3143466D01*
X1431102Y3144259D01*
X1432638Y3145370D01*
X1433937Y3146798D01*
X1435000Y3148543D01*
X1435827Y3150606D01*
X1436417Y3152986D01*
X1436772Y3155684D01*
X1436803Y3156475D01*
X1436661Y3157459D01*
X1436376Y3158645D01*
X1435976Y3159821D01*
X1435463Y3160989D01*
X1434835Y3162148D01*
X1434092Y3163298D01*
X1433236Y3164439D01*
X1432266Y3165571D01*
X1431181Y3166695D01*
X1450473D01*
X1449388Y3165571D01*
D02*
G37*
G36*
X1655555Y3126764D02*
X1654904Y3127992D01*
X1654184Y3129091D01*
X1653396Y3130061D01*
X1652539Y3130901D01*
X1651613Y3131612D01*
X1650619Y3132194D01*
X1649556Y3132647D01*
X1648458Y3132960D01*
X1642174Y3132563D01*
X1641071Y3132323D01*
X1640284Y3132045D01*
X1639812Y3131731D01*
X1639654Y3131380D01*
Y3142951D01*
X1639812Y3142600D01*
X1640284Y3142285D01*
X1641071Y3142008D01*
X1642174Y3141768D01*
X1643591Y3141564D01*
X1647370Y3141269D01*
X1650476Y3141204D01*
X1650995Y3141259D01*
X1652166Y3141454D01*
X1653390Y3141728D01*
X1655991Y3142510D01*
X1657369Y3143018D01*
X1660279Y3144269D01*
X1661811Y3145012D01*
X1655555Y3126764D01*
D02*
G37*
G36*
X1482284Y3142600D02*
X1482614Y3142285D01*
X1483165Y3142008D01*
X1483936Y3141768D01*
X1484927Y3141564D01*
X1486139Y3141398D01*
X1489223Y3141176D01*
X1493188Y3141102D01*
Y3133228D01*
X1491095Y3133210D01*
X1484927Y3132766D01*
X1483936Y3132563D01*
X1483165Y3132323D01*
X1482614Y3132045D01*
X1482284Y3131731D01*
X1482174Y3131380D01*
Y3142951D01*
X1482284Y3142600D01*
D02*
G37*
G36*
X1392950Y3138438D02*
X1392739Y3136789D01*
X1392643Y3135244D01*
X1392663Y3133801D01*
X1392799Y3132462D01*
X1393051Y3131225D01*
X1393418Y3130091D01*
X1393902Y3129061D01*
X1394501Y3128133D01*
X1395217Y3127308D01*
X1390949Y3124505D01*
X1390280Y3125086D01*
X1389455Y3125650D01*
X1388472Y3126197D01*
X1387332Y3126727D01*
X1386035Y3127239D01*
X1382969Y3128212D01*
X1381200Y3128672D01*
X1377191Y3129541D01*
X1393278Y3140189D01*
X1392950Y3138438D01*
D02*
G37*
G36*
X1419422Y3113963D02*
X1419388Y3114133D01*
X1419286Y3114286D01*
X1419116Y3114421D01*
X1418878Y3114537D01*
X1418572Y3114636D01*
X1418198Y3114717D01*
X1417757Y3114780D01*
X1417247Y3114825D01*
X1416024Y3114861D01*
Y3119861D01*
X1416669Y3119870D01*
X1418198Y3120004D01*
X1418572Y3120085D01*
X1418878Y3120184D01*
X1419116Y3120301D01*
X1419286Y3120435D01*
X1419388Y3120588D01*
X1419422Y3120759D01*
Y3113963D01*
D02*
G37*
G36*
X1639750Y3122642D02*
X1640040Y3122083D01*
X1640521Y3121590D01*
X1641196Y3121163D01*
X1642063Y3120802D01*
X1643123Y3120506D01*
X1644376Y3120276D01*
X1645822Y3120112D01*
X1647460Y3120013D01*
X1649291Y3119980D01*
Y3114980D01*
X1647460Y3114948D01*
X1644376Y3114685D01*
X1643123Y3114455D01*
X1642063Y3114159D01*
X1641196Y3113798D01*
X1640521Y3113370D01*
X1640040Y3112878D01*
X1639750Y3112319D01*
X1639654Y3111695D01*
Y3123266D01*
X1639750Y3122642D01*
D02*
G37*
G36*
X1576902Y3092010D02*
X1576802Y3092634D01*
X1576502Y3093193D01*
X1576002Y3093686D01*
X1575302Y3094113D01*
X1574402Y3094474D01*
X1573302Y3094770D01*
X1572002Y3095000D01*
X1570502Y3095164D01*
X1566902Y3095295D01*
Y3100295D01*
X1568802Y3100328D01*
X1572002Y3100591D01*
X1573302Y3100821D01*
X1574402Y3101117D01*
X1575302Y3101478D01*
X1576002Y3101905D01*
X1576502Y3102398D01*
X1576802Y3102957D01*
X1576902Y3103581D01*
Y3092010D01*
D02*
G37*
G36*
X1419422D02*
X1419346Y3092634D01*
X1419120Y3093193D01*
X1418744Y3093686D01*
X1418217Y3094113D01*
X1417539Y3094474D01*
X1416710Y3094770D01*
X1415731Y3095000D01*
X1414601Y3095164D01*
X1413321Y3095262D01*
X1411890Y3095295D01*
Y3100295D01*
X1413321Y3100328D01*
X1414601Y3100427D01*
X1415731Y3100591D01*
X1416710Y3100821D01*
X1417539Y3101117D01*
X1418217Y3101478D01*
X1418744Y3101905D01*
X1419120Y3102398D01*
X1419346Y3102957D01*
X1419422Y3103581D01*
Y3092010D01*
D02*
G37*
G36*
X1393598Y3103595D02*
X1393848Y3100112D01*
X1394081Y3098565D01*
X1394386Y3097148D01*
X1394764Y3095861D01*
X1395214Y3094703D01*
X1395737Y3093675D01*
X1396332Y3092777D01*
X1396999Y3092009D01*
X1393464Y3088474D01*
X1392695Y3089141D01*
X1391797Y3089736D01*
X1390769Y3090258D01*
X1389612Y3090708D01*
X1388324Y3091086D01*
X1386907Y3091392D01*
X1385360Y3091625D01*
X1383684Y3091786D01*
X1379941Y3091890D01*
X1393582Y3105532D01*
X1393598Y3103595D01*
D02*
G37*
G36*
X1639754Y3083272D02*
X1640054Y3082713D01*
X1640554Y3082220D01*
X1641254Y3081793D01*
X1642154Y3081432D01*
X1643254Y3081136D01*
X1644554Y3080906D01*
X1646054Y3080742D01*
X1649654Y3080610D01*
Y3075610D01*
X1647754Y3075577D01*
X1644554Y3075315D01*
X1643254Y3075085D01*
X1642154Y3074789D01*
X1641254Y3074428D01*
X1640554Y3074001D01*
X1640054Y3073508D01*
X1639754Y3072949D01*
X1639654Y3072325D01*
Y3083896D01*
X1639754Y3083272D01*
D02*
G37*
G36*
X1576902Y3072325D02*
X1576802Y3072949D01*
X1576502Y3073508D01*
X1576002Y3074001D01*
X1575302Y3074428D01*
X1574402Y3074789D01*
X1573302Y3075085D01*
X1572002Y3075315D01*
X1570502Y3075479D01*
X1566902Y3075610D01*
Y3080610D01*
X1568802Y3080643D01*
X1572002Y3080906D01*
X1573302Y3081136D01*
X1574402Y3081432D01*
X1575302Y3081793D01*
X1576002Y3082220D01*
X1576502Y3082713D01*
X1576802Y3083272D01*
X1576902Y3083896D01*
Y3072325D01*
D02*
G37*
G36*
X1419422D02*
X1419322Y3072949D01*
X1419022Y3073508D01*
X1418522Y3074001D01*
X1417822Y3074428D01*
X1416922Y3074789D01*
X1415822Y3075085D01*
X1414522Y3075315D01*
X1413022Y3075479D01*
X1409422Y3075610D01*
Y3080610D01*
X1411322Y3080643D01*
X1414522Y3080906D01*
X1415822Y3081136D01*
X1416922Y3081432D01*
X1417822Y3081793D01*
X1418522Y3082220D01*
X1419022Y3082713D01*
X1419322Y3083272D01*
X1419422Y3083896D01*
Y3072325D01*
D02*
G37*
G36*
X1393610Y3067279D02*
X1393719Y3066502D01*
X1393910Y3065723D01*
X1394182Y3064941D01*
X1394535Y3064157D01*
X1394969Y3063369D01*
X1395485Y3062579D01*
X1396081Y3061787D01*
X1396759Y3060991D01*
X1397518Y3060193D01*
X1393982Y3056658D01*
X1393403Y3057185D01*
X1392824Y3057610D01*
X1392244Y3057933D01*
X1391664Y3058153D01*
X1391083Y3058271D01*
X1390502Y3058286D01*
X1389921Y3058198D01*
X1389339Y3058009D01*
X1388757Y3057717D01*
X1388174Y3057322D01*
X1393581Y3068052D01*
X1393610Y3067279D01*
D02*
G37*
G36*
X1639754Y3063587D02*
X1640054Y3063028D01*
X1640554Y3062535D01*
X1641254Y3062108D01*
X1642154Y3061747D01*
X1643254Y3061451D01*
X1644554Y3061221D01*
X1646054Y3061057D01*
X1649654Y3060925D01*
Y3055925D01*
X1647754Y3055892D01*
X1644554Y3055630D01*
X1643254Y3055400D01*
X1642154Y3055104D01*
X1641254Y3054743D01*
X1640554Y3054316D01*
X1640054Y3053823D01*
X1639754Y3053264D01*
X1639654Y3052640D01*
Y3064211D01*
X1639754Y3063587D01*
D02*
G37*
G36*
X1576902Y3052640D02*
X1576802Y3053264D01*
X1576502Y3053823D01*
X1576002Y3054316D01*
X1575302Y3054743D01*
X1574402Y3055104D01*
X1573302Y3055400D01*
X1572002Y3055630D01*
X1570502Y3055794D01*
X1566902Y3055925D01*
Y3060925D01*
X1568802Y3060958D01*
X1572002Y3061221D01*
X1573302Y3061451D01*
X1574402Y3061747D01*
X1575302Y3062108D01*
X1576002Y3062535D01*
X1576502Y3063028D01*
X1576802Y3063587D01*
X1576902Y3064211D01*
Y3052640D01*
D02*
G37*
G36*
X1419422D02*
X1419322Y3053264D01*
X1419022Y3053823D01*
X1418522Y3054316D01*
X1417822Y3054743D01*
X1416922Y3055104D01*
X1415822Y3055400D01*
X1414522Y3055630D01*
X1413022Y3055794D01*
X1409422Y3055925D01*
Y3060925D01*
X1411322Y3060958D01*
X1414522Y3061221D01*
X1415822Y3061451D01*
X1416922Y3061747D01*
X1417822Y3062108D01*
X1418522Y3062535D01*
X1419022Y3063028D01*
X1419322Y3063587D01*
X1419422Y3064211D01*
Y3052640D01*
D02*
G37*
G36*
X1397518Y3036973D02*
X1396759Y3036175D01*
X1396082Y3035379D01*
X1395485Y3034586D01*
X1394970Y3033796D01*
X1394535Y3033009D01*
X1394182Y3032224D01*
X1393910Y3031442D01*
X1393719Y3030663D01*
X1393610Y3029886D01*
X1393581Y3029112D01*
X1388173Y3039844D01*
X1388756Y3039449D01*
X1389339Y3039157D01*
X1389921Y3038967D01*
X1390502Y3038880D01*
X1391083Y3038895D01*
X1391664Y3039013D01*
X1392244Y3039233D01*
X1392824Y3039556D01*
X1393404Y3039981D01*
X1393983Y3040508D01*
X1397518Y3036973D01*
D02*
G37*
G36*
X1639735Y3043902D02*
X1639976Y3043343D01*
X1640380Y3042850D01*
X1640944Y3042423D01*
X1641670Y3042062D01*
X1642556Y3041766D01*
X1643605Y3041536D01*
X1644814Y3041372D01*
X1646185Y3041273D01*
X1647716Y3041240D01*
Y3036240D01*
X1646185Y3036207D01*
X1643605Y3035945D01*
X1642556Y3035715D01*
X1641670Y3035419D01*
X1640944Y3035058D01*
X1640380Y3034631D01*
X1639976Y3034138D01*
X1639735Y3033579D01*
X1639654Y3032955D01*
Y3044526D01*
X1639735Y3043902D01*
D02*
G37*
G36*
X1419422Y3032955D02*
X1419322Y3033579D01*
X1419022Y3034138D01*
X1418522Y3034631D01*
X1417822Y3035058D01*
X1416922Y3035419D01*
X1415822Y3035715D01*
X1414522Y3035945D01*
X1413022Y3036109D01*
X1409422Y3036240D01*
Y3041240D01*
X1411322Y3041273D01*
X1414522Y3041536D01*
X1415822Y3041766D01*
X1416922Y3042062D01*
X1417822Y3042423D01*
X1418522Y3042850D01*
X1419022Y3043343D01*
X1419322Y3043902D01*
X1419422Y3044526D01*
Y3032955D01*
D02*
G37*
G36*
X1639584Y3023510D02*
X1639735Y3023100D01*
X1639987Y3022738D01*
X1640339Y3022424D01*
X1640792Y3022159D01*
X1641346Y3021941D01*
X1642000Y3021773D01*
X1642755Y3021652D01*
X1643611Y3021579D01*
X1644567Y3021555D01*
Y3016555D01*
X1643611Y3016531D01*
X1642755Y3016459D01*
X1642000Y3016338D01*
X1641346Y3016169D01*
X1640792Y3015952D01*
X1640339Y3015687D01*
X1639987Y3015373D01*
X1639735Y3015011D01*
X1639584Y3014601D01*
X1639534Y3014143D01*
Y3023968D01*
X1639584Y3023510D01*
D02*
G37*
G36*
X1419422Y3013270D02*
X1419322Y3013894D01*
X1419022Y3014453D01*
X1418522Y3014945D01*
X1417822Y3015373D01*
X1416922Y3015734D01*
X1415822Y3016030D01*
X1414522Y3016260D01*
X1413022Y3016424D01*
X1409422Y3016555D01*
Y3021555D01*
X1411322Y3021588D01*
X1414522Y3021851D01*
X1415822Y3022081D01*
X1416922Y3022377D01*
X1417822Y3022738D01*
X1418522Y3023165D01*
X1419022Y3023658D01*
X1419322Y3024217D01*
X1419422Y3024841D01*
Y3013270D01*
D02*
G37*
G36*
X1756807Y3023139D02*
X1757056Y3019656D01*
X1757289Y3018109D01*
X1757595Y3016692D01*
X1757973Y3015405D01*
X1758423Y3014247D01*
X1758946Y3013219D01*
X1759541Y3012321D01*
X1760208Y3011553D01*
X1756672Y3008017D01*
X1755904Y3008684D01*
X1755006Y3009279D01*
X1753978Y3009802D01*
X1752820Y3010252D01*
X1751533Y3010630D01*
X1750116Y3010936D01*
X1748569Y3011169D01*
X1746892Y3011330D01*
X1743150Y3011434D01*
X1756791Y3025075D01*
X1756807Y3023139D01*
D02*
G37*
G36*
X1419422Y2993585D02*
X1419358Y2994209D01*
X1419168Y2994768D01*
X1418850Y2995260D01*
X1418406Y2995688D01*
X1417834Y2996049D01*
X1417136Y2996345D01*
X1416310Y2996575D01*
X1415357Y2996739D01*
X1414278Y2996838D01*
X1413071Y2996870D01*
Y3001870D01*
X1414278Y3001903D01*
X1415357Y3002002D01*
X1416310Y3002166D01*
X1417136Y3002396D01*
X1417834Y3002692D01*
X1418406Y3003053D01*
X1418850Y3003480D01*
X1419168Y3003973D01*
X1419358Y3004532D01*
X1419422Y3005156D01*
Y2993585D01*
D02*
G37*
G36*
X1396999Y3005156D02*
X1396332Y3004388D01*
X1395737Y3003490D01*
X1395214Y3002462D01*
X1394764Y3001305D01*
X1394386Y3000017D01*
X1394081Y2998600D01*
X1393848Y2997053D01*
X1393687Y2995376D01*
X1393582Y2991634D01*
X1379941Y3005275D01*
X1381877Y3005291D01*
X1385360Y3005541D01*
X1386907Y3005774D01*
X1388324Y3006079D01*
X1389612Y3006457D01*
X1390769Y3006907D01*
X1391797Y3007430D01*
X1392695Y3008025D01*
X1393464Y3008692D01*
X1396999Y3005156D01*
D02*
G37*
G36*
X1419422Y2975697D02*
X1419384Y2975942D01*
X1419270Y2976162D01*
X1419080Y2976355D01*
X1418815Y2976523D01*
X1418474Y2976665D01*
X1418057Y2976782D01*
X1417564Y2976872D01*
X1416995Y2976937D01*
X1416350Y2976975D01*
X1415630Y2976988D01*
Y2981988D01*
X1416350Y2982001D01*
X1417564Y2982105D01*
X1418057Y2982195D01*
X1418474Y2982311D01*
X1418815Y2982453D01*
X1419080Y2982621D01*
X1419270Y2982815D01*
X1419384Y2983035D01*
X1419422Y2983280D01*
Y2975697D01*
D02*
G37*
G36*
X1576902Y2973900D02*
X1576803Y2974524D01*
X1576506Y2975083D01*
X1576012Y2975575D01*
X1575319Y2976003D01*
X1574429Y2976364D01*
X1573341Y2976660D01*
X1572055Y2976890D01*
X1570571Y2977054D01*
X1567010Y2977185D01*
Y2982185D01*
X1568890Y2982218D01*
X1572055Y2982481D01*
X1573341Y2982711D01*
X1574429Y2983007D01*
X1575319Y2983368D01*
X1576012Y2983795D01*
X1576506Y2984288D01*
X1576803Y2984847D01*
X1576902Y2985471D01*
Y2973900D01*
D02*
G37*
G36*
X1395290Y2969786D02*
X1394576Y2968963D01*
X1393976Y2968036D01*
X1393491Y2967005D01*
X1393121Y2965869D01*
X1392864Y2964630D01*
X1392723Y2963287D01*
X1392695Y2961840D01*
X1392782Y2960289D01*
X1392984Y2958634D01*
X1393299Y2956874D01*
X1377294Y2967644D01*
X1379372Y2968053D01*
X1384669Y2969398D01*
X1386122Y2969885D01*
X1388562Y2970919D01*
X1389547Y2971466D01*
X1390377Y2972032D01*
X1391051Y2972618D01*
X1395290Y2969786D01*
D02*
G37*
G36*
X1482331Y2965435D02*
X1482804Y2965120D01*
X1483591Y2964843D01*
X1484693Y2964603D01*
X1486111Y2964399D01*
X1489890Y2964104D01*
X1497922Y2963937D01*
Y2956063D01*
X1494930Y2956045D01*
X1484693Y2955398D01*
X1483591Y2955158D01*
X1482804Y2954880D01*
X1482331Y2954566D01*
X1482174Y2954215D01*
Y2965786D01*
X1482331Y2965435D01*
D02*
G37*
G36*
X1599173Y2954215D02*
X1596916Y2955131D01*
X1594542Y2955597D01*
X1592051Y2955611D01*
X1589443Y2955174D01*
X1586717Y2954286D01*
X1583875Y2952947D01*
X1580915Y2951157D01*
X1577839Y2948915D01*
X1574645Y2946223D01*
X1571334Y2943079D01*
X1565766Y2948647D01*
X1567882Y2950823D01*
X1572893Y2956734D01*
X1574118Y2958499D01*
X1575120Y2960162D01*
X1575900Y2961722D01*
X1576457Y2963179D01*
X1576791Y2964534D01*
X1576902Y2965785D01*
X1599173Y2954215D01*
D02*
G37*
G36*
X1722242Y2949336D02*
X1719208Y2945058D01*
X1718467Y2943764D01*
X1717860Y2942535D01*
X1717388Y2941373D01*
X1717051Y2940277D01*
X1716849Y2939246D01*
X1716782Y2938282D01*
X1711782Y2937811D01*
X1711707Y2938865D01*
X1711483Y2939936D01*
X1711109Y2941024D01*
X1710587Y2942129D01*
X1709915Y2943251D01*
X1709093Y2944390D01*
X1708122Y2945546D01*
X1707002Y2946719D01*
X1705733Y2947909D01*
X1704314Y2949116D01*
X1723523Y2950893D01*
X1722242Y2949336D01*
D02*
G37*
G36*
X1379665Y2940316D02*
X1377729Y2940300D01*
X1374246Y2940050D01*
X1372699Y2939817D01*
X1371282Y2939511D01*
X1369995Y2939134D01*
X1368837Y2938683D01*
X1367809Y2938161D01*
X1366911Y2937566D01*
X1366143Y2936899D01*
X1362607Y2940434D01*
X1363275Y2941202D01*
X1363870Y2942101D01*
X1364392Y2943128D01*
X1364842Y2944286D01*
X1365220Y2945573D01*
X1365526Y2946990D01*
X1365759Y2948537D01*
X1365920Y2950214D01*
X1366024Y2953957D01*
X1379665Y2940316D01*
D02*
G37*
G36*
X1396999Y2930353D02*
X1396332Y2929585D01*
X1395737Y2928687D01*
X1395214Y2927659D01*
X1394764Y2926501D01*
X1394386Y2925214D01*
X1394081Y2923797D01*
X1393848Y2922250D01*
X1393687Y2920573D01*
X1393582Y2916831D01*
X1379941Y2930472D01*
X1381877Y2930488D01*
X1385360Y2930737D01*
X1386907Y2930970D01*
X1388324Y2931276D01*
X1389612Y2931654D01*
X1390769Y2932104D01*
X1391797Y2932627D01*
X1392695Y2933222D01*
X1393464Y2933889D01*
X1396999Y2930353D01*
D02*
G37*
G36*
X1393598Y2914619D02*
X1393848Y2911136D01*
X1394081Y2909589D01*
X1394386Y2908172D01*
X1394764Y2906884D01*
X1395214Y2905727D01*
X1395737Y2904699D01*
X1396332Y2903801D01*
X1396999Y2903033D01*
X1393464Y2899497D01*
X1392695Y2900164D01*
X1391797Y2900759D01*
X1390769Y2901282D01*
X1389612Y2901732D01*
X1388324Y2902110D01*
X1386907Y2902415D01*
X1385360Y2902648D01*
X1383684Y2902809D01*
X1379941Y2902914D01*
X1393582Y2916555D01*
X1393598Y2914619D01*
D02*
G37*
G36*
X1419956Y2872694D02*
X1420183Y2871619D01*
X1420562Y2870536D01*
X1421092Y2869446D01*
X1421774Y2868348D01*
X1422607Y2867243D01*
X1423592Y2866130D01*
X1424728Y2865009D01*
X1426016Y2863881D01*
X1427456Y2862745D01*
X1408329Y2860234D01*
X1409573Y2861867D01*
X1412521Y2866302D01*
X1413242Y2867627D01*
X1413832Y2868874D01*
X1414290Y2870045D01*
X1414618Y2871138D01*
X1414814Y2872154D01*
X1414880Y2873094D01*
X1419880Y2873762D01*
X1419956Y2872694D01*
D02*
G37*
G36*
X1448703Y2802716D02*
X1447322Y2804074D01*
X1444683Y2806361D01*
X1443424Y2807290D01*
X1442206Y2808076D01*
X1441029Y2808719D01*
X1439892Y2809219D01*
X1438795Y2809576D01*
X1437740Y2809791D01*
X1436725Y2809862D01*
Y2814862D01*
X1437740Y2814934D01*
X1438795Y2815148D01*
X1439892Y2815505D01*
X1441029Y2816006D01*
X1442206Y2816649D01*
X1443424Y2817435D01*
X1444683Y2818364D01*
X1445982Y2819435D01*
X1448703Y2822008D01*
Y2802716D01*
D02*
G37*
G36*
X-52474Y1741027D02*
X-52923Y1740322D01*
X-53276Y1739690D01*
X-53533Y1739133D01*
X-53694Y1738650D01*
X-53759Y1738242D01*
X-53728Y1737908D01*
X-53600Y1737648D01*
X-53377Y1737462D01*
X-53057Y1737351D01*
X-52641Y1737313D01*
X-64586D01*
X-64060Y1737359D01*
X-63526Y1737494D01*
X-62984Y1737720D01*
X-62433Y1738037D01*
X-61874Y1738444D01*
X-61306Y1738941D01*
X-60730Y1739529D01*
X-60145Y1740208D01*
X-59552Y1740976D01*
X-58951Y1741836D01*
X-52474Y1741027D01*
D02*
G37*
G36*
X47244Y1719685D02*
X47320Y1718917D01*
X47908Y1717497D01*
X48994Y1716411D01*
X50413Y1715824D01*
X51181Y1715748D01*
X55118D01*
Y1703937D01*
X43307D01*
Y1719685D01*
X47244D01*
X47244Y1719685D01*
D02*
G37*
G36*
X-11699Y1682495D02*
X-11781Y1682876D01*
X-11927Y1683217D01*
X-12135Y1683517D01*
X-12406Y1683777D01*
X-12739Y1683998D01*
X-13135Y1684178D01*
X-13594Y1684318D01*
X-14115Y1684419D01*
X-14699Y1684479D01*
X-15345Y1684499D01*
Y1689499D01*
X-14495Y1689516D01*
X-13001Y1689653D01*
X-12357Y1689772D01*
X-11781Y1689926D01*
X-11273Y1690114D01*
X-10834Y1690336D01*
X-10463Y1690593D01*
X-10160Y1690883D01*
X-9926Y1691208D01*
X-11699Y1682495D01*
D02*
G37*
G36*
X48295Y1692888D02*
X49370Y1691984D01*
X50466Y1691187D01*
X51584Y1690496D01*
X52724Y1689912D01*
X53886Y1689433D01*
X55069Y1689061D01*
X56275Y1688795D01*
X57502Y1688636D01*
X58751Y1688583D01*
X58751Y1679921D01*
X57502Y1679868D01*
X56275Y1679709D01*
X55069Y1679443D01*
X53886Y1679071D01*
X52724Y1678593D01*
X51584Y1678008D01*
X50466Y1677317D01*
X49370Y1676520D01*
X48295Y1675616D01*
X47242Y1674606D01*
X47242Y1693898D01*
X48295Y1692888D01*
D02*
G37*
G36*
X-46297Y1634265D02*
X-47412Y1633720D01*
X-48261Y1632979D01*
X-48843Y1632043D01*
X-49157Y1630912D01*
X-49205Y1629585D01*
X-48986Y1628062D01*
X-48500Y1626344D01*
X-47747Y1624430D01*
X-46727Y1622321D01*
X-52522Y1622127D01*
X-53623Y1624077D01*
X-54770Y1625794D01*
X-55960Y1627281D01*
X-57195Y1628535D01*
X-58475Y1629557D01*
X-59798Y1630347D01*
X-61167Y1630906D01*
X-62580Y1631233D01*
X-64037Y1631328D01*
X-65538Y1631190D01*
X-44914Y1634614D01*
X-46297Y1634265D01*
D02*
G37*
G36*
X300865Y1547827D02*
X298878Y1545890D01*
X297232Y1544095D01*
X295928Y1542443D01*
X294966Y1540933D01*
X294346Y1539565D01*
X294067Y1538339D01*
X294130Y1537255D01*
X294534Y1536314D01*
X295281Y1535514D01*
X296369Y1534857D01*
X277565Y1543613D01*
X278878Y1543158D01*
X280290Y1542971D01*
X281800Y1543052D01*
X283409Y1543401D01*
X285116Y1544019D01*
X286922Y1544904D01*
X288825Y1546057D01*
X290827Y1547478D01*
X292928Y1549167D01*
X295127Y1551124D01*
X300865Y1547827D01*
D02*
G37*
G36*
X265049Y1513811D02*
X264993Y1514377D01*
X264825Y1514884D01*
X264545Y1515331D01*
X264153Y1515718D01*
X263649Y1516046D01*
X263033Y1516314D01*
X262305Y1516523D01*
X261465Y1516672D01*
X260513Y1516762D01*
X259449Y1516791D01*
Y1521791D01*
X260513Y1521821D01*
X261465Y1521910D01*
X262305Y1522060D01*
X263033Y1522268D01*
X263649Y1522536D01*
X264153Y1522864D01*
X264545Y1523252D01*
X264825Y1523699D01*
X264993Y1524205D01*
X265049Y1524771D01*
Y1513811D01*
D02*
G37*
G36*
X387008Y1525984D02*
X387084Y1525216D01*
X387671Y1523797D01*
X388758Y1522711D01*
X390177Y1522123D01*
X390945Y1522047D01*
X394882D01*
Y1510236D01*
X383071D01*
Y1525984D01*
X387008D01*
X387008Y1525984D01*
D02*
G37*
G36*
X-293307Y1522834D02*
X-293231Y1522066D01*
X-292644Y1520647D01*
X-291558Y1519561D01*
X-290138Y1518973D01*
X-289370Y1518898D01*
X-285433D01*
Y1507086D01*
X-297244D01*
Y1522835D01*
X-293307D01*
X-293307Y1522834D01*
D02*
G37*
G36*
X323809Y1483810D02*
X322713Y1485745D01*
X316426Y1495482D01*
X315950Y1495980D01*
X317654Y1501440D01*
X318337Y1500780D01*
X319117Y1500289D01*
X319993Y1499966D01*
X320967Y1499813D01*
X322038Y1499828D01*
X323206Y1500011D01*
X324471Y1500363D01*
X325832Y1500884D01*
X327291Y1501574D01*
X328847Y1502432D01*
X323809Y1483810D01*
D02*
G37*
G36*
X-395171Y1501219D02*
X-395577Y1501069D01*
X-395935Y1500818D01*
X-396246Y1500468D01*
X-396509Y1500017D01*
X-396724Y1499466D01*
X-396891Y1498814D01*
X-397011Y1498063D01*
X-397082Y1497211D01*
X-397106Y1496260D01*
X-402106D01*
X-402130Y1497211D01*
X-402202Y1498063D01*
X-402322Y1498814D01*
X-402489Y1499466D01*
X-402704Y1500017D01*
X-402967Y1500468D01*
X-403277Y1500818D01*
X-403636Y1501069D01*
X-404042Y1501219D01*
X-404496Y1501269D01*
X-394717D01*
X-395171Y1501219D01*
D02*
G37*
G36*
X382153Y1499187D02*
X383228Y1498284D01*
X384324Y1497486D01*
X385442Y1496795D01*
X386582Y1496211D01*
X387744Y1495733D01*
X388928Y1495360D01*
X390133Y1495095D01*
X391360Y1494935D01*
X392609Y1494882D01*
X392609Y1486221D01*
X391360Y1486168D01*
X390133Y1486008D01*
X388928Y1485742D01*
X387744Y1485370D01*
X386583Y1484892D01*
X385443Y1484307D01*
X384325Y1483616D01*
X383228Y1482819D01*
X382154Y1481916D01*
X381101Y1480906D01*
X381100Y1500197D01*
X382153Y1499187D01*
D02*
G37*
G36*
X-356144Y1480053D02*
X-356728Y1480888D01*
X-357368Y1481635D01*
X-358067Y1482295D01*
X-358822Y1482866D01*
X-359636Y1483350D01*
X-360507Y1483745D01*
X-361436Y1484053D01*
X-362422Y1484273D01*
X-363466Y1484405D01*
X-364567Y1484449D01*
Y1490354D01*
X-363466Y1490398D01*
X-362422Y1490530D01*
X-361436Y1490750D01*
X-360507Y1491058D01*
X-359636Y1491453D01*
X-358822Y1491937D01*
X-358067Y1492508D01*
X-357368Y1493168D01*
X-356728Y1493915D01*
X-356144Y1494751D01*
Y1480053D01*
D02*
G37*
G36*
X-298162Y1496038D02*
X-297087Y1495134D01*
X-295991Y1494337D01*
X-294873Y1493646D01*
X-293733Y1493061D01*
X-292571Y1492583D01*
X-291387Y1492211D01*
X-290182Y1491945D01*
X-288955Y1491786D01*
X-287706Y1491733D01*
X-287706Y1483071D01*
X-288955Y1483018D01*
X-290182Y1482859D01*
X-291387Y1482593D01*
X-292571Y1482221D01*
X-293733Y1481742D01*
X-294873Y1481158D01*
X-295991Y1480467D01*
X-297087Y1479669D01*
X-298162Y1478766D01*
X-299214Y1477756D01*
X-299215Y1497047D01*
X-298162Y1496038D01*
D02*
G37*
G36*
X367795Y1455199D02*
X366457Y1454724D01*
X365276Y1453930D01*
X364252Y1452819D01*
X363386Y1451391D01*
X362677Y1449646D01*
X362126Y1447583D01*
X361732Y1445203D01*
X361657Y1444343D01*
X361701Y1443706D01*
X361860Y1442670D01*
X362055Y1441759D01*
X362286Y1440974D01*
X362551Y1440313D01*
X362853Y1439778D01*
X363189Y1439368D01*
X343898D01*
X344234Y1439778D01*
X344536Y1440313D01*
X344801Y1440974D01*
X345032Y1441759D01*
X345226Y1442670D01*
X345386Y1443706D01*
X345435Y1444277D01*
X345354Y1445203D01*
X344961Y1447583D01*
X344410Y1449646D01*
X343701Y1451391D01*
X342835Y1452819D01*
X341811Y1453930D01*
X340630Y1454724D01*
X339291Y1455199D01*
X337795Y1455358D01*
X369291D01*
X367795Y1455199D01*
D02*
G37*
G36*
X-388815Y1435128D02*
X-389184Y1434948D01*
X-389440Y1434677D01*
X-389584Y1434314D01*
X-389616Y1433860D01*
X-389535Y1433313D01*
X-389342Y1432676D01*
X-389036Y1431947D01*
X-388618Y1431126D01*
X-388088Y1430214D01*
X-393917Y1429885D01*
X-394487Y1430770D01*
X-395615Y1432245D01*
X-396173Y1432837D01*
X-396727Y1433331D01*
X-397277Y1433728D01*
X-397823Y1434027D01*
X-398366Y1434229D01*
X-398905Y1434333D01*
X-399440Y1434340D01*
X-388333Y1435216D01*
X-388815Y1435128D01*
D02*
G37*
G36*
X290745Y1437922D02*
X289298Y1437821D01*
X287962Y1437511D01*
X286737Y1436994D01*
X285622Y1436268D01*
X284619Y1435334D01*
X283726Y1434193D01*
X282945Y1432842D01*
X282274Y1431284D01*
X281714Y1429518D01*
X281265Y1427543D01*
X276060Y1427582D01*
X276358Y1429551D01*
X276465Y1431314D01*
X276383Y1432869D01*
X276110Y1434217D01*
X275646Y1435359D01*
X274993Y1436293D01*
X274150Y1437021D01*
X273116Y1437541D01*
X271892Y1437854D01*
X270478Y1437961D01*
X290745Y1437922D01*
D02*
G37*
G36*
X47244Y1442125D02*
X47320Y1441357D01*
X47908Y1439938D01*
X48994Y1438852D01*
X50413Y1438264D01*
X51181Y1438189D01*
X55118D01*
Y1426378D01*
X43307D01*
Y1442126D01*
X47244D01*
X47244Y1442125D01*
D02*
G37*
G36*
X-16772Y1398558D02*
X-24459Y1408641D01*
X-23508Y1414154D01*
X-22989Y1413838D01*
X-22373Y1413669D01*
X-21662Y1413649D01*
X-20855Y1413777D01*
X-19953Y1414052D01*
X-18954Y1414476D01*
X-17861Y1415048D01*
X-16671Y1415767D01*
X-14005Y1417650D01*
X-16772Y1398558D01*
D02*
G37*
G36*
X50263Y1415329D02*
X51338Y1414425D01*
X52434Y1413628D01*
X53553Y1412937D01*
X54693Y1412352D01*
X55854Y1411874D01*
X57038Y1411502D01*
X58243Y1411236D01*
X59470Y1411077D01*
X60719Y1411024D01*
X60719Y1402362D01*
X59470Y1402309D01*
X58243Y1402150D01*
X57038Y1401884D01*
X55854Y1401512D01*
X54693Y1401033D01*
X53553Y1400449D01*
X52435Y1399758D01*
X51338Y1398961D01*
X50264Y1398057D01*
X49211Y1397047D01*
X49211Y1416339D01*
X50263Y1415329D01*
D02*
G37*
G36*
X70695Y1370233D02*
X70350Y1370428D01*
X69870Y1370602D01*
X69256Y1370756D01*
X68508Y1370890D01*
X66608Y1371095D01*
X64170Y1371219D01*
X61195Y1371260D01*
X58069Y1387008D01*
X59598Y1387030D01*
X62275Y1387212D01*
X63423Y1387371D01*
X64444Y1387576D01*
X65337Y1387826D01*
X66104Y1388122D01*
X66744Y1388463D01*
X67257Y1388849D01*
X67642Y1389281D01*
X70695Y1370233D01*
D02*
G37*
G36*
X-560406Y1190933D02*
X-562455Y1188780D01*
X-564195Y1186723D01*
X-565627Y1184761D01*
X-566751Y1182895D01*
X-567566Y1181123D01*
X-568073Y1179448D01*
X-568272Y1177867D01*
X-568162Y1176382D01*
X-567744Y1174992D01*
X-567017Y1173698D01*
X-578581Y1190069D01*
X-577647Y1189022D01*
X-576570Y1188325D01*
X-575351Y1187978D01*
X-573991Y1187982D01*
X-573322Y1188140D01*
X-575784Y1190069D01*
X-575298Y1189782D01*
X-574718Y1189608D01*
X-574046Y1189548D01*
X-573280Y1189602D01*
X-572421Y1189770D01*
X-571469Y1190052D01*
X-570423Y1190448D01*
X-569285Y1190958D01*
X-566728Y1192319D01*
X-566469Y1192059D01*
X-565056Y1193256D01*
X-562843Y1195362D01*
X-560406Y1190933D01*
D02*
G37*
G36*
X185659Y1197510D02*
X184843Y1195990D01*
X184261Y1194629D01*
X183912Y1193428D01*
X183797Y1192386D01*
X183915Y1191503D01*
X184267Y1190779D01*
X184852Y1190214D01*
X185671Y1189809D01*
X186723Y1189563D01*
X188009Y1189476D01*
X166266Y1189588D01*
X167810Y1189965D01*
X169289Y1190469D01*
X170703Y1191100D01*
X172051Y1191858D01*
X173334Y1192743D01*
X174552Y1193755D01*
X175704Y1194894D01*
X176790Y1196159D01*
X177812Y1197552D01*
X178768Y1199072D01*
X185659Y1197510D01*
D02*
G37*
G36*
X-272859Y1192299D02*
X-275332Y1190468D01*
X-277406Y1188743D01*
X-279081Y1187124D01*
X-280356Y1185610D01*
X-281231Y1184202D01*
X-281707Y1182900D01*
X-281784Y1181703D01*
X-281461Y1180611D01*
X-280738Y1179626D01*
X-279616Y1178745D01*
X-297709Y1190069D01*
X-296335Y1189395D01*
X-294812Y1188999D01*
X-293140Y1188880D01*
X-291318Y1189040D01*
X-289348Y1189477D01*
X-287229Y1190192D01*
X-284960Y1191185D01*
X-282543Y1192456D01*
X-279976Y1194005D01*
X-277260Y1195832D01*
X-272859Y1192299D01*
D02*
G37*
G36*
X570866Y1172441D02*
X570942Y1171673D01*
X571530Y1170253D01*
X572616Y1169167D01*
X574035Y1168580D01*
X574803Y1168504D01*
X578740D01*
Y1156693D01*
X566929D01*
Y1172441D01*
X570866D01*
X570866Y1172441D01*
D02*
G37*
G36*
X283465D02*
X283540Y1171673D01*
X284128Y1170253D01*
X285214Y1169167D01*
X286633Y1168580D01*
X287401Y1168504D01*
X291339D01*
Y1156693D01*
X279528D01*
Y1172441D01*
X283465D01*
X283465Y1172441D01*
D02*
G37*
G36*
X-188976D02*
X-188901Y1171673D01*
X-188313Y1170253D01*
X-187227Y1169167D01*
X-185808Y1168580D01*
X-185040Y1168504D01*
X-181102D01*
Y1156693D01*
X-192913D01*
Y1172441D01*
X-188976D01*
X-188976Y1172441D01*
D02*
G37*
G36*
X-476378D02*
X-476302Y1171673D01*
X-475714Y1170253D01*
X-474628Y1169167D01*
X-473209Y1168580D01*
X-472441Y1168504D01*
X-468504D01*
Y1156693D01*
X-480315D01*
Y1172441D01*
X-476378D01*
X-476378Y1172441D01*
D02*
G37*
G36*
X-593265Y1151418D02*
X-593665Y1152460D01*
X-594173Y1153244D01*
X-594787Y1153769D01*
X-595508Y1154035D01*
X-595593Y1154035D01*
X-593577Y1151357D01*
X-593534Y1151280D01*
X-593649Y1151211D01*
X-593921Y1151150D01*
X-594351Y1151097D01*
X-595685Y1151016D01*
X-600244Y1150951D01*
Y1151870D01*
X-600720Y1151480D01*
X-602084Y1150192D01*
X-605528Y1153819D01*
X-603851Y1155571D01*
X-601136Y1158892D01*
X-600097Y1160460D01*
X-599272Y1161967D01*
X-598659Y1163412D01*
X-598259Y1164795D01*
X-598072Y1166117D01*
X-598098Y1167378D01*
X-598337Y1168577D01*
X-593265Y1151418D01*
D02*
G37*
G36*
X453667Y1151357D02*
X452346Y1152156D01*
X451028Y1152785D01*
X449714Y1153244D01*
X448402Y1153533D01*
X447095Y1153652D01*
X445790Y1153601D01*
X444489Y1153380D01*
X443192Y1152988D01*
X441898Y1152427D01*
X440607Y1151696D01*
X440483Y1157315D01*
X442412Y1158626D01*
X444100Y1159962D01*
X445546Y1161323D01*
X446751Y1162710D01*
X447714Y1164121D01*
X448436Y1165558D01*
X448916Y1167020D01*
X449154Y1168507D01*
X449151Y1170019D01*
X448907Y1171556D01*
X453667Y1151357D01*
D02*
G37*
G36*
X164338Y1158891D02*
X169291Y1150755D01*
X168919Y1150810D01*
X168375Y1150858D01*
X164485Y1150996D01*
X157855Y1151042D01*
X154508Y1153855D01*
X153813Y1153698D01*
X152406Y1153235D01*
X152263Y1155743D01*
X151907Y1156042D01*
X152245Y1156052D01*
X152113Y1158354D01*
X154236Y1159239D01*
X156095Y1160186D01*
X157691Y1161193D01*
X159025Y1162262D01*
X160095Y1163391D01*
X160903Y1164582D01*
X161448Y1165833D01*
X161730Y1167146D01*
X161749Y1168520D01*
X161506Y1169955D01*
X164338Y1158891D01*
D02*
G37*
G36*
X-308104Y1158893D02*
X-303150Y1150755D01*
X-303524Y1150810D01*
X-304070Y1150859D01*
X-307965Y1150997D01*
X-314596Y1151043D01*
X-317935Y1153855D01*
X-318628Y1153698D01*
X-320035Y1153235D01*
X-320178Y1155743D01*
X-320535Y1156043D01*
X-320196Y1156053D01*
X-320328Y1158354D01*
X-318205Y1159239D01*
X-316346Y1160186D01*
X-314750Y1161193D01*
X-313416Y1162262D01*
X-312346Y1163391D01*
X-311538Y1164582D01*
X-310993Y1165833D01*
X-310711Y1167146D01*
X-310692Y1168520D01*
X-310935Y1169955D01*
X-308104Y1158893D01*
D02*
G37*
G36*
X500788Y1132415D02*
X500608Y1132813D01*
X500362Y1133168D01*
X500052Y1133482D01*
X499677Y1133754D01*
X499237Y1133985D01*
X498732Y1134173D01*
X498162Y1134320D01*
X497527Y1134424D01*
X496828Y1134487D01*
X496063Y1134508D01*
Y1139508D01*
X496828Y1139529D01*
X497527Y1139592D01*
X498162Y1139696D01*
X498732Y1139843D01*
X499237Y1140031D01*
X499677Y1140261D01*
X500052Y1140534D01*
X500362Y1140847D01*
X500608Y1141203D01*
X500788Y1141601D01*
Y1132415D01*
D02*
G37*
G36*
X219654Y1131496D02*
X219359Y1132068D01*
X218999Y1132580D01*
X218573Y1133032D01*
X218083Y1133424D01*
X217528Y1133755D01*
X216908Y1134026D01*
X216224Y1134237D01*
X215474Y1134388D01*
X214659Y1134478D01*
X213779Y1134508D01*
Y1139508D01*
X214659Y1139538D01*
X215474Y1139629D01*
X216224Y1139779D01*
X216908Y1139990D01*
X217528Y1140261D01*
X218083Y1140592D01*
X218573Y1140984D01*
X218999Y1141436D01*
X219359Y1141948D01*
X219654Y1142520D01*
Y1131496D01*
D02*
G37*
G36*
X-252499Y1130879D02*
X-252850Y1131482D01*
X-253271Y1132022D01*
X-253764Y1132499D01*
X-254327Y1132912D01*
X-254961Y1133261D01*
X-255665Y1133547D01*
X-256440Y1133769D01*
X-257286Y1133928D01*
X-258203Y1134024D01*
X-259191Y1134055D01*
Y1139961D01*
X-258203Y1139993D01*
X-257286Y1140088D01*
X-256440Y1140247D01*
X-255665Y1140469D01*
X-254961Y1140755D01*
X-254327Y1141104D01*
X-253764Y1141517D01*
X-253271Y1141994D01*
X-252850Y1142534D01*
X-252499Y1143137D01*
Y1130879D01*
D02*
G37*
G36*
X560106Y1145644D02*
X561181Y1144741D01*
X562277Y1143943D01*
X563395Y1143252D01*
X564535Y1142668D01*
X565697Y1142189D01*
X566880Y1141817D01*
X568086Y1141552D01*
X569313Y1141392D01*
X570562Y1141339D01*
X570562Y1132678D01*
X569313Y1132624D01*
X568086Y1132465D01*
X566880Y1132199D01*
X565697Y1131827D01*
X564535Y1131349D01*
X563395Y1130764D01*
X562277Y1130073D01*
X561181Y1129276D01*
X560106Y1128372D01*
X559053Y1127362D01*
X559053Y1146654D01*
X560106Y1145644D01*
D02*
G37*
G36*
X-189894Y1145644D02*
X-188819Y1144740D01*
X-187723Y1143943D01*
X-186605Y1143252D01*
X-185465Y1142668D01*
X-184303Y1142189D01*
X-183120Y1141817D01*
X-181914Y1141551D01*
X-180687Y1141392D01*
X-179438Y1141339D01*
X-179438Y1132677D01*
X-180687Y1132624D01*
X-181914Y1132465D01*
X-183120Y1132199D01*
X-184303Y1131827D01*
X-185465Y1131349D01*
X-186605Y1130764D01*
X-187723Y1130073D01*
X-188819Y1129276D01*
X-189894Y1128372D01*
X-190947Y1127362D01*
X-190947Y1146654D01*
X-189894Y1145644D01*
D02*
G37*
G36*
X-473359D02*
X-472284Y1144740D01*
X-471188Y1143943D01*
X-470069Y1143252D01*
X-468930Y1142668D01*
X-467768Y1142189D01*
X-466584Y1141817D01*
X-465379Y1141551D01*
X-464152Y1141392D01*
X-462903Y1141339D01*
X-462903Y1132677D01*
X-464152Y1132624D01*
X-465379Y1132465D01*
X-466584Y1132199D01*
X-467768Y1131827D01*
X-468929Y1131349D01*
X-470069Y1130764D01*
X-471188Y1130073D01*
X-472284Y1129276D01*
X-473358Y1128372D01*
X-474411Y1127362D01*
X-474411Y1146654D01*
X-473359Y1145644D01*
D02*
G37*
G36*
X-531714Y1126816D02*
X-533113Y1128042D01*
X-535796Y1130106D01*
X-537079Y1130945D01*
X-538324Y1131655D01*
X-539530Y1132235D01*
X-540698Y1132687D01*
X-541828Y1133010D01*
X-542918Y1133203D01*
X-543971Y1133268D01*
X-544317Y1139173D01*
X-543218Y1139242D01*
X-542107Y1139449D01*
X-540985Y1139794D01*
X-539852Y1140277D01*
X-538708Y1140899D01*
X-537552Y1141658D01*
X-536385Y1142555D01*
X-535207Y1143591D01*
X-534018Y1144764D01*
X-532817Y1146075D01*
X-531714Y1126816D01*
D02*
G37*
G36*
X529212Y1101649D02*
X527874Y1101168D01*
X526693Y1100370D01*
X525669Y1099257D01*
X524803Y1097828D01*
X524094Y1096084D01*
X523543Y1094023D01*
X523150Y1091647D01*
X522970Y1089605D01*
X523118Y1087461D01*
X523278Y1086425D01*
X523472Y1085514D01*
X523703Y1084728D01*
X523968Y1084068D01*
X524270Y1083533D01*
X524606Y1083123D01*
X505315D01*
X505651Y1083533D01*
X505953Y1084068D01*
X506219Y1084728D01*
X506449Y1085514D01*
X506644Y1086425D01*
X506803Y1087461D01*
X506980Y1089502D01*
X506616Y1101695D01*
X530709Y1101815D01*
X529212Y1101649D01*
D02*
G37*
G36*
X244622Y1101650D02*
X243284Y1101169D01*
X242102Y1100372D01*
X241079Y1099259D01*
X240213Y1097830D01*
X239504Y1096086D01*
X238953Y1094025D01*
X238559Y1091648D01*
X238323Y1088956D01*
X238309Y1088434D01*
X238528Y1085262D01*
X238687Y1084226D01*
X238882Y1083315D01*
X239112Y1082529D01*
X239378Y1081869D01*
X239679Y1081333D01*
X240016Y1080923D01*
X220725D01*
X221061Y1081333D01*
X221362Y1081869D01*
X221628Y1082529D01*
X221858Y1083315D01*
X222053Y1084226D01*
X222213Y1085262D01*
X222425Y1087710D01*
X222457Y1089030D01*
X221971Y1096026D01*
X221676Y1097758D01*
X221315Y1099175D01*
X220888Y1100278D01*
X220396Y1101065D01*
X219838Y1101537D01*
X219215Y1101695D01*
X246118Y1101815D01*
X244622Y1101650D01*
D02*
G37*
G36*
X-572071Y1084620D02*
X-572443Y1084450D01*
X-572699Y1084191D01*
X-572841Y1083842D01*
X-572867Y1083404D01*
X-572778Y1082876D01*
X-572573Y1082259D01*
X-572254Y1081553D01*
X-571819Y1080758D01*
X-571270Y1079873D01*
X-577249Y1079551D01*
X-577844Y1080418D01*
X-579018Y1081868D01*
X-579596Y1082450D01*
X-580169Y1082938D01*
X-580736Y1083330D01*
X-581298Y1083626D01*
X-581854Y1083828D01*
X-582404Y1083935D01*
X-582949Y1083946D01*
X-571585Y1084701D01*
X-572071Y1084620D01*
D02*
G37*
G36*
X-279918Y1088704D02*
X-279843Y1088476D01*
X-279778Y1088097D01*
X-279723Y1087568D01*
X-279618Y1085074D01*
X-279598Y1082656D01*
X-282098D01*
X-284120Y1082043D01*
X-283976Y1081482D01*
X-283288Y1079763D01*
X-282304Y1077856D01*
X-281025Y1075763D01*
X-287069Y1075311D01*
X-288413Y1077238D01*
X-289777Y1078929D01*
X-291161Y1080383D01*
X-292565Y1081601D01*
X-293989Y1082583D01*
X-295432Y1083329D01*
X-296895Y1083838D01*
X-298378Y1084110D01*
X-299881Y1084146D01*
X-301403Y1083946D01*
X-280644Y1088259D01*
X-280098Y1088707D01*
X-280003Y1088781D01*
X-279918Y1088704D01*
D02*
G37*
G36*
X47244Y963779D02*
X47320Y963011D01*
X47908Y961592D01*
X48994Y960506D01*
X50413Y959918D01*
X51181Y959842D01*
X55118D01*
Y948031D01*
X43307D01*
Y963779D01*
X47244D01*
X47244Y963779D01*
D02*
G37*
G36*
X-19186Y924672D02*
X-19259Y924809D01*
X-19396Y924932D01*
X-19598Y925040D01*
X-19866Y925134D01*
X-20198Y925213D01*
X-20595Y925278D01*
X-21058Y925329D01*
X-22177Y925386D01*
X-22835Y925394D01*
Y931299D01*
X-22177Y931306D01*
X-20595Y931415D01*
X-20198Y931480D01*
X-19866Y931559D01*
X-19598Y931653D01*
X-19396Y931761D01*
X-19259Y931884D01*
X-19186Y932021D01*
Y924672D01*
D02*
G37*
G36*
X-74715Y902351D02*
X-74690Y902742D01*
X-74773Y903092D01*
X-74965Y903401D01*
X-75266Y903668D01*
X-75675Y903895D01*
X-76193Y904080D01*
X-76819Y904224D01*
X-77554Y904327D01*
X-78398Y904389D01*
X-79350Y904409D01*
X-79295Y909409D01*
X-78161Y909429D01*
X-76228Y909589D01*
X-75428Y909728D01*
X-74740Y909907D01*
X-74162Y910126D01*
X-73696Y910385D01*
X-73341Y910684D01*
X-73097Y911023D01*
X-72964Y911401D01*
X-74715Y902351D01*
D02*
G37*
G36*
X-74672Y882865D02*
X-74711Y883078D01*
X-74826Y883269D01*
X-75017Y883437D01*
X-75284Y883583D01*
X-75627Y883706D01*
X-76046Y883807D01*
X-76540Y883885D01*
X-77111Y883942D01*
X-78479Y883986D01*
Y888986D01*
X-77763Y888998D01*
X-76557Y889089D01*
X-76067Y889169D01*
X-75653Y889273D01*
X-75314Y889398D01*
X-75051Y889547D01*
X-74863Y889719D01*
X-74751Y889913D01*
X-74715Y890131D01*
X-74672Y882865D01*
D02*
G37*
G36*
X-39679Y864849D02*
X-39144Y864548D01*
X-38484Y864282D01*
X-37698Y864052D01*
X-36787Y863857D01*
X-35751Y863697D01*
X-33303Y863485D01*
X-30354Y863414D01*
Y847666D01*
X-31891Y847648D01*
X-35751Y847382D01*
X-36787Y847223D01*
X-37698Y847028D01*
X-38484Y846798D01*
X-39144Y846532D01*
X-39679Y846231D01*
X-40089Y845894D01*
Y865186D01*
X-39679Y864849D01*
D02*
G37*
G36*
X-71695Y640104D02*
X-72728Y640875D01*
X-73727Y641479D01*
X-74691Y641914D01*
X-75622Y642182D01*
X-76519Y642282D01*
X-77381Y642214D01*
X-78209Y641978D01*
X-79004Y641575D01*
X-79764Y641003D01*
X-80490Y640264D01*
X-82210Y645685D01*
X-81398Y646485D01*
X-79899Y648201D01*
X-79213Y649116D01*
X-77966Y651061D01*
X-77405Y652091D01*
X-76409Y654265D01*
X-75973Y655409D01*
X-71695Y640104D01*
D02*
G37*
G36*
X-39740Y623260D02*
X-40521Y622445D01*
X-41805Y620887D01*
X-42309Y620144D01*
X-42721Y619425D01*
X-43041Y618730D01*
X-43268Y618059D01*
X-43403Y617412D01*
X-43445Y616788D01*
X-43395Y616189D01*
X-45369Y628271D01*
X-45228Y627733D01*
X-45007Y627348D01*
X-44705Y627115D01*
X-44322Y627033D01*
X-43859Y627104D01*
X-43315Y627327D01*
X-42690Y627702D01*
X-41985Y628229D01*
X-41198Y628908D01*
X-40331Y629739D01*
X-39740Y623260D01*
D02*
G37*
G36*
X79310Y624250D02*
X78364Y623076D01*
X77529Y621899D01*
X76806Y620721D01*
X76194Y619539D01*
X75693Y618356D01*
X75304Y617170D01*
X75026Y615981D01*
X74859Y614791D01*
X74803Y613597D01*
X66929Y613308D01*
X66871Y614520D01*
X66695Y615716D01*
X66403Y616898D01*
X65995Y618064D01*
X65469Y619215D01*
X64826Y620351D01*
X64067Y621471D01*
X63191Y622577D01*
X62197Y623666D01*
X61088Y624741D01*
X80367Y625421D01*
X79310Y624250D01*
D02*
G37*
G36*
X47244Y613385D02*
X47320Y612617D01*
X47908Y611198D01*
X48994Y610112D01*
X50413Y609524D01*
X51181Y609449D01*
X55118D01*
Y597638D01*
X43307D01*
Y613386D01*
X47244D01*
X47244Y613385D01*
D02*
G37*
G36*
X40605Y586589D02*
X41679Y585685D01*
X42776Y584888D01*
X43894Y584197D01*
X45034Y583612D01*
X46196Y583134D01*
X47379Y582762D01*
X48585Y582496D01*
X49812Y582337D01*
X51060Y582283D01*
X51060Y573622D01*
X49812Y573569D01*
X48584Y573409D01*
X47379Y573144D01*
X46196Y572772D01*
X45034Y572293D01*
X43894Y571709D01*
X42776Y571018D01*
X41679Y570220D01*
X40605Y569317D01*
X39552Y568307D01*
X39552Y587598D01*
X40605Y586589D01*
D02*
G37*
G36*
X-74715Y544686D02*
X-74766Y545161D01*
X-74920Y545586D01*
X-75176Y545961D01*
X-75534Y546286D01*
X-75995Y546561D01*
X-76558Y546786D01*
X-77224Y546961D01*
X-77992Y547086D01*
X-78862Y547161D01*
X-79835Y547186D01*
Y552186D01*
X-78862Y552211D01*
X-77992Y552286D01*
X-77224Y552411D01*
X-76558Y552586D01*
X-75995Y552811D01*
X-75534Y553086D01*
X-75176Y553411D01*
X-74920Y553786D01*
X-74766Y554211D01*
X-74715Y554686D01*
Y544686D01*
D02*
G37*
G36*
X-72258Y527056D02*
X-72432Y527496D01*
X-72716Y527873D01*
X-73110Y528187D01*
X-73614Y528439D01*
X-74227Y528629D01*
X-74950Y528756D01*
X-75782Y528822D01*
X-76724Y528824D01*
X-77776Y528764D01*
X-78937Y528642D01*
X-79796Y533573D01*
X-78719Y533734D01*
X-77769Y533929D01*
X-76945Y534158D01*
X-76248Y534422D01*
X-75677Y534719D01*
X-75232Y535051D01*
X-74913Y535417D01*
X-74721Y535817D01*
X-74655Y536251D01*
X-74715Y536719D01*
X-72258Y527056D01*
D02*
G37*
G36*
X-39082Y503044D02*
X-38833Y499561D01*
X-38600Y498014D01*
X-38294Y496597D01*
X-37916Y495309D01*
X-37466Y494152D01*
X-36944Y493124D01*
X-36349Y492226D01*
X-35681Y491458D01*
X-39217Y487922D01*
X-39985Y488589D01*
X-40883Y489184D01*
X-41911Y489707D01*
X-43069Y490157D01*
X-44356Y490535D01*
X-45773Y490840D01*
X-47320Y491074D01*
X-48997Y491234D01*
X-52739Y491339D01*
X-39098Y504980D01*
X-39082Y503044D01*
D02*
G37*
G36*
X273820Y421024D02*
X276459Y418738D01*
X277717Y417809D01*
X278936Y417023D01*
X280113Y416380D01*
X281250Y415879D01*
X282346Y415522D01*
X283402Y415308D01*
X284417Y415236D01*
Y410236D01*
X283402Y410165D01*
X282346Y409950D01*
X281250Y409593D01*
X280113Y409093D01*
X278936Y408450D01*
X277717Y407664D01*
X276459Y406735D01*
X275159Y405663D01*
X272439Y403091D01*
Y422382D01*
X273820Y421024D01*
D02*
G37*
G36*
X601772Y417402D02*
X604412Y415115D01*
X605670Y414187D01*
X606888Y413401D01*
X608066Y412757D01*
X609203Y412257D01*
X610299Y411900D01*
X611355Y411686D01*
X612370Y411614D01*
Y406614D01*
X611355Y406543D01*
X610299Y406328D01*
X609203Y405971D01*
X608066Y405471D01*
X606888Y404828D01*
X605670Y404042D01*
X604412Y403113D01*
X603112Y402041D01*
X600392Y399468D01*
Y418760D01*
X601772Y417402D01*
D02*
G37*
G36*
X227111Y404069D02*
X226318Y401990D01*
X225768Y400110D01*
X225460Y398429D01*
X225395Y396946D01*
X225573Y395663D01*
X225993Y394578D01*
X226656Y393693D01*
X227562Y393006D01*
X228710Y392518D01*
X230102Y392229D01*
X209626Y394793D01*
X211115Y394716D01*
X212537Y394864D01*
X213895Y395238D01*
X215187Y395838D01*
X216414Y396664D01*
X217576Y397715D01*
X218672Y398992D01*
X219703Y400495D01*
X220669Y402224D01*
X221569Y404179D01*
X227111Y404069D01*
D02*
G37*
G36*
X200876Y368559D02*
X200795Y369984D01*
X200508Y371259D01*
X200013Y372384D01*
X199312Y373359D01*
X198403Y374184D01*
X197288Y374859D01*
X195965Y375384D01*
X194436Y375759D01*
X192699Y375984D01*
X190756Y376059D01*
Y381059D01*
X192716Y381134D01*
X194472Y381358D01*
X196025Y381732D01*
X197373Y382255D01*
X198518Y382928D01*
X199459Y383751D01*
X200195Y384723D01*
X200728Y385844D01*
X201057Y387115D01*
X201182Y388536D01*
X200876Y368559D01*
D02*
G37*
G36*
X637795Y377165D02*
X637871Y376397D01*
X638459Y374978D01*
X639545Y373892D01*
X640964Y373304D01*
X641732Y373228D01*
X645669D01*
Y361417D01*
X633858D01*
Y377165D01*
X637795D01*
X637795Y377165D01*
D02*
G37*
G36*
X-228346D02*
X-228271Y376397D01*
X-227683Y374978D01*
X-226597Y373892D01*
X-225178Y373304D01*
X-224410Y373228D01*
X-220472D01*
Y361417D01*
X-232284D01*
Y377165D01*
X-228346D01*
X-228346Y377165D01*
D02*
G37*
G36*
X-543307D02*
X-543231Y376397D01*
X-542644Y374978D01*
X-541558Y373892D01*
X-540138Y373304D01*
X-539370Y373228D01*
X-535433D01*
Y361417D01*
X-547244D01*
Y377165D01*
X-543307D01*
X-543307Y377165D01*
D02*
G37*
G36*
X322835Y377165D02*
X322910Y376397D01*
X323498Y374978D01*
X324584Y373892D01*
X326003Y373304D01*
X326772Y373228D01*
X330709D01*
Y361417D01*
X318898D01*
Y377165D01*
X322835D01*
X322835Y377165D01*
D02*
G37*
G36*
X516257Y361283D02*
X516123Y362704D01*
X515785Y363975D01*
X515242Y365096D01*
X514495Y366068D01*
X513543Y366891D01*
X512387Y367563D01*
X511026Y368087D01*
X509460Y368461D01*
X507691Y368685D01*
X505716Y368760D01*
Y373760D01*
X507667Y373835D01*
X509410Y374060D01*
X510944Y374435D01*
X512269Y374960D01*
X513385Y375635D01*
X514293Y376460D01*
X514992Y377435D01*
X515482Y378560D01*
X515763Y379835D01*
X515836Y381260D01*
X516257Y361283D01*
D02*
G37*
G36*
X571524Y335209D02*
X565159Y346482D01*
X566897Y351860D01*
X567393Y351425D01*
X568000Y351129D01*
X568720Y350971D01*
X569551Y350951D01*
X570495Y351070D01*
X571551Y351326D01*
X572719Y351722D01*
X574000Y352255D01*
X575392Y352927D01*
X576897Y353737D01*
X571524Y335209D01*
D02*
G37*
G36*
X248084Y354260D02*
X248469Y353781D01*
X248994Y353432D01*
X249660Y353210D01*
X250466Y353117D01*
X251413Y353152D01*
X252500Y353316D01*
X253728Y353608D01*
X255096Y354028D01*
X256604Y354577D01*
X248245Y338306D01*
X247820Y339933D01*
X244974Y348743D01*
X244687Y349318D01*
X247839Y354866D01*
X248084Y354260D01*
D02*
G37*
G36*
X-298504Y337369D02*
X-298633Y337637D01*
X-298832Y337877D01*
X-299102Y338088D01*
X-299442Y338272D01*
X-299851Y338427D01*
X-300331Y338554D01*
X-300881Y338652D01*
X-301502Y338723D01*
X-302953Y338779D01*
Y344685D01*
X-302192Y344699D01*
X-300881Y344812D01*
X-300331Y344911D01*
X-299851Y345038D01*
X-299442Y345193D01*
X-299102Y345376D01*
X-298832Y345588D01*
X-298633Y345828D01*
X-298504Y346096D01*
Y337369D01*
D02*
G37*
G36*
X-609516Y337336D02*
X-609649Y337611D01*
X-609851Y337856D01*
X-610124Y338072D01*
X-610467Y338260D01*
X-610881Y338419D01*
X-611365Y338549D01*
X-611919Y338650D01*
X-612544Y338722D01*
X-613239Y338765D01*
X-614004Y338780D01*
Y344685D01*
X-613239Y344700D01*
X-611919Y344815D01*
X-611365Y344916D01*
X-610881Y345046D01*
X-610467Y345205D01*
X-610124Y345392D01*
X-609851Y345609D01*
X-609649Y345854D01*
X-609516Y346129D01*
Y337336D01*
D02*
G37*
G36*
X-544924Y350368D02*
X-543849Y349465D01*
X-542753Y348668D01*
X-541634Y347977D01*
X-540494Y347392D01*
X-539333Y346914D01*
X-538149Y346541D01*
X-536944Y346276D01*
X-535717Y346116D01*
X-534468Y346063D01*
X-534468Y337402D01*
X-535717Y337349D01*
X-536944Y337189D01*
X-538149Y336923D01*
X-539333Y336551D01*
X-540494Y336073D01*
X-541634Y335488D01*
X-542752Y334797D01*
X-543849Y334000D01*
X-544923Y333097D01*
X-545976Y332087D01*
X-545976Y351378D01*
X-544924Y350368D01*
D02*
G37*
G36*
X636878D02*
X637952Y349465D01*
X639049Y348668D01*
X640167Y347977D01*
X641307Y347392D01*
X642468Y346914D01*
X643652Y346541D01*
X644857Y346276D01*
X646084Y346116D01*
X647333Y346063D01*
X647333Y337402D01*
X646085Y337349D01*
X644857Y337189D01*
X643652Y336923D01*
X642469Y336551D01*
X641307Y336073D01*
X640167Y335488D01*
X639049Y334797D01*
X637952Y334000D01*
X636878Y333097D01*
X635825Y332087D01*
X635825Y351378D01*
X636878Y350368D01*
D02*
G37*
G36*
X-229264D02*
X-228190Y349465D01*
X-227093Y348668D01*
X-225975Y347977D01*
X-224835Y347392D01*
X-223673Y346914D01*
X-222490Y346541D01*
X-221285Y346276D01*
X-220057Y346116D01*
X-218809Y346063D01*
X-218808Y337402D01*
X-220057Y337349D01*
X-221284Y337189D01*
X-222490Y336923D01*
X-223673Y336551D01*
X-224835Y336073D01*
X-225975Y335488D01*
X-227093Y334797D01*
X-228189Y334000D01*
X-229264Y333097D01*
X-230317Y332087D01*
X-230317Y351378D01*
X-229264Y350368D01*
D02*
G37*
G36*
X323885Y350368D02*
X324960Y349465D01*
X326057Y348667D01*
X327175Y347976D01*
X328315Y347392D01*
X329476Y346913D01*
X330660Y346541D01*
X331865Y346276D01*
X333092Y346116D01*
X334341Y346063D01*
X334341Y337402D01*
X333092Y337348D01*
X331865Y337189D01*
X330660Y336923D01*
X329476Y336551D01*
X328315Y336073D01*
X327175Y335488D01*
X326057Y334797D01*
X324960Y334000D01*
X323886Y333096D01*
X322833Y332087D01*
X322833Y351378D01*
X323885Y350368D01*
D02*
G37*
G36*
X203788Y321685D02*
X202233Y316893D01*
X200876Y303885D01*
X200936Y305449D01*
X200785Y306968D01*
X200424Y308443D01*
X199852Y309873D01*
X199069Y311259D01*
X198076Y312601D01*
X196872Y313898D01*
X195457Y315151D01*
X193832Y316359D01*
X191995Y317523D01*
X192251Y321815D01*
X191001Y322090D01*
X192366Y326913D01*
X194266Y326587D01*
X197206Y326240D01*
X198064Y327865D01*
X208661Y327984D01*
X203788Y321685D01*
D02*
G37*
G36*
X527370Y334714D02*
X528744Y333103D01*
X530139Y331698D01*
X531554Y330499D01*
X532989Y329507D01*
X534446Y328721D01*
X535922Y328142D01*
X537420Y327769D01*
X538938Y327602D01*
X540476Y327642D01*
X518114Y325576D01*
X519454Y325795D01*
X520521Y326180D01*
X521314Y326731D01*
X521835Y327448D01*
X522082Y328331D01*
X522057Y329380D01*
X521758Y330594D01*
X521186Y331975D01*
X520341Y333521D01*
X519222Y335233D01*
X526017Y336532D01*
X527370Y334714D01*
D02*
G37*
G36*
X-662010Y330980D02*
X-660035Y329817D01*
X-658131Y328859D01*
X-656299Y328105D01*
X-654540Y327555D01*
X-652852Y327209D01*
X-651237Y327067D01*
X-649693Y327128D01*
X-648221Y327394D01*
X-646822Y327865D01*
X-665253Y320133D01*
X-664113Y320732D01*
X-663319Y321426D01*
X-662871Y322217D01*
X-662768Y323103D01*
X-662994Y324020D01*
X-665171Y320547D01*
X-665149Y320670D01*
X-665173Y320895D01*
X-665244Y321223D01*
X-665362Y321654D01*
X-665992Y323560D01*
X-667039Y326388D01*
X-665361Y327162D01*
X-665810Y327608D01*
X-667435Y328974D01*
X-669405Y330436D01*
X-664058Y332346D01*
X-662010Y330980D01*
D02*
G37*
G36*
X638366Y320929D02*
X638666Y320036D01*
X639166Y319248D01*
X639866Y318565D01*
X640766Y317987D01*
X641866Y317514D01*
X643166Y317146D01*
X644666Y316884D01*
X646366Y316726D01*
X648266Y316673D01*
Y311673D01*
X646366Y311621D01*
X644666Y311463D01*
X643166Y311200D01*
X641866Y310833D01*
X640766Y310360D01*
X639866Y309782D01*
X639166Y309099D01*
X638666Y308311D01*
X638366Y307418D01*
X638266Y306419D01*
Y321927D01*
X638366Y320929D01*
D02*
G37*
G36*
X323405Y320929D02*
X323705Y320036D01*
X324205Y319248D01*
X324905Y318565D01*
X325805Y317986D01*
X326905Y317514D01*
X328205Y317146D01*
X329705Y316883D01*
X331405Y316726D01*
X333305Y316673D01*
Y311673D01*
X331405Y311620D01*
X329705Y311463D01*
X328205Y311200D01*
X326905Y310832D01*
X325805Y310360D01*
X324905Y309782D01*
X324205Y309099D01*
X323705Y308310D01*
X323405Y307417D01*
X323305Y306419D01*
Y321927D01*
X323405Y320929D01*
D02*
G37*
G36*
X-277034Y297538D02*
X-276357Y296444D01*
X-275614Y295375D01*
X-273928Y293309D01*
X-272986Y292312D01*
X-270902Y290391D01*
X-269761Y289466D01*
X-268553Y288566D01*
X-287616Y285606D01*
X-286726Y286892D01*
X-285996Y288152D01*
X-285426Y289387D01*
X-285015Y290597D01*
X-284764Y291781D01*
X-284673Y292939D01*
X-284741Y294072D01*
X-284969Y295180D01*
X-285357Y296263D01*
X-285904Y297320D01*
X-277645Y298655D01*
X-277034Y297538D01*
D02*
G37*
G36*
X-325049Y289042D02*
X-325434Y288876D01*
X-325719Y288613D01*
X-325904Y288253D01*
X-325988Y287798D01*
X-325973Y287245D01*
X-325858Y286597D01*
X-325643Y285852D01*
X-325328Y285010D01*
X-324913Y284073D01*
X-330514Y283991D01*
X-330969Y284899D01*
X-331431Y285710D01*
X-331900Y286423D01*
X-332376Y287037D01*
X-332860Y287554D01*
X-333350Y287973D01*
X-333848Y288294D01*
X-334353Y288518D01*
X-334865Y288643D01*
X-335384Y288671D01*
X-324565Y289112D01*
X-325049Y289042D01*
D02*
G37*
G36*
X-635460Y292644D02*
X-635061Y292700D01*
X-635595Y292604D01*
X-636185Y292427D01*
X-637107Y291953D01*
X-637774Y291356D01*
X-638188Y290636D01*
X-638347Y289794D01*
X-638252Y288830D01*
X-637903Y287743D01*
X-637299Y286533D01*
X-636441Y285201D01*
X-635328Y283746D01*
X-639315Y280668D01*
X-640844Y282446D01*
X-642347Y284006D01*
X-643824Y285350D01*
X-644494Y285870D01*
X-646970Y286204D01*
X-647198Y286298D01*
X-647677Y286437D01*
X-650612Y287120D01*
X-660506Y289152D01*
X-635872Y292587D01*
X-635008Y292779D01*
X-635460Y292644D01*
D02*
G37*
G36*
X-37638Y221866D02*
X-39265Y219190D01*
X-41819Y214124D01*
X-42745Y211732D01*
X-43438Y209435D01*
X-43897Y207233D01*
X-44122Y205125D01*
X-44114Y203111D01*
X-43871Y201193D01*
X-43395Y199368D01*
X-49916Y218910D01*
X-61672Y223534D01*
X-60352Y223120D01*
X-58948Y222882D01*
X-57458Y222821D01*
X-55883Y222936D01*
X-54223Y223227D01*
X-52478Y223695D01*
X-50648Y224339D01*
X-48733Y225160D01*
X-46732Y226157D01*
X-44647Y227330D01*
X-44197Y227110D01*
X-43124Y228320D01*
X-40870Y226581D01*
X-39509Y228598D01*
X-37638Y221866D01*
D02*
G37*
G36*
X47244Y205905D02*
X47320Y205137D01*
X47908Y203718D01*
X48994Y202632D01*
X50413Y202044D01*
X51181Y201968D01*
X55118D01*
Y190157D01*
X43307D01*
Y205905D01*
X47244D01*
X47244Y205905D01*
D02*
G37*
G36*
X-65855Y184100D02*
X-66576Y185624D01*
X-67403Y186684D01*
X-68336Y187281D01*
X-69376Y187413D01*
X-70523Y187083D01*
X-71060Y186742D01*
X-67557Y184467D01*
X-67729Y184522D01*
X-67981Y184513D01*
X-68310Y184441D01*
X-68719Y184306D01*
X-69206Y184107D01*
X-70415Y183518D01*
X-72818Y182159D01*
X-74109Y183887D01*
X-74601Y183308D01*
X-76173Y181123D01*
X-77852Y178474D01*
X-80395Y184636D01*
X-78760Y187500D01*
X-76217Y192878D01*
X-75309Y195393D01*
X-74644Y197792D01*
X-74221Y200074D01*
X-74041Y202240D01*
X-74103Y204289D01*
X-74408Y206222D01*
X-74955Y208039D01*
X-65855Y184100D01*
D02*
G37*
G36*
X-29245Y182128D02*
X-28982Y181602D01*
X-28578Y181225D01*
X-28033Y180998D01*
X-27346Y180919D01*
X-26518Y180990D01*
X-25549Y181209D01*
X-24438Y181578D01*
X-23186Y182097D01*
X-21793Y182764D01*
X-28768Y166529D01*
X-29089Y167571D01*
X-31370Y173639D01*
X-31810Y174619D01*
X-32739Y176553D01*
X-29366Y182803D01*
X-29245Y182128D01*
D02*
G37*
G36*
X-16008Y122665D02*
X-16334Y122071D01*
X-16589Y121484D01*
X-16774Y120906D01*
X-16888Y120337D01*
X-16932Y119775D01*
X-16906Y119222D01*
X-16808Y118677D01*
X-16641Y118141D01*
X-16403Y117613D01*
X-16094Y117093D01*
X-30682Y120162D01*
X-39838Y115703D01*
X-37803Y121243D01*
X-33411Y123006D01*
X-33075Y123602D01*
X-32473Y124852D01*
X-32162Y125564D01*
X-16008Y122665D01*
D02*
G37*
G36*
X94711Y131659D02*
X95295Y131481D01*
X96697Y130641D01*
X96787Y130361D01*
X99686Y125108D01*
X103554Y120522D01*
X104754Y119463D01*
X102947Y114632D01*
X82513Y116886D01*
X80856Y121604D01*
X91075Y131823D01*
X94711Y131659D01*
D02*
G37*
G36*
X-50499Y117726D02*
X-51770Y117410D01*
X-52892Y116883D01*
X-53864Y116145D01*
X-54686Y115196D01*
X-55359Y114037D01*
X-55882Y112666D01*
X-56256Y111085D01*
X-56480Y109293D01*
X-56555Y107291D01*
X-61555D01*
X-61630Y109293D01*
X-61854Y111085D01*
X-62228Y112666D01*
X-62751Y114037D01*
X-63424Y115196D01*
X-64247Y116145D01*
X-65219Y116883D01*
X-66340Y117410D01*
X-67611Y117726D01*
X-69032Y117831D01*
X-49078D01*
X-50499Y117726D01*
D02*
G37*
%LPC*%
G36*
X-280664Y1088242D02*
X-281904Y1087873D01*
X-282988Y1087275D01*
X-283776Y1086490D01*
X-284269Y1085519D01*
X-284313Y1085265D01*
X-283914Y1085575D01*
X-280664Y1088242D01*
D02*
G37*
G36*
X-636634Y292417D02*
X-636976Y292355D01*
X-637187Y292293D01*
X-636634Y292417D01*
D02*
G37*
%LPD*%
D10*
X-265748Y1196063D02*
G03*
X-272734Y1194983I0J-23130D01*
G01*
X-265748Y1196063D02*
G03*
X-282127Y1179685I0J-16378D01*
G01*
X-295276Y1107480D02*
G03*
X-260319Y1058939I51181J0D01*
G01*
X-282098Y1082656D02*
G03*
X-260319Y1058939I35527J10765D01*
G01*
X-283693Y1093422D02*
G03*
X-282098Y1082656I37123J0D01*
G01*
Y1076980D02*
G03*
X-278346Y1073228I3752J0D01*
G01*
X-260319Y1058939D02*
G03*
X-244094Y1056299I16225J48541D01*
G01*
X-260319Y1058939D02*
G03*
X-246571Y1056299I13748J34483D01*
G01*
X67605Y161587D02*
G03*
X72294Y154386I7874J0D01*
G01*
X75439Y168627D02*
G03*
X67565Y160753I0J-7874D01*
G01*
X-18223Y139257D02*
G03*
X-14564Y148092I-8835J8835D01*
G01*
X-31048Y126433D02*
G03*
X-38019Y109604I16829J-16829D01*
G01*
X72274Y924944D02*
G03*
X74084Y914286I4796J-4668D01*
G01*
X61280Y913722D02*
G03*
X58661Y926575I-2618J6159D01*
G01*
X1553032Y3007244D02*
G03*
X1560905Y2999370I7874J0D01*
G01*
X1560906Y2979685D02*
G03*
X1553032Y2971811I0J-7874D01*
G01*
X60798Y153324D02*
G03*
X63977Y160998I-7674J7674D01*
G01*
X63846Y160835D02*
G03*
X55972Y168709I-7874J0D01*
G01*
X-74315Y184162D02*
G03*
X-84488Y158727I26708J-25435D01*
G01*
X-73686Y184806D02*
G03*
X-74315Y184162I26080J-26080D01*
G01*
X-68255Y196346D02*
G03*
X-84488Y158727I35474J-37620D01*
G01*
X-74315Y184162D02*
G03*
X-76040Y182668I9511J-12731D01*
G01*
X-64804Y187322D02*
G03*
X-74315Y184162I0J-15891D01*
G01*
X-41145Y226792D02*
G03*
X-25636Y264213I-61295J47327D01*
G01*
X-47682Y219361D02*
G03*
X-41145Y226792I-54758J54758D01*
G01*
X-54289Y204766D02*
G03*
X-25636Y264213I-70711J70711D01*
G01*
X-41145Y226792D02*
G03*
X-38976Y228740I-17078J21194D01*
G01*
X-58222Y220768D02*
G03*
X-41145Y226792I0J27218D01*
G01*
X-25636Y264213D02*
G03*
X-25000Y274120I-76804J9907D01*
G01*
X-25009Y274120D02*
G03*
X-25000Y275476I-99991J1357D01*
G01*
X-25636Y264213D02*
G03*
X-25009Y274120I-99364J11264D01*
G01*
X540552Y351574D02*
G03*
X524611Y358177I-15941J-15941D01*
G01*
X546163Y345963D02*
G03*
X546181Y345945I16495J16460D01*
G01*
X539356Y362423D02*
G03*
X546163Y345963I23303J0D01*
G01*
X544802Y352558D02*
G03*
X548498Y343628I12636J0D01*
G01*
X548498Y343628D02*
G03*
X548503Y343623I9531J9521D01*
G01*
X548498Y343628D02*
G03*
X548503Y343623I8940J8930D01*
G01*
X523415Y323627D02*
G03*
X508066Y338976I-15349J0D01*
G01*
X528960Y323753D02*
G03*
X513737Y338976I-15223J0D01*
G01*
X518528Y328515D02*
G03*
X508066Y338976I-10461J0D01*
G01*
X188308Y323897D02*
G03*
X216536Y312204I28227J28227D01*
G01*
X180768Y331437D02*
G03*
X201781Y322733I21013J21013D01*
G01*
X180785Y331420D02*
G03*
X195425Y325365I14640J14674D01*
G01*
X180768Y331437D02*
G03*
X180785Y331420I14657J14657D01*
G01*
X237972Y423011D02*
G03*
X216536Y371260I51751J-51751D01*
G01*
X237972Y423011D02*
G03*
X227264Y397160I25851J-25851D01*
G01*
X237972Y423011D02*
G03*
X229675Y402982I20029J-20029D01*
G01*
X-664769Y327435D02*
G03*
X-669145Y333712I-19776J-9123D01*
G01*
X-662766Y318312D02*
G03*
X-664769Y327435I-21779J0D01*
G01*
X-664769D02*
G03*
X-663307Y325906I34539J31547D01*
G01*
X-677008Y358982D02*
G03*
X-664769Y327435I46778J0D01*
G01*
X-667637Y332204D02*
G03*
X-649941Y324874I17696J17696D01*
G01*
X-637097Y281979D02*
G03*
X-637079Y281961I30262J30226D01*
G01*
X-649606Y312205D02*
G03*
X-637097Y281979I42771J0D01*
G01*
X-629978Y274860D02*
G03*
X-629957Y274839I15860J15817D01*
G01*
X-636517Y290677D02*
G03*
X-629978Y274860I22399J0D01*
G01*
X-638121Y283003D02*
G03*
X-657595Y291070I-19474J-19474D01*
G01*
X-324295Y287216D02*
G03*
X-316829Y269191I25491J0D01*
G01*
X-321338Y280077D02*
G03*
X-316829Y269191I15395J0D01*
G01*
X-22168Y563310D02*
G03*
X-52795Y575984I-30627J-30667D01*
G01*
X-22168Y563310D02*
G03*
X-3347Y555514I18821J18821D01*
G01*
X-14403Y546018D02*
G03*
X-21139Y562281I-22999J0D01*
G01*
X461503Y1115758D02*
G03*
X439095Y1125039I-22408J-22408D01*
G01*
X442321Y1123593D02*
G03*
X435733Y1125039I-6588J-14281D01*
G01*
X451460Y1109312D02*
G03*
X442321Y1123593I-15727J0D01*
G01*
X442321Y1123593D02*
G03*
X432284Y1125039I-10037J-34101D01*
G01*
X457419Y1114628D02*
G03*
X442321Y1123593I-25136J-25136D01*
G01*
X456190Y1187611D02*
G03*
X463974Y1192130I648J7847D01*
G01*
X470138Y1195896D02*
G03*
X472338Y1187735I3139J-3531D01*
G01*
X476572Y1198425D02*
G03*
X460865Y1182718I0J-15707D01*
G01*
X476572Y1198425D02*
G03*
X467203Y1189056I0J-9370D01*
G01*
X164032Y1114578D02*
G03*
X159765Y1124881I-14570J0D01*
G01*
X158198Y1126448D02*
G03*
X173375Y1120171I15177J15209D01*
G01*
X158182Y1126464D02*
G03*
X158198Y1126448I15193J15193D01*
G01*
X157227Y1127418D02*
G03*
X142441Y1133543I-14786J-14786D01*
G01*
X185585Y1194914D02*
G03*
X187674Y1186919I5127J-2930D01*
G01*
X188189Y1200394D02*
G03*
X177165Y1189370I0J-11024D01*
G01*
X195464Y1200394D02*
G03*
X183736Y1188666I0J-11728D01*
G01*
X312725Y1185138D02*
G03*
X289964Y1200394I-28018J-17194D01*
G01*
X136295Y1153543D02*
G03*
X177165Y1170472I0J57800D01*
G01*
X-570079Y1074803D02*
G03*
X-530159Y1058268I39920J39920D01*
G01*
X-572290Y1080143D02*
G03*
X-570079Y1074803I7551J0D01*
G01*
X-603858Y1151954D02*
G03*
X-611024Y1134646I17319J-17308D01*
G01*
X-603851Y1151960D02*
G03*
X-603858Y1151954I3608J-3621D01*
G01*
X-600244Y1153451D02*
G03*
X-603851Y1151960I0J-5111D01*
G01*
X-541339Y1200000D02*
G03*
X-574803Y1166535I0J-33465D01*
G01*
X-571984Y1187642D02*
G03*
X-564961Y1190551I0J9932D01*
G01*
X-336039Y1153543D02*
G03*
X-295276Y1170472I-108J57800D01*
G01*
X-336146Y1153543D02*
G03*
X-336039Y1153543I0J57800D01*
G01*
X-438583Y1166929D02*
G03*
X-425197Y1153543I13386J0D01*
G01*
X-24297Y1184883D02*
G03*
X-24291Y1184883I6J28821D01*
G01*
X-24413Y1184882D02*
G03*
X-24297Y1184882I0J9413D01*
G01*
X-24676Y1184883D02*
G03*
X-24413Y1184882I263J20444D01*
G01*
X-25181Y1184896D02*
G03*
X-24676Y1184883I768J20431D01*
G01*
X-25185Y1184896D02*
G03*
X-25181Y1184896I772J20431D01*
G01*
X-44671Y1193324D02*
G03*
X-25185Y1184897I20380J20380D01*
G01*
X-25181Y1184896D02*
G03*
X-25185Y1184896I-4J-10185D01*
G01*
X-24676Y1184883D02*
G03*
X-25181Y1184896I-509J-10172D01*
G01*
X-15000Y1174711D02*
G03*
X-24676Y1184883I-10185J0D01*
G01*
X275984Y1519291D02*
G03*
X280709Y1524016I0J4724D01*
G01*
Y1520079D02*
G03*
X290354Y1529724I0J9646D01*
G01*
X259449Y1519291D02*
G03*
X244932Y1504774I0J-14517D01*
G01*
X301968Y1550394D02*
G03*
X290354Y1538780I0J-11614D01*
G01*
X308399Y1550394D02*
G03*
X293722Y1535717I0J-14677D01*
G01*
X-47638Y1744882D02*
G03*
X-59449Y1733071I0J-11811D01*
G01*
X-39468Y1744882D02*
G03*
X-48707Y1735643I0J-9239D01*
G01*
X-41257Y1744882D02*
G03*
X-53145Y1732993I0J-11889D01*
G01*
X-47925Y1627854D02*
G03*
X-41238Y1611711I22829J0D01*
G01*
X-399606Y1457874D02*
G03*
X-385130Y1422926I49425J0D01*
G01*
X-389594Y1433701D02*
G03*
X-385130Y1422925I15240J0D01*
G01*
X-40565Y1454710D02*
G03*
X-45745Y1442190I12542J-12520D01*
G01*
X-40554Y1454721D02*
G03*
X-40565Y1454710I12531J-12531D01*
G01*
X-33862Y1461414D02*
G03*
X-33858Y1461417I-10246J10253D01*
G01*
X-44107Y1457172D02*
G03*
X-33862Y1461414I0J14495D01*
G01*
X-36858Y1352073D02*
G03*
X-36848Y1352062I21469J21449D01*
G01*
X-45737Y1373521D02*
G03*
X-36858Y1352073I30347J0D01*
G01*
X-40541Y1353832D02*
G03*
X-51438Y1356345I-10896J-22371D01*
G01*
X-33853Y1349068D02*
G03*
X-40541Y1353832I-17584J-17607D01*
G01*
X-33842Y1349056D02*
G03*
X-33853Y1349068I-17596J-17596D01*
G01*
X-407306Y1408487D02*
G03*
X-359811Y1388819I47495J47511D01*
G01*
X-424016Y1440632D02*
G03*
X-413102Y1414283I37263J0D01*
G01*
X-410565Y1483231D02*
G03*
X-399606Y1496063I-2033J12832D01*
G01*
X-410565Y1483231D02*
G03*
X-424016Y1469780I0J-13451D01*
G01*
X-356005Y1421557D02*
G03*
X-326772Y1409449I29233J29233D01*
G01*
X-399605Y1496063D02*
G03*
X-386578Y1483231I13027J197D01*
G01*
X-399606Y1496260D02*
G03*
X-399605Y1496063I13029J0D01*
G01*
X-372047Y1468700D02*
G03*
X-386578Y1483231I-14531J0D01*
G01*
X-93361Y517487D02*
G03*
X-84646Y505512I42362J21671D01*
G01*
X-98583Y539159D02*
G03*
X-97447Y528826I47584J0D01*
G01*
D02*
G03*
X-93361Y517487I46449J10333D01*
G01*
X-84964Y530401D02*
G03*
X-93361Y519578I2776J-10823D01*
G01*
X-98583Y539924D02*
G03*
X-88848Y530189I9735J0D01*
G01*
X-82188Y530751D02*
G03*
X-84963Y530401I0J-11173D01*
G01*
X-91007Y529639D02*
G03*
X-93361Y525675I2159J-3963D01*
G01*
X-88848Y530189D02*
G03*
X-91007Y529639I0J-4513D01*
G01*
X-88820Y549686D02*
G03*
X-98583Y539924I0J-9763D01*
G01*
X-59055Y548425D02*
G03*
X-62099Y549686I-3044J-3044D01*
G01*
X-98583Y559449D02*
G03*
X-88820Y549686I9763J0D01*
G01*
X-86614Y878485D02*
G03*
X-73740Y847361I44056J0D01*
G01*
X-78612Y886486D02*
G03*
X-86614Y878485I0J-8002D01*
G01*
Y894621D02*
G03*
X-78612Y886487I8135J0D01*
G01*
D02*
G03*
X-78479Y886486I133J8134D01*
G01*
X-82461Y906909D02*
G03*
X-86614Y902756I0J-4154D01*
G01*
Y914173D02*
G03*
X-79350Y906909I7264J0D01*
G01*
X56618Y1166959D02*
G03*
X52958Y1158116I8854J-8843D01*
G01*
X56623Y1166964D02*
G03*
X56618Y1166959I8848J-8848D01*
G01*
X52958Y1158116D02*
G03*
X57531Y1153543I4572J0D01*
G01*
X-36049Y285376D02*
G03*
X-35310Y290382I-59087J11283D01*
G01*
X-35310Y290382D02*
G03*
X-35000Y296850I-67367J6469D01*
G01*
X-38266Y277056D02*
G03*
X-36049Y285376I-56870J19603D01*
G01*
X-52729Y253996D02*
G03*
X-49331Y257666I-42407J42663D01*
G01*
X-52738Y253987D02*
G03*
X-52729Y253996I-42398J42672D01*
G01*
X-49331Y257666D02*
G03*
X-38266Y277056I-45805J38993D01*
G01*
X-24291Y1184883D02*
G03*
X-15000Y1194295I-122J9412D01*
G01*
X241142Y291732D02*
G03*
X252953Y279921I11811J0D01*
G01*
X229331D02*
G03*
X241142Y291732I0J11811D01*
G01*
X145729Y1143368D02*
G03*
X142441Y1143543I-3288J-30736D01*
G01*
X197835Y1133268D02*
G03*
X183102Y1139370I-14732J-14732D01*
G01*
X-9502Y1330792D02*
G03*
X-16503Y1336696I-38888J-39014D01*
G01*
X-9389Y1330680D02*
G03*
X-9502Y1330792I-39001J-38902D01*
G01*
D02*
G03*
X-16414Y1336632I-38888J-39014D01*
G01*
X5000Y1296017D02*
G03*
X-9389Y1330680I-48946J0D01*
G01*
X-25000Y461291D02*
G03*
X-36278Y488518I-38505J0D01*
G01*
X607848Y1161837D02*
G03*
X571260Y1198425I-36589J0D01*
G01*
X-62992Y650787D02*
G03*
X-88583Y625197I0J-25591D01*
G01*
X-59188Y686087D02*
G03*
X-35000Y744529I-58506J58441D01*
G01*
X-59221Y686055D02*
G03*
X-59188Y686087I-58474J58474D01*
G01*
X-67720Y691698D02*
G03*
X-45000Y746548I-54850J54850D01*
G01*
X-75693Y697867D02*
G03*
X-55000Y747848I-50014J49981D01*
G01*
X-75710Y697850D02*
G03*
X-75693Y697867I-49998J49998D01*
G01*
X-83500Y704202D02*
G03*
X-65000Y748883I-44707J44681D01*
G01*
X-83513Y704189D02*
G03*
X-83500Y704202I-44694J44694D01*
G01*
X-113174Y674528D02*
G03*
X-128583Y637283I37309J-37245D01*
G01*
X-113142Y674560D02*
G03*
X-113174Y674528I37277J-37277D01*
G01*
X-105503Y668057D02*
G03*
X-118583Y636448I31653J-31609D01*
G01*
X-105481Y668079D02*
G03*
X-105503Y668057I31631J-31631D01*
G01*
X-95675Y663742D02*
G03*
X-108583Y632551I31235J-31191D01*
G01*
X-95654Y663764D02*
G03*
X-95675Y663742I31213J-31213D01*
G01*
X-87033Y658242D02*
G03*
X-98583Y630324I27969J-27919D01*
G01*
X-87008Y658268D02*
G03*
X-87033Y658242I27944J-27944D01*
G01*
X418495Y1096058D02*
G03*
X396811Y1105039I-21684J-21684D01*
G01*
X418548Y1096004D02*
G03*
X418495Y1096058I-21737J-21630D01*
G01*
X433694Y1076978D02*
G03*
X434040Y1076590I3901J3128D01*
G01*
X440738Y1069892D02*
G03*
X492766Y1048341I52028J52028D01*
G01*
X445276Y1079528D02*
G03*
X464285Y1071654I19009J19009D01*
G01*
X428413Y1102686D02*
G03*
X398135Y1115039I-30278J-30929D01*
G01*
X428995Y1102003D02*
G03*
X428413Y1102686I-4080J-2890D01*
G01*
X474803Y1071654D02*
G03*
X491339Y1088189I0J16535D01*
G01*
X541809Y279134D02*
G03*
X562598Y299924I0J20790D01*
G01*
X505626Y288871D02*
G03*
X529134Y279134I23508J23508D01*
G01*
X303477Y279921D02*
G03*
X338169Y294288I0J49070D01*
G01*
X159814Y320501D02*
G03*
X123909Y335357I-35906J-35962D01*
G01*
X159843Y320473D02*
G03*
X159814Y320501I-35934J-35934D01*
G01*
X154149Y312024D02*
G03*
X121960Y325357I-32189J-32189D01*
G01*
X147102Y304929D02*
G03*
X121890Y315357I-25212J-25264D01*
G01*
X147128Y304903D02*
G03*
X147102Y304929I-25238J-25238D01*
G01*
X182141Y269890D02*
G03*
X206240Y259921I24099J24146D01*
G01*
X182118Y269913D02*
G03*
X182141Y269890I24122J24122D01*
G01*
X186647Y279526D02*
G03*
X209859Y269921I23212J23246D01*
G01*
X186630Y279543D02*
G03*
X186647Y279526I23229J23229D01*
G01*
X193307Y287008D02*
G03*
X210416Y279921I17109J17109D01*
G01*
X192567Y350315D02*
G03*
X218059Y339764I25492J25519D01*
G01*
X352611Y280266D02*
G03*
X352625Y280279I-49135J49161D01*
G01*
X346111Y274533D02*
G03*
X352611Y280266I-42635J54894D01*
G01*
X303477Y259921D02*
G03*
X346111Y274533I0J69506D01*
G01*
X415751Y312087D02*
G03*
X362326Y289980I0J-75610D01*
G01*
X362191Y303263D02*
G03*
X355416Y297212I53560J-66787D01*
G01*
X348548Y290389D02*
G03*
X347806Y289783I2778J-4157D01*
G01*
X340289Y282795D02*
G03*
X345275Y287252I-36812J46197D01*
G01*
X303477Y269921D02*
G03*
X340289Y282795I0J59070D01*
G01*
X413844Y322067D02*
G03*
X362589Y303582I1333J-83999D01*
G01*
X419229Y338976D02*
G03*
X357447Y313386I0J-87372D01*
G01*
X-81525Y225199D02*
G03*
X-94488Y194027I31223J-31265D01*
G01*
X-88632Y232234D02*
G03*
X-88680Y232186I38329J-38301D01*
G01*
X-59764Y261103D02*
G03*
X-59756Y261111I-35372J35556D01*
G01*
X-45000Y298014D02*
G03*
X-45000Y298019I-50136J-1355D01*
G01*
X-45260Y291377D02*
G03*
X-45000Y296850I-57417J5473D01*
G01*
X-88680Y232186D02*
G03*
X-104488Y193933I38378J-38253D01*
G01*
X-59756Y261111D02*
G03*
X-45261Y291377I-35380J35548D01*
G01*
X-95166Y240661D02*
G03*
X-114488Y193933I46840J-46728D01*
G01*
X-66236Y269591D02*
G03*
X-55118Y296468I-26929J26878D01*
G01*
X-73355Y276645D02*
G03*
X-65118Y296468I-19735J19824D01*
G01*
X-102083Y247917D02*
G03*
X-124488Y193933I53832J-53983D01*
G01*
X-422675Y314547D02*
G03*
X-422739Y314547I-63J-10000D01*
G01*
X-422018Y314521D02*
G03*
X-422675Y314547I-721J-9974D01*
G01*
X-343232Y273121D02*
G03*
X-396686Y309536I-86402J-69392D01*
G01*
X-416919Y314011D02*
G03*
X-422018Y314521I-13467J-108861D01*
G01*
X-396686Y309536D02*
G03*
X-416919Y314011I-33700J-104386D01*
G01*
X-332173Y262086D02*
G03*
X-275680Y242526I53405J62883D01*
G01*
X-337185Y252933D02*
G03*
X-337230Y252978I-3580J-3490D01*
G01*
X-337185Y252933D02*
G03*
X-336984Y252769I58005J70948D01*
G01*
D02*
G03*
X-270825Y232621I57803J71112D01*
G01*
X-359805Y275552D02*
G03*
X-422738Y304547I-70582J-70403D01*
G01*
X-371732Y381811D02*
G03*
X-372191Y381438I2922J-4057D01*
G01*
X-411037Y366378D02*
G03*
X-372191Y381438I0J57631D01*
G01*
X-411037Y376378D02*
G03*
X-377356Y390329I0J47631D01*
G01*
X-363332Y404354D02*
G03*
X-363406Y404280I23190J-23267D01*
G01*
X-359959Y407286D02*
G03*
X-363332Y404354I19818J-26199D01*
G01*
X-337391Y414961D02*
G03*
X-359959Y407286I0J-37018D01*
G01*
X-356278Y397266D02*
G03*
X-356299Y397244I16136J-16179D01*
G01*
X-340141Y403937D02*
G03*
X-356278Y397266I0J-22851D01*
G01*
X-191929Y374409D02*
G03*
X-218244Y403937I-29724J-0D01*
G01*
X-182087Y382284D02*
G03*
X-214764Y414961I-32677J0D01*
G01*
X-509668Y385683D02*
G03*
X-463114Y366378I46554J46478D01*
G01*
X-520102Y394910D02*
G03*
X-550348Y404173I-30183J-44543D01*
G01*
X-518504Y393785D02*
G03*
X-520102Y394910I-31780J-43417D01*
G01*
X-513151Y389165D02*
G03*
X-518504Y393785I-36505J-36894D01*
G01*
X-512956Y388971D02*
G03*
X-513151Y389165I-36700J-36700D01*
G01*
X-664567Y404173D02*
G03*
X-673044Y400838I0J-12441D01*
G01*
D02*
G03*
X-674075Y399464I3425J-3643D01*
G01*
X-674074D02*
G03*
X-677008Y387241I23998J-12223D01*
G01*
X-502559Y392717D02*
G03*
X-550284Y414173I-47726J-42349D01*
G01*
X-664567D02*
G03*
X-687008Y391732I0J-22441D01*
G01*
X-68065Y1020923D02*
G03*
X-97084Y1008916I0J-41070D01*
G01*
X-97359Y1008641D02*
G03*
X-97432Y1008568I29707J-29786D01*
G01*
X-97175Y1008823D02*
G03*
X-97359Y1008641I29523J-29968D01*
G01*
X-97084Y1008916D02*
G03*
X-97106Y1008894I29019J-29063D01*
G01*
X-97434Y1008566D02*
G03*
X-97790Y1008188I7106J-7036D01*
G01*
X-97432Y1008568D02*
G03*
X-97434Y1008566I7105J-7037D01*
G01*
X-98968Y1007032D02*
G03*
X-99095Y1006905I32728J-32855D01*
G01*
X-98035Y1007935D02*
G03*
X-98968Y1007032I31795J-33758D01*
G01*
X-103483Y1002517D02*
G03*
X-116614Y970740I31884J-31777D01*
G01*
X-103376Y1002624D02*
G03*
X-103483Y1002517I31777J-31884D01*
G01*
X-98035Y1007935D02*
G03*
X-97790Y1008188I-3456J3613D01*
G01*
X-68065Y1020923D02*
G03*
X-51755Y1027679I0J23065D01*
G01*
X-96395Y995463D02*
G03*
X-106614Y970740I24796J-24723D01*
G01*
X-96322Y995536D02*
G03*
X-96395Y995463I24723J-24796D01*
G01*
X-90846Y1000966D02*
G03*
X-90327Y1001530I-3412J3655D01*
G01*
X-90307Y1001551D02*
G03*
X-90327Y1001531I22655J-22695D01*
G01*
X-67652Y1010923D02*
G03*
X-90307Y1001551I0J-32068D01*
G01*
X-91913Y999945D02*
G03*
X-92008Y999850I25673J-25768D01*
G01*
X-90846Y1000966D02*
G03*
X-91913Y999945I24606J-26789D01*
G01*
X-67652Y1010923D02*
G03*
X-44997Y1020295I0J32068D01*
G01*
X-66240Y1000551D02*
G03*
X-84859Y992857I0J-26374D01*
G01*
D02*
G03*
X-84920Y992795I18618J-18680D01*
G01*
X-89305Y988411D02*
G03*
X-96614Y970740I17706J-17671D01*
G01*
X-89270Y988446D02*
G03*
X-89305Y988411I17671J-17706D01*
G01*
X-63882Y1000551D02*
G03*
X-41226Y1009924I0J32068D01*
G01*
X-66240Y990551D02*
G03*
X-77805Y985769I0J-16374D01*
G01*
X-82216Y981357D02*
G03*
X-86614Y970740I10617J-10617D01*
G01*
X-59646Y990551D02*
G03*
X-37131Y999877I0J31841D01*
G01*
X-77805Y985769D02*
G03*
X-77818Y985755I11565J-11592D01*
G01*
X-30582Y1006426D02*
G03*
X-30502Y1006505I-37483J37563D01*
G01*
D02*
G03*
X-15000Y1043988I-37563J37483D01*
G01*
X-41226Y1009924D02*
G03*
X-41206Y1009944I-22655J22695D01*
G01*
X-37628Y1013522D02*
G03*
X-37599Y1013551I-30437J30466D01*
G01*
D02*
G03*
X-25000Y1043988I-30466J30437D01*
G01*
X-44997Y1020295D02*
G03*
X-44977Y1020316I-22655J22695D01*
G01*
X-44684Y1020608D02*
G03*
X-35000Y1043988I-23381J23381D01*
G01*
X-51742Y1027692D02*
G03*
X-45000Y1043988I-16323J16296D01*
G01*
X-51755Y1027679D02*
G03*
X-51742Y1027692I-16309J16309D01*
G01*
X-99009Y830205D02*
G03*
X-98897Y830093I42693J42581D01*
G01*
X-116614Y872786D02*
G03*
X-99009Y830205I60298J0D01*
G01*
X-91846Y837183D02*
G03*
X-91817Y837154I35529J35603D01*
G01*
X-91919Y837257D02*
G03*
X-91846Y837183I35603J35529D01*
G01*
X-106614Y872786D02*
G03*
X-91919Y837257I50298J0D01*
G01*
X-106614Y893620D02*
G03*
X-106614Y893589I5000J-32D01*
G01*
X-84820Y844299D02*
G03*
X-84811Y844291I28503J28487D01*
G01*
X-96614Y872786D02*
G03*
X-84820Y844299I40298J0D01*
G01*
X-73740Y847361D02*
G03*
X-73711Y847332I31181J31123D01*
G01*
X-56066Y829688D02*
G03*
X-56094Y829716I-50975J-50906D01*
G01*
X-35000Y778782D02*
G03*
X-56066Y829688I-72041J0D01*
G01*
X-45000Y778679D02*
G03*
X-63244Y822724I-62289J0D01*
G01*
X-71380Y816718D02*
G03*
X-71406Y816744I-39634J-39582D01*
G01*
X-55000Y777136D02*
G03*
X-71380Y816718I-56014J0D01*
G01*
X-65000Y775065D02*
G03*
X-79942Y811137I-51014J0D01*
G01*
X-307382Y1058563D02*
G03*
X-252109Y1035669I55273J55273D01*
G01*
X-347738Y1098919D02*
G03*
X-371260Y1108661I-23523J-23528D01*
G01*
X-306700Y1072054D02*
G03*
X-242938Y1045669I63761J63849D01*
G01*
X-341449Y1106804D02*
G03*
X-372813Y1119291I-31364J-33143D01*
G01*
X-84646Y1642749D02*
G03*
X-77631Y1625763I23965J-45D01*
G01*
X-25000Y1557480D02*
G03*
X-38993Y1591279I-47815J0D01*
G01*
X-20817Y1474491D02*
G03*
X-5000Y1512992I-38950J38501D01*
G01*
X-59252Y1478740D02*
G03*
X-25000Y1512992I0J34252D01*
G01*
X-74409Y1478740D02*
G03*
X-103858Y1449291I0J-29449D01*
G01*
X-74272Y1468248D02*
G03*
X-93858Y1448661I-0J-19586D01*
G01*
X-27978Y1481472D02*
G03*
X-15000Y1512992I-31789J31521D01*
G01*
X-30580Y1478839D02*
G03*
X-30576Y1478843I-3571J3500D01*
G01*
X-30885Y1478553D02*
G03*
X-30580Y1478839I-3266J3786D01*
G01*
X-53724Y1468248D02*
G03*
X-52980Y1468308I-32J5000D01*
G01*
X-30960Y1478489D02*
G03*
X-30885Y1478553I-29315J34503D01*
G01*
X-52980Y1468308D02*
G03*
X-30960Y1478489I-7296J44684D01*
G01*
X-45000Y335736D02*
G03*
X-55118Y345854I-10118J0D01*
G01*
D02*
G03*
X-45000Y355972I0J10118D01*
G01*
X-75524Y345854D02*
G03*
X-45000Y376378I0J30524D01*
G01*
Y316878D02*
G03*
X-73976Y345854I-28976J0D01*
G01*
X35000Y391479D02*
G03*
X68898Y357581I33898J0D01*
G01*
X35888D02*
G03*
X35000Y356693I0J-888D01*
G01*
Y367857D02*
G03*
X45276Y357581I10276J0D01*
G01*
D02*
G03*
X35000Y347305I0J-10276D01*
G01*
X68898Y357581D02*
G03*
X35000Y323683I0J-33898D01*
G01*
X173228Y338976D02*
G03*
X128313Y357581I-44916J-44916D01*
G01*
X-174694Y316219D02*
G03*
X-174719Y316187I3982J-3024D01*
G01*
X-171683Y320111D02*
G03*
X-172106Y319626I3551J-3520D01*
G01*
X-168789Y322689D02*
G03*
X-169967Y321827I2330J-4424D01*
G01*
X-155585Y325854D02*
G03*
X-168790Y322689I0J-29127D01*
G01*
X-164370Y335854D02*
G03*
X-174145Y331791I0J-13791D01*
G01*
X-187215Y332799D02*
G03*
X-187220Y332793I3982J-3025D01*
G01*
X-186769Y333310D02*
G03*
X-187215Y332799I3536J-3536D01*
G01*
X-164370Y345854D02*
G03*
X-181193Y338886I0J-23791D01*
G01*
X-275680Y242527D02*
G03*
X-233678Y259266I1073J58370D01*
G01*
X-55118Y309353D02*
G03*
X-81620Y335854I-26501J0D01*
G01*
X-182087Y382284D02*
G03*
X-165657Y365854I16430J0D01*
G01*
X-191929Y374409D02*
G03*
X-173374Y355854I18555J0D01*
G01*
X594522Y1166142D02*
G03*
X574892Y1184252I-19630J-1584D01*
G01*
X68898Y117323D02*
G03*
X94488Y142913I0J25590D01*
G01*
X116183Y113172D02*
G03*
X120760Y112770I4577J25870D01*
G01*
X94488Y139042D02*
G03*
X116183Y113172I26272J0D01*
G01*
X94488Y173477D02*
G03*
X79599Y209422I-50834J0D01*
G01*
X61828Y227193D02*
G03*
X61813Y227209I-3536J-3535D01*
G01*
X58835Y230186D02*
G03*
X58950Y230071I7125J7017D01*
G01*
X25169Y283335D02*
G03*
X41811Y247210I57055J4389D01*
G01*
X25169Y283335D02*
G03*
X25158Y283448I-4983J-411D01*
G01*
X25000Y285178D02*
G03*
X25027Y284685I5000J32D01*
G01*
X45566Y498833D02*
G03*
X25000Y449183I49650J-49650D01*
G01*
X66131Y519399D02*
G03*
X95000Y589095I-69696J69696D01*
G01*
Y629921D02*
G03*
X86692Y649978I-28365J0D01*
G01*
X55964Y680706D02*
G03*
X55949Y680721I-3536J-3535D01*
G01*
X55532Y681138D02*
G03*
X55723Y680948I61967J61775D01*
G01*
X30000Y742913D02*
G03*
X55532Y681138I87499J0D01*
G01*
X54384Y842957D02*
G03*
X30000Y781890I64276J-61067D01*
G01*
X54384Y842957D02*
G03*
X54525Y843110I-3612J3457D01*
G01*
X55227Y843841D02*
G03*
X54525Y843110I21286J-21141D01*
G01*
X55372Y843986D02*
G03*
X55227Y843841I21141J-21286D01*
G01*
X89910Y878524D02*
G03*
X89987Y878601I-30322J30393D01*
G01*
D02*
G03*
X102520Y908917I-30399J30316D01*
G01*
Y945271D02*
G03*
X88174Y979906I-48981J0D01*
G01*
D02*
G03*
X88138Y979941I-34635J-34635D01*
G01*
D02*
G03*
X72302Y990516I-34600J-34670D01*
G01*
X72109Y990602D02*
G03*
X72302Y990516I2151J4514D01*
G01*
X-33858Y1430830D02*
G03*
X-9722Y1406693I24137J0D01*
G01*
X38321Y1037315D02*
G03*
X38353Y1037283I32265J32204D01*
G01*
X25000Y1069393D02*
G03*
X38321Y1037315I45587J126D01*
G01*
X72926Y1113504D02*
G03*
X35000Y1075578I0J-37926D01*
G01*
Y1069518D02*
G03*
X45423Y1044355I35587J0D01*
G01*
X59988Y1043932D02*
G03*
X83358Y1034252I23370J23370D01*
G01*
X72926Y1103504D02*
G03*
X45000Y1075578I0J-27926D01*
G01*
Y1069518D02*
G03*
X52494Y1051426I25587J0D01*
G01*
X98428Y1004587D02*
G03*
X75074Y1014252I-23354J-23384D01*
G01*
X51704Y1023932D02*
G03*
X75074Y1014252I23370J23370D01*
G01*
X102570Y1014587D02*
G03*
X79216Y1024252I-23354J-23384D01*
G01*
X55846Y1033932D02*
G03*
X79216Y1024252I23370J23370D01*
G01*
X106712Y1024587D02*
G03*
X83358Y1034252I-23354J-23384D01*
G01*
X142520Y956626D02*
G03*
X119820Y1011479I-77626J0D01*
G01*
X106727Y1024572D02*
G03*
X106712Y1024587I-23369J-23369D01*
G01*
X132520Y956626D02*
G03*
X112760Y1004397I-67626J0D01*
G01*
X102585Y1014572D02*
G03*
X102570Y1014587I-23369J-23369D01*
G01*
X122520Y956626D02*
G03*
X105664Y997351I-57626J0D01*
G01*
X98443Y1004572D02*
G03*
X98428Y1004587I-23369J-23369D01*
G01*
X322488Y1169319D02*
G03*
X363152Y1146063I40663J23921D01*
G01*
X407268D02*
G03*
X456693Y1166535I-0J69897D01*
G01*
X266219Y1406643D02*
G03*
X280709Y1441625I-34982J34982D01*
G01*
X253178Y1393602D02*
G03*
X253162Y1393586I7055J-7087D01*
G01*
X246743Y1387166D02*
G03*
X246730Y1387153I7122J-7020D01*
G01*
X246816Y1387240D02*
G03*
X246743Y1387166I7048J-7094D01*
G01*
X246742D02*
G03*
X246774Y1387198I-43969J43937D01*
G01*
X246730Y1387153D02*
G03*
X246742Y1387166I-43956J43949D01*
G01*
X246678Y1387102D02*
G03*
X246730Y1387153I-43905J44001D01*
G01*
X293450Y1419732D02*
G03*
X306299Y1450753I-31020J31020D01*
G01*
X38386Y1158116D02*
G03*
X52958Y1143543I14572J0D01*
G01*
X41089Y1167354D02*
G03*
X38386Y1160827I6527J-6527D01*
G01*
X35433Y1202165D02*
G03*
X56232Y1210781I0J29414D01*
G01*
X18320Y1181890D02*
G03*
X18863Y1181894I0J32158D01*
G01*
X18194Y1181890D02*
G03*
X18320Y1181890I126J13320D01*
G01*
X18189Y1181890D02*
G03*
X18194Y1181890I131J13320D01*
G01*
X18189Y1181890D02*
G03*
X5000Y1168701I0J-13189D01*
G01*
Y1195210D02*
G03*
X18189Y1181890I13320J0D01*
G01*
X18863Y1181894D02*
G03*
X57956Y1198362I-674J56235D01*
G01*
X18320Y1181891D02*
G03*
X18863Y1181894I-131J56239D01*
G01*
X18194Y1181890D02*
G03*
X18320Y1181891I-5J56239D01*
G01*
X15000Y1219531D02*
G03*
X32365Y1202165I17365J0D01*
G01*
X25000Y1224409D02*
G03*
X36417Y1212992I11417J0D01*
G01*
D02*
G03*
X48179Y1217864I0J16633D01*
G01*
X253730Y1380012D02*
G03*
X253864Y1380146I-50957J51091D01*
G01*
X233275Y1402960D02*
G03*
X244932Y1431102I-28142J28142D01*
G01*
X-38484Y1141831D02*
G03*
X-26772Y1153543I0J11713D01*
G01*
X-53140Y1215936D02*
G03*
X-37007Y1209253I16133J16133D01*
G01*
D02*
G03*
X-25000Y1221260I0J12007D01*
G01*
X-26772Y1153543D02*
G03*
X-32244Y1166755I-18683J0D01*
G01*
X-379921Y1417717D02*
G03*
X-335819Y1399449I44103J44103D01*
G01*
X-276589Y1398785D02*
G03*
X-277140Y1398819I-582J-4966D01*
G01*
X-268921Y1397495D02*
G03*
X-276589Y1398785I-18481J-86423D01*
G01*
X-232121Y1366632D02*
G03*
X-270972Y1387707I-55281J-55560D01*
G01*
X-270972Y1387707D02*
G03*
X-271259Y1387758I-1016J-4896D01*
G01*
D02*
G03*
X-285728Y1388819I-14470J-98159D01*
G01*
X-224802Y1373454D02*
G03*
X-287479Y1399449I-62601J-62382D01*
G01*
X-217839Y1380635D02*
G03*
X-287402Y1409449I-69563J-69562D01*
G01*
X335154Y314173D02*
G03*
X341802Y316923I0J9413D01*
G01*
X357412Y332533D02*
G03*
X360236Y339370I-6865J6837D01*
G01*
X254845Y385827D02*
G03*
X244882Y375863I0J-9963D01*
G01*
Y358442D02*
G03*
X261592Y341732I16710J0D01*
G01*
X206693Y1144095D02*
G03*
X213779Y1137008I7087J0D01*
G01*
X-223549Y1056299D02*
G03*
X-200433Y1065874I0J32691D01*
G01*
X-16415Y1323563D02*
G03*
X-48295Y1336863I-31975J-31786D01*
G01*
X-83858Y1364231D02*
G03*
X-56341Y1336863I27517J149D01*
G01*
X-83858Y1364380D02*
G03*
X-83858Y1364231I27518J0D01*
G01*
X-5000Y1296017D02*
G03*
X-16266Y1323414I-38946J0D01*
G01*
X-15000Y1563689D02*
G03*
X-30375Y1600847I-52591J0D01*
G01*
X-59055Y1654724D02*
G03*
X-41238Y1611711I60831J0D01*
G01*
X160418Y1076984D02*
G03*
X160459Y1076942I20541J20457D01*
G01*
X126992Y1110410D02*
G03*
X95458Y1123504I-31534J-31424D01*
G01*
X135277Y1102124D02*
G03*
X135219Y1102182I-7087J-7055D01*
G01*
X119889Y1103371D02*
G03*
X95458Y1113504I-24431J-24385D01*
G01*
X168165Y1055094D02*
G03*
X168149Y1055110I-7071J-7071D01*
G01*
X175313Y1047947D02*
G03*
X221181Y1028898I45868J45699D01*
G01*
X235929D02*
G03*
X268200Y1042278I0J45605D01*
G01*
X278641Y1052719D02*
G03*
X278538Y1052616I7036J-7106D01*
G01*
X322713Y1096767D02*
G03*
X322249Y1096327I6643J-7475D01*
G01*
X371260Y1115039D02*
G03*
X322713Y1096767I0J-73626D01*
G01*
X146244Y1062874D02*
G03*
X146364Y1062753I34715J34567D01*
G01*
X112795Y1096323D02*
G03*
X95458Y1103504I-17337J-17337D01*
G01*
X333164Y403844D02*
G03*
X311695Y412736I-21469J-21469D01*
G01*
X-226638Y252164D02*
G03*
X-226572Y252231I-7040J7102D01*
G01*
X-229536Y249266D02*
G03*
X-230593Y248564I2216J-4482D01*
G01*
X-270825Y232621D02*
G03*
X-230594Y248564I-3781J68275D01*
G01*
X-219606Y259197D02*
G03*
X-219522Y259281I-55939J56038D01*
G01*
X-316829Y269191D02*
G03*
X-285607Y254120I35746J34178D01*
G01*
X-285447Y254103D02*
G03*
X-285607Y254120I-617J-4962D01*
G01*
X-285447Y254103D02*
G03*
X-235750Y271337I7112J59764D01*
G01*
X525901Y1048341D02*
G03*
X607848Y1130289I0J81948D01*
G01*
X-157291Y1187015D02*
G03*
X-179134Y1196063I-21843J-21843D01*
G01*
X-149606Y1168463D02*
G03*
X-157275Y1186999I-26236J0D01*
G01*
D02*
G03*
X-157291Y1187015I-18568J-18536D01*
G01*
X-149606Y1158615D02*
G03*
X-132822Y1141831I16784J0D01*
G01*
X-438583Y1166929D02*
G03*
X-471654Y1200000I-33071J0D01*
G01*
X150514Y388559D02*
G03*
X215461Y415461I-0J91849D01*
G01*
X81741Y315357D02*
G03*
X65000Y298616I0J-16741D01*
G01*
X80250Y325357D02*
G03*
X55000Y300107I0J-25250D01*
G01*
X65051Y286405D02*
G03*
X67258Y279198I17173J1319D01*
G01*
X-88583Y593819D02*
G03*
X-70747Y575984I17835J0D01*
G01*
X360236Y367717D02*
G03*
X353833Y383175I-21861J0D01*
G01*
X667205Y394212D02*
G03*
X631195Y409114I-36010J-36058D01*
G01*
X653517Y314173D02*
G03*
X673725Y322543I0J28578D01*
G01*
D02*
G03*
X673735Y322554I-20207J20207D01*
G01*
X667229Y394188D02*
G03*
X667207Y394210I-35992J-35932D01*
G01*
D02*
G03*
X667199Y394218I-35970J-35954D01*
G01*
X673735Y322554D02*
G03*
X682095Y342751I-20218J20197D01*
G01*
X667229Y394188D02*
G03*
X667207Y394210I-36034J-36034D01*
G01*
X682095Y358257D02*
G03*
X667229Y394188I-50857J0D01*
G01*
X-65118Y309353D02*
G03*
X-81620Y325854I-16501J0D01*
G01*
X26443Y40223D02*
G03*
X42839Y51625I-23691J51556D01*
G01*
X2752Y35040D02*
G03*
X26443Y40223I0J56739D01*
G01*
X-88594Y54931D02*
G03*
X-40696Y35040I47898J47725D01*
G01*
X-124488Y128935D02*
G03*
X-97517Y63853I92006J0D01*
G01*
X68806Y62419D02*
G03*
X42839Y51625I45J-36739D01*
G01*
X45000Y414212D02*
G03*
X90653Y368559I45653J0D01*
G01*
X55000Y414212D02*
G03*
X90653Y378559I35653J0D01*
G01*
X65000Y414212D02*
G03*
X90653Y388559I25653J0D01*
G01*
X-101246Y355854D02*
G03*
X-55000Y402100I0J46246D01*
G01*
X-102759Y365854D02*
G03*
X-65000Y403613I0J37759D01*
G01*
X-128421Y534158D02*
G03*
X-112282Y491581I77423J5001D01*
G01*
X-112258Y491549D02*
G03*
X-112282Y491581I-3996J-3005D01*
G01*
X-112257Y491549D02*
G03*
X-103146Y481586I57365J43312D01*
G01*
X-128422Y534158D02*
G03*
X-128583Y535088I-4985J-384D01*
G01*
X-61616Y453559D02*
G03*
X-65185Y457766I-28417J-20488D01*
G01*
X-55000Y433071D02*
G03*
X-61616Y453559I-35033J0D01*
G01*
X-65185Y457766D02*
G03*
X-65238Y457818I-3530J-3541D01*
G01*
X-118583Y547289D02*
G03*
X-118583Y547244I10000J-45D01*
G01*
X-98369Y490951D02*
G03*
X-98359Y490940I3575J3495D01*
G01*
X-98435Y491016D02*
G03*
X-98502Y491083I-3591J-3479D01*
G01*
X-98502Y491083D02*
G03*
X-98553Y491134I-3578J-3493D01*
G01*
X-114466Y515933D02*
G03*
X-98741Y491323I63468J23226D01*
G01*
X-118583Y539155D02*
G03*
X-114466Y515933I67584J4D01*
G01*
X-118583Y539231D02*
G03*
X-118583Y539155I67584J-72D01*
G01*
X80192Y335357D02*
G03*
X45000Y300165I0J-35192D01*
G01*
X55051Y286065D02*
G03*
X63018Y268430I27173J1659D01*
G01*
X338488Y384378D02*
G03*
X338479Y384387I-3520J-3551D01*
G01*
X345017Y377849D02*
G03*
X345008Y377858I-3560J-3511D01*
G01*
X346457Y374338D02*
G03*
X345017Y377849I-5000J0D01*
G01*
X338479Y384387D02*
G03*
X334968Y385827I-3511J-3560D01*
G01*
X98604Y508934D02*
G03*
X123765Y557751I-63604J63675D01*
G01*
X120335Y544009D02*
G03*
X125000Y572609I-85335J28600D01*
G01*
X486982Y1128347D02*
G03*
X487033Y1128284I3929J3092D01*
G01*
X491339Y1116351D02*
G03*
X487033Y1128284I-18688J0D01*
G01*
X486866Y1128495D02*
G03*
X486279Y1129151I-6551J-5266D01*
G01*
D02*
G03*
X486238Y1129193I-5964J-5923D01*
G01*
X485860Y1129561D02*
G03*
X472123Y1135039I-13738J-14483D01*
G01*
X485949Y1129476D02*
G03*
X485860Y1129560I-13826J-14398D01*
G01*
X486088Y1129341D02*
G03*
X485949Y1129476I-13965J-14263D01*
G01*
X486238Y1129193D02*
G03*
X486088Y1129341I-14115J-14115D01*
G01*
X203937Y1118535D02*
G03*
X197835Y1133268I-20835J0D01*
G01*
X78320Y488649D02*
G03*
X55000Y432401I56178J-56249D01*
G01*
X125000Y633323D02*
G03*
X124783Y635863I-15000J0D01*
G01*
X77202Y823389D02*
G03*
X60000Y781890I41458J-41500D01*
G01*
Y742913D02*
G03*
X76792Y702305I57499J0D01*
G01*
X124510Y637468D02*
G03*
X107851Y671245I-57875J-7546D01*
G01*
X124510Y637468D02*
G03*
X124527Y637354I4952J690D01*
G01*
X111014Y857202D02*
G03*
X132520Y908917I-51427J51715D01*
G01*
X358661Y1135039D02*
G03*
X337265Y1131278I0J-62731D01*
G01*
D02*
G03*
X314376Y1116738I21397J-58970D01*
G01*
X203937Y1073889D02*
G03*
X228928Y1048898I24991J0D01*
G01*
X235929D02*
G03*
X251800Y1054410I0J25605D01*
G01*
X239630Y1394196D02*
G03*
X254932Y1431102I-36857J36906D01*
G01*
X306299Y1480315D02*
G03*
X294488Y1492126I-11811J0D01*
G01*
X265748D02*
G03*
X254932Y1481310I0J-10816D01*
G01*
X224256Y1378804D02*
G03*
X225344Y1379909I-70712J70709D01*
G01*
X15000Y1296017D02*
G03*
X-2265Y1337698I-58946J0D01*
G01*
X-31102Y1378228D02*
G03*
X-22835Y1358268I28228J0D01*
G01*
X-31102Y1392913D02*
G03*
X-42913Y1404724I-11811J0D01*
G01*
X-73622D02*
G03*
X-83858Y1394488I0J-10236D01*
G01*
X-93858Y1364380D02*
G03*
X-55934Y1326457I37924J0D01*
G01*
X-27079Y1316905D02*
G03*
X-50191Y1326457I-23111J-23185D01*
G01*
X-103858Y1364380D02*
G03*
X-55934Y1316457I47924J0D01*
G01*
X-34125Y1309809D02*
G03*
X-50191Y1316457I-16066J-16089D01*
G01*
X-5000Y1021624D02*
G03*
X11774Y990441I37372J0D01*
G01*
D02*
G03*
X32283Y984075I20509J29855D01*
G01*
X33574Y984252D02*
G03*
X32371Y984097I32J-5000D01*
G01*
X56807Y984115D02*
G03*
X57584Y984070I1244J14948D01*
G01*
X56807Y984115D02*
G03*
X53539Y984252I-3269J-38844D01*
G01*
X67686Y981634D02*
G03*
X57584Y984070I-10600J-21791D01*
G01*
X67686Y981633D02*
G03*
X68415Y981302I6574J13483D01*
G01*
X92520Y945271D02*
G03*
X81105Y972832I-38981J0D01*
G01*
D02*
G03*
X68415Y981302I-27567J-27561D01*
G01*
X-25000Y1085039D02*
G03*
X-61929Y1121968I-36929J0D01*
G01*
X-35000Y1080315D02*
G03*
X-66653Y1111968I-31654J0D01*
G01*
X-45000Y1076772D02*
G03*
X-70197Y1101968I-25197J0D01*
G01*
X-20728Y214311D02*
G03*
X-31890Y203150I0J-11162D01*
G01*
X-31890Y183511D02*
G03*
X-15681Y170927I12989J-0D01*
G01*
X69401Y205364D02*
G03*
X68824Y206055I-4112J-2844D01*
G01*
X70866Y201820D02*
G03*
X69429Y205328I-5000J0D01*
G01*
D02*
G03*
X69426Y205332I-3563J-3508D01*
G01*
X62008Y212871D02*
G03*
X58497Y214311I-3511J-3560D01*
G01*
X241142Y331622D02*
G03*
X233000Y339764I-8142J0D01*
G01*
X192554Y350328D02*
G03*
X192567Y350315I25506J25506D01*
G01*
X192554Y350328D02*
G03*
X148541Y368559I-44013J-44013D01*
G01*
X488864Y305634D02*
G03*
X451787Y322021I-39788J-39882D01*
G01*
X488911Y305586D02*
G03*
X488864Y305634I-39835J-39834D01*
G01*
X503002Y277353D02*
G03*
X528346Y266142I25344J23041D01*
G01*
X481840Y298515D02*
G03*
X449076Y312087I-32764J-32764D01*
G01*
X562598Y316903D02*
G03*
X553689Y338437I-30479J0D01*
G01*
D02*
G03*
X553671Y338455I-21570J-21534D01*
G01*
X580645Y341917D02*
G03*
X583661Y341732I3016J24551D01*
G01*
X559111Y363452D02*
G03*
X580645Y341917I24551J3016D01*
G01*
X558926Y366468D02*
G03*
X559111Y363452I24735J0D01*
G01*
X571223Y385571D02*
G03*
X558926Y373274I0J-12297D01*
G01*
X661417Y375273D02*
G03*
X651120Y385571I-10298J0D01*
G01*
X459853Y381260D02*
G03*
X520256Y406279I0J85423D01*
G01*
X580659Y431299D02*
G03*
X520256Y406279I0J-85423D01*
G01*
X359197Y392505D02*
G03*
X414113Y371260I54916J60352D01*
G01*
X359197Y392505D02*
G03*
X358612Y392962I-3362J-3701D01*
G01*
X363487Y402230D02*
G03*
X414114Y381260I50627J50627D01*
G01*
X342495Y423222D02*
G03*
X289793Y445039I-52702J-52745D01*
G01*
X342516Y423201D02*
G03*
X342495Y423222I-52723J-52723D01*
G01*
X336910Y414665D02*
G03*
X287722Y435039I-49188J-49188D01*
G01*
X236881Y436115D02*
G03*
X231510Y431510I27292J-37269D01*
G01*
X258908Y445039D02*
G03*
X237312Y436473I0J-31507D01*
G01*
X236881Y436115D02*
G03*
X237312Y436473I-2977J4017D01*
G01*
X258908Y435039D02*
G03*
X243701Y428740I0J-21507D01*
G01*
X134488Y174957D02*
G03*
X108359Y238097I-89355J0D01*
G01*
X35000Y286191D02*
G03*
X35065Y285127I10000J78D01*
G01*
X35000Y286346D02*
G03*
X35000Y286191I10000J-77D01*
G01*
X35084Y284911D02*
G03*
X48880Y254283I47139J2813D01*
G01*
X35084Y284911D02*
G03*
X35065Y285127I-4989J-325D01*
G01*
X65986Y237178D02*
G03*
X65961Y237203I-3536J-3535D01*
G01*
X45051Y285784D02*
G03*
X45000Y286269I-4992J-275D01*
G01*
X45051Y285784D02*
G03*
X55943Y261363I37173J1940D01*
G01*
X108359Y238097D02*
G03*
X108317Y238140I-63226J-63141D01*
G01*
X134488Y169870D02*
G03*
X151588Y152770I17100J0D01*
G01*
X124488Y174016D02*
G03*
X101239Y230209I-79534J0D01*
G01*
X124488Y165728D02*
G03*
X147446Y142770I22958J0D01*
G01*
X114488Y174016D02*
G03*
X94131Y223175I-69534J0D01*
G01*
X104488Y173477D02*
G03*
X86670Y216493I-60834J0D01*
G01*
X114488Y161586D02*
G03*
X143304Y132770I28816J0D01*
G01*
X104488Y157444D02*
G03*
X139162Y122770I34673J0D01*
G01*
X-114488Y128935D02*
G03*
X-90469Y70948I82006J0D01*
G01*
X-81366Y61845D02*
G03*
X-40696Y45040I40670J40811D01*
G01*
X-81507Y61985D02*
G03*
X-81366Y61845I40811J40670D01*
G01*
X-81534Y62012D02*
G03*
X-81507Y61985I40837J40643D01*
G01*
X-74311Y68932D02*
G03*
X-40696Y55040I33615J33723D01*
G01*
X-104488Y130271D02*
G03*
X-82454Y77074I75231J0D01*
G01*
X-74419Y69040D02*
G03*
X-74311Y68932I33723J33615D01*
G01*
X-74463Y69084D02*
G03*
X-74419Y69040I33767J33572D01*
G01*
X-67258Y76020D02*
G03*
X-40696Y65040I26562J26635D01*
G01*
X-75426Y84189D02*
G03*
X-75339Y84102I46168J46082D01*
G01*
X-94488Y130270D02*
G03*
X-75426Y84189I65231J0D01*
G01*
X-67331Y76094D02*
G03*
X-67258Y76020I26635J26562D01*
G01*
X-67394Y76157D02*
G03*
X-67331Y76094I26697J26498D01*
G01*
X35783Y58711D02*
G03*
X35801Y58729I-33031J33068D01*
G01*
X2752Y45040D02*
G03*
X35783Y58711I0J46739D01*
G01*
X31640Y68711D02*
G03*
X31659Y68729I-33031J33068D01*
G01*
X-1390Y55040D02*
G03*
X31640Y68711I0J46739D01*
G01*
X60236Y92419D02*
G03*
X27768Y78981I0J-45941D01*
G01*
X26094Y77306D02*
G03*
X26172Y77384I-29669J29748D01*
G01*
X-3575Y65040D02*
G03*
X26094Y77306I0J42014D01*
G01*
X59449Y102426D02*
G03*
X21249Y86604I0J-54022D01*
G01*
X27768Y78981D02*
G03*
X27751Y78963I32468J-32503D01*
G01*
X31678Y68748D02*
G03*
X31659Y68729I33031J-33068D01*
G01*
X64709Y82419D02*
G03*
X31678Y68748I0J-46739D01*
G01*
X35820Y58748D02*
G03*
X35801Y58729I33031J-33068D01*
G01*
X68851Y72419D02*
G03*
X35820Y58748I0J-46739D01*
G01*
X19043Y84397D02*
G03*
X19062Y84416I-22619J22656D01*
G01*
X-408Y75197D02*
G03*
X19043Y84397I-3168J31857D01*
G01*
X-3575Y75040D02*
G03*
X-408Y75197I0J32014D01*
G01*
X-84488Y130270D02*
G03*
X-68326Y91231I55231J0D01*
G01*
X-60206Y83111D02*
G03*
X-40696Y75040I19510J19544D01*
G01*
X-60223Y83128D02*
G03*
X-60206Y83111I19527J19527D01*
G01*
X-68326Y91231D02*
G03*
X-68312Y91216I39068J39040D01*
G01*
X-502559Y392717D02*
G03*
X-463114Y376378I39445J39445D01*
G01*
X-571808Y245449D02*
G03*
X-572048Y245410I681J-4954D01*
G01*
X-686352Y305567D02*
G03*
X-674803Y283465I41014J7362D01*
G01*
X-687008Y312930D02*
G03*
X-686352Y305567I41670J0D01*
G01*
X-575422Y244962D02*
G03*
X-573770Y245099I0J10000D01*
G01*
X-576505Y244962D02*
G03*
X-576755Y244954I32J-5000D01*
G01*
X-633438Y252653D02*
G03*
X-594807Y244890I38631J92237D01*
G01*
X-665518Y274179D02*
G03*
X-633438Y252653I70711J70711D01*
G01*
X-570565Y245636D02*
G03*
X-568322Y246102I-5419J31726D01*
G01*
X-571808Y245449D02*
G03*
X-570565Y245636I-4176J31913D01*
G01*
X-568144Y246144D02*
G03*
X-568322Y246102I1050J-4889D01*
G01*
X-568144Y246144D02*
G03*
X-538332Y262293I-12171J58061D01*
G01*
X-570349Y255899D02*
G03*
X-545438Y269328I-9966J48306D01*
G01*
X-622835Y267717D02*
G03*
X-592042Y254962I30793J30793D01*
G01*
X-573294Y255341D02*
G03*
X-570595Y255841I-2690J22021D01*
G01*
X-570349Y255899D02*
G03*
X-570595Y255841I1025J-4894D01*
G01*
X-573294Y255341D02*
G03*
X-573543Y255302I642J-4959D01*
G01*
X-526828Y287938D02*
G03*
X-526907Y287860I64300J-64386D01*
G01*
X-462528Y314547D02*
G03*
X-526828Y287938I0J-90995D01*
G01*
X-462528Y304547D02*
G03*
X-519800Y280824I0J-80995D01*
G01*
X-334646Y312205D02*
G03*
X-316829Y269191I60830J0D01*
G01*
X-108583Y540945D02*
G03*
X-108583Y540934I5000J32D01*
G01*
X-91342Y498066D02*
G03*
X-91348Y498072I-3541J-3530D01*
G01*
X-108583Y539155D02*
G03*
X-91678Y498402I57584J3D01*
G01*
X-35000Y433071D02*
G03*
X-51181Y472047I-55033J0D01*
G01*
X-58169Y464893D02*
G03*
X-58190Y464914I-31864J-31822D01*
G01*
X-45000Y433071D02*
G03*
X-58169Y464893I-45033J0D01*
G01*
X-77689Y456129D02*
G03*
X-77709Y456149I-30703J-30662D01*
G01*
X-65000Y425466D02*
G03*
X-77689Y456129I-43392J0D01*
G01*
X2684Y669220D02*
G03*
X20000Y711024I-41804J41804D01*
G01*
X55355Y494481D02*
G03*
X35000Y445339I49142J-49142D01*
G01*
X65355Y490339D02*
G03*
X45000Y441197I49142J-49142D01*
G01*
X85355Y481543D02*
G03*
X65000Y432401I49142J-49142D01*
G01*
X105711Y501898D02*
G03*
X135000Y572609I-70711J70711D01*
G01*
X85711Y510694D02*
G03*
X115000Y581405I-70711J70711D01*
G01*
X75711Y514836D02*
G03*
X105000Y585547I-70711J70711D01*
G01*
X135000Y633323D02*
G03*
X134629Y637616I-25000J0D01*
G01*
X115055Y678184D02*
G03*
X114975Y678264I-48420J-48263D01*
G01*
X134400Y638957D02*
G03*
X115055Y678184I-67765J-9036D01*
G01*
X134400Y638957D02*
G03*
X134418Y638841I4950J703D01*
G01*
X115000Y633323D02*
G03*
X114928Y634169I-5000J0D01*
G01*
X114617Y635993D02*
G03*
X114642Y635832I4953J685D01*
G01*
X100878Y664077D02*
G03*
X100816Y664139I-34243J-34155D01*
G01*
X114617Y635993D02*
G03*
X100878Y664077I-47982J-6072D01*
G01*
X93787Y657026D02*
G03*
X93763Y657050I-27152J-27104D01*
G01*
X105000Y629921D02*
G03*
X93787Y657026I-38365J0D01*
G01*
X47076Y849783D02*
G03*
X20000Y781890I71584J-67893D01*
G01*
X48139Y850895D02*
G03*
X47076Y849783I28374J-28195D01*
G01*
X48318Y851074D02*
G03*
X48139Y850895I28195J-28374D01*
G01*
X62316Y836787D02*
G03*
X61921Y836378I14197J-14087D01*
G01*
X62425Y836897D02*
G03*
X62316Y836787I14087J-14197D01*
G01*
X61729Y836169D02*
G03*
X40000Y781890I56931J-54279D01*
G01*
X62778Y688035D02*
G03*
X62802Y688011I54721J54878D01*
G01*
X62620Y688192D02*
G03*
X62778Y688035I54878J54721D01*
G01*
X40000Y742913D02*
G03*
X62620Y688192I77499J0D01*
G01*
X69831Y695124D02*
G03*
X69872Y695083I47668J47789D01*
G01*
X69709Y695245D02*
G03*
X69831Y695124I47789J47668D01*
G01*
X50000Y742913D02*
G03*
X69709Y695245I67499J0D01*
G01*
X69406Y829736D02*
G03*
X69217Y829539I7106J-7036D01*
G01*
X69477Y829807D02*
G03*
X69406Y829736I7036J-7106D01*
G01*
X69003Y829307D02*
G03*
X69055Y829362I-3634J3434D01*
G01*
X69003Y829307D02*
G03*
X50000Y781890I49657J-47417D01*
G01*
X83898Y709341D02*
G03*
X83912Y709327I33600J33573D01*
G01*
X70000Y742913D02*
G03*
X83898Y709341I47499J0D01*
G01*
X84252Y816298D02*
G03*
X70000Y781890I34408J-34408D01*
G01*
X118338Y850383D02*
G03*
X142520Y908917I-58750J58533D01*
G01*
X118121Y850166D02*
G03*
X118338Y850383I-58533J58750D01*
G01*
X104163Y864493D02*
G03*
X122520Y908917I-44575J44424D01*
G01*
X104011Y864341D02*
G03*
X104163Y864493I-44424J44575D01*
G01*
X97075Y871547D02*
G03*
X112520Y908917I-37488J37369D01*
G01*
X96957Y871429D02*
G03*
X97075Y871547I-37369J37488D01*
G01*
X93323Y988898D02*
G03*
X93299Y988922I-46426J-46378D01*
G01*
X94244Y987958D02*
G03*
X93323Y988898I-47347J-45438D01*
G01*
X93180Y989041D02*
G03*
X93154Y989067I-36722J-36722D01*
G01*
D02*
G03*
X56458Y1004252I-36696J-36749D01*
G01*
X95190Y987031D02*
G03*
X94331Y987871I-41651J-41761D01*
G01*
X95299Y986922D02*
G03*
X95190Y987031I-41761J-41651D01*
G01*
X112520Y945271D02*
G03*
X95299Y986922I-58981J0D01*
G01*
X94244Y987958D02*
G03*
X94331Y987871I3577J3494D01*
G01*
X15013Y1033817D02*
G03*
X47039Y1004252I32167J2716D01*
G01*
X15000Y1034132D02*
G03*
X15013Y1033817I5000J55D01*
G01*
X72109Y990603D02*
G03*
X57894Y994065I-15022J-30760D01*
G01*
X57669Y994077D02*
G03*
X53539Y994252I-4131J-48807D01*
G01*
X57669Y994077D02*
G03*
X57894Y994065I382J4986D01*
G01*
X82897Y885653D02*
G03*
X92520Y908917I-23309J23264D01*
G01*
X82874Y885630D02*
G03*
X82897Y885653I-23287J23287D01*
G01*
X54882Y1133504D02*
G03*
X15000Y1093622I0J-39882D01*
G01*
X63858Y1123504D02*
G03*
X25000Y1084646I0J-38858D01*
G01*
X5000Y1021624D02*
G03*
X32372Y994252I27372J0D01*
G01*
X-434252Y1108661D02*
G03*
X-446825Y1096868I0J-12598D01*
G01*
X-456579Y1072876D02*
G03*
X-446908Y1096238I-23381J23362D01*
G01*
X-498521Y1047638D02*
G03*
X-470024Y1059432I0J40326D01*
G01*
X-446908Y1096238D02*
G03*
X-446825Y1096868I-4632J932D01*
G01*
X-465799Y1078581D02*
G03*
X-458661Y1095812I-17231J17231D01*
G01*
X-445276Y1119291D02*
G03*
X-458661Y1105905I0J-13386D01*
G01*
X-186612Y1050820D02*
G03*
X-186563Y1050870I-36616J36670D01*
G01*
X-223228Y1035669D02*
G03*
X-186612Y1050820I0J51821D01*
G01*
X-223228Y1045669D02*
G03*
X-193656Y1057918I0J41821D01*
G01*
X-111811Y1101968D02*
G03*
X-152189Y1085243I0J-57104D01*
G01*
X-167022Y1098719D02*
G03*
X-166745Y1098972I-3231J3816D01*
G01*
X-111811Y1121968D02*
G03*
X-166387Y1099330I0J-77104D01*
G01*
X-167022Y1098719D02*
G03*
X-173628Y1092679I64105J-76750D01*
G01*
X-159229Y1092346D02*
G03*
X-159284Y1092291I47418J-47481D01*
G01*
X-111811Y1111968D02*
G03*
X-159229Y1092346I0J-67104D01*
G01*
X168287Y1040831D02*
G03*
X221181Y1018898I52894J52814D01*
G01*
X237314D02*
G03*
X238387Y1018936I0J15000D01*
G01*
X275203Y1035139D02*
G03*
X275287Y1035223I-39274J39364D01*
G01*
X271531Y1031789D02*
G03*
X275203Y1035139I-35602J42714D01*
G01*
X239226Y1018995D02*
G03*
X271531Y1031789I-3297J55508D01*
G01*
X285645Y1045581D02*
G03*
X285677Y1045613I-64464J64528D01*
G01*
X371260Y1105039D02*
G03*
X329488Y1089407I0J-63626D01*
G01*
D02*
G03*
X329356Y1089292I41772J-47994D01*
G01*
X235929Y1038898D02*
G03*
X261106Y1049326I0J35605D01*
G01*
X358661Y1125039D02*
G03*
X321384Y1109604I0J-52731D01*
G01*
X215262Y1039579D02*
G03*
X221181Y1038898I5919J25382D01*
G01*
X215262Y1039579D02*
G03*
X214869Y1039652I-1117J-4874D01*
G01*
X180058Y1057344D02*
G03*
X214869Y1039652I44533J44533D01*
G01*
X411498Y1542688D02*
G03*
X387008Y1550394I-24490J-35066D01*
G01*
X431102Y1505364D02*
G03*
X417913Y1537205I-45030J0D01*
G01*
X417252Y1537866D02*
G03*
X413860Y1540915I-30244J-30244D01*
G01*
X413793Y1540971D02*
G03*
X411498Y1542688I-13005J-14987D01*
G01*
X413793Y1540971D02*
G03*
X413860Y1540915I3241J3808D01*
G01*
X411198Y1447812D02*
G03*
X431102Y1495866I-48054J48054D01*
G01*
X345038Y1403937D02*
G03*
X383081Y1419695I0J53800D01*
G01*
X273014Y1383355D02*
G03*
X272979Y1383320I49739J-49808D01*
G01*
X322753Y1403937D02*
G03*
X273014Y1383355I0J-70391D01*
G01*
X320355Y1535827D02*
G03*
X309449Y1524920I0J-10906D01*
G01*
X309449Y1516943D02*
G03*
X335827Y1490551I26378J-14D01*
G01*
X-372047Y1448944D02*
G03*
X-364045Y1429598I27386J0D01*
G01*
D02*
G03*
X-364026Y1429579I19384J19346D01*
G01*
X-26206Y1316007D02*
G03*
X-25816Y1315641I3610J3460D01*
G01*
X-27002Y1316828D02*
G03*
X-27079Y1316905I-29113J-29032D01*
G01*
X-26206Y1316007D02*
G03*
X-27002Y1316828I-29909J-28212D01*
G01*
X-15000Y1289531D02*
G03*
X-25815Y1315641I-36926J0D01*
G01*
X-25000Y1287795D02*
G03*
X-34092Y1309776I-31115J0D01*
G01*
X-34114Y1309797D02*
G03*
X-34125Y1309809I-16077J-16077D01*
G01*
X-34092Y1309776D02*
G03*
X-34114Y1309797I-22023J-21981D01*
G01*
X41150Y1332685D02*
G03*
X25000Y1293663I39070J-39023D01*
G01*
X41174Y1332709D02*
G03*
X41150Y1332685I39047J-39047D01*
G01*
X77222Y1357087D02*
G03*
X101181Y1381115I-69J24028D01*
G01*
X77153Y1357086D02*
G03*
X57347Y1348883I0J-28009D01*
G01*
X82874Y1455792D02*
G03*
X48700Y1469947I-34173J-34173D01*
G01*
X5000Y1504650D02*
G03*
X15165Y1480111I34704J0D01*
G01*
D02*
G03*
X39704Y1469947I24539J24539D01*
G01*
X-13145Y1484255D02*
G03*
X-5000Y1512992I-46622J28737D01*
G01*
X-19217Y1603832D02*
G03*
X-19232Y1603847I-34375J-34344D01*
G01*
X-5000Y1569487D02*
G03*
X-19217Y1603832I-48592J0D01*
G01*
X-19248Y1603862D02*
G03*
X-19232Y1603847I34375J34344D01*
G01*
X17497Y1590726D02*
G03*
X5000Y1560554I30171J-30171D01*
G01*
X94488Y1690551D02*
G03*
X40157Y1744882I-54331J0D01*
G01*
X91868Y1673758D02*
G03*
X94488Y1690551I-52508J16793D01*
G01*
X78342Y1651570D02*
G03*
X91868Y1673758I-38981J38981D01*
G01*
X-33465Y1638207D02*
G03*
X-19248Y1603862I48592J0D01*
G01*
X489370Y1143701D02*
G03*
X496063Y1137008I6693J0D01*
G01*
X886124Y1986D02*
G03*
X808885Y131437I-155180J-4823D01*
G01*
D02*
G03*
X735512Y152670I-78749J-134739D01*
G01*
X734742Y152763D02*
G03*
X735512Y152670I983J4902D01*
G01*
X876199Y-2836D02*
G03*
X745412Y141696I-145255J0D01*
G01*
X876199Y-2836D02*
G03*
X1490199Y-2836I307000J0D01*
G01*
X732349Y142712D02*
G03*
X730600Y142762I-1749J-29949D01*
G01*
X740183Y142220D02*
G03*
X738530Y142351I-3984J-39801D01*
G01*
X866199Y-2836D02*
G03*
X744415Y131746I-135255J0D01*
G01*
X731766Y132729D02*
G03*
X730600Y132763I-1166J-19966D01*
G01*
X739232Y132265D02*
G03*
X737934Y132369I-3033J-29846D01*
G01*
X806199Y-2836D02*
G03*
X730944Y72419I-75255J0D01*
G01*
X806199Y-2836D02*
G03*
X1560199Y-2836I377000J0D01*
G01*
X866199D02*
G03*
X1500199Y-2836I317000J0D01*
G01*
X731183Y122746D02*
G03*
X730600Y122763I-583J-9983D01*
G01*
X816199Y-2836D02*
G03*
X730944Y82419I-85255J0D01*
G01*
X816199Y-2836D02*
G03*
X1550199Y-2836I367000J0D01*
G01*
X856199Y-2836D02*
G03*
X1510199Y-2836I327000J0D01*
G01*
X856199D02*
G03*
X743420Y121796I-125255J0D01*
G01*
X738191Y122319D02*
G03*
X737365Y122385I-1992J-19901D01*
G01*
X846199Y-2836D02*
G03*
X742401Y111848I-115255J0D01*
G01*
X846199Y-2836D02*
G03*
X1520199Y-2836I337000J0D01*
G01*
X737195Y112369D02*
G03*
X736782Y112402I-996J-9950D01*
G01*
X836199Y-2836D02*
G03*
X1530199Y-2836I347000J0D01*
G01*
X836199D02*
G03*
X741428Y101895I-105255J0D01*
G01*
X826199Y-2836D02*
G03*
X1540199Y-2836I357000J0D01*
G01*
X826199D02*
G03*
X735743Y92298I-95255J0D01*
G01*
X734904Y92419D02*
G03*
X735743Y92298I1129J4871D01*
G01*
X796199Y-2836D02*
G03*
X1354365Y-349926I387000J0D01*
G01*
X796199Y-2836D02*
G03*
X730944Y62419I-65255J0D01*
G01*
X1354365Y-349926D02*
G03*
X1570199Y-2836I-170850J346893D01*
G01*
X676181Y407677D02*
G03*
X620518Y431299I-55663J-53771D01*
G01*
X886199Y-2836D02*
G03*
X1480199Y-2836I297000J0D01*
G01*
X624213Y266142D02*
G03*
X694882Y336811I0J70669D01*
G01*
X502756Y1184252D02*
G03*
X489370Y1170866I0J-13386D01*
G01*
X456693Y1166535D02*
G03*
X457874Y1167717I-0J1181D01*
G01*
X-582677Y1105218D02*
G03*
X-570079Y1074803I43014J0D01*
G01*
X-497244Y1058268D02*
G03*
X-478426Y1066062I0J26613D01*
G01*
X-597672Y1073656D02*
G03*
X-534899Y1047638I62773J62714D01*
G01*
X-597697Y1073681D02*
G03*
X-597672Y1073656I32258J32209D01*
G01*
X-611024Y1105889D02*
G03*
X-597697Y1073681I45584J0D01*
G01*
X-574803Y1166535D02*
G03*
X-575230Y1165505I1030J-1030D01*
G01*
X-470024Y1059432D02*
G03*
X-470006Y1059449I-28497J28532D01*
G01*
X-272734Y1194983D02*
G03*
X-288878Y1172933I6986J-22050D01*
G01*
X694882Y362529D02*
G03*
X676181Y407677I-63849J0D01*
G01*
X410630Y1525984D02*
G03*
X400788Y1535827I-9843J0D01*
G01*
X70866Y1715354D02*
G03*
X56693Y1729527I-14173J0D01*
G01*
X-33465Y1674828D02*
G03*
X-44857Y1686220I-11393J0D01*
G01*
X101181Y1415316D02*
G03*
X82874Y1455792I-53805J42D01*
G01*
X-23425Y1451968D02*
G03*
X-33858Y1441535I0J-10433D01*
G01*
X70866Y1444094D02*
G03*
X62992Y1451968I-7874J0D01*
G01*
X-70866Y1686220D02*
G03*
X-84646Y1672441I0J-13780D01*
G01*
X-29528Y1701181D02*
G03*
X-15345Y1686999I14182J0D01*
G01*
X-13780Y1729527D02*
G03*
X-29528Y1713780I0J-15748D01*
G01*
X17717Y117323D02*
G03*
X1968Y101575I0J-15748D01*
G01*
X-14566Y85040D02*
G03*
X1968Y101575I0J16535D01*
G01*
X-49195Y87787D02*
G03*
X-36358Y85040I12824J28557D01*
G01*
X-59055Y103058D02*
G03*
X-49195Y87787I16689J-44D01*
G01*
X307087Y1172441D02*
G03*
X297244Y1182284I-9843J0D01*
G01*
X218504D02*
G03*
X206693Y1170472I0J-11811D01*
G01*
X-265748Y1196063D02*
X-179134D01*
X-282127Y1176166D02*
Y1179685D01*
X-282098Y1082656D02*
Y1098481D01*
Y1076980D02*
Y1082656D01*
X-244094Y1056299D02*
X-223549D01*
X-246571D02*
X-244094D01*
X-31048Y126433D02*
X-18223Y139257D01*
X1553032Y3007244D02*
X1559136D01*
X1560905Y2999370D02*
X1608278D01*
X1553032Y2971811D02*
X1559136D01*
X1560906Y2979685D02*
X1567010D01*
X1481090Y3240217D02*
X1626555D01*
X1481031Y3240157D02*
X1481090Y3240217D01*
X1471772Y3233827D02*
X1478102Y3240157D01*
X1481031D01*
X1626555Y3240217D02*
X1712087Y3154685D01*
X1485232Y3230217D02*
X1622413D01*
X1697520Y3155110D01*
X1481772Y3226756D02*
X1485232Y3230217D01*
X1481772Y3178898D02*
Y3226756D01*
X63977Y160998D02*
Y170473D01*
X-64804Y187322D02*
X-62835D01*
X-84488Y130270D02*
Y158695D01*
X-84488Y158727D02*
X-84488Y158695D01*
X-73686Y184806D02*
X-70412Y188080D01*
X-58397Y220768D02*
X-58222D01*
X-25000Y275476D02*
Y461291D01*
Y274120D02*
Y275476D01*
X544802Y352558D02*
Y365908D01*
X548503Y343623D02*
X553671Y338455D01*
X548498Y343628D02*
X548503Y343623D01*
X548498Y343628D02*
X548498Y343628D01*
X546163Y345963D02*
X546181Y345945D01*
X540552Y351574D02*
X546163Y345963D01*
X546181Y345945D02*
X548498Y343628D01*
X419229Y338976D02*
X508066D01*
X513737D01*
X518528Y317491D02*
Y328515D01*
X201781Y322733D02*
X207367D01*
X195425Y325365D02*
X211868D01*
X180785Y331420D02*
X188308Y323897D01*
X173228Y338976D02*
X180785Y331420D01*
X227264Y389996D02*
Y397160D01*
X229675Y387120D02*
Y402982D01*
X237972Y423011D02*
X243701Y428740D01*
X-663307Y325906D02*
X-649606Y312205D01*
X-669145Y333712D02*
X-667637Y332204D01*
X-670079Y334646D02*
X-669145Y333712D01*
X-636517Y290677D02*
Y296737D01*
X-629978Y274860D02*
X-622835Y267717D01*
X-637079Y281961D02*
X-629978Y274860D01*
X-637097Y281979D02*
X-637079Y281961D01*
X-638121Y283003D02*
X-637097Y281979D01*
X-324295Y287216D02*
Y298140D01*
X-321338Y280077D02*
Y301570D01*
X-21139Y562281D02*
X-9252Y550394D01*
X-22168Y563310D02*
X-21139Y562281D01*
X-3347Y555514D02*
X397D01*
X457420Y1114628D02*
X464567Y1107480D01*
X358661Y1125039D02*
X432284D01*
X435733D02*
X439095D01*
X432284D02*
X435733D01*
X467203Y1188850D02*
Y1189056D01*
X476572Y1198425D02*
X571260D01*
X159765Y1124881D02*
X177165Y1107480D01*
X158182Y1126464D02*
X158198Y1126448D01*
X159765Y1124881D01*
X157227Y1127418D02*
X158182Y1126464D01*
X56623Y1166964D02*
X272979Y1383320D01*
X195464Y1200394D02*
X289964D01*
X188189D02*
X195464D01*
X196706D01*
X177165Y1170472D02*
Y1189370D01*
X57531Y1153543D02*
X136295D01*
X171260Y1153541D01*
X-572290Y1080143D02*
Y1090741D01*
X-603851Y1151960D02*
X-592331Y1163481D01*
X-603858Y1151954D02*
X-603851Y1151960D01*
X-600244Y1153451D02*
X-589889D01*
X-579892Y1187642D02*
X-571984D01*
X-295276Y1170472D02*
Y1170472D01*
Y1153543D02*
Y1170472D01*
X-425197Y1153543D02*
X-336146D01*
X-336039D02*
X-295276D01*
X-336146D02*
X-336039D01*
X-15000Y1174711D02*
Y1194295D01*
Y1043988D02*
Y1174711D01*
X274085Y1513455D02*
X280709Y1520079D01*
X259449Y1519291D02*
X275984D01*
X244932Y1431102D02*
Y1504774D01*
X267725Y1519568D02*
Y1522185D01*
X290354Y1529724D02*
Y1538780D01*
X308399Y1550394D02*
X387008D01*
X301968D02*
X308399D01*
X311417D01*
X-39468Y1744882D02*
X40157D01*
X-47638D02*
X-41257D01*
X-39468D01*
X-41238Y1611711D02*
X-30375Y1600847D01*
X-47925Y1627854D02*
Y1639770D01*
X-389594Y1433701D02*
Y1440628D01*
X-385130Y1422925D02*
X-379921Y1417717D01*
X-40565Y1454710D02*
X-40554Y1454721D01*
X-59055Y1436220D02*
X-40565Y1454710D01*
X-33862Y1461414D02*
X-23622Y1471653D01*
X-52105Y1457172D02*
X-44107D01*
X-40554Y1454721D02*
X-33862Y1461414D01*
X-40541Y1353832D02*
X-33842Y1349056D01*
X-40541Y1353832D02*
X-40541Y1353832D01*
X-51181Y1361417D02*
X-40541Y1353832D01*
X-33842Y1349056D02*
X-16503Y1336696D01*
X-33853Y1349068D02*
X-33842Y1349056D01*
X-36848Y1352063D02*
X-33853Y1349068D01*
X-36858Y1352073D02*
X-36848Y1352063D01*
X-60916Y1356345D02*
X-51438D01*
X-413102Y1414283D02*
X-407306Y1408487D01*
X-424016Y1440632D02*
Y1451108D01*
Y1440632D02*
Y1469780D01*
X-410565Y1483231D02*
X-386578D01*
X-359811Y1388819D02*
X-285728D01*
X-399606Y1484821D02*
Y1496063D01*
X-399753Y1484821D02*
X-399606D01*
Y1496063D02*
Y1496260D01*
Y1516929D01*
X-93361Y517487D02*
Y519578D01*
Y525675D01*
X-84964Y530401D02*
X-84963D01*
X-86648Y530189D02*
X-84964Y530401D01*
X-91007Y529639D02*
X-86648Y530189D01*
X-97447Y528826D02*
X-91007Y529639D01*
X-86648Y530189D02*
X-86648D01*
X-88848D02*
X-86648D01*
X-84964Y530401D02*
X-82188Y530751D01*
X-66929Y532677D01*
X-98583Y539159D02*
Y539924D01*
Y549686D01*
Y559449D02*
Y561024D01*
Y559449D02*
Y630324D01*
Y549686D02*
Y559449D01*
Y549686D02*
X-88820D01*
X-62099D01*
X-86614Y878485D02*
Y886486D01*
Y894621D01*
Y886486D02*
X-78612D01*
X-78479D02*
X-66929D01*
X-78612D02*
X-78479D01*
X-66929D02*
X-59055Y894882D01*
X-82461Y906909D02*
X-79350D01*
X-86614Y914173D02*
Y970740D01*
Y902756D02*
Y914173D01*
Y894621D02*
Y902756D01*
X56618Y1166959D02*
X56623Y1166964D01*
X-35310Y290382D02*
X-35310Y290382D01*
X-35000Y296850D02*
Y433071D01*
X-65645Y241079D02*
X-52738Y253987D01*
X-81525Y225199D02*
X-65645Y241079D01*
X1480081Y2771609D02*
X1650276Y2941803D01*
X1480199Y-2836D02*
Y2771727D01*
X1490199Y2767585D02*
X1660512Y2937897D01*
X1490199Y2674329D02*
Y2767585D01*
X1500199Y2763443D02*
X1670512Y2933755D01*
X1500199Y-2836D02*
Y2763443D01*
X1510199Y2759301D02*
X1680512Y2929613D01*
X1510199Y-2836D02*
Y2759301D01*
X1520199Y2755159D02*
X1690827Y2925786D01*
X1520199Y-2836D02*
Y2755159D01*
X1530199Y2748098D02*
X1714282Y2932180D01*
X1530199Y-2836D02*
Y2748098D01*
X1540199Y2739884D02*
X1735709Y2935394D01*
X1540199Y-2836D02*
Y2739884D01*
X1550199Y2735742D02*
X1745709Y2931252D01*
X1550199Y-2836D02*
Y2735742D01*
X1560199Y2731600D02*
X1755709Y2927110D01*
X1560199Y-2836D02*
Y2731600D01*
X1570199Y2674410D02*
Y2727458D01*
X1765709Y2922968D01*
X1651480Y3058425D02*
X1670512Y3039394D01*
X1608278Y3058425D02*
X1651480D01*
X1654016Y3078110D02*
X1680512Y3051614D01*
X1700827Y3007740D02*
Y3137599D01*
X1710827Y3011882D02*
Y3141741D01*
X1608278Y3078110D02*
X1654016D01*
X1720827Y3016024D02*
Y3145883D01*
X1649291Y3117480D02*
X1690827Y3075945D01*
X1519567Y3089921D02*
X1551063Y3058425D01*
X1407362Y3078110D02*
X1450798D01*
X1554016D02*
X1608278D01*
X1529409Y3102717D02*
X1554016Y3078110D01*
X1519567Y3089921D02*
Y3098417D01*
X1411890Y3097795D02*
X1450798D01*
X1558937D02*
X1608278D01*
X1519409Y3098575D02*
X1519567Y3098417D01*
X1680512Y2929613D02*
Y3051614D01*
X1710827Y3011882D02*
X1745709Y2977000D01*
X1720827Y3016024D02*
X1755709Y2981142D01*
X1690827Y2925786D02*
Y3075945D01*
X1743012Y3025213D02*
X1765709Y3002516D01*
X1644567Y3019055D02*
X1650276Y3013347D01*
X1608278Y3019055D02*
X1644567D01*
X1647716Y3038740D02*
X1660512Y3025945D01*
X1608278Y3038740D02*
X1647716D01*
X1417380Y2853526D02*
X1419173Y2851732D01*
X1425669Y2812362D02*
X1458543D01*
X1447392Y3101201D02*
X1450798Y3097795D01*
X1403669Y3106016D02*
X1411890Y3097795D01*
X1403669Y3106016D02*
Y3115320D01*
X1416024Y3117361D02*
X1450678D01*
X1450798Y3117480D01*
X1449624Y3118654D02*
X1450798Y3117480D01*
X1405394Y3127990D02*
X1416024Y3117361D01*
X1379803Y3139186D02*
X1403669Y3115320D01*
X1379803Y3139186D02*
Y3143071D01*
X1405394Y3127990D02*
Y3154882D01*
X1342402Y3180472D02*
X1379803Y3143071D01*
Y3180472D02*
X1405394Y3154882D01*
X1471772Y3174756D02*
Y3233827D01*
X1547126Y3109606D02*
X1558937Y3097795D01*
X1519409Y3098575D02*
Y3127118D01*
X1529409Y3102717D02*
Y3131260D01*
X1608278Y3117480D02*
X1649291D01*
X1547126Y3109606D02*
Y3143071D01*
X1683543Y3154882D02*
X1700827Y3137599D01*
X1697520Y3155048D02*
X1710827Y3141741D01*
X1547126Y3143071D02*
X1558937Y3154882D01*
X1712087Y3154623D02*
X1720827Y3145883D01*
X1471772Y3174756D02*
X1519409Y3127118D01*
X1712087Y3154623D02*
Y3154685D01*
X1558937Y3154882D02*
X1683543D01*
X1481772Y3178898D02*
X1529409Y3131260D01*
X1697520Y3155048D02*
Y3155110D01*
X1379803Y2991496D02*
X1407362Y3019055D01*
X1379803Y3028898D02*
X1385908D01*
X1395750Y3038740D01*
X1385908Y3068268D02*
X1395750Y3058425D01*
X1379803Y3068268D02*
X1385908D01*
X1379803Y3105669D02*
X1407362Y3078110D01*
X1402092Y2988392D02*
X1413071Y2999370D01*
X1402092Y2980124D02*
Y2988392D01*
X1350276Y2924567D02*
X1379803Y2954095D01*
X1417380Y2853526D02*
Y2879116D01*
X1447392Y2976280D02*
X1450601Y2979488D01*
X1415630D02*
X1450601D01*
X1450798Y2979685D01*
X1735709Y2935394D02*
Y2972858D01*
X1714282Y2932180D02*
Y2958534D01*
X1745709Y2931252D02*
Y2977000D01*
X1755709Y2927110D02*
Y2981142D01*
X1713012Y2959803D02*
X1714282Y2958534D01*
X1765709Y2922968D02*
Y3002516D01*
X1650276Y2941803D02*
Y3013347D01*
X1567010Y2979685D02*
X1608278D01*
X1660512Y2937897D02*
Y3025945D01*
X1670512Y2933755D02*
Y3039394D01*
X1700827Y3007740D02*
X1735709Y2972858D01*
X1413071Y2999370D02*
X1450798D01*
X1407362Y3019055D02*
X1450798D01*
X1395750Y3038740D02*
X1450798D01*
X1395750Y3058425D02*
X1450798D01*
X1551063D02*
X1608278D01*
X1350276Y2887756D02*
X1425669Y2812362D01*
X1379803Y2916693D02*
X1417380Y2879116D01*
X1379803Y2916693D02*
X1407362Y2944252D01*
X1379803Y2954095D02*
Y2957835D01*
X1407362Y2944252D02*
Y2971221D01*
X1379803Y2957835D02*
X1402092Y2980124D01*
X1407362Y2971221D02*
X1415630Y2979488D01*
X1350276Y2887756D02*
Y2924567D01*
X1570199Y2674410D02*
X1570199Y2674409D01*
Y-2836D02*
Y2674409D01*
X-15000Y1194295D02*
Y1289531D01*
X229331Y279921D02*
X240945D01*
X210416D02*
X229331D01*
X241142Y291732D02*
Y331622D01*
Y280118D02*
Y291732D01*
X240945Y279921D02*
X252953D01*
X255512D01*
X252953D02*
X303477D01*
X120473Y1143543D02*
X142441D01*
X145729Y1143368D02*
X183102Y1139370D01*
X-59624Y1373312D02*
X-59055Y1377165D01*
X-61181Y1362764D02*
X-59624Y1373312D01*
X-16503Y1336696D02*
X-16414Y1336632D01*
X-9389Y1330679D02*
X-9389Y1330680D01*
X-9502Y1330792D02*
X-9389Y1330680D01*
X-59055Y1373228D02*
X-51181Y1361417D01*
X-61224Y1362476D02*
X-61181Y1362764D01*
X-52877Y505118D02*
X-36278Y488518D01*
X-79350Y906909D02*
X-68487D01*
X-66929Y532677D02*
X-59055Y544488D01*
X460865Y1170708D02*
Y1182718D01*
X457874Y1167717D02*
X460865Y1170708D01*
X-88583Y593819D02*
Y625197D01*
X-35000Y744529D02*
Y778782D01*
X-87008Y658268D02*
X-59221Y686055D01*
X-45000Y746548D02*
Y778679D01*
X-95654Y663764D02*
X-67720Y691698D01*
X-55000Y747848D02*
Y777136D01*
X-105481Y668079D02*
X-75710Y697850D01*
X-65000Y748883D02*
Y775065D01*
X-113142Y674560D02*
X-83513Y704189D01*
X-128583Y535088D02*
Y637283D01*
X-118583Y547289D02*
Y636448D01*
X-108583Y547244D02*
Y632551D01*
X434040Y1076590D02*
X434059Y1076571D01*
X418548Y1096004D02*
X418549Y1096003D01*
X433694Y1076978D01*
X434059Y1076571D02*
X440738Y1069892D01*
X492766Y1048341D02*
X525901D01*
X371260Y1115039D02*
X398135D01*
X428995Y1102003D02*
X444198Y1080605D01*
X445276Y1079528D01*
X464285Y1071654D02*
X474803D01*
X491339Y1088189D02*
Y1116351D01*
X562598Y299924D02*
Y316903D01*
X529134Y279134D02*
X541809D01*
X488911Y305586D02*
X505626Y288871D01*
X159843Y320473D02*
X193307Y287008D01*
X80192Y335357D02*
X123909D01*
X154149Y312024D02*
X186630Y279543D01*
X80250Y325357D02*
X121960D01*
X147128Y304903D02*
X182118Y269913D01*
X81741Y315357D02*
X121890D01*
X206240Y259921D02*
X303477D01*
X209859Y269921D02*
X303477D01*
X240945Y279921D02*
X241142Y280118D01*
X352625Y280279D02*
X362326Y289980D01*
X348548Y290389D02*
X355416Y297212D01*
X347806Y289783D02*
X347806Y289783D01*
X345275Y287252D02*
X347806Y289783D01*
X362191Y303263D02*
X362589Y303582D01*
X338175Y294294D02*
X352547Y308666D01*
X352727D02*
X357447Y313386D01*
X352547Y308666D02*
X352727D01*
X-94488Y130270D02*
Y194027D01*
X-88632Y232234D02*
X-59764Y261103D01*
X-45261Y291377D02*
X-45260Y291377D01*
X-45000Y296850D02*
Y298014D01*
X-95166Y240661D02*
X-66236Y269591D01*
X-102083Y247917D02*
X-73355Y276645D01*
X-462528Y314547D02*
X-422739D01*
X-343232Y273121D02*
X-343041Y272931D01*
X-332329Y262219D01*
X-332173Y262086D01*
X-359805Y275552D02*
X-337230Y252978D01*
X-337185Y252933D02*
X-337185Y252933D01*
X-462528Y304547D02*
X-422738D01*
X-434252Y1108661D02*
X-371260D01*
X-371732Y381811D02*
X-371732D01*
X-356299Y397244D01*
X-372191Y381438D02*
Y381438D01*
X-463114Y366378D02*
X-411037D01*
X-463114Y376378D02*
X-411037D01*
X-377356Y390329D02*
X-363406Y404280D01*
X-337391Y414961D02*
X-214764D01*
X-340141Y403937D02*
X-218244D01*
X-664567Y404173D02*
X-550348Y404173D01*
X-512956Y388971D02*
X-509668Y385683D01*
X-518504Y393785D02*
X-518504Y393785D01*
X-674075Y399464D02*
X-674074D01*
X-664567Y414173D02*
X-550284D01*
X-97106Y1008893D02*
Y1008894D01*
X-97175Y1008823D02*
X-97106Y1008893D01*
X-116614Y915166D02*
Y970740D01*
X-103376Y1002624D02*
X-99095Y1006905D01*
X-106614Y911024D02*
Y970740D01*
X-96322Y995536D02*
X-92008Y999850D01*
X-90327Y1001530D02*
Y1001531D01*
X-89270Y988446D02*
X-89269Y988446D01*
X-84920Y992795D01*
X-96614Y889478D02*
Y970740D01*
X-66240Y1000551D02*
X-63882D01*
X-82216Y981357D02*
X-77818Y985755D01*
X-66240Y990551D02*
X-59646D01*
X-37131Y999877D02*
X-30582Y1006425D01*
X-41206Y1009944D02*
X-37628Y1013522D01*
X-25000Y1043988D02*
Y1085039D01*
X-44977Y1020316D02*
X-44684Y1020608D01*
X-35000Y1043988D02*
Y1080315D01*
X-45000Y1043988D02*
Y1076772D01*
X-98895Y830090D02*
X-98278Y829473D01*
X-98278Y829473D02*
X-79942Y811137D01*
X-116614Y872786D02*
Y915166D01*
X-106614Y893620D02*
Y896626D01*
X-106614Y872786D02*
Y893589D01*
X-91817Y837154D02*
X-71406Y816744D01*
X-96614Y872786D02*
Y889478D01*
X-84811Y844291D02*
X-63244Y822724D01*
X-73711Y847332D02*
X-60807Y834429D01*
X-56094Y829716D01*
X-116614Y915166D02*
X-116614Y915166D01*
X-96614Y889478D02*
X-96614Y889478D01*
X-45000Y376378D02*
Y433071D01*
Y355972D02*
Y376378D01*
X-106614Y896626D02*
Y911024D01*
Y896626D02*
X-106614Y896626D01*
X-347738Y1098919D02*
X-307382Y1058563D01*
X-341449Y1106804D02*
X-306700Y1072054D01*
X-77519Y1625664D02*
X-38993Y1591279D01*
X-84646Y1642749D02*
X-84646D01*
Y1672441D01*
X-77631Y1625763D02*
X-77519Y1625664D01*
X-23622Y1471653D02*
X-20817Y1474491D01*
X-25000Y1512992D02*
Y1557480D01*
X-74409Y1478740D02*
X-59252D01*
X-103858Y1364380D02*
Y1449291D01*
X-74272Y1468248D02*
X-53724Y1468248D01*
X-15000Y1512992D02*
Y1563689D01*
X-27982Y1481467D02*
X-27978Y1481472D01*
X-30576Y1478843D02*
X-27982Y1481467D01*
X-93858Y1364380D02*
Y1448661D01*
X-55118Y345854D02*
X-45000D01*
Y335736D02*
Y345854D01*
X-73976D02*
X-55118D01*
X-75524D02*
X-73976D01*
X-164370D02*
X-75524D01*
X-45000Y316878D02*
Y335736D01*
Y298020D02*
Y316878D01*
Y345854D02*
Y355972D01*
X68898Y357581D02*
X128313D01*
X45276D02*
X68898D01*
X35000Y286346D02*
Y323683D01*
Y356693D02*
Y367857D01*
Y347305D02*
Y356693D01*
X35888Y357581D02*
X45276D01*
X35000Y323683D02*
Y347305D01*
Y391479D02*
Y394094D01*
Y391479D02*
Y445339D01*
Y367857D02*
Y391479D01*
X96957Y871429D02*
X96957Y871429D01*
X-219522Y259281D02*
X-210391Y268411D01*
X-174719Y316187D01*
X-172107Y319625D02*
X-172106Y319626D01*
X-174694Y316219D02*
X-172107Y319625D01*
X-168790Y322689D02*
X-168789Y322688D01*
X-169967Y321827D02*
X-169967Y321827D01*
X-171683Y320111D02*
X-169967Y321827D01*
X-155585Y325854D02*
X-81620D01*
X-179460Y326477D02*
X-174145Y331791D01*
X-233678Y259266D02*
X-220552Y272393D01*
X-179460Y326477D01*
X-164370Y335854D02*
X-81620D01*
X-228436Y278650D02*
X-187220Y332793D01*
X-186769Y333310D02*
X-181193Y338886D01*
X-233678Y259266D02*
X-233678Y259266D01*
X-235750Y271337D02*
X-228436Y278650D01*
X-165657Y365854D02*
X-102759D01*
X-173374Y355854D02*
X-101246D01*
X346457Y367323D02*
Y374338D01*
Y357677D02*
Y367323D01*
X594488Y1153937D02*
Y1162599D01*
X70866Y1432284D02*
Y1444094D01*
X70866Y1422638D02*
X70866Y1422638D01*
Y1432284D01*
X120760Y112770D02*
X180498D01*
X17717Y117323D02*
X68898D01*
X116183Y113172D02*
X120760Y112770D01*
X68898Y117323D02*
X116183Y113172D01*
X94488Y139042D02*
Y142913D01*
Y173477D01*
X64710Y224311D02*
X79599Y209422D01*
X61828Y227193D02*
X64710Y224311D01*
X58950Y230071D02*
X61813Y227209D01*
X58826Y230195D02*
X58835Y230186D01*
X41811Y247210D02*
X58826Y230195D01*
X25027Y284685D02*
X25158Y283448D01*
X25000Y285178D02*
Y449183D01*
Y285178D02*
Y285178D01*
X45566Y498833D02*
X66131Y519399D01*
X95000Y589095D02*
Y629921D01*
X62500Y674170D02*
X86692Y649978D01*
X55964Y680706D02*
X62500Y674170D01*
X55723Y680948D02*
X55949Y680721D01*
X30000Y742913D02*
Y781890D01*
X54525Y843110D02*
X54525Y843110D01*
X55372Y843986D02*
X89910Y878524D01*
X102520Y908917D02*
Y945271D01*
X-9722Y1406693D02*
X-5650D01*
X38353Y1037283D02*
X51704Y1023932D01*
X25000Y1069393D02*
Y1084646D01*
Y1069393D02*
X25000Y1069393D01*
X35000Y1069518D02*
Y1075578D01*
X45423Y1044355D02*
X55846Y1033932D01*
X45000Y1069518D02*
Y1075578D01*
X52494Y1051426D02*
X59988Y1043932D01*
X106727Y1024572D02*
X119820Y1011479D01*
X102585Y1014572D02*
X112760Y1004397D01*
X98443Y1004572D02*
X105664Y997351D01*
X142520Y908917D02*
Y956626D01*
X132520Y908917D02*
Y956626D01*
X122520Y908917D02*
Y956626D01*
X363152Y1146063D02*
X407268D01*
X246817Y1387241D02*
X253162Y1393586D01*
X253178Y1393602D02*
X266219Y1406643D01*
X253162Y1393586D02*
X253178Y1393602D01*
X280709Y1441625D02*
Y1461024D01*
Y1441625D02*
Y1442114D01*
X246678Y1387102D02*
X246678Y1387102D01*
X234256Y1374679D02*
X246678Y1387102D01*
X246730Y1387153D01*
X246816Y1387240D02*
X246817Y1387241D01*
X306299Y1450753D02*
Y1480315D01*
X253864Y1380146D02*
X260233Y1386515D01*
X293450Y1419732D01*
X52958Y1143543D02*
X120472D01*
X38386Y1158116D02*
Y1160827D01*
X56232Y1210781D02*
X224256Y1378804D01*
X18189Y1181890D02*
X18320D01*
X5000D02*
X18189D01*
X15000Y1219531D02*
Y1296017D01*
X32365Y1202165D02*
X35433D01*
X25000Y1224409D02*
Y1293663D01*
X48179Y1217864D02*
X233275Y1402960D01*
X244256Y1370537D02*
X253730Y1380012D01*
X41089Y1167354D02*
X244256Y1370520D01*
Y1370537D01*
X234256Y1374662D02*
Y1374679D01*
X57956Y1198362D02*
X234256Y1374662D01*
X-81637Y1230291D02*
X-44671Y1193324D01*
X-217839Y1380635D02*
X-53140Y1215936D01*
X-85780Y1220291D02*
X-32244Y1166754D01*
X-335819Y1399449D02*
X-287479D01*
X-270972Y1387707D02*
X-270972Y1387707D01*
X-232121Y1366632D02*
X-85780Y1220291D01*
X-224802Y1373454D02*
X-81637Y1230291D01*
X290945Y314173D02*
X320925Y314173D01*
X335154D01*
X341802Y316923D02*
X357412Y332533D01*
X5000Y1181890D02*
Y1195210D01*
Y1168701D02*
Y1181890D01*
Y1021624D02*
Y1168701D01*
Y1195210D02*
Y1296017D01*
X206693Y1144095D02*
Y1170472D01*
X-392897Y1451165D02*
X-389628Y1447896D01*
X-83858Y1364380D02*
Y1394488D01*
X-48295Y1336863D02*
X-48295D01*
X-56341D02*
X-48295D01*
X-16415Y1323563D02*
X-16266Y1323414D01*
X-5000Y1021624D02*
Y1296017D01*
X160459Y1076942D02*
X180058Y1057344D01*
X135277Y1102124D02*
X160418Y1076984D01*
X63858Y1123504D02*
X95458D01*
X126991Y1110410D02*
X135219Y1102182D01*
X72926Y1113504D02*
X95458D01*
X128190Y1095069D02*
X153471Y1069788D01*
X119889Y1103371D02*
X128190Y1095069D01*
X153471Y1069788D02*
X157299Y1065960D01*
X168149Y1055110D01*
X168165Y1055094D02*
X175313Y1047947D01*
X221181Y1028898D02*
X235929D01*
X268200Y1042278D02*
X268200Y1042278D01*
X276754Y1050831D01*
X278538Y1052616D01*
X278641Y1052719D02*
X322249Y1096327D01*
X322249Y1096327D01*
X322713Y1096767D02*
Y1096767D01*
X146364Y1062753D02*
X161094Y1048023D01*
X72926Y1103504D02*
X95458D01*
X112795Y1096323D02*
X146244Y1062874D01*
X590551Y409114D02*
X631195D01*
X262598Y412736D02*
X311695D01*
X-229536Y249266D02*
X-226638Y252164D01*
X-226572Y252231D02*
X-219606Y259197D01*
X-230594Y248564D02*
X-230593Y248564D01*
X333285Y403723D02*
X353833Y383175D01*
X371260Y1105039D02*
X396811D01*
X607848Y1130289D02*
Y1161837D01*
X312725Y1185138D02*
X322488Y1169319D01*
X-149606Y1158615D02*
Y1168463D01*
X-541339Y1200000D02*
X-471654D01*
X-132822Y1141831D02*
X-38484D01*
X-25000Y1221260D02*
Y1287795D01*
X65000Y294553D02*
Y298616D01*
X65051Y286405D02*
Y294503D01*
X55000Y290411D02*
Y300107D01*
X67258Y279198D02*
X67776Y278680D01*
X65000Y294553D02*
X65051Y294503D01*
X67776Y278680D02*
X108317Y238140D01*
X-70747Y575984D02*
X-52795D01*
X-9252Y550394D02*
X15354D01*
X360236Y339370D02*
Y367717D01*
X605906Y314173D02*
X653517D01*
X667205Y394212D02*
X667229Y394188D01*
X682095Y342751D02*
Y358257D01*
X-65118Y296468D02*
Y309353D01*
X-124488Y128935D02*
Y193933D01*
X-40696Y35040D02*
X2752D01*
X-88596Y54932D02*
X-88594Y54931D01*
X-97517Y63853D02*
X-88596Y54932D01*
X68806Y62419D02*
X72993D01*
X45000Y414212D02*
Y441197D01*
X90653Y368559D02*
X148541D01*
X55000Y414212D02*
Y432401D01*
X90653Y378559D02*
X203287D01*
X65000Y414212D02*
Y432401D01*
X90653Y388559D02*
X150514D01*
X-55000Y402100D02*
Y433071D01*
X-65000Y403613D02*
Y425466D01*
X-55118Y296468D02*
Y309353D01*
X-128422Y534158D02*
X-128421Y534158D01*
X-112258Y491549D02*
X-112258Y491549D01*
X-76118Y468700D02*
X-70463Y463044D01*
X-65238Y457818D01*
X-83333Y475915D02*
X-76986Y469567D01*
X-76118Y468700D01*
X-118583Y547244D02*
Y547244D01*
Y543199D02*
Y547244D01*
Y543199D02*
X-118583Y539304D01*
Y539231D02*
Y539304D01*
X-98359Y490940D02*
X-96130Y488711D01*
X-95931Y488512D01*
X-98435Y491016D02*
X-98369Y490951D01*
X-98502Y491083D02*
X-98502Y491083D01*
X-98741Y491323D02*
X-98553Y491134D01*
X-95931Y488512D02*
X-83333Y475915D01*
X-103146Y481586D02*
X-77709Y456149D01*
X1530199Y-2836D02*
X1530199D01*
X45000Y286269D02*
Y300165D01*
X55051Y286065D02*
Y290361D01*
X55000Y290411D02*
X55051Y290361D01*
X63018Y268430D02*
X101239Y230209D01*
X413844Y322067D02*
X441669Y322509D01*
X254845Y385827D02*
X334968D01*
X345008Y377858D02*
X345017Y377849D01*
X338488Y384378D02*
X345008Y377858D01*
X338479Y384387D02*
X338488Y384378D01*
X244882Y358442D02*
Y375863D01*
X661417Y357480D02*
Y367323D01*
X661417Y357480D02*
X661417Y357480D01*
X125000Y572609D02*
Y633323D01*
X486866Y1128495D02*
X486982Y1128347D01*
X358661Y1135039D02*
X472123D01*
X203287Y378559D02*
X215400Y371885D01*
X216536Y371260D01*
X203937Y1073889D02*
Y1118535D01*
X78320Y488649D02*
X98604Y508934D01*
X60000Y742913D02*
Y781890D01*
X48318Y851074D02*
X82874Y885630D01*
X76792Y702305D02*
X102540Y676556D01*
X124527Y637354D02*
X124783Y635863D01*
X102540Y676556D02*
X107851Y671245D01*
X77202Y823389D02*
X111014Y857202D01*
X252015Y1054623D02*
X314376Y1116738D01*
X251801Y1054410D02*
X252015Y1054623D01*
X228928Y1048898D02*
X235929D01*
X120472Y1143543D02*
X120473Y1143543D01*
X239630Y1394196D02*
X239630Y1394196D01*
X225344Y1379909D02*
X239630Y1394196D01*
X265748Y1492126D02*
X294488D01*
X254932Y1431102D02*
Y1481310D01*
X-22835Y1358268D02*
X-2265Y1337698D01*
X-31102Y1378228D02*
Y1392913D01*
X-73622Y1404724D02*
X-42913D01*
X-55934Y1326457D02*
X-50191D01*
X-55934Y1316457D02*
X-50191D01*
X32283Y984075D02*
X32371Y984097D01*
X56807Y984114D02*
Y984115D01*
X57584Y984070D02*
Y984070D01*
X33574Y984252D02*
X53539D01*
X33574D02*
X33574D01*
X67686Y981633D02*
X67686Y981634D01*
X68415Y981302D02*
X68415Y981302D01*
X-111811Y1121968D02*
X-61929D01*
X-111811Y1111968D02*
X-66653D01*
X-111811Y1101968D02*
X-70197D01*
X-20728Y214311D02*
X58497D01*
X-31890Y183511D02*
Y203150D01*
X69417Y205340D02*
X69426Y205332D01*
X70866Y196063D02*
Y201820D01*
X69401Y205364D02*
X69417Y205340D01*
X62008Y212871D02*
X68824Y206055D01*
X218059Y339764D02*
X233000D01*
X414113Y371260D02*
X531496D01*
X441669Y322509D02*
X451787Y322021D01*
X481840Y298515D02*
X503002Y277353D01*
X415751Y312087D02*
X449076D01*
X558926Y366468D02*
Y373274D01*
X571223Y385571D02*
X651120D01*
X661417Y367323D02*
Y375273D01*
X580659Y431299D02*
X620518D01*
X414114Y381260D02*
X459853D01*
X336910Y414665D02*
X358612Y392962D01*
X342516Y423201D02*
X363487Y402230D01*
X258908Y445039D02*
X289793D01*
X258908Y435039D02*
X287722D01*
X215461Y415461D02*
X231510Y431510D01*
X48880Y254283D02*
X65961Y237203D01*
X68853Y234311D02*
X86670Y216493D01*
X65986Y237178D02*
X68853Y234311D01*
X72995Y244311D02*
X94131Y223175D01*
X72995Y244311D02*
X72995D01*
X55943Y261363D02*
X72995Y244311D01*
X134488Y169870D02*
Y174957D01*
X124488Y165728D02*
Y174016D01*
X114488Y161586D02*
Y174016D01*
X104488Y157444D02*
Y173477D01*
X151588Y152770D02*
X180498D01*
X147446Y142770D02*
X180498D01*
X143304Y132770D02*
X183266D01*
X139162Y122770D02*
X180498D01*
X-114488Y128935D02*
Y193933D01*
X-90469Y70948D02*
X-81534Y62012D01*
X-40696Y45040D02*
X2752D01*
X-104488Y130271D02*
Y193933D01*
X-82454Y77074D02*
X-74463Y69083D01*
X-40696Y55040D02*
X-1390D01*
X-71388Y80151D02*
X-67394Y76157D01*
X-75340Y84102D02*
X-71388Y80151D01*
X-40696Y65040D02*
X-3575D01*
X26172Y77384D02*
X27751Y78963D01*
X59449Y102426D02*
X180559D01*
X19062Y84416D02*
X21249Y86604D01*
X60236Y92419D02*
X180286D01*
X64709Y82419D02*
X730944Y82419D01*
X68851Y72419D02*
X730899Y72419D01*
X72993Y62419D02*
X730899Y62419D01*
X-40696Y75040D02*
X-3575D01*
X-68312Y91216D02*
X-60223Y83128D01*
X-68255Y196346D02*
X-67343Y196709D01*
X-68255Y196346D02*
X-68255Y196346D01*
X-59055Y200000D02*
X-54289Y204766D01*
X-67343Y196709D02*
X-59055Y200000D01*
X-677008Y358982D02*
Y387241D01*
X-687008Y312930D02*
Y391732D01*
X-674803Y283465D02*
X-665518Y274179D01*
X-576505Y244962D02*
X-575422D01*
X-576505D02*
X-576505D01*
X-572049Y245410D02*
X-572048Y245410D01*
X-573770Y245099D02*
X-572049Y245410D01*
X-577893Y244890D02*
X-576755Y244954D01*
X-594807Y244890D02*
X-577893D01*
X-538332Y262293D02*
X-519800Y280824D01*
X-570595Y255841D02*
X-570595Y255841D01*
X-575422Y254962D02*
X-573543Y255302D01*
X-592042Y254962D02*
X-575422D01*
X-545438Y269328D02*
X-526907Y287860D01*
X-108583Y540934D02*
X-108583Y539155D01*
X-108583Y540945D02*
Y547244D01*
X-91342Y498066D02*
X-91323Y498047D01*
X-58190Y464914D01*
X-91678Y498402D02*
X-91513Y498237D01*
X-91348Y498072D01*
X-84646Y505512D02*
X-51181Y472047D01*
X-51708Y614827D02*
X2684Y669220D01*
X20000Y711024D02*
Y781890D01*
X55355Y494481D02*
X75711Y514836D01*
X65355Y490339D02*
X85711Y510694D01*
X85355Y481543D02*
X105711Y501898D01*
X135000Y572609D02*
Y633323D01*
X115000Y581405D02*
Y633323D01*
X105000Y585547D02*
Y629921D01*
X83912Y709327D02*
X109456Y683783D01*
X134418Y638841D02*
X134629Y637616D01*
X109456Y683783D02*
X114975Y678264D01*
X114642Y635832D02*
X114928Y634169D01*
X82500Y682455D02*
X100816Y664139D01*
X72500Y678312D02*
X83083Y667729D01*
X83083Y667729D02*
X93763Y657049D01*
X62425Y836897D02*
X96957Y871429D01*
X61729Y836169D02*
X61921Y836378D01*
X40000Y742913D02*
Y781890D01*
X62802Y688011D02*
X72500Y678312D01*
X50000Y742913D02*
Y781890D01*
X69872Y695083D02*
X82500Y682455D01*
X69055Y829362D02*
X69217Y829539D01*
X69477Y829807D02*
X104011Y864341D01*
X70000Y742913D02*
Y781890D01*
X84252Y816298D02*
X118121Y850166D01*
X112520Y908917D02*
Y945271D01*
X93180Y989041D02*
X93299Y988922D01*
X47084Y1004252D02*
X56458D01*
X47039Y1004252D02*
X47084Y1004252D01*
X15000Y1034132D02*
Y1093622D01*
X32372Y994252D02*
X53538D01*
X92520Y908917D02*
Y945271D01*
X54882Y1133504D02*
X83032D01*
X-470006Y1059449D02*
X-456579Y1072876D01*
X-445276Y1119291D02*
X-372813D01*
X-458661Y1095812D02*
Y1105905D01*
X-477735Y1066645D02*
X-465799Y1078581D01*
X-252109Y1035669D02*
X-223228D01*
X-242938Y1045669D02*
X-223228D01*
X-186563Y1050870D02*
X-152189Y1085243D01*
X-193656Y1057918D02*
X-159284Y1092291D01*
X-200433Y1065874D02*
X-173628Y1092679D01*
X-166745Y1098972D02*
X-166387Y1099330D01*
X221181Y1018898D02*
X237314D01*
X239220Y1018995D02*
X239226Y1018995D01*
X238387Y1018936D02*
X239220Y1018995D01*
X275287Y1035223D02*
X285645Y1045581D01*
X285677Y1045613D02*
X329356Y1089292D01*
X221181Y1038898D02*
X235929D01*
X261106Y1049326D02*
X321384Y1109604D01*
X161094Y1048023D02*
X168286Y1040831D01*
X214869Y1039652D02*
Y1039652D01*
X83071Y1133543D02*
X142441D01*
X411498Y1542688D02*
X411498Y1542688D01*
X417252Y1537866D02*
X417913Y1537205D01*
X431102Y1495866D02*
Y1505364D01*
X383081Y1419695D02*
X411198Y1447812D01*
X322753Y1403937D02*
X345038D01*
X309449Y1516943D02*
Y1524920D01*
X320355Y1535827D02*
X400788D01*
X-364026Y1429579D02*
X-356005Y1421557D01*
X-372047Y1448944D02*
Y1468700D01*
X-326772Y1409449D02*
X-287402D01*
X-25816Y1315641D02*
X-25815D01*
X41174Y1332709D02*
X57347Y1348883D01*
X77153Y1357086D02*
X77222Y1357086D01*
X-33858Y1430830D02*
Y1441535D01*
X39704Y1469947D02*
X48700D01*
X5000Y1504650D02*
Y1560554D01*
X-5000Y1512992D02*
Y1569487D01*
X17497Y1590726D02*
X78342Y1651570D01*
X-33465Y1638207D02*
Y1674828D01*
X489370Y1143701D02*
Y1170866D01*
X496063Y1137008D02*
X513779D01*
X307087Y1162599D02*
Y1172441D01*
Y1153740D02*
Y1162599D01*
X886199Y-2836D02*
Y1306D01*
X886124Y1986D02*
X886199Y1306D01*
X695073Y152763D02*
X734742Y152763D01*
X695066Y152770D02*
X695073Y152763D01*
X690931Y152763D02*
Y152770D01*
X695066D01*
X876199Y-2836D02*
X876199Y-2836D01*
X690931Y142763D02*
X730600Y142762D01*
X732349Y142711D02*
X738530Y142351D01*
X740183Y142220D02*
X745412Y141696D01*
X690931Y132763D02*
X730600Y132763D01*
X731766Y132729D02*
X737934Y132369D01*
X739232Y132265D02*
X744415Y131746D01*
X715693Y122763D02*
X730600Y122763D01*
X690931Y122763D02*
X715693D01*
X730600Y122763D02*
X730600D01*
X816199Y-2836D02*
X816199D01*
X856199Y-2836D02*
Y-2836D01*
X738191Y122319D02*
X743420Y121796D01*
X731183Y122746D02*
X737365Y122385D01*
X846199Y-2836D02*
Y-2836D01*
X710766Y112763D02*
X730596Y112495D01*
X690931Y112763D02*
X730600D01*
X737195Y112369D02*
X742401Y111848D01*
X730600Y112763D02*
X736782Y112402D01*
X836199Y-2836D02*
Y-2836D01*
X736199Y102419D02*
X741428Y101895D01*
X734904Y92419D02*
Y92419D01*
X730944Y82419D02*
X730944D01*
X730899Y72419D02*
X730944D01*
X730899Y62419D02*
X730944D01*
X690992Y102419D02*
X736199D01*
X690931Y92419D02*
X734904D01*
X-15345Y1686999D02*
X-778D01*
X1550199Y-2836D02*
X1550199D01*
X180498Y92426D02*
X690931Y92419D01*
X183266Y132770D02*
X690931Y132763D01*
X180559Y102426D02*
X690992Y102419D01*
X1490199Y-2836D02*
Y2674329D01*
X180498Y112770D02*
X690931Y112763D01*
X70866Y186220D02*
Y196063D01*
X528346Y266142D02*
X624213D01*
X83032Y1133504D02*
X83071Y1133543D01*
X101181Y1381115D02*
Y1415316D01*
X502756Y1184252D02*
X574892D01*
X-530159Y1058268D02*
X-497244D01*
X-611024Y1105889D02*
Y1134646D01*
X-534899Y1047638D02*
X-498521D01*
X-592331Y1163481D02*
X-591230Y1163829D01*
X-582677Y1166535D01*
X213779Y1137008D02*
X232284D01*
X694882Y336811D02*
Y362529D01*
X307087Y1153740D02*
X307087Y1153740D01*
X410630Y1516142D02*
Y1525984D01*
X410630Y1507283D02*
X410630Y1507284D01*
Y1516142D01*
X70866Y1709843D02*
Y1715354D01*
X70866Y1701181D02*
Y1709843D01*
X70866Y1709843D01*
X-23425Y1451968D02*
X62992D01*
X-70866Y1686220D02*
X-44857D01*
X-29528Y1701181D02*
Y1713780D01*
X-778Y1686999D02*
X1968Y1684252D01*
X-59449Y1713780D02*
X-59055D01*
X-59449D02*
Y1733071D01*
X-13780Y1729527D02*
X56693D01*
X180498Y152770D02*
X690931Y152763D01*
X180498Y122770D02*
X690931Y122763D01*
X180498Y142770D02*
X690931Y142763D01*
X-36327Y85040D02*
X-14566D01*
X-36358Y85040D02*
X-36327Y85040D01*
X-59055Y103058D02*
Y140945D01*
X218504Y1182284D02*
X297244D01*
D11*
X-14321Y131071D02*
G03*
X-17928Y122363I8708J-8708D01*
G01*
X-272606Y292365D02*
G03*
X-269091Y283879I12001J0D01*
G01*
X-571962Y292373D02*
G03*
X-568447Y283887I12001J0D01*
G01*
X-583411Y283959D02*
G03*
X-579896Y292445I-8486J8486D01*
G01*
X-276575Y277866D02*
G03*
X-288796Y307370I-41725J0D01*
G01*
X-17928Y107743D02*
Y122363D01*
X-14321Y131071D02*
X-3969Y141423D01*
X-272606Y292365D02*
Y297103D01*
X-571962Y292373D02*
Y297111D01*
X-579896Y292445D02*
Y297183D01*
X-276575Y277362D02*
Y277866D01*
X1442795Y3137165D02*
X1493188D01*
X1440827Y3139134D02*
X1442795Y3137165D01*
X1440827Y3139134D02*
Y3176535D01*
X1493188Y3137165D02*
X1504803Y3125550D01*
X1662665Y3132697D02*
X1667992D01*
X1658197Y3137165D02*
X1662665Y3132697D01*
X1608278Y3137165D02*
X1658197D01*
X1518387Y2940315D02*
X1563002D01*
X1498701Y2960000D02*
X1518387Y2940315D01*
X1450798Y2960000D02*
X1498701D01*
X1504803Y2966102D01*
X1563002Y2940315D02*
X1582687Y2960000D01*
X1608278D01*
X1504803Y2966102D02*
Y3125550D01*
X77795Y1380224D02*
X78885Y1381314D01*
X77500Y1380224D02*
X77795D01*
X514961Y1105512D02*
X518898Y1109449D01*
X531102D01*
X70866Y593701D02*
X70866Y593701D01*
Y603544D01*
X70380Y634916D02*
X70866Y634430D01*
Y603544D02*
Y634430D01*
D12*
X-3969Y141423D02*
G03*
X-27559Y109449I9874J-31975D01*
G01*
X5906Y142913D02*
G03*
X-3969Y141423I0J-33465D01*
G01*
X-575984Y297476D02*
G03*
X-592548Y314040I-16564J0D01*
G01*
X-12177Y855540D02*
G03*
X15354Y883071I0J27531D01*
G01*
X33053Y900770D02*
G03*
X15354Y883071I0J-17699D01*
G01*
D02*
G03*
X-2345Y900770I-17699J0D01*
G01*
X-260236Y314173D02*
G03*
X-276575Y297835I0J-16339D01*
G01*
X-556864Y314159D02*
G03*
X-575984Y295039I0J-19121D01*
G01*
X-575197Y314173D02*
G03*
X-575984Y313386I0J-788D01*
G01*
X77500Y1380224D02*
G03*
X78885Y1381314I-3879J6354D01*
G01*
X73621Y1379134D02*
G03*
X77500Y1380224I0J7444D01*
G01*
X355118Y1462992D02*
G03*
X353543Y1459190I3802J-3802D01*
G01*
X15354Y883071D02*
Y900787D01*
X-6778Y900770D02*
X-2345D01*
X33053D02*
X36466D01*
X-276575Y297835D02*
Y314173D01*
X-260236D01*
X-276575Y277866D02*
Y297835D01*
X-575984Y313386D02*
Y314173D01*
Y297476D02*
Y313386D01*
Y295039D02*
Y297476D01*
Y277362D02*
Y295039D01*
X-49930Y855540D02*
X-12177D01*
X230370Y1071083D02*
Y1109449D01*
X353543Y1429527D02*
Y1459190D01*
X15354Y1379134D02*
X73621D01*
X-576772Y314173D02*
X-575984D01*
X230370Y1109449D02*
X251575D01*
X514961Y1073282D02*
Y1105512D01*
Y1109449D01*
X518898D01*
D13*
X-508145Y1086478D02*
G03*
X-519704Y1107509I-11716J7253D01*
G01*
X-483990Y1107472D02*
G03*
X-495549Y1086441I158J-13779D01*
G01*
X-229317Y1083531D02*
G03*
X-242527Y1107566I-13390J8289D01*
G01*
X-202271Y1107609D02*
G03*
X-215481Y1083573I180J-15747D01*
G01*
X-333277Y1436903D02*
G03*
X-344836Y1457935I-11716J7253D01*
G01*
X-308485Y1457826D02*
G03*
X-320044Y1436795I158J-13779D01*
G01*
X-7633Y1633111D02*
G03*
X-10992Y1651638I-11580J7469D01*
G01*
X15060Y1654861D02*
G03*
X3265Y1633614I-216J-13778D01*
G01*
X-5131Y899260D02*
X-835D01*
D14*
X-293307Y388976D02*
G03*
X-308071Y374212I0J-14764D01*
G01*
Y346850D02*
G03*
X-302953Y341732I5118J0D01*
G01*
X-204724Y375197D02*
G03*
X-218504Y388976I-13780J0D01*
G01*
X-523229Y1136220D02*
G03*
X-522441Y1137008I0J788D01*
G01*
X-554331Y1145275D02*
G03*
X-545276Y1136220I9055J0D01*
G01*
X-537795Y1187401D02*
G03*
X-554331Y1170866I0J-16535D01*
G01*
X-452756Y1173228D02*
G03*
X-466929Y1187401I-14173J0D01*
G01*
X-253937Y1184252D02*
G03*
X-265748Y1172441I0J-11811D01*
G01*
X-262992Y1138583D02*
G03*
X-259191Y1137008I3801J3801D01*
G01*
X-265748Y1145236D02*
G03*
X-262992Y1138583I9409J0D01*
G01*
X-165354Y1172441D02*
G03*
X-177165Y1184252I-11811J0D01*
G01*
X-519685Y375197D02*
G03*
X-531496Y387008I-11811J0D01*
G01*
X70866Y959842D02*
G03*
X57087Y973622I-13780J0D01*
G01*
X-269685Y1521039D02*
G03*
X-281323Y1532677I-11638J0D01*
G01*
X-622047Y349775D02*
G03*
X-614004Y341732I8043J0D01*
G01*
X-608268Y387008D02*
G03*
X-622047Y373228I0J-13780D01*
G01*
X-19685Y973622D02*
G03*
X-29921Y963386I0J-10236D01*
G01*
Y935433D02*
G03*
X-22835Y928346I7087J0D01*
G01*
X-374016Y1496850D02*
G03*
X-364567Y1487401I9449J0D01*
G01*
X-364173Y1532677D02*
G03*
X-374016Y1522835I0J-9842D01*
G01*
X-269685Y1504134D02*
Y1512992D01*
X-22835Y928346D02*
X-5906D01*
X-452756Y1162599D02*
Y1173228D01*
Y1152953D02*
Y1162599D01*
X-364567Y1487401D02*
X-344488D01*
X-293307Y388976D02*
X-218504D01*
X-308071Y346850D02*
Y374212D01*
X-302953Y341732D02*
X-285433D01*
X-614004Y341732D02*
X-596457D01*
X-204724Y367323D02*
Y375197D01*
X-545276Y1136220D02*
X-523229D01*
X-554331Y1145275D02*
Y1170866D01*
X-537795Y1187401D02*
X-466929D01*
X-165354Y1162599D02*
Y1172441D01*
X-265748Y1145236D02*
Y1172441D01*
X-253937Y1184252D02*
X-177165D01*
X-259191Y1137008D02*
X-240157D01*
X-165354Y1153740D02*
Y1162599D01*
X-204724Y357480D02*
Y367323D01*
X-519685D02*
Y375197D01*
Y357480D02*
Y367323D01*
X70866Y953937D02*
Y959842D01*
X70866Y944094D02*
X70866Y944095D01*
Y953937D01*
X-269685Y1512992D02*
Y1521039D01*
X-622047Y349775D02*
Y373228D01*
X-19685Y973622D02*
X57087D01*
X-29921Y935433D02*
Y963386D01*
X-364173Y1532677D02*
X-281323D01*
X-374016Y1496850D02*
Y1522835D01*
X-608268Y387008D02*
X-531496D01*
D15*
X1529538Y3206063D02*
D03*
Y2891102D02*
D03*
D16*
X1608278Y3137165D02*
D03*
Y3117480D02*
D03*
Y3097795D02*
D03*
Y3078110D02*
D03*
Y3058425D02*
D03*
Y3038740D02*
D03*
Y3019055D02*
D03*
Y2999370D02*
D03*
Y2979685D02*
D03*
Y2960000D02*
D03*
X1450798Y3117480D02*
D03*
Y3097795D02*
D03*
Y3078110D02*
D03*
Y3058425D02*
D03*
Y3038740D02*
D03*
Y3019055D02*
D03*
Y2999370D02*
D03*
Y2979685D02*
D03*
Y2960000D02*
D03*
Y3137165D02*
D03*
D17*
X-325591Y1514961D02*
D03*
X-325197Y1459843D02*
D03*
X354725Y1518110D02*
D03*
X355118Y1462992D02*
D03*
X-575197Y314173D02*
D03*
X-575591Y369291D02*
D03*
X-260236Y314173D02*
D03*
X-260630Y369291D02*
D03*
X15354Y900787D02*
D03*
X14961Y955905D02*
D03*
X15354Y142913D02*
D03*
X14961Y198032D02*
D03*
X-508268Y1109449D02*
D03*
X-508661Y1164567D02*
D03*
X-220866Y1109449D02*
D03*
X-221260Y1164567D02*
D03*
X15354Y1379134D02*
D03*
X14961Y1434252D02*
D03*
X538976Y1109449D02*
D03*
X538583Y1164567D02*
D03*
X251575Y1109449D02*
D03*
X251181Y1164567D02*
D03*
X15354Y1656693D02*
D03*
X14961Y1711811D02*
D03*
X605906Y314173D02*
D03*
X605512Y369291D02*
D03*
X290945Y314173D02*
D03*
X290551Y369291D02*
D03*
X15354Y550394D02*
D03*
X14961Y605512D02*
D03*
D18*
X-399606Y1520866D02*
D03*
Y1453937D02*
D03*
X280709Y1524016D02*
D03*
Y1457086D02*
D03*
X-649606Y308268D02*
D03*
Y375197D02*
D03*
X-334646Y308268D02*
D03*
Y375197D02*
D03*
X-59055Y894882D02*
D03*
Y961811D02*
D03*
Y137008D02*
D03*
Y203937D02*
D03*
X-582677Y1103543D02*
D03*
Y1170472D02*
D03*
X-295276Y1103543D02*
D03*
Y1170472D02*
D03*
X-59055Y1373228D02*
D03*
Y1440157D02*
D03*
X464567Y1103543D02*
D03*
Y1170472D02*
D03*
X177165Y1103543D02*
D03*
Y1170472D02*
D03*
X-59055Y1650787D02*
D03*
Y1717716D02*
D03*
X531496Y308268D02*
D03*
Y375197D02*
D03*
X216536Y308267D02*
D03*
Y375197D02*
D03*
X-59055Y544488D02*
D03*
Y611417D02*
D03*
D19*
X-283464Y1512992D02*
D03*
X-269685D02*
D03*
X396851Y1516142D02*
D03*
X410630D02*
D03*
X-519685Y367323D02*
D03*
X-533465D02*
D03*
X-204724D02*
D03*
X-218504D02*
D03*
X70866Y953937D02*
D03*
X57087D02*
D03*
X70866Y196063D02*
D03*
X57087D02*
D03*
X-452756Y1162599D02*
D03*
X-466535D02*
D03*
X-165354D02*
D03*
X-179134D02*
D03*
X70866Y1432284D02*
D03*
X57087D02*
D03*
X594488Y1162599D02*
D03*
X580709D02*
D03*
X307087D02*
D03*
X293307D02*
D03*
X70866Y1709843D02*
D03*
X57087D02*
D03*
X661417Y367323D02*
D03*
X647638D02*
D03*
X346457Y367323D02*
D03*
X332677D02*
D03*
X70866Y603544D02*
D03*
X57087D02*
D03*
D20*
X-276575Y1487402D02*
D03*
X403740Y1490551D02*
D03*
X-526575Y341733D02*
D03*
X-211614D02*
D03*
X63977Y928346D02*
D03*
Y170473D02*
D03*
X-459646Y1137008D02*
D03*
X-172244D02*
D03*
X63977Y1406693D02*
D03*
X587598Y1137008D02*
D03*
X300197D02*
D03*
X63977Y1684252D02*
D03*
X654528Y341733D02*
D03*
X339567Y341732D02*
D03*
X63977Y577953D02*
D03*
D21*
X271654Y1137008D02*
X314960D01*
X65748Y170473D02*
X78740D01*
X65748Y145866D02*
Y170473D01*
X68110Y904724D02*
Y928346D01*
X65748Y145866D02*
X67520Y144095D01*
X63977Y170473D02*
X65748D01*
X63977Y928346D02*
X68110D01*
X-459646Y1137008D02*
X-448819D01*
X-448819Y1137008D01*
X312992Y341732D02*
X312992Y341732D01*
X339567D01*
X63977Y1684252D02*
X77559D01*
X37402Y1684252D02*
X37402Y1684252D01*
X63977D01*
X-172244Y1137008D02*
X-158661D01*
X-200787Y1137008D02*
X-200787Y1137008D01*
X-172244D01*
X549213Y1137008D02*
X594488D01*
X29711Y577953D02*
X29712Y577953D01*
X56483D02*
X56483Y577953D01*
X29712Y577953D02*
X56483D01*
X56483Y577953D02*
X63977D01*
X-484252Y1137008D02*
X-459646D01*
X-484252Y1137008D02*
Y1137008D01*
X-200787Y1137008D02*
Y1137008D01*
X78740Y170473D02*
X78740Y170472D01*
X669291Y341733D02*
X669291Y341732D01*
X654528Y341733D02*
X669291D01*
X-196851D02*
X-196850Y341732D01*
X-211614Y341733D02*
X-196851D01*
X-511811D02*
X-511811Y341732D01*
X-526575Y341733D02*
X-511811D01*
X594488Y1137008D02*
X594488Y1137008D01*
X418504Y1490551D02*
X418504Y1490551D01*
X403740Y1490551D02*
X418504D01*
X-262795Y1487401D02*
Y1487402D01*
X-276575D02*
X-262795D01*
X77756Y1406693D02*
X77756Y1406693D01*
X63977Y1406693D02*
X77756D01*
X625984Y341732D02*
Y341733D01*
X654528D01*
X-309055Y1487402D02*
Y1487402D01*
X-276575D01*
X39370Y1406693D02*
Y1406693D01*
X63977D01*
X371260Y1490551D02*
Y1490551D01*
X403740D01*
X549213Y1137008D02*
Y1137008D01*
X271654Y1137008D02*
Y1137008D01*
X-240157Y341732D02*
Y341733D01*
X-211614D01*
X-555817D02*
X-526575D01*
X-555817Y341732D02*
Y341733D01*
D22*
X-222441Y1079527D02*
Y1107874D01*
X-501969Y1081890D02*
Y1107874D01*
X-326772Y1432283D02*
Y1458268D01*
X-1968Y1627165D02*
Y1651181D01*
D23*
X1588593Y2918661D02*
D03*
Y3178504D02*
D03*
D24*
X-59055Y957874D02*
D03*
X-5906Y928346D02*
D03*
X1458543Y2812362D02*
D03*
X1419173Y2851732D02*
D03*
X1379803Y2916693D02*
D03*
Y2954095D02*
D03*
X1713012Y2959803D02*
D03*
X1553032Y2971811D02*
D03*
X1379803Y2991496D02*
D03*
X1553032Y3007244D02*
D03*
X1743012Y3025213D02*
D03*
X1379803Y3028898D02*
D03*
Y3068268D02*
D03*
Y3105669D02*
D03*
X1667992Y3132697D02*
D03*
X1379803Y3143071D02*
D03*
X1440827Y3176535D02*
D03*
X1379803Y3180472D02*
D03*
X1342402D02*
D03*
X-62992Y650787D02*
D03*
X-52877Y505118D02*
D03*
X-49930Y855540D02*
D03*
X-276575Y277362D02*
D03*
X-575984D02*
D03*
X-501969Y1081890D02*
D03*
X-222441Y1079527D02*
D03*
X-27559Y109449D02*
D03*
X-326772Y1432283D02*
D03*
X78885Y1381314D02*
D03*
X-1968Y1627165D02*
D03*
X230370Y1071083D02*
D03*
X262598Y412736D02*
D03*
X514961Y1073282D02*
D03*
X590551Y409114D02*
D03*
X353543Y1429527D02*
D03*
X-15564Y170472D02*
D03*
X67520Y144095D02*
D03*
X29711Y577953D02*
D03*
X261592Y341732D02*
D03*
X-285433D02*
D03*
X-5650Y1406693D02*
D03*
X-522441Y1137008D02*
D03*
X-484252D02*
D03*
X-240157D02*
D03*
X-200787D02*
D03*
X70380Y634916D02*
D03*
X335827Y1490551D02*
D03*
X39370Y1406693D02*
D03*
X625984Y341732D02*
D03*
X583661Y341732D02*
D03*
X312992Y341732D02*
D03*
X-240157D02*
D03*
X-334646Y371260D02*
D03*
X-555817Y341732D02*
D03*
X-596457D02*
D03*
X-649606Y371260D02*
D03*
X68110Y904724D02*
D03*
X271654Y1137008D02*
D03*
X232284D02*
D03*
X513779Y1137008D02*
D03*
X549213Y1137008D02*
D03*
X371260Y1490551D02*
D03*
X-309055Y1487402D02*
D03*
X-344488Y1487401D02*
D03*
X1968Y1684252D02*
D03*
X37402D02*
D03*
%TF.MD5,b59aae9a86d7ab4728a89f345630baae*%
M02*
