%TF.GenerationSoftware,Altium Limited,Altium Designer,21.6.4 (81)*%
G04 Layer_Color=16711935*
%FSLAX26Y26*%
%MOIN*%
%TF.SameCoordinates,9211681A-A755-4052-9ADE-E47D4287157B*%
%TF.FilePolarity,Positive*%
%TF.FileFunction,Other,Stiffener*%
%TF.Part,Single*%
G01*
G75*
%TA.AperFunction,NonConductor*%
%ADD45C,0.003937*%
G36*
X78346Y1185433D02*
Y1185433D01*
X77195Y1184162D01*
X75292Y1181314D01*
X73981Y1178149D01*
X73312Y1174790D01*
X73228Y1173077D01*
Y1172036D01*
X73228Y1172036D01*
X73228D01*
X73306Y1170455D01*
X73923Y1167353D01*
X75133Y1164432D01*
X76890Y1161803D01*
X77953Y1160630D01*
X78031D01*
X78176Y1160570D01*
X78286Y1160459D01*
X78346Y1160314D01*
Y1093229D01*
X78286Y1093084D01*
X78176Y1092973D01*
X78031Y1092913D01*
X69685D01*
X66997Y1092649D01*
X62029Y1090591D01*
X58228Y1086789D01*
X56170Y1081822D01*
X55906Y1079134D01*
Y1074803D01*
X-55906D01*
Y1079418D01*
X-56136Y1081757D01*
X-57927Y1086080D01*
X-61235Y1089389D01*
X-65558Y1091180D01*
X-67898Y1091410D01*
X-72384D01*
X-72410Y1091421D01*
X-72430Y1091441D01*
X-72441Y1091467D01*
Y1150624D01*
X-71526Y1155245D01*
X-69961Y1156973D01*
X-67373Y1160846D01*
X-65590Y1165149D01*
X-64681Y1169718D01*
X-64567Y1172047D01*
Y1173116D01*
X-64696Y1175751D01*
X-65725Y1180920D01*
X-67741Y1185789D01*
X-70669Y1190171D01*
X-72441Y1192126D01*
X-35039Y1229528D01*
X34252D01*
X78346Y1185433D01*
D02*
G37*
G36*
X1733858Y3260251D02*
X1739366D01*
X1750169Y3258102D01*
X1760346Y3253887D01*
X1769505Y3247767D01*
X1777294Y3239978D01*
X1783414Y3230819D01*
X1787630Y3220642D01*
X1789779Y3209838D01*
Y3204331D01*
X1789779Y3203721D01*
X1789530Y3202528D01*
X1789044Y3201411D01*
X1788341Y3200416D01*
X1787895Y3200000D01*
X1789778Y3195669D01*
D01*
X1789779Y3191021D01*
X1789779Y2903044D01*
X1789778Y2898500D01*
X1788042Y2894254D01*
X1788030Y2894225D01*
X1784764Y2890958D01*
X1613007Y2719201D01*
X1613007Y2623232D01*
X1612106Y2621056D01*
X1610440Y2619390D01*
X1608264Y2618489D01*
X1607087D01*
Y2618489D01*
X1459452Y2618489D01*
X1457276Y2619390D01*
X1455611Y2621056D01*
X1454709Y2623232D01*
Y2624409D01*
X1454709D01*
Y2715264D01*
X1289923Y2880051D01*
X1289507Y2880463D01*
X1288854Y2881436D01*
X1288403Y2882517D01*
X1288174Y2883666D01*
X1288174Y2884252D01*
X1288174Y3204331D01*
Y3209838D01*
X1290323Y3220642D01*
X1294538Y3230819D01*
X1300658Y3239978D01*
X1308447Y3247767D01*
X1317606Y3253887D01*
X1327783Y3258102D01*
X1338587Y3260251D01*
X1344094D01*
Y3260251D01*
X1733858Y3260251D01*
D02*
G37*
D45*
X77953Y1092913D02*
G03*
X78346Y1093307I0J394D01*
G01*
X77953Y1092913D02*
G03*
X78346Y1093307I0J394D01*
G01*
X69685Y1092913D02*
G03*
X55906Y1079134I0J-13780D01*
G01*
X-72441Y1091482D02*
G03*
X-72369Y1091410I72J0D01*
G01*
X-55906Y1079418D02*
G03*
X-67898Y1091410I-11993J0D01*
G01*
X78346Y1160236D02*
G03*
X77953Y1160630I-394J0D01*
G01*
X73228Y1172036D02*
G03*
X77953Y1160630I16131J0D01*
G01*
X78346Y1185433D02*
G03*
X73228Y1173077I12356J-12356D01*
G01*
X-64567Y1173116D02*
G03*
X-72441Y1192126I-26884J0D01*
G01*
X-71527Y1155245D02*
G03*
X-64567Y1172047I-16802J16802D01*
G01*
X69685Y1092913D02*
X77953D01*
X55906Y1074803D02*
Y1079134D01*
X-72441Y1091482D02*
Y1154331D01*
X-72369Y1091410D02*
X-67898D01*
X-55906Y1074803D02*
Y1079418D01*
X78346Y1093307D02*
Y1160236D01*
X73228Y1172036D02*
Y1173077D01*
X-64567Y1172047D02*
Y1173116D01*
X-72441Y1154331D02*
X-71527Y1155245D01*
X-72441Y1192126D02*
X-35039Y1229528D01*
X34252D02*
X78346Y1185433D01*
X-55906Y1074803D02*
X55906D01*
X-35039Y1229528D02*
X34252D01*
%TF.MD5,49f2ee76ab66e5661f3348a4d595ffe4*%
M02*
