M48
;Layer_Color=9474304
;FILE_FORMAT=2:4
INCH,LZ
;TYPE=PLATED
T1F00S00C0.0118
;TYPE=NON_PLATED
T2F00S00C0.0276
%
T01
X-00576Y002774
X-005558Y003417
X-005965
X-006496Y003713
X-003346
X-002854Y003417
X-002402
X-002766Y002774
X-000156Y001705
X-000276Y001094
X000675Y001441
X002616Y003417
X00313
X002626Y004127
X005906Y004091
X005837Y003417
X00626Y003417
X000297Y00578
X000704Y006349
X-00063Y006508
X-000529Y005051
X-000499Y008555
X-000059Y009283
X000681Y009047
X-000591Y009579
X-002224Y010795
X-002402Y01137
X-002008
X-004843
X-005224
X-00502Y010819
X-003268Y014323
X-003445Y014874
X-003091Y014874
X-000057Y014067
X000394
X000789Y013813
X003535Y014295
X003358Y014906
X003713
X002717Y01137
X002323
X002304Y010711
X00515Y010733
X005138Y01137
X005492Y01137
X-00002Y016272
X00002Y016843
X000374
X014585Y028124
X014192Y028517
X013798Y029167
Y029541
Y029915
Y030289
Y030683
Y031057
Y031431
Y031805
X013424
X014408Y031765
X01668Y031327
X01743Y030252
X01713Y029598
X01553Y029718
Y030072
T02
X015886Y029187
Y031785
M30
