%TF.GenerationSoftware,Altium Limited,Altium Designer,21.6.4 (81)*%
G04 Layer_Color=16711935*
%FSLAX26Y26*%
%MOIN*%
%TF.SameCoordinates,9211681A-A755-4052-9ADE-E47D4287157B*%
%TF.FilePolarity,Negative*%
%TF.FileFunction,Soldermask,Bot*%
%TF.Part,Single*%
G01*
G75*
%TA.AperFunction,ComponentPad*%
%ADD29C,0.035559*%
%TA.AperFunction,ViaPad*%
%ADD30C,0.019685*%
%ADD31C,0.011811*%
D29*
X1588593Y2918661D02*
D03*
Y3178504D02*
D03*
D30*
X-59055Y957874D02*
D03*
X-5906Y928346D02*
D03*
X-62992Y650787D02*
D03*
X-52877Y505118D02*
D03*
X-49930Y855540D02*
D03*
X-276575Y277362D02*
D03*
X-575984D02*
D03*
X-501969Y1081890D02*
D03*
X-222441Y1079527D02*
D03*
X-27559Y109449D02*
D03*
X-326772Y1432283D02*
D03*
X78885Y1381314D02*
D03*
X-1968Y1627165D02*
D03*
X230370Y1071083D02*
D03*
X262598Y412736D02*
D03*
X514961Y1073282D02*
D03*
X590551Y409114D02*
D03*
X353543Y1429527D02*
D03*
X-15564Y170472D02*
D03*
X67520Y144095D02*
D03*
X29711Y577953D02*
D03*
X261592Y341732D02*
D03*
X-285433D02*
D03*
X-5650Y1406693D02*
D03*
X-522441Y1137008D02*
D03*
X-484252D02*
D03*
X-240157D02*
D03*
X-200787D02*
D03*
X70380Y634916D02*
D03*
X335827Y1490551D02*
D03*
X39370Y1406693D02*
D03*
X625984Y341732D02*
D03*
X583661Y341732D02*
D03*
X312992Y341732D02*
D03*
X-240157D02*
D03*
X-334646Y371260D02*
D03*
X-555817Y341732D02*
D03*
X-596457D02*
D03*
X-649606Y371260D02*
D03*
X68110Y904724D02*
D03*
X271654Y1137008D02*
D03*
X232284D02*
D03*
X513779Y1137008D02*
D03*
X549213Y1137008D02*
D03*
X371260Y1490551D02*
D03*
X-309055Y1487402D02*
D03*
X-344488Y1487401D02*
D03*
X1968Y1684252D02*
D03*
X37402D02*
D03*
D31*
X1458543Y2812362D02*
D03*
X1419173Y2851732D02*
D03*
X1379803Y2916693D02*
D03*
Y2954095D02*
D03*
X1713012Y2959803D02*
D03*
X1553032Y2971811D02*
D03*
X1379803Y2991496D02*
D03*
X1553032Y3007244D02*
D03*
X1743012Y3025213D02*
D03*
X1379803Y3028898D02*
D03*
Y3068268D02*
D03*
Y3105669D02*
D03*
X1667992Y3132697D02*
D03*
X1379803Y3143071D02*
D03*
X1440827Y3176535D02*
D03*
X1379803Y3180472D02*
D03*
X1342402D02*
D03*
%TF.MD5,5d04678f40e3bd650bd4abe29fba0a72*%
M02*
