%TF.GenerationSoftware,Altium Limited,Altium Designer,21.6.4 (81)*%
G04 Layer_Color=8388736*
%FSLAX43Y43*%
%MOMM*%
%TF.SameCoordinates,B20EAAAA-7FFA-483C-807E-B1D6702B97A4*%
%TF.FilePolarity,Negative*%
%TF.FileFunction,Soldermask,Top*%
%TF.Part,Single*%
G01*
G75*
%TA.AperFunction,SMDPad,CuDef*%
%ADD23R,1.219X0.914*%
%TA.AperFunction,ComponentPad*%
%ADD62C,1.701*%
%ADD63R,1.701X1.701*%
%ADD64C,1.103*%
%ADD65O,1.653X2.203*%
%ADD66O,1.353X2.003*%
%ADD67C,1.003*%
%ADD68R,1.803X1.803*%
%ADD69C,1.803*%
%TA.AperFunction,WasherPad*%
%ADD70C,1.303*%
%TA.AperFunction,ComponentPad*%
%ADD71C,1.703*%
%ADD72R,1.701X1.701*%
%ADD73R,1.703X1.703*%
%ADD74R,1.703X1.703*%
%TA.AperFunction,ViaPad*%
%ADD76C,0.903*%
%ADD77C,3.203*%
%TA.AperFunction,SMDPad,CuDef*%
%ADD78C,0.703*%
%ADD79R,0.903X1.453*%
%ADD80R,1.003X1.103*%
%ADD81R,1.453X0.903*%
%ADD82R,1.003X1.003*%
G04:AMPARAMS|DCode=83|XSize=1.853mm|YSize=2.583mm|CornerRadius=0.225mm|HoleSize=0mm|Usage=FLASHONLY|Rotation=90.000|XOffset=0mm|YOffset=0mm|HoleType=Round|Shape=RoundedRectangle|*
%AMROUNDEDRECTD83*
21,1,1.853,2.133,0,0,90.0*
21,1,1.403,2.583,0,0,90.0*
1,1,0.451,1.066,0.701*
1,1,0.451,1.066,-0.701*
1,1,0.451,-1.066,-0.701*
1,1,0.451,-1.066,0.701*
%
%ADD83ROUNDEDRECTD83*%
%ADD84R,0.453X0.903*%
%ADD85R,0.703X1.003*%
%ADD86R,1.803X1.053*%
%ADD87R,1.203X0.403*%
%ADD88R,0.403X1.203*%
%ADD89R,0.803X0.703*%
%ADD90R,1.103X1.003*%
%ADD91R,1.903X1.303*%
%ADD92R,1.303X1.903*%
G04:AMPARAMS|DCode=93|XSize=1.303mm|YSize=0.803mm|CornerRadius=0.123mm|HoleSize=0mm|Usage=FLASHONLY|Rotation=270.000|XOffset=0mm|YOffset=0mm|HoleType=Round|Shape=RoundedRectangle|*
%AMROUNDEDRECTD93*
21,1,1.303,0.558,0,0,270.0*
21,1,1.058,0.803,0,0,270.0*
1,1,0.245,-0.279,-0.529*
1,1,0.245,-0.279,0.529*
1,1,0.245,0.279,0.529*
1,1,0.245,0.279,-0.529*
%
%ADD93ROUNDEDRECTD93*%
%ADD94R,0.603X0.603*%
%TA.AperFunction,ConnectorPad*%
%ADD95R,0.653X1.503*%
%TA.AperFunction,SMDPad,CuDef*%
G04:AMPARAMS|DCode=96|XSize=0.44mm|YSize=1.14mm|CornerRadius=0mm|HoleSize=0mm|Usage=FLASHONLY|Rotation=90.000|XOffset=0mm|YOffset=0mm|HoleType=Round|Shape=RoundedRectangle|*
%AMROUNDEDRECTD96*
21,1,0.440,1.140,0,0,90.0*
21,1,0.440,1.140,0,0,90.0*
1,1,0.000,0.570,0.220*
1,1,0.000,0.570,-0.220*
1,1,0.000,-0.570,-0.220*
1,1,0.000,-0.570,0.220*
%
%ADD96ROUNDEDRECTD96*%
G04:AMPARAMS|DCode=97|XSize=1.303mm|YSize=0.803mm|CornerRadius=0.123mm|HoleSize=0mm|Usage=FLASHONLY|Rotation=180.000|XOffset=0mm|YOffset=0mm|HoleType=Round|Shape=RoundedRectangle|*
%AMROUNDEDRECTD97*
21,1,1.303,0.558,0,0,180.0*
21,1,1.058,0.803,0,0,180.0*
1,1,0.245,-0.529,0.279*
1,1,0.245,0.529,0.279*
1,1,0.245,0.529,-0.279*
1,1,0.245,-0.529,-0.279*
%
%ADD97ROUNDEDRECTD97*%
%ADD98R,0.903X0.953*%
%ADD99R,1.803X3.703*%
G04:AMPARAMS|DCode=100|XSize=0.653mm|YSize=1.703mm|CornerRadius=0.135mm|HoleSize=0mm|Usage=FLASHONLY|Rotation=180.000|XOffset=0mm|YOffset=0mm|HoleType=Round|Shape=RoundedRectangle|*
%AMROUNDEDRECTD100*
21,1,0.653,1.433,0,0,180.0*
21,1,0.383,1.703,0,0,180.0*
1,1,0.271,-0.191,0.716*
1,1,0.271,0.191,0.716*
1,1,0.271,0.191,-0.716*
1,1,0.271,-0.191,-0.716*
%
%ADD100ROUNDEDRECTD100*%
%ADD101R,2.203X5.703*%
%ADD102R,1.003X0.703*%
G04:AMPARAMS|DCode=103|XSize=0.803mm|YSize=1.303mm|CornerRadius=0.117mm|HoleSize=0mm|Usage=FLASHONLY|Rotation=270.000|XOffset=0mm|YOffset=0mm|HoleType=Round|Shape=RoundedRectangle|*
%AMROUNDEDRECTD103*
21,1,0.803,1.070,0,0,270.0*
21,1,0.570,1.303,0,0,270.0*
1,1,0.233,-0.535,-0.285*
1,1,0.233,-0.535,0.285*
1,1,0.233,0.535,0.285*
1,1,0.233,0.535,-0.285*
%
%ADD103ROUNDEDRECTD103*%
%ADD104R,1.003X1.003*%
%ADD105R,0.703X0.803*%
D23*
X40750Y41712D02*
D03*
Y44988D02*
D03*
D62*
X23550Y57650D02*
D03*
X28050D02*
D03*
Y51150D02*
D03*
X1900Y26600D02*
D03*
X8400D02*
D03*
Y31100D02*
D03*
D63*
X23550Y51150D02*
D03*
D64*
X16900Y5350D02*
D03*
X18150D02*
D03*
X19400D02*
D03*
X20650D02*
D03*
X21900D02*
D03*
X23150D02*
D03*
X24400D02*
D03*
X25650D02*
D03*
X26900D02*
D03*
X28150D02*
D03*
X29400D02*
D03*
X30650D02*
D03*
X31900D02*
D03*
X33150D02*
D03*
D65*
X37475Y60050D02*
D03*
X30025D02*
D03*
D66*
X37625Y63850D02*
D03*
X29875D02*
D03*
D67*
X36250Y61100D02*
D03*
X31250D02*
D03*
D68*
X12400Y62040D02*
D03*
D69*
Y59500D02*
D03*
X9860Y62040D02*
D03*
Y59500D02*
D03*
X7320Y62040D02*
D03*
Y59500D02*
D03*
D70*
X3200Y62550D02*
D03*
Y3150D02*
D03*
X46800D02*
D03*
Y62550D02*
D03*
D71*
X3250Y14380D02*
D03*
Y11840D02*
D03*
Y9300D02*
D03*
X16240Y52950D02*
D03*
X13700D02*
D03*
X23800Y35210D02*
D03*
Y37750D02*
D03*
D72*
X1900Y31100D02*
D03*
D73*
X18780Y52950D02*
D03*
D74*
X23800Y32670D02*
D03*
D76*
X12600Y39300D02*
D03*
X18900Y49050D02*
D03*
X28300Y48750D02*
D03*
X24500Y48800D02*
D03*
X20400Y47550D02*
D03*
X18950Y30850D02*
D03*
X39650Y30700D02*
D03*
X41550Y29550D02*
D03*
X10550Y24750D02*
D03*
X21300Y17000D02*
D03*
X19350D02*
D03*
X18050D02*
D03*
X34200Y11050D02*
D03*
X39450D02*
D03*
X4250Y32950D02*
D03*
X7600Y16600D02*
D03*
X12750Y10600D02*
D03*
X12775Y14625D02*
D03*
X7850Y10400D02*
D03*
X13000Y18950D02*
D03*
X12300Y20050D02*
D03*
X12400Y36550D02*
D03*
X31700Y56200D02*
D03*
X20372Y44700D02*
D03*
X24400Y15175D02*
D03*
X19400Y24750D02*
D03*
X20650Y25200D02*
D03*
X18700Y26050D02*
D03*
X42450Y45150D02*
D03*
X39700Y48800D02*
D03*
X42350Y47700D02*
D03*
X42700Y36100D02*
D03*
X44100Y36900D02*
D03*
X39600Y56550D02*
D03*
X40800Y56800D02*
D03*
X44100Y36100D02*
D03*
X42700Y36900D02*
D03*
X45100Y43450D02*
D03*
X20500Y37150D02*
D03*
X16350Y13300D02*
D03*
X25850Y12850D02*
D03*
X27550Y19850D02*
D03*
X11500Y37450D02*
D03*
X24350Y61650D02*
D03*
X16150Y10150D02*
D03*
X21250Y62800D02*
D03*
X26800Y62850D02*
D03*
X24900Y64050D02*
D03*
X21650Y63800D02*
D03*
X32450Y58950D02*
D03*
X31700Y60050D02*
D03*
X32450Y61100D02*
D03*
X43850Y63900D02*
D03*
X23000Y46350D02*
D03*
X14275Y50425D02*
D03*
X13200Y51050D02*
D03*
X17350Y30850D02*
D03*
X750Y43200D02*
D03*
X7350Y39300D02*
D03*
X7000Y35450D02*
D03*
X1100D02*
D03*
X1150Y51000D02*
D03*
X6950D02*
D03*
X7350Y47100D02*
D03*
X15300Y19150D02*
D03*
Y16350D02*
D03*
X13286Y23964D02*
D03*
X20000Y23650D02*
D03*
X17900D02*
D03*
Y24750D02*
D03*
X11500Y39150D02*
D03*
X9000Y40050D02*
D03*
Y41100D02*
D03*
D77*
X47250Y9000D02*
D03*
X2150Y23050D02*
D03*
D78*
X21250Y58250D02*
D03*
X31100Y8050D02*
D03*
D79*
X21250Y48850D02*
D03*
X23250D02*
D03*
X7300Y6000D02*
D03*
X9300D02*
D03*
X9200Y21900D02*
D03*
X11200D02*
D03*
Y20050D02*
D03*
X9200D02*
D03*
X46800Y47900D02*
D03*
X44800D02*
D03*
X43100Y63900D02*
D03*
X41100D02*
D03*
X8800Y43500D02*
D03*
X10800D02*
D03*
D80*
X25850Y48800D02*
D03*
X27250D02*
D03*
X46200Y49450D02*
D03*
X44800D02*
D03*
X17150Y13300D02*
D03*
X18550D02*
D03*
X41650Y56750D02*
D03*
X43050D02*
D03*
X24950Y12900D02*
D03*
X23550D02*
D03*
X1850Y32950D02*
D03*
X3250D02*
D03*
X25000Y18150D02*
D03*
X23600D02*
D03*
X20000Y11850D02*
D03*
X18600D02*
D03*
X24100Y64050D02*
D03*
X22700D02*
D03*
D81*
X19000Y33650D02*
D03*
Y31650D02*
D03*
X40800Y38000D02*
D03*
Y36000D02*
D03*
X45100Y46400D02*
D03*
Y44400D02*
D03*
X16250Y48800D02*
D03*
Y50800D02*
D03*
X17350Y33650D02*
D03*
Y31650D02*
D03*
X19350Y62700D02*
D03*
Y60700D02*
D03*
X21100Y35850D02*
D03*
Y33850D02*
D03*
X24650Y46450D02*
D03*
Y44450D02*
D03*
D82*
X18400Y36300D02*
D03*
Y34700D02*
D03*
X39900Y63900D02*
D03*
Y62300D02*
D03*
X17150Y36300D02*
D03*
Y34700D02*
D03*
D83*
X43400Y36500D02*
D03*
D84*
Y35070D02*
D03*
X43900D02*
D03*
X44400D02*
D03*
X42900D02*
D03*
X42400D02*
D03*
Y37930D02*
D03*
X42900D02*
D03*
X44400D02*
D03*
X43900D02*
D03*
X43400D02*
D03*
D85*
X37100Y58100D02*
D03*
X38600D02*
D03*
D86*
X41550Y33875D02*
D03*
Y30825D02*
D03*
D87*
X21250Y45700D02*
D03*
X12750Y41700D02*
D03*
Y45700D02*
D03*
X21250Y43200D02*
D03*
Y41700D02*
D03*
Y44200D02*
D03*
Y43700D02*
D03*
X12750Y40200D02*
D03*
X21250D02*
D03*
Y41200D02*
D03*
Y40700D02*
D03*
X12750Y42700D02*
D03*
X21250Y44700D02*
D03*
X12750Y43200D02*
D03*
Y43700D02*
D03*
X21250Y42200D02*
D03*
X12750Y45200D02*
D03*
Y44700D02*
D03*
X21250Y42700D02*
D03*
X12750Y40700D02*
D03*
Y44200D02*
D03*
X21250Y45200D02*
D03*
X12750Y42200D02*
D03*
Y41200D02*
D03*
D88*
X19750Y38700D02*
D03*
X18750D02*
D03*
X15750Y47200D02*
D03*
X16750D02*
D03*
X18250Y38700D02*
D03*
X15250Y47200D02*
D03*
X14250D02*
D03*
X16750Y38700D02*
D03*
X14250D02*
D03*
X15750D02*
D03*
X16250D02*
D03*
X15250D02*
D03*
X19750Y47200D02*
D03*
X16250D02*
D03*
X14750Y38700D02*
D03*
X19250D02*
D03*
X17750D02*
D03*
X14750Y47200D02*
D03*
X17250Y38700D02*
D03*
X18250Y47200D02*
D03*
X18750D02*
D03*
X19250D02*
D03*
X17750D02*
D03*
X17250D02*
D03*
D89*
X10550Y8100D02*
D03*
Y10000D02*
D03*
X12550Y9050D02*
D03*
X9750Y41100D02*
D03*
X10750D02*
D03*
X9750Y40050D02*
D03*
X10750D02*
D03*
X21300Y46350D02*
D03*
X22300D02*
D03*
D90*
X7850Y12850D02*
D03*
Y11450D02*
D03*
X39700Y31750D02*
D03*
Y33150D02*
D03*
X41550Y55500D02*
D03*
Y54100D02*
D03*
X43300Y44000D02*
D03*
Y42600D02*
D03*
X15300Y21350D02*
D03*
Y19950D02*
D03*
X15300Y14150D02*
D03*
Y15550D02*
D03*
X13000Y17950D02*
D03*
Y16550D02*
D03*
X12750Y12850D02*
D03*
Y11450D02*
D03*
X13200Y50200D02*
D03*
Y48800D02*
D03*
X7350Y44600D02*
D03*
Y46000D02*
D03*
X7350Y41800D02*
D03*
Y40400D02*
D03*
X26800Y62050D02*
D03*
Y60650D02*
D03*
X21250Y62000D02*
D03*
Y60600D02*
D03*
D91*
X46200Y36550D02*
D03*
Y39250D02*
D03*
X39650Y52850D02*
D03*
Y55550D02*
D03*
X39675Y50400D02*
D03*
Y47700D02*
D03*
D92*
X46150Y33100D02*
D03*
X43450D02*
D03*
X23700Y19850D02*
D03*
X26400D02*
D03*
X17150Y10150D02*
D03*
X19850D02*
D03*
D93*
X41500Y46350D02*
D03*
X42450D02*
D03*
X43400D02*
D03*
Y48950D02*
D03*
X41500D02*
D03*
X23418Y14258D02*
D03*
X24368D02*
D03*
X25318D02*
D03*
Y16858D02*
D03*
X23418D02*
D03*
D94*
X39650Y51950D02*
D03*
D95*
X35050Y60050D02*
D03*
X32450D02*
D03*
X34400D02*
D03*
X33750D02*
D03*
X33100D02*
D03*
D96*
X9510Y12870D02*
D03*
Y12220D02*
D03*
Y11570D02*
D03*
X11310D02*
D03*
Y12220D02*
D03*
Y12870D02*
D03*
D97*
X9075Y16525D02*
D03*
Y15575D02*
D03*
Y14625D02*
D03*
X11675D02*
D03*
Y16525D02*
D03*
X25325Y60650D02*
D03*
Y61600D02*
D03*
Y62550D02*
D03*
X22725D02*
D03*
Y60650D02*
D03*
D98*
X43100Y54075D02*
D03*
Y55525D02*
D03*
D99*
X36150Y44950D02*
D03*
X38550D02*
D03*
D100*
X21300Y21350D02*
D03*
X20650D02*
D03*
X20000D02*
D03*
X19350D02*
D03*
X18700D02*
D03*
X18050D02*
D03*
X17400D02*
D03*
X16750D02*
D03*
Y15550D02*
D03*
X17400D02*
D03*
X18050D02*
D03*
X18700D02*
D03*
X19350D02*
D03*
X20000D02*
D03*
X20650D02*
D03*
X21300D02*
D03*
D101*
X3950Y38400D02*
D03*
Y47900D02*
D03*
D102*
X7600Y14350D02*
D03*
Y15850D02*
D03*
D103*
X35400Y57200D02*
D03*
Y56250D02*
D03*
Y55300D02*
D03*
X32800D02*
D03*
Y56250D02*
D03*
Y57200D02*
D03*
D104*
X19250Y63800D02*
D03*
X20850D02*
D03*
D105*
X20500Y38850D02*
D03*
Y37850D02*
D03*
X14250Y48700D02*
D03*
Y49700D02*
D03*
%TF.MD5,c57c051f24e8e42af6c88ae398d13de1*%
M02*
