%TF.GenerationSoftware,Altium Limited,Altium Designer,21.6.4 (81)*%
G04 Layer_Physical_Order=1*
G04 Layer_Color=255*
%FSLAX43Y43*%
%MOMM*%
%TF.SameCoordinates,B20EAAAA-7FFA-483C-807E-B1D6702B97A4*%
%TF.FilePolarity,Positive*%
%TF.FileFunction,Copper,L1,Top,Signal*%
%TF.Part,Single*%
G01*
G75*
%TA.AperFunction,SMDPad,CuDef*%
%ADD10C,0.500*%
%ADD11R,0.700X1.250*%
%ADD12R,0.800X0.900*%
%ADD13R,1.250X0.700*%
%ADD14R,0.800X0.800*%
G04:AMPARAMS|DCode=15|XSize=1.65mm|YSize=2.38mm|CornerRadius=0.124mm|HoleSize=0mm|Usage=FLASHONLY|Rotation=90.000|XOffset=0mm|YOffset=0mm|HoleType=Round|Shape=RoundedRectangle|*
%AMROUNDEDRECTD15*
21,1,1.650,2.133,0,0,90.0*
21,1,1.403,2.380,0,0,90.0*
1,1,0.248,1.066,0.701*
1,1,0.248,1.066,-0.701*
1,1,0.248,-1.066,-0.701*
1,1,0.248,-1.066,0.701*
%
%ADD15ROUNDEDRECTD15*%
%ADD16R,0.250X0.700*%
%ADD17R,0.500X0.800*%
%ADD18R,1.600X0.850*%
%ADD19R,1.000X0.200*%
%ADD20R,0.200X1.000*%
%ADD21R,0.600X0.500*%
%ADD22R,0.900X0.800*%
%ADD23R,1.219X0.914*%
%ADD24R,1.700X1.100*%
%ADD25R,1.100X1.700*%
G04:AMPARAMS|DCode=26|XSize=1.1mm|YSize=0.6mm|CornerRadius=0.021mm|HoleSize=0mm|Usage=FLASHONLY|Rotation=270.000|XOffset=0mm|YOffset=0mm|HoleType=Round|Shape=RoundedRectangle|*
%AMROUNDEDRECTD26*
21,1,1.100,0.558,0,0,270.0*
21,1,1.058,0.600,0,0,270.0*
1,1,0.042,-0.279,-0.529*
1,1,0.042,-0.279,0.529*
1,1,0.042,0.279,0.529*
1,1,0.042,0.279,-0.529*
%
%ADD26ROUNDEDRECTD26*%
%ADD27R,0.400X0.400*%
%TA.AperFunction,ConnectorPad*%
%ADD28R,0.450X1.300*%
%TA.AperFunction,SMDPad,CuDef*%
G04:AMPARAMS|DCode=29|XSize=0.3mm|YSize=1mm|CornerRadius=0mm|HoleSize=0mm|Usage=FLASHONLY|Rotation=90.000|XOffset=0mm|YOffset=0mm|HoleType=Round|Shape=RoundedRectangle|*
%AMROUNDEDRECTD29*
21,1,0.300,1.000,0,0,90.0*
21,1,0.300,1.000,0,0,90.0*
1,1,0.000,0.500,0.150*
1,1,0.000,0.500,-0.150*
1,1,0.000,-0.500,-0.150*
1,1,0.000,-0.500,0.150*
%
%ADD29ROUNDEDRECTD29*%
G04:AMPARAMS|DCode=30|XSize=1.1mm|YSize=0.6mm|CornerRadius=0.021mm|HoleSize=0mm|Usage=FLASHONLY|Rotation=180.000|XOffset=0mm|YOffset=0mm|HoleType=Round|Shape=RoundedRectangle|*
%AMROUNDEDRECTD30*
21,1,1.100,0.558,0,0,180.0*
21,1,1.058,0.600,0,0,180.0*
1,1,0.042,-0.529,0.279*
1,1,0.042,0.529,0.279*
1,1,0.042,0.529,-0.279*
1,1,0.042,-0.529,-0.279*
%
%ADD30ROUNDEDRECTD30*%
%ADD31R,0.700X0.750*%
%ADD32R,1.600X3.500*%
G04:AMPARAMS|DCode=33|XSize=0.45mm|YSize=1.5mm|CornerRadius=0.034mm|HoleSize=0mm|Usage=FLASHONLY|Rotation=180.000|XOffset=0mm|YOffset=0mm|HoleType=Round|Shape=RoundedRectangle|*
%AMROUNDEDRECTD33*
21,1,0.450,1.433,0,0,180.0*
21,1,0.383,1.500,0,0,180.0*
1,1,0.068,-0.191,0.716*
1,1,0.068,0.191,0.716*
1,1,0.068,0.191,-0.716*
1,1,0.068,-0.191,-0.716*
%
%ADD33ROUNDEDRECTD33*%
%ADD34R,2.000X5.500*%
%ADD35R,0.800X0.500*%
G04:AMPARAMS|DCode=36|XSize=0.6mm|YSize=1.1mm|CornerRadius=0.015mm|HoleSize=0mm|Usage=FLASHONLY|Rotation=270.000|XOffset=0mm|YOffset=0mm|HoleType=Round|Shape=RoundedRectangle|*
%AMROUNDEDRECTD36*
21,1,0.600,1.070,0,0,270.0*
21,1,0.570,1.100,0,0,270.0*
1,1,0.030,-0.535,-0.285*
1,1,0.030,-0.535,0.285*
1,1,0.030,0.535,0.285*
1,1,0.030,0.535,-0.285*
%
%ADD36ROUNDEDRECTD36*%
%ADD37R,0.800X0.800*%
%ADD38R,0.500X0.600*%
%TA.AperFunction,Conductor*%
%ADD39C,0.200*%
%ADD40C,0.500*%
%ADD41C,0.250*%
%ADD42C,0.400*%
%ADD43C,1.000*%
%ADD44C,0.600*%
%ADD45C,0.261*%
%TA.AperFunction,ComponentPad*%
%ADD46C,1.498*%
%ADD47R,1.498X1.498*%
%ADD48C,0.900*%
%ADD49O,1.450X2.000*%
%ADD50O,1.150X1.800*%
%ADD51C,0.800*%
%ADD52R,1.600X1.600*%
%ADD53C,1.600*%
%TA.AperFunction,WasherPad*%
%ADD54C,1.100*%
%TA.AperFunction,ComponentPad*%
%ADD55C,1.500*%
%ADD56R,1.498X1.498*%
%ADD57R,1.500X1.500*%
%ADD58R,1.500X1.500*%
%TA.AperFunction,ViaPad*%
%ADD59C,0.700*%
%ADD60C,3.000*%
D10*
X21250Y58250D02*
D03*
X31100Y8050D02*
D03*
D11*
X21250Y48850D02*
D03*
X23250D02*
D03*
X7300Y6000D02*
D03*
X9300D02*
D03*
X9200Y21900D02*
D03*
X11200D02*
D03*
Y20050D02*
D03*
X9200D02*
D03*
X46800Y47900D02*
D03*
X44800D02*
D03*
X43100Y63900D02*
D03*
X41100D02*
D03*
X8800Y43500D02*
D03*
X10800D02*
D03*
D12*
X25850Y48800D02*
D03*
X27250D02*
D03*
X46200Y49450D02*
D03*
X44800D02*
D03*
X17150Y13300D02*
D03*
X18550D02*
D03*
X41650Y56750D02*
D03*
X43050D02*
D03*
X24950Y12900D02*
D03*
X23550D02*
D03*
X1850Y32950D02*
D03*
X3250D02*
D03*
X25000Y18150D02*
D03*
X23600D02*
D03*
X20000Y11850D02*
D03*
X18600D02*
D03*
X24100Y64050D02*
D03*
X22700D02*
D03*
D13*
X19000Y33650D02*
D03*
Y31650D02*
D03*
X40800Y38000D02*
D03*
Y36000D02*
D03*
X45100Y46400D02*
D03*
Y44400D02*
D03*
X16250Y48800D02*
D03*
Y50800D02*
D03*
X17350Y33650D02*
D03*
Y31650D02*
D03*
X19350Y62700D02*
D03*
Y60700D02*
D03*
X21100Y35850D02*
D03*
Y33850D02*
D03*
X24650Y46450D02*
D03*
Y44450D02*
D03*
D14*
X18400Y36300D02*
D03*
Y34700D02*
D03*
X39900Y63900D02*
D03*
Y62300D02*
D03*
X17150Y36300D02*
D03*
Y34700D02*
D03*
D15*
X43400Y36500D02*
D03*
D16*
Y35070D02*
D03*
X43900D02*
D03*
X44400D02*
D03*
X42900D02*
D03*
X42400D02*
D03*
Y37930D02*
D03*
X42900D02*
D03*
X44400D02*
D03*
X43900D02*
D03*
X43400D02*
D03*
D17*
X37100Y58100D02*
D03*
X38600D02*
D03*
D18*
X41550Y33875D02*
D03*
Y30825D02*
D03*
D19*
X21250Y45700D02*
D03*
X12750Y41700D02*
D03*
Y45700D02*
D03*
X21250Y43200D02*
D03*
Y41700D02*
D03*
Y44200D02*
D03*
Y43700D02*
D03*
X12750Y40200D02*
D03*
X21250D02*
D03*
Y41200D02*
D03*
Y40700D02*
D03*
X12750Y42700D02*
D03*
X21250Y44700D02*
D03*
X12750Y43200D02*
D03*
Y43700D02*
D03*
X21250Y42200D02*
D03*
X12750Y45200D02*
D03*
Y44700D02*
D03*
X21250Y42700D02*
D03*
X12750Y40700D02*
D03*
Y44200D02*
D03*
X21250Y45200D02*
D03*
X12750Y42200D02*
D03*
Y41200D02*
D03*
D20*
X19750Y38700D02*
D03*
X18750D02*
D03*
X15750Y47200D02*
D03*
X16750D02*
D03*
X18250Y38700D02*
D03*
X15250Y47200D02*
D03*
X14250D02*
D03*
X16750Y38700D02*
D03*
X14250D02*
D03*
X15750D02*
D03*
X16250D02*
D03*
X15250D02*
D03*
X19750Y47200D02*
D03*
X16250D02*
D03*
X14750Y38700D02*
D03*
X19250D02*
D03*
X17750D02*
D03*
X14750Y47200D02*
D03*
X17250Y38700D02*
D03*
X18250Y47200D02*
D03*
X18750D02*
D03*
X19250D02*
D03*
X17750D02*
D03*
X17250D02*
D03*
D21*
X10550Y8100D02*
D03*
Y10000D02*
D03*
X12550Y9050D02*
D03*
X9750Y41100D02*
D03*
X10750D02*
D03*
X9750Y40050D02*
D03*
X10750D02*
D03*
X21300Y46350D02*
D03*
X22300D02*
D03*
D22*
X7850Y12850D02*
D03*
Y11450D02*
D03*
X39700Y31750D02*
D03*
Y33150D02*
D03*
X41550Y55500D02*
D03*
Y54100D02*
D03*
X43300Y44000D02*
D03*
Y42600D02*
D03*
X15300Y21350D02*
D03*
Y19950D02*
D03*
X15300Y14150D02*
D03*
Y15550D02*
D03*
X13000Y17950D02*
D03*
Y16550D02*
D03*
X12750Y12850D02*
D03*
Y11450D02*
D03*
X13200Y50200D02*
D03*
Y48800D02*
D03*
X7350Y44600D02*
D03*
Y46000D02*
D03*
X7350Y41800D02*
D03*
Y40400D02*
D03*
X26800Y62050D02*
D03*
Y60650D02*
D03*
X21250Y62000D02*
D03*
Y60600D02*
D03*
D23*
X40750Y41712D02*
D03*
Y44988D02*
D03*
D24*
X46200Y36550D02*
D03*
Y39250D02*
D03*
X39650Y52850D02*
D03*
Y55550D02*
D03*
X39675Y50400D02*
D03*
Y47700D02*
D03*
D25*
X46150Y33100D02*
D03*
X43450D02*
D03*
X23700Y19850D02*
D03*
X26400D02*
D03*
X17150Y10150D02*
D03*
X19850D02*
D03*
D26*
X41500Y46350D02*
D03*
X42450D02*
D03*
X43400D02*
D03*
Y48950D02*
D03*
X41500D02*
D03*
X23418Y14258D02*
D03*
X24368D02*
D03*
X25318D02*
D03*
Y16858D02*
D03*
X23418D02*
D03*
D27*
X39650Y51950D02*
D03*
D28*
X35050Y60050D02*
D03*
X32450D02*
D03*
X34400D02*
D03*
X33750D02*
D03*
X33100D02*
D03*
D29*
X9510Y12870D02*
D03*
Y12220D02*
D03*
Y11570D02*
D03*
X11310D02*
D03*
Y12220D02*
D03*
Y12870D02*
D03*
D30*
X9075Y16525D02*
D03*
Y15575D02*
D03*
Y14625D02*
D03*
X11675D02*
D03*
Y16525D02*
D03*
X25325Y60650D02*
D03*
Y61600D02*
D03*
Y62550D02*
D03*
X22725D02*
D03*
Y60650D02*
D03*
D31*
X43100Y54075D02*
D03*
Y55525D02*
D03*
D32*
X36150Y44950D02*
D03*
X38550D02*
D03*
D33*
X21300Y21350D02*
D03*
X20650D02*
D03*
X20000D02*
D03*
X19350D02*
D03*
X18700D02*
D03*
X18050D02*
D03*
X17400D02*
D03*
X16750D02*
D03*
Y15550D02*
D03*
X17400D02*
D03*
X18050D02*
D03*
X18700D02*
D03*
X19350D02*
D03*
X20000D02*
D03*
X20650D02*
D03*
X21300D02*
D03*
D34*
X3950Y38400D02*
D03*
Y47900D02*
D03*
D35*
X7600Y14350D02*
D03*
Y15850D02*
D03*
D36*
X35400Y57200D02*
D03*
Y56250D02*
D03*
Y55300D02*
D03*
X32800D02*
D03*
Y56250D02*
D03*
Y57200D02*
D03*
D37*
X19250Y63800D02*
D03*
X20850D02*
D03*
D38*
X20500Y38850D02*
D03*
Y37850D02*
D03*
X14250Y48700D02*
D03*
Y49700D02*
D03*
D39*
X12569Y39300D02*
X12600D01*
X11950Y39919D02*
X12569Y39300D01*
X11950Y39919D02*
Y40583D01*
X19250Y47200D02*
Y48565D01*
X18900Y48915D02*
X19250Y48565D01*
X18900Y48915D02*
Y49050D01*
X19750Y47200D02*
Y49450D01*
X17700Y51500D02*
Y53850D01*
Y51500D02*
X19750Y49450D01*
X27158Y50958D02*
X27858D01*
X25850Y48800D02*
Y49650D01*
X27858Y50958D02*
X28050Y51150D01*
X25850Y49650D02*
X27158Y50958D01*
X28050Y51150D02*
Y57650D01*
X24500Y48800D02*
X25700D01*
X23300D02*
X24500D01*
X23250Y48850D02*
X23300Y48800D01*
X20400Y47550D02*
Y53850D01*
X18000Y56250D02*
X20400Y53850D01*
X17240Y49441D02*
X18750Y47931D01*
Y47200D02*
Y47931D01*
X15750Y29000D02*
Y38700D01*
Y29000D02*
X18700Y26050D01*
X18400Y34700D02*
X18700Y34400D01*
Y33900D02*
Y34400D01*
Y33900D02*
X18950Y33650D01*
X19000D01*
X17250Y38000D02*
X18100Y37150D01*
Y36600D02*
X18400Y36300D01*
X18100Y36600D02*
Y37150D01*
X17250Y38000D02*
Y38700D01*
X17150Y36300D02*
Y37330D01*
X16750Y37730D02*
X17150Y37330D01*
X16750Y37730D02*
Y38700D01*
X17400Y21350D02*
Y22850D01*
X14250Y26000D02*
X17400Y22850D01*
X14250Y26000D02*
Y38700D01*
X15250Y27950D02*
Y38700D01*
X17900Y24750D02*
Y25300D01*
X15250Y27950D02*
X17900Y25300D01*
X16250Y30350D02*
Y38700D01*
Y30350D02*
X20565Y26035D01*
Y25285D02*
Y26035D01*
Y25285D02*
X20650Y25200D01*
X5300Y16050D02*
X8775Y19525D01*
X9200Y19775D02*
Y20050D01*
X8950Y19525D02*
X9200Y19775D01*
X8775Y19525D02*
X8950D01*
X9504Y17704D02*
X10200Y18400D01*
X9075Y16525D02*
X9304D01*
X9504Y16725D01*
Y17704D01*
X23529Y47321D02*
X24125Y46725D01*
X21250Y47150D02*
X21421Y47321D01*
X23529D01*
X21300Y45700D02*
Y46350D01*
X8400Y31100D02*
X10550Y28950D01*
Y24750D02*
Y28950D01*
X3250Y32950D02*
X4250D01*
X7600Y15850D02*
Y16600D01*
X12750Y10600D02*
X12750Y10600D01*
X12750Y10600D02*
Y11450D01*
X34000Y3700D02*
X35043Y4743D01*
X30450Y3700D02*
X34000D01*
X35043Y4743D02*
Y15157D01*
X29430Y4720D02*
X30450Y3700D01*
X34200Y3300D02*
X35550Y4650D01*
X28200Y4150D02*
X29050Y3300D01*
X34200D01*
X27950Y2900D02*
X34450D01*
X36057Y4507D01*
X26900Y3950D02*
X27950Y2900D01*
X25650Y4150D02*
X27300Y2500D01*
X34700D02*
X36564Y4364D01*
X27300Y2500D02*
X34700D01*
X24400Y4150D02*
X26500Y2050D01*
X34900D02*
X37071Y4221D01*
X26500Y2050D02*
X34900D01*
X35150Y1600D02*
X37579Y4029D01*
X23150Y3900D02*
X25450Y1600D01*
X35150D01*
X24650Y1150D02*
X35400D01*
X21900Y3900D02*
X24650Y1150D01*
X35400D02*
X38086Y3836D01*
X23850Y750D02*
X35600D01*
X38593Y3743D01*
X20650Y3950D02*
X23850Y750D01*
X7850Y11450D02*
X7900D01*
X8670Y12220D02*
X9510D01*
X7900Y11450D02*
X8670Y12220D01*
X11675Y14625D02*
X12775D01*
X2700Y16050D02*
X5300D01*
X2650Y13150D02*
X7550D01*
X1900Y15250D02*
X2700Y16050D01*
X1900Y13900D02*
Y15250D01*
Y13900D02*
X2650Y13150D01*
X7850Y10400D02*
Y11450D01*
X7550Y13150D02*
X7850Y12850D01*
X13000Y17940D02*
Y18950D01*
X10200Y18400D02*
Y23000D01*
X11500Y24300D01*
Y37450D01*
X11200Y22175D02*
X12400Y23375D01*
Y36550D01*
X11200Y21900D02*
Y22175D01*
X11310Y12220D02*
Y12870D01*
X12730D01*
X12750Y12850D01*
X4020Y14370D02*
X7580D01*
X4000Y14390D02*
X4020Y14370D01*
X7580D02*
X7600Y14350D01*
X7870Y12870D02*
X9510D01*
X7850Y12850D02*
X7870Y12870D01*
X8025Y14625D02*
X9075D01*
X7750Y14350D02*
X8025Y14625D01*
X7600Y14350D02*
X7750D01*
X7800Y15800D02*
X8025Y15575D01*
X9075D01*
X32625Y56225D02*
X32650Y56250D01*
X31725Y56225D02*
X32625D01*
X31700Y56200D02*
X31725Y56225D01*
X8350Y31150D02*
Y41800D01*
X9100Y42550D01*
X8350Y31150D02*
X8400Y31100D01*
X18750Y37900D02*
X20150Y36500D01*
X31050D01*
X31900Y35650D01*
X20372Y44700D02*
X21250D01*
X19350Y21350D02*
Y24700D01*
X19400Y24750D01*
X19350Y21350D02*
X19350Y21350D01*
X12067Y40700D02*
X12750D01*
X11950Y40583D02*
X12067Y40700D01*
X24375Y46450D02*
X24400D01*
X24125Y46700D02*
X24375Y46450D01*
X24125Y46700D02*
Y46725D01*
X12750Y45700D02*
X14050D01*
X14100Y45750D01*
X34986Y18964D02*
X38086Y15864D01*
X37071Y4221D02*
Y15579D01*
X33957Y18693D02*
X37071Y15579D01*
X31900Y18300D02*
X35043Y15157D01*
X33443Y18607D02*
X36564Y15486D01*
X32414Y18436D02*
X35550Y15300D01*
X35500Y19050D02*
X38593Y15957D01*
X34471Y18829D02*
X37579Y15721D01*
X38593Y3743D02*
Y15957D01*
X36057Y4507D02*
Y15343D01*
X32929Y18471D02*
X36057Y15343D01*
X36564Y4364D02*
Y15486D01*
X37579Y4029D02*
Y15721D01*
X35550Y4650D02*
Y15300D01*
X38086Y3836D02*
Y15864D01*
X43400Y33300D02*
Y35070D01*
Y36500D01*
X20500Y37150D02*
Y37850D01*
X20500Y37850D02*
X20500Y37850D01*
X19500Y37850D02*
X20500D01*
X18750Y37900D02*
Y38700D01*
X31900Y18300D02*
Y35650D01*
X20125Y35850D02*
X21100D01*
X18250Y37725D02*
X20125Y35850D01*
X21100Y33850D02*
X22440D01*
X23800Y35210D01*
X31300Y42700D02*
X34986Y39014D01*
Y18964D02*
Y39014D01*
X30950Y42200D02*
X34471Y38679D01*
Y18829D02*
Y38679D01*
X30550Y41700D02*
X33957Y38293D01*
Y18693D02*
Y38293D01*
X30200Y41200D02*
X33443Y37957D01*
Y18607D02*
Y37957D01*
X29900Y40700D02*
X32929Y37671D01*
Y18471D02*
Y37671D01*
X29550Y40200D02*
X32414Y37336D01*
Y18436D02*
Y37336D01*
X21250Y40200D02*
X29550D01*
X21250Y40700D02*
X29900D01*
X31550Y43200D02*
X35500Y39250D01*
X21250Y43200D02*
X31550D01*
X35500Y19050D02*
Y39250D01*
X21250Y42700D02*
X31300D01*
X21250Y42200D02*
X30950D01*
X21250Y41700D02*
X30550D01*
X21250Y41200D02*
X30200D01*
X41300Y55750D02*
X41550Y55500D01*
X18600Y11850D02*
Y11900D01*
X24950Y12850D02*
X25850D01*
X43050Y63900D02*
X43850D01*
X21250Y62150D02*
X21350Y62050D01*
X31700Y60050D02*
X32500D01*
X26400Y19850D02*
X27550D01*
X22300Y46350D02*
X23000D01*
X22200D02*
X22300D01*
X25275Y61650D02*
X25325Y61600D01*
X24350Y61650D02*
X25275D01*
X16150Y10150D02*
X16150Y10150D01*
X17150D01*
X11870Y54950D02*
X16000D01*
X7320Y59500D02*
X11870Y54950D01*
X13910Y55450D02*
X16100D01*
X9860Y59500D02*
X13910Y55450D01*
X12400Y59500D02*
X15650Y56250D01*
X18000D01*
X11650Y42550D02*
X11800Y42700D01*
X9100Y42550D02*
X11650D01*
X11800Y42700D02*
X12750D01*
X7400Y41800D02*
X8550Y42950D01*
Y43250D01*
X8800Y43500D01*
X7350Y41800D02*
X7400D01*
X7350Y44600D02*
X11150D01*
X12050Y43700D01*
X1900Y31100D02*
X8400D01*
X21250Y62150D02*
Y62800D01*
X26800Y62050D02*
Y62850D01*
X24100Y64050D02*
X24900D01*
X20850Y63800D02*
X21650D01*
X32450Y58950D02*
Y59750D01*
X32450Y60300D02*
Y61100D01*
X21900Y3900D02*
Y5350D01*
X20650Y3950D02*
Y5350D01*
X23150Y3900D02*
Y5350D01*
X24400Y4150D02*
Y5350D01*
X25650Y4150D02*
Y5350D01*
X29430Y4720D02*
Y5320D01*
X29400Y5350D02*
X29430Y5320D01*
X14275Y49775D02*
Y50425D01*
X13200Y50250D02*
Y51050D01*
X24384Y14366D02*
Y15159D01*
X24400Y15175D01*
X15300Y19150D02*
Y19950D01*
X15300Y19950D02*
X15300Y19950D01*
X19700Y18450D02*
X21300Y20050D01*
X15000Y18450D02*
X19700D01*
X13800Y19650D02*
X15000Y18450D01*
X15300Y15550D02*
Y16350D01*
Y15550D02*
X16750D01*
X13800Y19650D02*
Y23450D01*
X13286Y23964D02*
X13800Y23450D01*
X21300Y20050D02*
Y21350D01*
X28150Y5350D02*
X28200Y5300D01*
Y4150D02*
Y5300D01*
X26900Y3950D02*
Y5350D01*
X20000Y23650D02*
X20000Y23650D01*
X20000Y21350D02*
Y23650D01*
X20000Y21350D02*
X20000Y21350D01*
X14750Y26800D02*
Y38700D01*
Y26800D02*
X17900Y23650D01*
X18700Y21350D02*
Y26050D01*
X17400Y21350D02*
X17400Y21350D01*
X17150Y33850D02*
Y34950D01*
Y33850D02*
X17350Y33650D01*
X18250Y37725D02*
Y38700D01*
X20650Y21350D02*
Y25200D01*
X11500Y40850D02*
X11850Y41200D01*
X11500Y39150D02*
Y40850D01*
X9800Y41150D02*
Y41550D01*
X9750Y41100D02*
X9800Y41150D01*
Y41550D02*
X10450Y42200D01*
X9000Y40050D02*
X9000Y40050D01*
X9750D01*
X9000Y41100D02*
X9750D01*
Y40050D02*
Y41100D01*
X11850Y41200D02*
X12750D01*
X1850Y31150D02*
Y32950D01*
Y31150D02*
X1900Y31100D01*
X20350Y38700D02*
X20500Y38850D01*
X16000Y54950D02*
X17240Y53710D01*
Y49441D02*
Y53710D01*
X16100Y55450D02*
X17700Y53850D01*
X14200Y48750D02*
X14250Y48700D01*
Y47200D02*
Y48700D01*
X14100Y49900D02*
X14250Y49750D01*
X13500Y49900D02*
X14100D01*
X14250Y49700D02*
Y49750D01*
X13200Y50200D02*
X13500Y49900D01*
X14750Y49700D02*
X14900Y49550D01*
X14250Y49700D02*
X14750D01*
X14900Y48150D02*
Y49550D01*
X14750Y47200D02*
Y48000D01*
X14900Y48150D01*
X16240Y50810D02*
X16250Y50800D01*
X16240Y50810D02*
Y52950D01*
X16250Y47200D02*
Y48800D01*
X17350Y33650D02*
X17550Y33850D01*
X19250Y38100D02*
Y38700D01*
Y38100D02*
X19500Y37850D01*
X19750Y38700D02*
X20350D01*
X10450Y42200D02*
X12750D01*
X22300Y45450D02*
Y46350D01*
X22050Y45200D02*
X22300Y45450D01*
X21250Y45200D02*
X22050D01*
X21250Y45700D02*
X21300D01*
X11650Y41700D02*
X12750D01*
X12050Y43700D02*
X12750D01*
X5500Y44600D02*
X7350D01*
X3950Y46150D02*
X5500Y44600D01*
X3950Y46150D02*
Y47900D01*
X5600Y41800D02*
X7350D01*
X3950Y40150D02*
X5600Y41800D01*
X3950Y38400D02*
Y40150D01*
X11100Y43200D02*
X12750D01*
D40*
X13350Y38350D02*
X13550Y38550D01*
Y39500D01*
X14125Y40075D01*
X13350Y25650D02*
X15300Y23700D01*
X13350Y25650D02*
Y38350D01*
X11043D02*
X13350D01*
X21250Y60600D02*
Y60640D01*
Y48850D02*
Y60600D01*
X21240Y60650D02*
X22725D01*
X20950D02*
X21240D01*
X21250Y48850D02*
X21250Y48850D01*
X21240Y60650D02*
X21250Y60640D01*
X27250Y48800D02*
X27300Y48750D01*
X28300D01*
X17350Y30850D02*
Y31650D01*
X18950Y31600D02*
X19000Y31650D01*
X18950Y30850D02*
Y31600D01*
X39684Y31609D02*
X40391D01*
X39675Y31600D02*
X39684Y31609D01*
X39675Y30725D02*
Y31600D01*
X39650Y30700D02*
X39675Y30725D01*
X40391Y31609D02*
X41175Y30825D01*
X41550D01*
X40457Y33157D02*
X41175Y33875D01*
X39700Y33150D02*
X39707Y33157D01*
X40457D01*
X41175Y33875D02*
X41550D01*
X41525Y30825D02*
X41550Y30800D01*
Y29550D02*
Y30800D01*
X21250Y47150D02*
Y48850D01*
Y46350D02*
X21300D01*
X21250D02*
Y47150D01*
X20550Y46350D02*
X21300D01*
X19939Y45739D02*
X20550Y46350D01*
X19250Y45739D02*
X19939D01*
X9200Y20050D02*
Y21900D01*
X11200Y20050D02*
X12300D01*
X10700Y38693D02*
Y39481D01*
X10704Y39485D01*
Y40050D01*
X10700Y38693D02*
X11043Y38350D01*
X10704Y40050D02*
X10750D01*
X15300Y21350D02*
Y23700D01*
X45530Y35070D02*
X46100Y34500D01*
X44400Y35070D02*
X45530D01*
X46100Y33850D02*
Y34500D01*
X46150Y33100D02*
Y33650D01*
X41500Y49000D02*
X41550Y48950D01*
X43400D01*
X6550Y51400D02*
X7350Y50600D01*
X7350Y35800D02*
Y40400D01*
X750Y35800D02*
X1450Y35100D01*
X7350Y47100D02*
Y50600D01*
Y46000D02*
Y47100D01*
X1150Y51000D02*
X1550Y51400D01*
X750Y50600D02*
X1150Y51000D01*
X750Y43200D02*
Y50600D01*
Y35800D02*
Y43200D01*
X7000Y35450D02*
X7350Y35800D01*
X6650Y35100D02*
X7000Y35450D01*
X19300Y62750D02*
Y63750D01*
X19250Y63800D02*
X19300Y63750D01*
Y62750D02*
X19350Y62700D01*
X1550Y51400D02*
X6550D01*
X1450Y35100D02*
X6650D01*
X22713Y62563D02*
Y64037D01*
Y62563D02*
X22725Y62550D01*
X22700Y64050D02*
X22713Y64037D01*
D41*
X45725Y33800D02*
X46150Y33375D01*
X43900Y34600D02*
X44700Y33800D01*
X46150Y33100D02*
Y33375D01*
X44700Y33800D02*
X45725D01*
X41550Y33875D02*
X41850Y34175D01*
X42475D01*
X42900Y34600D01*
X9325Y11570D02*
X9510D01*
X9300Y6000D02*
Y11545D01*
X9325Y11570D01*
X3777Y11423D02*
X5100Y10100D01*
Y7700D02*
Y10100D01*
X20650Y13424D02*
Y15550D01*
Y13424D02*
X21350Y12724D01*
Y10100D02*
Y12724D01*
X20650Y13424D02*
Y15550D01*
X11100Y6000D02*
X13650Y3450D01*
X9450Y6000D02*
X11100D01*
X9300D02*
X9450D01*
X7075Y6500D02*
X7300Y6275D01*
X5100Y7700D02*
X6300Y6500D01*
X7300Y6000D02*
Y6275D01*
X6300Y6500D02*
X7075D01*
X10600Y8100D02*
X14500Y4200D01*
X17750D02*
X18150Y4600D01*
X14500Y4200D02*
X17750D01*
X18150Y4600D02*
Y5350D01*
X19400Y4050D02*
Y5350D01*
X13650Y3450D02*
X18800D01*
X19400Y4050D01*
X33142Y5358D02*
X33150Y5350D01*
X33142Y5358D02*
Y6008D01*
X31100Y8050D02*
X33142Y6008D01*
X23400Y8050D02*
X31100D01*
X21350Y10100D02*
X23400Y8050D01*
X10550Y8100D02*
X10600D01*
Y10000D02*
X11310Y10710D01*
X10550Y10000D02*
X10600D01*
X11310Y10710D02*
Y11570D01*
X23600Y61200D02*
X24150Y60650D01*
X23600Y61200D02*
Y62000D01*
X24150Y62550D01*
X24000Y15950D02*
X24900D01*
X23500Y15450D02*
X24000Y15950D01*
X24900D02*
X25318Y15532D01*
X40100Y34850D02*
X42400D01*
X39600Y35350D02*
X40100Y34850D01*
X42400D02*
Y35070D01*
X43400Y46400D02*
X44800D01*
X43900Y34600D02*
Y35070D01*
X42900Y34600D02*
Y35070D01*
X40800Y37950D02*
X40815Y37965D01*
X39600Y35350D02*
Y38450D01*
X40100Y38950D01*
X40815Y37915D02*
X42400D01*
Y37930D01*
X43400D02*
X43900D01*
X43400D02*
Y38750D01*
X43200Y38950D02*
X43400Y38750D01*
X40100Y38950D02*
X43200D01*
X43900Y37930D02*
X44400D01*
Y38900D01*
X17675Y10875D02*
X18600Y11800D01*
X17575Y10875D02*
X17675D01*
X17150Y10450D02*
X17575Y10875D01*
X17150Y10150D02*
Y10450D01*
X18600Y11800D02*
Y11850D01*
X18700Y15450D02*
Y15550D01*
X18600Y11900D02*
X19350Y12650D01*
Y15550D01*
X18700Y13300D02*
Y15450D01*
Y13300D02*
X18700Y13300D01*
X43400Y46400D02*
X43400Y46400D01*
X18600Y15450D02*
X18700Y15550D01*
X20000Y11850D02*
Y15550D01*
Y11850D02*
X20000Y11850D01*
Y10300D02*
Y11850D01*
X19850Y10150D02*
X20000Y10300D01*
X23418Y14258D02*
X23500Y14340D01*
Y15450D01*
X25318Y14258D02*
Y15532D01*
X25143Y17033D02*
Y18007D01*
X25000Y18150D02*
X25143Y18007D01*
Y17033D02*
X25318Y16858D01*
X10800Y43500D02*
X10800Y43500D01*
X33050Y57200D02*
X33225Y57375D01*
Y57375D01*
X32800Y57200D02*
X33050D01*
X33225Y57375D02*
X33750Y57900D01*
Y60050D01*
X34400Y57950D02*
Y60050D01*
Y57950D02*
X35150Y57200D01*
X35400D01*
X24150Y62550D02*
X25325D01*
X24150Y60650D02*
X25325D01*
D42*
X14200Y14150D02*
Y16550D01*
X13000Y16525D02*
X14175D01*
X14200Y12850D02*
Y14150D01*
X14800Y17950D02*
X23450D01*
X14200Y17350D02*
X14800Y17950D01*
X11675Y16525D02*
X13000D01*
X23450Y17950D02*
X23600Y18100D01*
X14200Y16550D02*
Y17350D01*
X14175Y16525D02*
X14200Y16550D01*
X21300Y17000D02*
X21300Y17000D01*
X21300Y15550D02*
Y17000D01*
X21300Y15550D02*
X21300Y15550D01*
X19350D02*
Y17000D01*
X19350Y17000D01*
X19350Y15550D02*
X19350Y15550D01*
X18050Y15550D02*
X18050Y15550D01*
Y17000D02*
X18050Y17000D01*
X18050Y15550D02*
Y17000D01*
X34200Y4800D02*
Y11050D01*
X30650Y5350D02*
X30746Y5254D01*
Y4854D02*
Y5254D01*
Y4854D02*
X31300Y4300D01*
X33700D01*
X34200Y4800D01*
X14200Y9050D02*
Y12850D01*
Y8050D02*
Y9050D01*
X12750Y12850D02*
X14200D01*
X12550Y9050D02*
X14200D01*
Y8050D02*
X16900Y5350D01*
X15300Y14150D02*
X17100D01*
X14300D02*
X15300D01*
X36650Y56250D02*
X37250Y55650D01*
X35400Y56250D02*
X36650D01*
X20500Y39550D02*
X22300Y37750D01*
X19250Y40800D02*
X20500Y39550D01*
X19250Y40800D02*
Y40886D01*
X42700Y36100D02*
X43100Y36500D01*
X42549Y35949D02*
X42700Y36100D01*
X43100Y36500D02*
X43400D01*
X40849Y35949D02*
X42549D01*
X39650Y50350D02*
Y50400D01*
X23450Y12900D02*
Y14226D01*
X39600Y55600D02*
X39650Y55550D01*
X39600Y55600D02*
Y56550D01*
X40825Y56775D02*
X41625D01*
X40800Y56800D02*
X40825Y56775D01*
X41625D02*
X41650Y56750D01*
X43400Y36500D02*
X43450Y36550D01*
X46200D01*
X40800Y35950D02*
X40849Y35999D01*
X44400Y38900D02*
X44750Y39250D01*
X46200D01*
X19375Y60675D02*
X20925D01*
X19350Y60700D02*
X19375Y60675D01*
X22300Y37750D02*
X23800D01*
X35075Y58825D02*
X35800Y58100D01*
X37100D01*
X35075Y58825D02*
Y60025D01*
X35050Y60050D02*
X35075Y60025D01*
X38600Y58100D02*
X42300D01*
X39850Y63900D02*
X41100D01*
X39950Y52850D02*
X40300Y53200D01*
Y53500D02*
X40776Y53976D01*
X41426D02*
X41550Y54100D01*
X40300Y53200D02*
Y53500D01*
X40776Y53976D02*
X41426D01*
X42901Y56899D02*
Y57499D01*
X42300Y58100D02*
X42901Y57499D01*
Y56899D02*
X43075Y56725D01*
X41600Y55550D02*
Y56700D01*
X41650Y56750D01*
X41550Y55500D02*
X41600Y55550D01*
X41562Y54088D02*
X43088D01*
X41550Y54100D02*
X41562Y54088D01*
X43088D02*
X43100Y54075D01*
X43075Y55550D02*
Y56725D01*
Y55550D02*
X43100Y55525D01*
X16350Y13300D02*
X17150D01*
X35400Y56250D02*
X35450Y56200D01*
X23418Y14258D02*
X23450Y14226D01*
X23650Y19800D02*
X23700Y19850D01*
X23600Y18150D02*
X23650Y18200D01*
Y19800D01*
X11900Y48750D02*
X13150D01*
X13200Y48800D01*
X13740Y60700D02*
X19350D01*
X12400Y62040D02*
X13740Y60700D01*
X23509Y16949D02*
Y17900D01*
X23600Y18100D02*
Y18150D01*
X15300Y21350D02*
X16750D01*
X17100Y14150D02*
X17375Y14425D01*
Y15525D01*
X17400Y15550D01*
X10750Y40050D02*
Y41100D01*
X10800D02*
X10850Y41150D01*
Y41466D02*
X11084Y41700D01*
X10850Y41150D02*
Y41466D01*
X10750Y41100D02*
X10800D01*
X11084Y41700D02*
X11650D01*
X23418Y16858D02*
X23509Y16949D01*
X20500Y38850D02*
Y39550D01*
X13250Y48750D02*
X14200D01*
X13200Y48800D02*
X13250Y48750D01*
X25325Y60650D02*
X26800D01*
X25325Y60650D02*
X25325Y60650D01*
D43*
X23550Y12531D02*
X25031Y11050D01*
X34200D01*
X23550Y12531D02*
Y12900D01*
X40800Y11050D02*
X46100Y16350D01*
X39450Y11050D02*
X40800D01*
X46100Y16350D02*
Y33300D01*
X39662Y50412D02*
Y52838D01*
X37250Y53700D02*
Y55650D01*
X38050Y52900D02*
X39600D01*
X37250Y53700D02*
X38050Y52900D01*
X39600D02*
X39650Y52850D01*
X39950D01*
X44164D02*
X44750Y53436D01*
X39950Y52850D02*
X44164D01*
X44750Y53436D02*
Y58600D01*
X29300Y62200D02*
X41150D01*
X18664Y40300D02*
X19250Y40886D01*
X14350Y40300D02*
X18664D01*
X14125Y40075D02*
X14350Y40300D01*
X19250Y40886D02*
Y45739D01*
X14089D02*
X19250D01*
X11900Y47950D02*
X14100Y45750D01*
X13604Y52854D02*
X13700Y52950D01*
X11900Y51600D02*
X13154Y52854D01*
X13604D01*
X11900Y48750D02*
Y51600D01*
Y47950D02*
Y48750D01*
X40793Y45031D02*
X40860D01*
Y45860D02*
X41300Y46300D01*
X40750Y44988D02*
X40793Y45031D01*
X40860D02*
Y45860D01*
X40400Y41712D02*
X40750D01*
X38550Y44988D02*
X40750D01*
X42288Y41712D02*
X42512D01*
X40750D02*
X42288D01*
X43350Y44400D02*
X45100D01*
X42800D02*
X43300D01*
X42450Y44750D02*
Y46350D01*
X43300Y44000D02*
Y44350D01*
X43350Y44400D01*
X42512Y41712D02*
X43300Y42500D01*
X42450Y44750D02*
X42800Y44400D01*
X45100Y43450D02*
Y44400D01*
X45100Y44400D02*
X45100Y44400D01*
X39700Y47725D02*
Y48800D01*
X39675Y47700D02*
X39700Y47725D01*
X39675Y47700D02*
X42350D01*
X42450Y47600D01*
Y46350D02*
Y47600D01*
X43450Y32800D02*
Y33100D01*
X39675Y50400D02*
X39725Y50350D01*
X39662Y50412D02*
X39675Y50400D01*
X27750Y60650D02*
X29300Y62200D01*
X26800Y60650D02*
X27750D01*
X41150Y62200D02*
X44750Y58600D01*
X41486Y49000D02*
X41500D01*
X40900Y50350D02*
X41486Y49764D01*
Y49000D02*
Y49764D01*
Y49000D02*
X41486Y49000D01*
X39725Y50350D02*
X40900D01*
X36150Y48850D02*
X37650Y50350D01*
X39650D02*
X39650Y50350D01*
X37650Y50350D02*
X39650D01*
X36150Y44950D02*
Y48850D01*
D44*
X43300Y42500D02*
X46050D01*
X43225Y40775D02*
X45925D01*
X42288Y41712D02*
X43225Y40775D01*
X45925D02*
X46250Y40450D01*
X46800Y43250D02*
Y47900D01*
X46050Y42500D02*
X46800Y43250D01*
X46200Y49400D02*
X46750Y48850D01*
Y47950D02*
X46800Y47900D01*
X46200Y49400D02*
Y49450D01*
X46750Y47950D02*
Y48850D01*
X44800Y46450D02*
X44850Y46400D01*
X45100D01*
X44800Y46450D02*
Y49450D01*
X46200Y39250D02*
X46250Y39300D01*
Y40450D01*
X43400Y46350D02*
Y46375D01*
D45*
X24650Y44200D02*
X25448D01*
X25600Y43700D02*
X34331Y52431D01*
X21250Y43700D02*
X25600D01*
X21250Y44200D02*
X24650D01*
X25448D02*
X33869Y52621D01*
X34331Y52431D02*
Y55147D01*
X33869Y52621D02*
Y55147D01*
X34483Y55300D02*
X35400D01*
X34331Y55147D02*
X34483Y55300D01*
X32800D02*
X33717D01*
X33869Y55147D01*
D46*
X23550Y57650D02*
D03*
X28050D02*
D03*
Y51150D02*
D03*
X1900Y26600D02*
D03*
X8400D02*
D03*
Y31100D02*
D03*
D47*
X23550Y51150D02*
D03*
D48*
X16900Y5350D02*
D03*
X18150D02*
D03*
X19400D02*
D03*
X20650D02*
D03*
X21900D02*
D03*
X23150D02*
D03*
X24400D02*
D03*
X25650D02*
D03*
X26900D02*
D03*
X28150D02*
D03*
X29400D02*
D03*
X30650D02*
D03*
X31900D02*
D03*
X33150D02*
D03*
D49*
X37475Y60050D02*
D03*
X30025D02*
D03*
D50*
X37625Y63850D02*
D03*
X29875D02*
D03*
D51*
X36250Y61100D02*
D03*
X31250D02*
D03*
D52*
X12400Y62040D02*
D03*
D53*
Y59500D02*
D03*
X9860Y62040D02*
D03*
Y59500D02*
D03*
X7320Y62040D02*
D03*
Y59500D02*
D03*
D54*
X3200Y62550D02*
D03*
Y3150D02*
D03*
X46800D02*
D03*
Y62550D02*
D03*
D55*
X3250Y14380D02*
D03*
Y11840D02*
D03*
Y9300D02*
D03*
X16240Y52950D02*
D03*
X13700D02*
D03*
X23800Y35210D02*
D03*
Y37750D02*
D03*
D56*
X1900Y31100D02*
D03*
D57*
X18780Y52950D02*
D03*
D58*
X23800Y32670D02*
D03*
D59*
X12600Y39300D02*
D03*
X18900Y49050D02*
D03*
X28300Y48750D02*
D03*
X24500Y48800D02*
D03*
X20400Y47550D02*
D03*
X18950Y30850D02*
D03*
X39650Y30700D02*
D03*
X41550Y29550D02*
D03*
X10550Y24750D02*
D03*
X21300Y17000D02*
D03*
X19350D02*
D03*
X18050D02*
D03*
X34200Y11050D02*
D03*
X39450D02*
D03*
X4250Y32950D02*
D03*
X7600Y16600D02*
D03*
X12750Y10600D02*
D03*
X12775Y14625D02*
D03*
X7850Y10400D02*
D03*
X13000Y18950D02*
D03*
X12300Y20050D02*
D03*
X12400Y36550D02*
D03*
X31700Y56200D02*
D03*
X20372Y44700D02*
D03*
X24400Y15175D02*
D03*
X19400Y24750D02*
D03*
X20650Y25200D02*
D03*
X18700Y26050D02*
D03*
X42450Y45150D02*
D03*
X39700Y48800D02*
D03*
X42350Y47700D02*
D03*
X42700Y36100D02*
D03*
X44100Y36900D02*
D03*
X39600Y56550D02*
D03*
X40800Y56800D02*
D03*
X44100Y36100D02*
D03*
X42700Y36900D02*
D03*
X45100Y43450D02*
D03*
X20500Y37150D02*
D03*
X16350Y13300D02*
D03*
X25850Y12850D02*
D03*
X27550Y19850D02*
D03*
X11500Y37450D02*
D03*
X24350Y61650D02*
D03*
X16150Y10150D02*
D03*
X21250Y62800D02*
D03*
X26800Y62850D02*
D03*
X24900Y64050D02*
D03*
X21650Y63800D02*
D03*
X32450Y58950D02*
D03*
X31700Y60050D02*
D03*
X32450Y61100D02*
D03*
X43850Y63900D02*
D03*
X23000Y46350D02*
D03*
X14275Y50425D02*
D03*
X13200Y51050D02*
D03*
X17350Y30850D02*
D03*
X750Y43200D02*
D03*
X7350Y39300D02*
D03*
X7000Y35450D02*
D03*
X1100D02*
D03*
X1150Y51000D02*
D03*
X6950D02*
D03*
X7350Y47100D02*
D03*
X15300Y19150D02*
D03*
Y16350D02*
D03*
X13286Y23964D02*
D03*
X20000Y23650D02*
D03*
X17900D02*
D03*
Y24750D02*
D03*
X11500Y39150D02*
D03*
X9000Y40050D02*
D03*
Y41100D02*
D03*
D60*
X47250Y9000D02*
D03*
X2150Y23050D02*
D03*
%TF.MD5,55a70953fb01efe5144990f65fb0bdd1*%
M02*
