%TF.GenerationSoftware,Altium Limited,Altium Designer,21.6.4 (81)*%
G04 Layer_Color=16711935*
%FSLAX43Y43*%
%MOMM*%
%TF.SameCoordinates,B20EAAAA-7FFA-483C-807E-B1D6702B97A4*%
%TF.FilePolarity,Negative*%
%TF.FileFunction,Soldermask,Bot*%
%TF.Part,Single*%
G01*
G75*
%TA.AperFunction,ComponentPad*%
%ADD62C,1.701*%
%ADD63R,1.701X1.701*%
%ADD64C,1.103*%
%ADD65O,1.653X2.203*%
%ADD66O,1.353X2.003*%
%ADD67C,1.003*%
%ADD68R,1.803X1.803*%
%ADD69C,1.803*%
%TA.AperFunction,WasherPad*%
%ADD70C,1.303*%
%TA.AperFunction,ComponentPad*%
%ADD71C,1.703*%
%ADD72R,1.701X1.701*%
%ADD73R,1.703X1.703*%
%ADD74R,1.703X1.703*%
%TA.AperFunction,ViaPad*%
%ADD75C,0.703*%
%ADD76C,0.903*%
%ADD77C,3.203*%
D62*
X23550Y57650D02*
D03*
X28050D02*
D03*
Y51150D02*
D03*
X1900Y26600D02*
D03*
X8400D02*
D03*
Y31100D02*
D03*
D63*
X23550Y51150D02*
D03*
D64*
X16900Y5350D02*
D03*
X18150D02*
D03*
X19400D02*
D03*
X20650D02*
D03*
X21900D02*
D03*
X23150D02*
D03*
X24400D02*
D03*
X25650D02*
D03*
X26900D02*
D03*
X28150D02*
D03*
X29400D02*
D03*
X30650D02*
D03*
X31900D02*
D03*
X33150D02*
D03*
D65*
X37475Y60050D02*
D03*
X30025D02*
D03*
D66*
X37625Y63850D02*
D03*
X29875D02*
D03*
D67*
X36250Y61100D02*
D03*
X31250D02*
D03*
D68*
X12400Y62040D02*
D03*
D69*
Y59500D02*
D03*
X9860Y62040D02*
D03*
Y59500D02*
D03*
X7320Y62040D02*
D03*
Y59500D02*
D03*
D70*
X3200Y62550D02*
D03*
Y3150D02*
D03*
X46800D02*
D03*
Y62550D02*
D03*
D71*
X3250Y14380D02*
D03*
Y11840D02*
D03*
Y9300D02*
D03*
X16240Y52950D02*
D03*
X13700D02*
D03*
X23800Y35210D02*
D03*
Y37750D02*
D03*
D72*
X1900Y31100D02*
D03*
D73*
X18780Y52950D02*
D03*
D74*
X23800Y32670D02*
D03*
D75*
X12600Y39300D02*
D03*
X20400Y47550D02*
D03*
X39650Y30700D02*
D03*
X41550Y29550D02*
D03*
X10550Y24750D02*
D03*
X21300Y17000D02*
D03*
X19350D02*
D03*
X18050D02*
D03*
X4250Y32950D02*
D03*
X13000Y18950D02*
D03*
X12400Y36550D02*
D03*
X31700Y56200D02*
D03*
X20372Y44700D02*
D03*
X24400Y15175D02*
D03*
X19400Y24750D02*
D03*
X42450Y45150D02*
D03*
X39700Y48800D02*
D03*
X42350Y47700D02*
D03*
X42700Y36100D02*
D03*
X44100Y36900D02*
D03*
X39600Y56550D02*
D03*
X40800Y56800D02*
D03*
X44100Y36100D02*
D03*
X42700Y36900D02*
D03*
X45100Y43450D02*
D03*
X20500Y37150D02*
D03*
X16350Y13300D02*
D03*
X25850Y12850D02*
D03*
X27550Y19850D02*
D03*
X11500Y37450D02*
D03*
X24350Y61650D02*
D03*
X16150Y10150D02*
D03*
X21250Y62800D02*
D03*
X26800Y62850D02*
D03*
X24900Y64050D02*
D03*
X21650Y63800D02*
D03*
X32450Y58950D02*
D03*
X31700Y60050D02*
D03*
X32450Y61100D02*
D03*
X43850Y63900D02*
D03*
X23000Y46350D02*
D03*
X14275Y50425D02*
D03*
X13200Y51050D02*
D03*
X17350Y30850D02*
D03*
X750Y43200D02*
D03*
X7350Y39300D02*
D03*
X7000Y35450D02*
D03*
X1100D02*
D03*
X1150Y51000D02*
D03*
X6950D02*
D03*
X7350Y47100D02*
D03*
X15300Y19150D02*
D03*
Y16350D02*
D03*
X13286Y23964D02*
D03*
X20000Y23650D02*
D03*
X17900D02*
D03*
Y24750D02*
D03*
X11500Y39150D02*
D03*
X9000Y40050D02*
D03*
Y41100D02*
D03*
D76*
X18900Y49050D02*
D03*
X28300Y48750D02*
D03*
X24500Y48800D02*
D03*
X18950Y30850D02*
D03*
X34200Y11050D02*
D03*
X39450D02*
D03*
X7600Y16600D02*
D03*
X12750Y10600D02*
D03*
X12775Y14625D02*
D03*
X7850Y10400D02*
D03*
X12300Y20050D02*
D03*
X20650Y25200D02*
D03*
X18700Y26050D02*
D03*
D77*
X47250Y9000D02*
D03*
X2150Y23050D02*
D03*
%TF.MD5,1e85a228fac41c7936a81a8d7ba586e8*%
M02*
