%TF.GenerationSoftware,Altium Limited,Altium Designer,21.6.4 (81)*%
G04 Layer_Color=65535*
%FSLAX43Y43*%
%MOMM*%
%TF.SameCoordinates,B20EAAAA-7FFA-483C-807E-B1D6702B97A4*%
%TF.FilePolarity,Positive*%
%TF.FileFunction,Legend,Top*%
%TF.Part,Single*%
G01*
G75*
%TA.AperFunction,NonConductor*%
%ADD106C,0.200*%
%ADD107C,0.127*%
%ADD108C,0.100*%
%ADD109C,0.250*%
%ADD110C,0.152*%
%ADD111C,0.150*%
%ADD112R,4.500X0.800*%
D106*
X23650Y49955D02*
G03*
X23650Y49955I-100J0D01*
G01*
X805Y31100D02*
G03*
X805Y31100I-100J0D01*
G01*
X17600Y56270D02*
Y58850D01*
X29000D01*
X41900Y38050D02*
X42100D01*
X44700D02*
X44900D01*
X44700Y35050D02*
X44900D01*
X41900D02*
X42100D01*
X44900D02*
Y38050D01*
X41900Y35050D02*
Y38050D01*
X42425Y31550D02*
Y33150D01*
X40675Y31550D02*
Y33150D01*
X25000Y800D02*
Y6300D01*
X15300Y6350D02*
X34800D01*
X15300Y750D02*
Y6350D01*
Y750D02*
X34800D01*
Y6350D01*
X18450Y23000D02*
X18700Y22650D01*
X18450Y23000D02*
X18950D01*
X18700Y22650D02*
X18950Y23000D01*
X18700Y22650D02*
Y25000D01*
X39850Y42544D02*
Y44156D01*
X41650Y42544D02*
Y44156D01*
X47350Y51900D02*
Y58750D01*
X38500Y51250D02*
X49500D01*
X45450Y37500D02*
Y38300D01*
X46950Y37500D02*
Y38300D01*
X44400Y32350D02*
X45200D01*
X44400Y33850D02*
X45200D01*
X38650Y52000D02*
X39250D01*
X36500Y53300D02*
Y58750D01*
X40550Y51900D02*
X47350D01*
X22600Y11950D02*
Y21050D01*
Y11950D02*
X31850D01*
Y21050D01*
X22600D02*
X31850D01*
X29000Y58850D02*
Y65250D01*
X17600Y65270D02*
X17620Y65250D01*
X29000D01*
X36500Y58750D02*
X47350D01*
X49500Y25750D02*
Y51250D01*
X35000Y25750D02*
X49500D01*
X35000D02*
Y51250D01*
X38500D01*
X2120Y56270D02*
Y65270D01*
Y56270D02*
X17600D01*
X2120Y65270D02*
X17600D01*
Y56270D02*
Y65270D01*
X38900Y53800D02*
Y54600D01*
X40400Y53800D02*
Y54600D01*
X24650Y20600D02*
X25450D01*
X24650Y19100D02*
X25450D01*
X350Y52550D02*
Y55700D01*
Y52550D02*
X11400D01*
Y55700D01*
X350D02*
X11400D01*
X40425Y48650D02*
Y49450D01*
X38925Y48650D02*
Y49450D01*
X21500Y16550D02*
Y20350D01*
X16500Y16550D02*
Y20350D01*
X1500Y37350D02*
Y48950D01*
Y37350D02*
X2650D01*
X1500Y48950D02*
X2650D01*
X5250D02*
X6400D01*
X5250Y37350D02*
X6400D01*
Y48950D01*
X18100Y10900D02*
X18900D01*
X18100Y9400D02*
X18900D01*
X12430Y54220D02*
X20050D01*
X12430Y51680D02*
Y54220D01*
Y51680D02*
X20050D01*
Y54220D01*
X25070Y31400D02*
Y39020D01*
X22530D02*
X25070D01*
X22530Y31400D02*
Y39020D01*
Y31400D02*
X25070D01*
X6000Y13200D02*
Y12733D01*
X6233Y12500D01*
X6467Y12733D01*
Y13200D01*
X6700Y12850D02*
X7166D01*
X6933Y13083D02*
Y12617D01*
X1717Y20883D02*
X1600Y21000D01*
X1367D01*
X1250Y20883D01*
Y20417D01*
X1367Y20300D01*
X1600D01*
X1717Y20417D01*
Y20650D01*
X1483D01*
X1950Y20300D02*
Y21000D01*
X2416Y20300D01*
Y21000D01*
X2650D02*
Y20300D01*
X2999D01*
X3116Y20417D01*
Y20883D01*
X2999Y21000D01*
X2650D01*
X22950Y40033D02*
X23067Y40150D01*
X23300D01*
X23417Y40033D01*
Y39917D01*
X23300Y39800D01*
X23183D01*
X23300D01*
X23417Y39683D01*
Y39567D01*
X23300Y39450D01*
X23067D01*
X22950Y39567D01*
X23650Y40150D02*
Y39683D01*
X23883Y39450D01*
X24116Y39683D01*
Y40150D01*
X24350Y40033D02*
X24466Y40150D01*
X24699D01*
X24816Y40033D01*
Y39917D01*
X24699Y39800D01*
X24583D01*
X24699D01*
X24816Y39683D01*
Y39567D01*
X24699Y39450D01*
X24466D01*
X24350Y39567D01*
X6300Y8550D02*
X6533D01*
X6417D01*
Y7850D01*
X6300D01*
X6533D01*
X6883Y8317D02*
Y7850D01*
Y8083D01*
X7000Y8200D01*
X7116Y8317D01*
X7233D01*
X7933Y7850D02*
X7700D01*
X7583Y7967D01*
Y8200D01*
X7700Y8317D01*
X7933D01*
X8049Y8200D01*
Y8083D01*
X7583D01*
X8399Y8433D02*
Y8317D01*
X8283D01*
X8516D01*
X8399D01*
Y7967D01*
X8516Y7850D01*
X47067Y6883D02*
X46950Y7000D01*
X46717D01*
X46600Y6883D01*
Y6417D01*
X46717Y6300D01*
X46950D01*
X47067Y6417D01*
Y6650D01*
X46833D01*
X47300Y6300D02*
Y7000D01*
X47766Y6300D01*
Y7000D01*
X48000D02*
Y6300D01*
X48349D01*
X48466Y6417D01*
Y6883D01*
X48349Y7000D01*
X48000D01*
X35508Y700D02*
X35391Y817D01*
Y1050D01*
X35508Y1167D01*
X35624D01*
X35741Y1050D01*
X35858Y1167D01*
X35974D01*
X36091Y1050D01*
Y817D01*
X35974Y700D01*
X35858D01*
X35741Y817D01*
X35624Y700D01*
X35508D01*
X35741Y817D02*
Y1050D01*
X35508Y2566D02*
X35391Y2449D01*
Y2216D01*
X35508Y2100D01*
X35974D01*
X36091Y2216D01*
Y2449D01*
X35974Y2566D01*
X35741D01*
Y2333D01*
X36091Y2799D02*
X35391D01*
Y3149D01*
X35508Y3266D01*
X35741D01*
X35858Y3149D01*
Y2799D01*
X35391Y3499D02*
Y3732D01*
Y3616D01*
X36091D01*
Y3499D01*
Y3732D01*
X35391Y4432D02*
Y4199D01*
X35508Y4082D01*
X35974D01*
X36091Y4199D01*
Y4432D01*
X35974Y4549D01*
X35508D01*
X35391Y4432D01*
X35508Y5249D02*
X35391Y5132D01*
Y4899D01*
X35508Y4782D01*
X35624D01*
X35741Y4899D01*
Y5132D01*
X35858Y5249D01*
X35974D01*
X36091Y5132D01*
Y4899D01*
X35974Y4782D01*
X37411Y700D02*
Y933D01*
Y817D01*
X36711D01*
X36827Y700D01*
X37411Y1750D02*
Y1283D01*
X36944Y1750D01*
X36827D01*
X36711Y1633D01*
Y1400D01*
X36827Y1283D01*
X36711Y1983D02*
X37177D01*
X37411Y2216D01*
X37177Y2449D01*
X36711D01*
X38147Y1167D02*
X38030Y1050D01*
Y817D01*
X38147Y700D01*
X38614D01*
X38730Y817D01*
Y1050D01*
X38614Y1167D01*
X38380D01*
Y933D01*
X38730Y1400D02*
X38030D01*
X38730Y1866D01*
X38030D01*
Y2100D02*
X38730D01*
Y2449D01*
X38614Y2566D01*
X38147D01*
X38030Y2449D01*
Y2100D01*
X39350Y700D02*
X39817D01*
X40050Y933D01*
X39817Y1167D01*
X39350D01*
X40050Y1400D02*
X39350D01*
Y1750D01*
X39467Y1866D01*
X39700D01*
X39817Y1750D01*
Y1400D01*
X39350Y2100D02*
X40050D01*
X39700D01*
Y2566D01*
X39350D01*
X40050D01*
X39350Y3149D02*
Y2916D01*
X39467Y2799D01*
X39933D01*
X40050Y2916D01*
Y3149D01*
X39933Y3266D01*
X39467D01*
X39350Y3149D01*
Y3499D02*
Y3966D01*
Y3732D01*
X40050D01*
X39350Y4549D02*
Y4315D01*
X39467Y4199D01*
X39933D01*
X40050Y4315D01*
Y4549D01*
X39933Y4665D01*
X39467D01*
X39350Y4549D01*
X26800Y59733D02*
X26917Y59850D01*
X27150D01*
X27267Y59733D01*
Y59617D01*
X27150Y59500D01*
X27033D01*
X27150D01*
X27267Y59383D01*
Y59267D01*
X27150Y59150D01*
X26917D01*
X26800Y59267D01*
X27500Y59850D02*
Y59383D01*
X27733Y59150D01*
X27966Y59383D01*
Y59850D01*
X28200Y59733D02*
X28316Y59850D01*
X28549D01*
X28666Y59733D01*
Y59617D01*
X28549Y59500D01*
X28433D01*
X28549D01*
X28666Y59383D01*
Y59267D01*
X28549Y59150D01*
X28316D01*
X28200Y59267D01*
X12350Y7350D02*
X12583D01*
X12467D01*
Y6650D01*
X12350D01*
X12583D01*
X13400Y7350D02*
Y6650D01*
X13050D01*
X12933Y6767D01*
Y7000D01*
X13050Y7117D01*
X13400D01*
X13633D02*
Y6650D01*
Y6883D01*
X13750Y7000D01*
X13866Y7117D01*
X13983D01*
X14333D02*
X14566Y6650D01*
X14799Y7117D01*
X18850Y57783D02*
X18967Y57900D01*
X19200D01*
X19317Y57783D01*
Y57667D01*
X19200Y57550D01*
X19083D01*
X19200D01*
X19317Y57433D01*
Y57317D01*
X19200Y57200D01*
X18967D01*
X18850Y57317D01*
X19550Y57900D02*
Y57433D01*
X19783Y57200D01*
X20016Y57433D01*
Y57900D01*
X20250Y57783D02*
X20366Y57900D01*
X20599D01*
X20716Y57783D01*
Y57667D01*
X20599Y57550D01*
X20483D01*
X20599D01*
X20716Y57433D01*
Y57317D01*
X20599Y57200D01*
X20366D01*
X20250Y57317D01*
X11461Y1317D02*
Y850D01*
X11811D01*
X11694Y1083D01*
Y1200D01*
X11811Y1317D01*
X12044D01*
X12161Y1200D01*
Y967D01*
X12044Y850D01*
X11461Y1550D02*
X11927D01*
X12161Y1783D01*
X11927Y2016D01*
X11461D01*
X12781Y850D02*
Y1083D01*
Y967D01*
X13480D01*
Y850D01*
Y1083D01*
X12781Y1433D02*
X13480D01*
Y1783D01*
X13364Y1900D01*
X12897D01*
X12781Y1783D01*
Y1433D01*
X13480Y2133D02*
X12781D01*
Y2483D01*
X12897Y2599D01*
X13130D01*
X13247Y2483D01*
Y2133D01*
Y2366D02*
X13480Y2599D01*
X12781Y2833D02*
Y3066D01*
Y2949D01*
X13480D01*
Y2833D01*
Y3066D01*
X12781Y3416D02*
X13247D01*
X13480Y3649D01*
X13247Y3882D01*
X12781D01*
Y4582D02*
Y4116D01*
X13480D01*
Y4582D01*
X13130Y4116D02*
Y4349D01*
X14100Y850D02*
Y1083D01*
Y967D01*
X14800D01*
Y850D01*
Y1083D01*
Y1433D02*
X14100D01*
Y1783D01*
X14217Y1900D01*
X14450D01*
X14567Y1783D01*
Y1433D01*
Y1666D02*
X14800Y1900D01*
X14100Y2599D02*
Y2133D01*
X14800D01*
Y2599D01*
X14450Y2133D02*
Y2366D01*
X14100Y2833D02*
Y3299D01*
Y3066D01*
X14800D01*
X18408Y27267D02*
X18291Y27150D01*
Y26917D01*
X18408Y26800D01*
X18524D01*
X18641Y26917D01*
Y27150D01*
X18758Y27267D01*
X18874D01*
X18991Y27150D01*
Y26917D01*
X18874Y26800D01*
X18291Y27500D02*
X18991D01*
Y27850D01*
X18874Y27966D01*
X18408D01*
X18291Y27850D01*
Y27500D01*
Y28549D02*
Y28316D01*
X18408Y28200D01*
X18874D01*
X18991Y28316D01*
Y28549D01*
X18874Y28666D01*
X18408D01*
X18291Y28549D01*
X19727Y27267D02*
X19611Y27150D01*
Y26917D01*
X19727Y26800D01*
X19844D01*
X19961Y26917D01*
Y27150D01*
X20077Y27267D01*
X20194D01*
X20311Y27150D01*
Y26917D01*
X20194Y26800D01*
X19727Y27966D02*
X19611Y27850D01*
Y27616D01*
X19727Y27500D01*
X20194D01*
X20311Y27616D01*
Y27850D01*
X20194Y27966D01*
X19611Y28200D02*
X20311D01*
Y28666D01*
X19611Y28899D02*
X20311D01*
X20077D01*
X19611Y29366D01*
X19961Y29016D01*
X20311Y29366D01*
X21047Y27267D02*
X20930Y27150D01*
Y26917D01*
X21047Y26800D01*
X21514D01*
X21630Y26917D01*
Y27150D01*
X21514Y27267D01*
X21047Y27966D02*
X20930Y27850D01*
Y27616D01*
X21047Y27500D01*
X21164D01*
X21280Y27616D01*
Y27850D01*
X21397Y27966D01*
X21514D01*
X21630Y27850D01*
Y27616D01*
X21514Y27500D01*
X22367Y27267D02*
X22250Y27150D01*
Y26917D01*
X22367Y26800D01*
X22483D01*
X22600Y26917D01*
Y27150D01*
X22717Y27267D01*
X22833D01*
X22950Y27150D01*
Y26917D01*
X22833Y26800D01*
X22250Y27500D02*
X22950D01*
Y27850D01*
X22833Y27966D01*
X22367D01*
X22250Y27850D01*
Y27500D01*
Y28200D02*
Y28433D01*
Y28316D01*
X22950D01*
Y28200D01*
Y28433D01*
X30650Y12917D02*
Y12450D01*
X31000D01*
X30883Y12683D01*
Y12800D01*
X31000Y12917D01*
X31233D01*
X31350Y12800D01*
Y12567D01*
X31233Y12450D01*
X30650Y13150D02*
X31117D01*
X31350Y13383D01*
X31117Y13616D01*
X30650D01*
X40250Y10700D02*
X40483D01*
X40367D01*
Y11400D01*
X40250Y11283D01*
X41300Y10700D02*
X40833D01*
X41300Y11167D01*
Y11283D01*
X41183Y11400D01*
X40950D01*
X40833Y11283D01*
X41533Y11400D02*
Y10933D01*
X41766Y10700D01*
X41999Y10933D01*
Y11400D01*
X46150Y52967D02*
Y52500D01*
X46500D01*
Y52733D01*
Y52500D01*
X46850D01*
Y53200D02*
Y53433D01*
Y53316D01*
X46383D01*
Y53200D01*
X46850Y53783D02*
Y54016D01*
Y53900D01*
X46150D01*
Y53783D01*
X46267Y54483D02*
X46383D01*
Y54366D01*
Y54599D01*
Y54483D01*
X46733D01*
X46850Y54599D01*
Y55299D02*
Y55066D01*
X46733Y54949D01*
X46500D01*
X46383Y55066D01*
Y55299D01*
X46500Y55416D01*
X46617D01*
Y54949D01*
X46383Y55649D02*
X46850D01*
X46617D01*
X46500Y55766D01*
X46383Y55882D01*
Y55999D01*
X35650Y27670D02*
X35883D01*
X35767D01*
Y28369D01*
X35650Y28253D01*
X36700Y27670D02*
X36233D01*
X36700Y28136D01*
Y28253D01*
X36583Y28369D01*
X36350D01*
X36233Y28253D01*
X36933Y28369D02*
Y27903D01*
X37166Y27670D01*
X37399Y27903D01*
Y28369D01*
X35650Y27050D02*
Y26350D01*
X36000D01*
X36117Y26467D01*
Y26583D01*
X36000Y26700D01*
X35650D01*
X36000D01*
X36117Y26817D01*
Y26933D01*
X36000Y27050D01*
X35650D01*
X36466Y26350D02*
X36700D01*
X36816Y26467D01*
Y26700D01*
X36700Y26817D01*
X36466D01*
X36350Y26700D01*
Y26467D01*
X36466Y26350D01*
X37166D02*
X37399D01*
X37516Y26467D01*
Y26700D01*
X37399Y26817D01*
X37166D01*
X37050Y26700D01*
Y26467D01*
X37166Y26350D01*
X37749D02*
X38099D01*
X38216Y26467D01*
X38099Y26583D01*
X37866D01*
X37749Y26700D01*
X37866Y26817D01*
X38216D01*
X38566Y26933D02*
Y26817D01*
X38449D01*
X38682D01*
X38566D01*
Y26467D01*
X38682Y26350D01*
X20667Y52467D02*
X20550Y52350D01*
Y52117D01*
X20667Y52000D01*
X21133D01*
X21250Y52117D01*
Y52350D01*
X21133Y52467D01*
X20900D01*
Y52233D01*
X21250Y52700D02*
X20550D01*
X21250Y53166D01*
X20550D01*
Y53400D02*
X21250D01*
Y53749D01*
X21133Y53866D01*
X20667D01*
X20550Y53749D01*
Y53400D01*
X10300Y5917D02*
Y5450D01*
X10650D01*
Y5683D01*
Y5450D01*
X11000D01*
X10300Y6150D02*
X11000D01*
Y6500D01*
X10883Y6616D01*
X10767D01*
X10650Y6500D01*
Y6150D01*
Y6500D01*
X10533Y6616D01*
X10417D01*
X10300Y6500D01*
Y6150D01*
X37167Y52300D02*
X36700D01*
Y51950D01*
X36933Y52067D01*
X37050D01*
X37167Y51950D01*
Y51717D01*
X37050Y51600D01*
X36817D01*
X36700Y51717D01*
X37400Y52300D02*
Y51833D01*
X37633Y51600D01*
X37866Y51833D01*
Y52300D01*
X23317Y30783D02*
X23200Y30900D01*
X22967D01*
X22850Y30783D01*
Y30317D01*
X22967Y30200D01*
X23200D01*
X23317Y30317D01*
Y30550D01*
X23083D01*
X23550Y30200D02*
Y30900D01*
X24016Y30200D01*
Y30900D01*
X24250D02*
Y30200D01*
X24599D01*
X24716Y30317D01*
Y30783D01*
X24599Y30900D01*
X24250D01*
X21134Y47200D02*
Y47900D01*
X21484D01*
X21600Y47783D01*
Y47550D01*
X21484Y47433D01*
X21134D01*
X21367D02*
X21600Y47200D01*
X21833Y47900D02*
Y47200D01*
X22183D01*
X22300Y47317D01*
Y47783D01*
X22183Y47900D01*
X21833D01*
X22533D02*
Y47200D01*
X22883D01*
X23000Y47317D01*
Y47433D01*
X22883Y47550D01*
X22533D01*
X22883D01*
X23000Y47667D01*
Y47783D01*
X22883Y47900D01*
X22533D01*
X23233Y47200D02*
X23466D01*
X23350D01*
Y47900D01*
X23233Y47783D01*
X24784Y47992D02*
X24667Y48108D01*
X24434D01*
X24317Y47992D01*
Y47525D01*
X24434Y47408D01*
X24667D01*
X24784Y47525D01*
X25017Y48108D02*
Y47408D01*
X25367D01*
X25484Y47525D01*
Y47642D01*
X25367Y47758D01*
X25017D01*
X25367D01*
X25484Y47875D01*
Y47992D01*
X25367Y48108D01*
X25017D01*
X25717D02*
Y47992D01*
X25950Y47758D01*
X26183Y47992D01*
Y48108D01*
X25950Y47758D02*
Y47408D01*
X26417Y47292D02*
X26883D01*
X27116Y48108D02*
Y47408D01*
X27466D01*
X27583Y47525D01*
Y47642D01*
X27466Y47758D01*
X27116D01*
X27466D01*
X27583Y47875D01*
Y47992D01*
X27466Y48108D01*
X27116D01*
X28283Y47408D02*
X27816D01*
X28283Y47875D01*
Y47992D01*
X28166Y48108D01*
X27933D01*
X27816Y47992D01*
X16450Y30567D02*
X15750D01*
Y30917D01*
X15867Y31034D01*
X16100D01*
X16217Y30917D01*
Y30567D01*
Y30800D02*
X16450Y31034D01*
X15867Y31733D02*
X15750Y31617D01*
Y31384D01*
X15867Y31267D01*
X15983D01*
X16100Y31384D01*
Y31617D01*
X16217Y31733D01*
X16333D01*
X16450Y31617D01*
Y31384D01*
X16333Y31267D01*
X15750Y31967D02*
Y32433D01*
Y32200D01*
X16450D01*
X15867Y33133D02*
X15750Y33016D01*
Y32783D01*
X15867Y32667D01*
X15983D01*
X16100Y32783D01*
Y33016D01*
X16217Y33133D01*
X16333D01*
X16450Y33016D01*
Y32783D01*
X16333Y32667D01*
X16450Y33833D02*
Y33366D01*
X15983Y33833D01*
X15867D01*
X15750Y33716D01*
Y33483D01*
X15867Y33366D01*
X20334Y35200D02*
Y34500D01*
X20683D01*
X20800Y34617D01*
Y34733D01*
X20683Y34850D01*
X20334D01*
X20683D01*
X20800Y34967D01*
Y35083D01*
X20683Y35200D01*
X20334D01*
X21033D02*
X21500D01*
X21267D01*
Y34500D01*
X21733D02*
X21966D01*
X21850D01*
Y35200D01*
X21733Y35083D01*
X15867Y34784D02*
X15750Y34667D01*
Y34434D01*
X15867Y34317D01*
X15983D01*
X16100Y34434D01*
Y34667D01*
X16217Y34784D01*
X16333D01*
X16450Y34667D01*
Y34434D01*
X16333Y34317D01*
X15750Y35017D02*
Y35483D01*
Y35250D01*
X16450D01*
X15867Y36183D02*
X15750Y36067D01*
Y35833D01*
X15867Y35717D01*
X15983D01*
X16100Y35833D01*
Y36067D01*
X16217Y36183D01*
X16333D01*
X16450Y36067D01*
Y35833D01*
X16333Y35717D01*
X16450Y36883D02*
Y36416D01*
X15983Y36883D01*
X15867D01*
X15750Y36766D01*
Y36533D01*
X15867Y36416D01*
X6842Y22208D02*
Y22092D01*
X6725D01*
X6959D01*
X6842D01*
Y21742D01*
X6959Y21625D01*
X7425D02*
X7658D01*
X7775Y21742D01*
Y21975D01*
X7658Y22092D01*
X7425D01*
X7308Y21975D01*
Y21742D01*
X7425Y21625D01*
X8008Y21392D02*
Y22092D01*
X8358D01*
X8475Y21975D01*
Y21742D01*
X8358Y21625D01*
X8008D01*
X6675Y20500D02*
Y19800D01*
X7025D01*
X7142Y19917D01*
Y20033D01*
Y20150D01*
X7025Y20267D01*
X6675D01*
X7492Y20383D02*
Y20267D01*
X7375D01*
X7608D01*
X7492D01*
Y19917D01*
X7608Y19800D01*
X7958D02*
Y20267D01*
X8075D01*
X8191Y20150D01*
Y19800D01*
Y20150D01*
X8308Y20267D01*
X8425Y20150D01*
Y19800D01*
X37667Y54183D02*
X37550Y54067D01*
Y53833D01*
X37667Y53717D01*
X38133D01*
X38250Y53833D01*
Y54067D01*
X38133Y54183D01*
X37667Y54417D02*
X37550Y54533D01*
Y54767D01*
X37667Y54883D01*
X37783D01*
X37900Y54767D01*
Y54650D01*
Y54767D01*
X38017Y54883D01*
X38133D01*
X38250Y54767D01*
Y54533D01*
X38133Y54417D01*
X42183Y52983D02*
X42067Y53100D01*
X41833D01*
X41717Y52983D01*
Y52517D01*
X41833Y52400D01*
X42067D01*
X42183Y52517D01*
X42883Y52400D02*
X42417D01*
X42883Y52867D01*
Y52983D01*
X42767Y53100D01*
X42533D01*
X42417Y52983D01*
X42300Y58333D02*
X42183Y58450D01*
X41950D01*
X41833Y58333D01*
Y57867D01*
X41950Y57750D01*
X42183D01*
X42300Y57867D01*
X42533Y57750D02*
X42767D01*
X42650D01*
Y58450D01*
X42533Y58333D01*
X44000Y54450D02*
Y53984D01*
X44350D01*
Y54217D01*
Y53984D01*
X44700D01*
X44000Y54683D02*
X44700D01*
Y55033D01*
X44583Y55150D01*
X44467D01*
X44350Y55033D01*
Y54683D01*
Y55033D01*
X44233Y55150D01*
X44117D01*
X44000Y55033D01*
Y54683D01*
X44700Y55383D02*
Y55616D01*
Y55500D01*
X44000D01*
X44117Y55383D01*
X48233Y38808D02*
X48350Y38925D01*
Y39158D01*
X48233Y39275D01*
X47767D01*
X47650Y39158D01*
Y38925D01*
X47767Y38808D01*
X48350Y38575D02*
Y38342D01*
Y38458D01*
X47650D01*
Y38575D01*
Y38342D01*
Y37992D02*
X48350D01*
X47650Y37525D01*
X48350D01*
X47650Y36825D02*
Y37292D01*
X48117Y36825D01*
X48233D01*
X48350Y36942D01*
Y37175D01*
X48233Y37292D01*
X3483Y43900D02*
Y43783D01*
X3717Y43550D01*
X3950Y43783D01*
Y43900D01*
X3717Y43550D02*
Y43200D01*
X4183D02*
X4417D01*
X4300D01*
Y43900D01*
X4183Y43783D01*
X32867Y54400D02*
Y53817D01*
X32984Y53700D01*
X33217D01*
X33334Y53817D01*
Y54400D01*
X33567D02*
Y53817D01*
X33683Y53700D01*
X33917D01*
X34033Y53817D01*
Y54400D01*
X34733Y54283D02*
X34617Y54400D01*
X34383D01*
X34267Y54283D01*
Y54167D01*
X34383Y54050D01*
X34617D01*
X34733Y53933D01*
Y53817D01*
X34617Y53700D01*
X34383D01*
X34267Y53817D01*
X34966Y54400D02*
Y53700D01*
X35316D01*
X35433Y53817D01*
Y53933D01*
X35316Y54050D01*
X34966D01*
X35316D01*
X35433Y54167D01*
Y54283D01*
X35316Y54400D01*
X34966D01*
X22967Y43808D02*
Y43225D01*
X23084Y43108D01*
X23317D01*
X23434Y43225D01*
Y43808D01*
X24134Y43692D02*
X24017Y43808D01*
X23784D01*
X23667Y43692D01*
Y43575D01*
X23784Y43458D01*
X24017D01*
X24134Y43342D01*
Y43225D01*
X24017Y43108D01*
X23784D01*
X23667Y43225D01*
X24367Y43808D02*
Y43108D01*
X24717D01*
X24833Y43225D01*
Y43342D01*
X24717Y43458D01*
X24367D01*
X24717D01*
X24833Y43575D01*
Y43692D01*
X24717Y43808D01*
X24367D01*
X25067Y42992D02*
X25533D01*
X25766Y43108D02*
Y43808D01*
X26116D01*
X26233Y43692D01*
Y43458D01*
X26116Y43342D01*
X25766D01*
X26466Y43808D02*
Y43225D01*
X26583Y43108D01*
X26816D01*
X26933Y43225D01*
Y43808D01*
X41817Y50650D02*
Y50067D01*
X41933Y49950D01*
X42167D01*
X42283Y50067D01*
Y50650D01*
X42983Y49950D02*
X42517D01*
X42983Y50417D01*
Y50533D01*
X42867Y50650D01*
X42633D01*
X42517Y50533D01*
X12283Y47750D02*
Y47167D01*
X12400Y47050D01*
X12633D01*
X12750Y47167D01*
Y47750D01*
X12983Y47050D02*
X13217D01*
X13100D01*
Y47750D01*
X12983Y47633D01*
X5083Y29083D02*
X4967Y29200D01*
X4733D01*
X4617Y29083D01*
Y28967D01*
X4733Y28850D01*
X4967D01*
X5083Y28733D01*
Y28617D01*
X4967Y28500D01*
X4733D01*
X4617Y28617D01*
X5317Y29200D02*
Y28500D01*
X5550Y28733D01*
X5783Y28500D01*
Y29200D01*
X10167Y14833D02*
X10050Y14717D01*
Y14484D01*
X10167Y14367D01*
X10283D01*
X10400Y14484D01*
Y14717D01*
X10517Y14833D01*
X10633D01*
X10750Y14717D01*
Y14484D01*
X10633Y14367D01*
X10050Y15533D02*
Y15067D01*
X10750D01*
Y15533D01*
X10400Y15067D02*
Y15300D01*
X10750Y15767D02*
X10050D01*
X10750Y16233D01*
X10050D01*
X15400Y30567D02*
X14700D01*
Y30917D01*
X14817Y31034D01*
X15050D01*
X15167Y30917D01*
Y30567D01*
Y30800D02*
X15400Y31034D01*
X14817Y31733D02*
X14700Y31617D01*
Y31383D01*
X14817Y31267D01*
X14933D01*
X15050Y31383D01*
Y31617D01*
X15167Y31733D01*
X15283D01*
X15400Y31617D01*
Y31383D01*
X15283Y31267D01*
X14700Y31967D02*
Y32433D01*
Y32200D01*
X15400D01*
X14817Y33133D02*
X14700Y33016D01*
Y32783D01*
X14817Y32666D01*
X14933D01*
X15050Y32783D01*
Y33016D01*
X15167Y33133D01*
X15283D01*
X15400Y33016D01*
Y32783D01*
X15283Y32666D01*
X40434Y28300D02*
Y29000D01*
X40784D01*
X40900Y28883D01*
Y28650D01*
X40784Y28533D01*
X40434D01*
X40667D02*
X40900Y28300D01*
X41133D02*
X41483D01*
X41600Y28417D01*
X41483Y28533D01*
X41250D01*
X41133Y28650D01*
X41250Y28767D01*
X41600D01*
X42183Y28300D02*
X41950D01*
X41833Y28417D01*
Y28650D01*
X41950Y28767D01*
X42183D01*
X42300Y28650D01*
Y28533D01*
X41833D01*
X42650Y28883D02*
Y28767D01*
X42533D01*
X42766D01*
X42650D01*
Y28417D01*
X42766Y28300D01*
X6700Y14017D02*
X6000D01*
Y14367D01*
X6117Y14484D01*
X6350D01*
X6467Y14367D01*
Y14017D01*
Y14251D02*
X6700Y14484D01*
Y14717D02*
Y15067D01*
X6583Y15184D01*
X6467Y15067D01*
Y14834D01*
X6350Y14717D01*
X6233Y14834D01*
Y15184D01*
X6700Y15767D02*
Y15533D01*
X6583Y15417D01*
X6350D01*
X6233Y15533D01*
Y15767D01*
X6350Y15883D01*
X6467D01*
Y15417D01*
X6700Y16117D02*
X6233D01*
Y16467D01*
X6350Y16583D01*
X6700D01*
Y16816D02*
Y17166D01*
X6583Y17283D01*
X6467Y17166D01*
Y16933D01*
X6350Y16816D01*
X6233Y16933D01*
Y17283D01*
X6700Y17866D02*
Y17633D01*
X6583Y17516D01*
X6350D01*
X6233Y17633D01*
Y17866D01*
X6350Y17983D01*
X6467D01*
Y17516D01*
X38850Y38066D02*
X39550D01*
Y37716D01*
X39433Y37600D01*
X39200D01*
X39083Y37716D01*
Y38066D01*
Y37833D02*
X38850Y37600D01*
Y37367D02*
Y37133D01*
Y37250D01*
X39550D01*
Y37367D01*
X38850Y36783D02*
Y36550D01*
Y36667D01*
X39317D01*
Y36783D01*
X38850Y36200D02*
X39317D01*
Y36084D01*
X39200Y35967D01*
X38850D01*
X39200D01*
X39317Y35850D01*
X39200Y35734D01*
X38850D01*
X18600Y60184D02*
X17900D01*
Y60534D01*
X18017Y60650D01*
X18250D01*
X18367Y60534D01*
Y60184D01*
Y60417D02*
X18600Y60650D01*
X17900Y60884D02*
X18600D01*
Y61350D01*
X17900Y62050D02*
Y61583D01*
X18600D01*
Y62050D01*
X18250Y61583D02*
Y61817D01*
X17900Y62283D02*
X18600D01*
Y62633D01*
X18483Y62750D01*
X18017D01*
X17900Y62633D01*
Y62283D01*
X18600Y62983D02*
Y63216D01*
Y63100D01*
X17900D01*
X18017Y62983D01*
X47100Y44467D02*
X46400D01*
Y44817D01*
X46517Y44933D01*
X46750D01*
X46867Y44817D01*
Y44467D01*
Y44700D02*
X47100Y44933D01*
X46400Y45633D02*
Y45167D01*
X46750D01*
Y45400D01*
Y45167D01*
X47100D01*
Y46333D02*
Y45867D01*
X46633Y46333D01*
X46517D01*
X46400Y46216D01*
Y45983D01*
X46517Y45867D01*
X48400Y47134D02*
X47700D01*
Y47483D01*
X47817Y47600D01*
X48050D01*
X48167Y47483D01*
Y47134D01*
Y47367D02*
X48400Y47600D01*
X47700Y48300D02*
Y47833D01*
X48050D01*
Y48067D01*
Y47833D01*
X48400D01*
Y48533D02*
Y48766D01*
Y48650D01*
X47700D01*
X47817Y48533D01*
X8634Y44550D02*
Y45250D01*
X8984D01*
X9100Y45133D01*
Y44900D01*
X8984Y44783D01*
X8634D01*
X8867D02*
X9100Y44550D01*
X9683D02*
X9450D01*
X9333Y44667D01*
Y44900D01*
X9450Y45017D01*
X9683D01*
X9800Y44900D01*
Y44783D01*
X9333D01*
X10033Y45017D02*
X10500Y44550D01*
X10267Y44783D01*
X10500Y45017D01*
X10033Y44550D01*
X10850Y45133D02*
Y45017D01*
X10733D01*
X10966D01*
X10850D01*
Y44667D01*
X10966Y44550D01*
X7367Y4150D02*
Y4850D01*
X7717D01*
X7833Y4733D01*
Y4500D01*
X7717Y4383D01*
X7367D01*
X7600D02*
X7833Y4150D01*
X8533Y4733D02*
X8417Y4850D01*
X8183D01*
X8067Y4733D01*
Y4267D01*
X8183Y4150D01*
X8417D01*
X8533Y4267D01*
X9233Y4733D02*
X9116Y4850D01*
X8883D01*
X8767Y4733D01*
Y4617D01*
X8883Y4500D01*
X9116D01*
X9233Y4383D01*
Y4267D01*
X9116Y4150D01*
X8883D01*
X8767Y4267D01*
X17350Y48917D02*
X18050D01*
Y49267D01*
X17933Y49383D01*
X17817D01*
X17700Y49267D01*
Y48917D01*
Y49267D01*
X17583Y49383D01*
X17467D01*
X17350Y49267D01*
Y48917D01*
Y49617D02*
Y50083D01*
Y49850D01*
X18050D01*
X17467Y50317D02*
X17350Y50433D01*
Y50666D01*
X17467Y50783D01*
X17933D01*
X18050Y50666D01*
Y50433D01*
X17933Y50317D01*
X17467D01*
X11317Y9000D02*
X11783D01*
X11900Y9117D01*
Y9350D01*
X11783Y9467D01*
X11317D01*
X11200Y9350D01*
Y9117D01*
X11433Y9233D02*
X11200Y9000D01*
Y9117D02*
X11317Y9000D01*
X11200Y8767D02*
Y8533D01*
Y8650D01*
X11900D01*
X11783Y8767D01*
X43684Y31633D02*
X43567Y31750D01*
X43334D01*
X43217Y31633D01*
Y31167D01*
X43334Y31050D01*
X43567D01*
X43684Y31167D01*
X44267Y31750D02*
X44034D01*
X43917Y31633D01*
Y31167D01*
X44034Y31050D01*
X44267D01*
X44383Y31167D01*
Y31633D01*
X44267Y31750D01*
X44617D02*
Y31167D01*
X44733Y31050D01*
X44967D01*
X45083Y31167D01*
Y31750D01*
X45317D02*
X45783D01*
X45550D01*
Y31050D01*
X46483D02*
X46016D01*
X46483Y31517D01*
Y31633D01*
X46366Y31750D01*
X46133D01*
X46016Y31633D01*
X43450Y41733D02*
X43334Y41850D01*
X43100D01*
X42984Y41733D01*
Y41267D01*
X43100Y41150D01*
X43334D01*
X43450Y41267D01*
X44033Y41850D02*
X43800D01*
X43684Y41733D01*
Y41267D01*
X43800Y41150D01*
X44033D01*
X44150Y41267D01*
Y41733D01*
X44033Y41850D01*
X44383D02*
Y41267D01*
X44500Y41150D01*
X44733D01*
X44850Y41267D01*
Y41850D01*
X45083D02*
X45550D01*
X45316D01*
Y41150D01*
X45783D02*
X46016D01*
X45900D01*
Y41850D01*
X45783Y41733D01*
X37542Y48309D02*
X37425Y48192D01*
Y47959D01*
X37542Y47842D01*
X38008D01*
X38125Y47959D01*
Y48192D01*
X38008Y48309D01*
X37425Y48542D02*
Y48775D01*
Y48658D01*
X38125D01*
Y48542D01*
Y48775D01*
Y49125D02*
X37425D01*
X38125Y49591D01*
X37425D01*
X38125Y49825D02*
Y50058D01*
Y49941D01*
X37425D01*
X37542Y49825D01*
X26400Y33334D02*
X25700D01*
Y33684D01*
X25817Y33800D01*
X26050D01*
X26167Y33684D01*
Y33334D01*
X25700Y34034D02*
X26400D01*
Y34384D01*
X26283Y34500D01*
X26167D01*
X26050Y34384D01*
Y34034D01*
Y34384D01*
X25933Y34500D01*
X25817D01*
X25700Y34384D01*
Y34034D01*
Y35083D02*
Y34850D01*
X25817Y34733D01*
X26283D01*
X26400Y34850D01*
Y35083D01*
X26283Y35200D01*
X25817D01*
X25700Y35083D01*
Y35783D02*
Y35550D01*
X25817Y35433D01*
X26283D01*
X26400Y35550D01*
Y35783D01*
X26283Y35900D01*
X25817D01*
X25700Y35783D01*
Y36133D02*
Y36600D01*
Y36366D01*
X26400D01*
Y36833D02*
Y37066D01*
Y36949D01*
X25700D01*
X25817Y36833D01*
X12517Y54750D02*
Y55450D01*
X12867D01*
X12984Y55333D01*
Y55100D01*
X12867Y54983D01*
X12517D01*
X13217Y55450D02*
Y54750D01*
X13567D01*
X13684Y54867D01*
Y54983D01*
X13567Y55100D01*
X13217D01*
X13567D01*
X13684Y55217D01*
Y55333D01*
X13567Y55450D01*
X13217D01*
X14267D02*
X14033D01*
X13917Y55333D01*
Y54867D01*
X14033Y54750D01*
X14267D01*
X14383Y54867D01*
Y55333D01*
X14267Y55450D01*
X14967D02*
X14733D01*
X14617Y55333D01*
Y54867D01*
X14733Y54750D01*
X14967D01*
X15083Y54867D01*
Y55333D01*
X14967Y55450D01*
X15316D02*
X15783D01*
X15550D01*
Y54750D01*
X16016Y55333D02*
X16133Y55450D01*
X16366D01*
X16483Y55333D01*
Y54867D01*
X16366Y54750D01*
X16133D01*
X16016Y54867D01*
Y55333D01*
X14767Y34800D02*
X14650Y34684D01*
Y34450D01*
X14767Y34334D01*
X14883D01*
X15000Y34450D01*
Y34684D01*
X15117Y34800D01*
X15233D01*
X15350Y34684D01*
Y34450D01*
X15233Y34334D01*
X14650Y35033D02*
Y35500D01*
Y35267D01*
X15350D01*
X14767Y36200D02*
X14650Y36083D01*
Y35850D01*
X14767Y35733D01*
X14883D01*
X15000Y35850D01*
Y36083D01*
X15117Y36200D01*
X15233D01*
X15350Y36083D01*
Y35850D01*
X15233Y35733D01*
X15350Y36433D02*
Y36666D01*
Y36550D01*
X14650D01*
X14767Y36433D01*
X41167Y62100D02*
Y62800D01*
X41517D01*
X41633Y62683D01*
Y62450D01*
X41517Y62333D01*
X41167D01*
X41867Y62800D02*
Y62100D01*
X42100Y62333D01*
X42333Y62100D01*
Y62800D01*
X42567Y62100D02*
Y62800D01*
X42916D01*
X43033Y62683D01*
Y62450D01*
X42916Y62333D01*
X42567D01*
X42800D02*
X43033Y62100D01*
X26367Y15900D02*
Y15200D01*
X26834D01*
X27067Y15900D02*
Y15200D01*
X27417D01*
X27533Y15317D01*
Y15783D01*
X27417Y15900D01*
X27067D01*
X28117D02*
X27883D01*
X27767Y15783D01*
Y15317D01*
X27883Y15200D01*
X28117D01*
X28233Y15317D01*
Y15783D01*
X28117Y15900D01*
X28466Y15783D02*
X28583Y15900D01*
X28816D01*
X28933Y15783D01*
Y15667D01*
X28816Y15550D01*
X28700D01*
X28816D01*
X28933Y15433D01*
Y15317D01*
X28816Y15200D01*
X28583D01*
X28466Y15317D01*
X40917Y39500D02*
Y38800D01*
X41384D01*
X41617Y39500D02*
Y38800D01*
X41967D01*
X42083Y38917D01*
Y39383D01*
X41967Y39500D01*
X41617D01*
X42667D02*
X42433D01*
X42317Y39383D01*
Y38917D01*
X42433Y38800D01*
X42667D01*
X42783Y38917D01*
Y39383D01*
X42667Y39500D01*
X43483Y38800D02*
X43016D01*
X43483Y39267D01*
Y39383D01*
X43366Y39500D01*
X43133D01*
X43016Y39383D01*
X22784Y59850D02*
Y59150D01*
X23250D01*
X23483Y59850D02*
Y59150D01*
X23833D01*
X23950Y59267D01*
Y59733D01*
X23833Y59850D01*
X23483D01*
X24533D02*
X24300D01*
X24183Y59733D01*
Y59267D01*
X24300Y59150D01*
X24533D01*
X24650Y59267D01*
Y59733D01*
X24533Y59850D01*
X24883Y59150D02*
X25116D01*
X25000D01*
Y59850D01*
X24883Y59733D01*
X35583Y42650D02*
Y41950D01*
X36050D01*
X36283D02*
X36517D01*
X36400D01*
Y42650D01*
X36283Y42533D01*
X40517Y43750D02*
Y43050D01*
X40867D01*
X40983Y43167D01*
Y43633D01*
X40867Y43750D01*
X40517D01*
X7117Y36983D02*
X7000Y36867D01*
Y36634D01*
X7117Y36517D01*
X7583D01*
X7700Y36634D01*
Y36867D01*
X7583Y36983D01*
X7000Y37217D02*
X7117D01*
X7350Y37450D01*
X7117Y37683D01*
X7000D01*
X7350Y37450D02*
X7700D01*
Y38383D02*
Y37917D01*
X7233Y38383D01*
X7117D01*
X7000Y38266D01*
Y38033D01*
X7117Y37917D01*
X7117Y48450D02*
X7000Y48333D01*
Y48100D01*
X7117Y47984D01*
X7583D01*
X7700Y48100D01*
Y48333D01*
X7583Y48450D01*
X7000Y48683D02*
X7117D01*
X7350Y48917D01*
X7117Y49150D01*
X7000D01*
X7350Y48917D02*
X7700D01*
Y49383D02*
Y49616D01*
Y49500D01*
X7000D01*
X7117Y49383D01*
X10117Y37084D02*
X10000Y36967D01*
Y36734D01*
X10117Y36617D01*
X10583D01*
X10700Y36734D01*
Y36967D01*
X10583Y37084D01*
X10000Y37317D02*
X10467D01*
X10700Y37550D01*
X10467Y37783D01*
X10000D01*
X10700Y38017D02*
X10233D01*
X10000Y38250D01*
X10233Y38483D01*
X10700D01*
X10350D01*
Y38017D01*
X10700Y39183D02*
Y38716D01*
X10233Y39183D01*
X10117D01*
X10000Y39066D01*
Y38833D01*
X10117Y38716D01*
X8917Y37350D02*
X8800Y37234D01*
Y37000D01*
X8917Y36884D01*
X9383D01*
X9500Y37000D01*
Y37234D01*
X9383Y37350D01*
X8800Y37583D02*
X9267D01*
X9500Y37817D01*
X9267Y38050D01*
X8800D01*
X9500Y38283D02*
X9033D01*
X8800Y38517D01*
X9033Y38750D01*
X9500D01*
X9150D01*
Y38283D01*
X9500Y38983D02*
Y39216D01*
Y39100D01*
X8800D01*
X8917Y38983D01*
X11767Y48934D02*
X11650Y48817D01*
Y48584D01*
X11767Y48467D01*
X12233D01*
X12350Y48584D01*
Y48817D01*
X12233Y48934D01*
X11650Y49167D02*
X12117D01*
X12350Y49400D01*
X12117Y49633D01*
X11650D01*
X11767Y49867D02*
X11650Y49983D01*
Y50217D01*
X11767Y50333D01*
X11883D01*
X12000Y50217D01*
Y50100D01*
Y50217D01*
X12117Y50333D01*
X12233D01*
X12350Y50217D01*
Y49983D01*
X12233Y49867D01*
X12350Y51033D02*
Y50566D01*
X11883Y51033D01*
X11767D01*
X11650Y50916D01*
Y50683D01*
X11767Y50566D01*
X10617Y48950D02*
X10500Y48834D01*
Y48600D01*
X10617Y48484D01*
X11083D01*
X11200Y48600D01*
Y48834D01*
X11083Y48950D01*
X10500Y49183D02*
X10967D01*
X11200Y49417D01*
X10967Y49650D01*
X10500D01*
X10617Y49883D02*
X10500Y50000D01*
Y50233D01*
X10617Y50350D01*
X10733D01*
X10850Y50233D01*
Y50117D01*
Y50233D01*
X10967Y50350D01*
X11083D01*
X11200Y50233D01*
Y50000D01*
X11083Y49883D01*
X11200Y50583D02*
Y50816D01*
Y50700D01*
X10500D01*
X10617Y50583D01*
X22483Y45533D02*
X22367Y45650D01*
X22134D01*
X22017Y45533D01*
Y45067D01*
X22134Y44950D01*
X22367D01*
X22483Y45067D01*
X22717Y45650D02*
Y45183D01*
X22950Y44950D01*
X23183Y45183D01*
Y45650D01*
X23883Y44950D02*
X23417D01*
X23883Y45417D01*
Y45533D01*
X23766Y45650D01*
X23533D01*
X23417Y45533D01*
X21467Y37600D02*
X21350Y37483D01*
Y37250D01*
X21467Y37134D01*
X21933D01*
X22050Y37250D01*
Y37483D01*
X21933Y37600D01*
X21350Y37833D02*
X21817D01*
X22050Y38067D01*
X21817Y38300D01*
X21350D01*
X22050Y38533D02*
Y38766D01*
Y38650D01*
X21350D01*
X21467Y38533D01*
X38167Y31700D02*
X38050Y31584D01*
Y31350D01*
X38167Y31234D01*
X38633D01*
X38750Y31350D01*
Y31584D01*
X38633Y31700D01*
X38750Y31933D02*
Y32283D01*
X38633Y32400D01*
X38517Y32283D01*
Y32050D01*
X38400Y31933D01*
X38283Y32050D01*
Y32400D01*
X38750Y32983D02*
Y32750D01*
X38633Y32633D01*
X38400D01*
X38283Y32750D01*
Y32983D01*
X38400Y33100D01*
X38517D01*
Y32633D01*
X38167Y33450D02*
X38283D01*
Y33333D01*
Y33566D01*
Y33450D01*
X38633D01*
X38750Y33566D01*
X2683Y5700D02*
X2917D01*
X2800D01*
Y6400D01*
X2683Y6283D01*
X3267Y5700D02*
Y6400D01*
Y5933D02*
X3617Y6167D01*
X3267Y5933D02*
X3617Y5700D01*
X28734Y20083D02*
X28617Y20200D01*
X28384D01*
X28267Y20083D01*
Y19617D01*
X28384Y19500D01*
X28617D01*
X28734Y19617D01*
X29317Y20200D02*
X29084D01*
X28967Y20083D01*
Y19617D01*
X29084Y19500D01*
X29317D01*
X29433Y19617D01*
Y20083D01*
X29317Y20200D01*
X29667D02*
Y19617D01*
X29783Y19500D01*
X30017D01*
X30133Y19617D01*
Y20200D01*
X30367D02*
X30833D01*
X30600D01*
Y19500D01*
X31066Y20083D02*
X31183Y20200D01*
X31416D01*
X31533Y20083D01*
Y19967D01*
X31416Y19850D01*
X31300D01*
X31416D01*
X31533Y19733D01*
Y19617D01*
X31416Y19500D01*
X31183D01*
X31066Y19617D01*
X19600Y59733D02*
X19484Y59850D01*
X19250D01*
X19134Y59733D01*
Y59267D01*
X19250Y59150D01*
X19484D01*
X19600Y59267D01*
X20183Y59850D02*
X19950D01*
X19834Y59733D01*
Y59267D01*
X19950Y59150D01*
X20183D01*
X20300Y59267D01*
Y59733D01*
X20183Y59850D01*
X20533D02*
Y59267D01*
X20650Y59150D01*
X20883D01*
X21000Y59267D01*
Y59850D01*
X21233D02*
X21700D01*
X21466D01*
Y59150D01*
X21933D02*
X22166D01*
X22050D01*
Y59850D01*
X21933Y59733D01*
X27242Y13133D02*
X27125Y13250D01*
X26892D01*
X26775Y13133D01*
Y12667D01*
X26892Y12550D01*
X27125D01*
X27242Y12667D01*
X27475Y13250D02*
X27708D01*
X27592D01*
Y12550D01*
X27475D01*
X27708D01*
X28058D02*
Y13250D01*
X28525Y12550D01*
Y13250D01*
X28758Y13133D02*
X28875Y13250D01*
X29108D01*
X29225Y13133D01*
Y13017D01*
X29108Y12900D01*
X28991D01*
X29108D01*
X29225Y12783D01*
Y12667D01*
X29108Y12550D01*
X28875D01*
X28758Y12667D01*
X27917Y60809D02*
X27800Y60692D01*
Y60459D01*
X27917Y60342D01*
X28383D01*
X28500Y60459D01*
Y60692D01*
X28383Y60809D01*
X27800Y61042D02*
Y61275D01*
Y61158D01*
X28500D01*
Y61042D01*
Y61275D01*
Y61625D02*
X27800D01*
X28500Y62091D01*
X27800D01*
X28500Y62325D02*
Y62558D01*
Y62441D01*
X27800D01*
X27917Y62325D01*
X47708Y49833D02*
X47592Y49950D01*
X47359D01*
X47242Y49833D01*
Y49367D01*
X47359Y49250D01*
X47592D01*
X47708Y49367D01*
X48058Y49250D02*
Y49833D01*
Y49600D01*
X47942D01*
X48175D01*
X48058D01*
Y49833D01*
X48175Y49950D01*
X48525Y49250D02*
X48758D01*
X48641D01*
Y49950D01*
X48525Y49833D01*
X13817Y11450D02*
X13700Y11334D01*
Y11100D01*
X13817Y10984D01*
X14283D01*
X14400Y11100D01*
Y11334D01*
X14283Y11450D01*
X13817Y12150D02*
X13700Y12033D01*
Y11800D01*
X13817Y11683D01*
X14283D01*
X14400Y11800D01*
Y12033D01*
X14283Y12150D01*
X13817Y12850D02*
X13700Y12733D01*
Y12500D01*
X13817Y12383D01*
X13933D01*
X14050Y12500D01*
Y12733D01*
X14167Y12850D01*
X14283D01*
X14400Y12733D01*
Y12500D01*
X14283Y12383D01*
X14400Y13083D02*
Y13316D01*
Y13200D01*
X13700D01*
X13817Y13083D01*
X5283Y33183D02*
X5167Y33300D01*
X4934D01*
X4817Y33183D01*
Y32717D01*
X4934Y32600D01*
X5167D01*
X5283Y32717D01*
X5517Y33300D02*
Y32600D01*
X5867D01*
X5983Y32717D01*
Y32833D01*
X5867Y32950D01*
X5517D01*
X5867D01*
X5983Y33067D01*
Y33183D01*
X5867Y33300D01*
X5517D01*
X6217D02*
Y33183D01*
X6450Y32950D01*
X6683Y33183D01*
Y33300D01*
X6450Y32950D02*
Y32600D01*
X26434Y18383D02*
X26317Y18500D01*
X26084D01*
X25967Y18383D01*
Y17917D01*
X26084Y17800D01*
X26317D01*
X26434Y17917D01*
X26667Y18500D02*
Y17800D01*
X27017D01*
X27133Y17917D01*
Y18033D01*
X27017Y18150D01*
X26667D01*
X27017D01*
X27133Y18267D01*
Y18383D01*
X27017Y18500D01*
X26667D01*
X27367D02*
Y18383D01*
X27600Y18150D01*
X27833Y18383D01*
Y18500D01*
X27600Y18150D02*
Y17800D01*
X28066Y18383D02*
X28183Y18500D01*
X28416D01*
X28533Y18383D01*
Y18267D01*
X28416Y18150D01*
X28300D01*
X28416D01*
X28533Y18033D01*
Y17917D01*
X28416Y17800D01*
X28183D01*
X28066Y17917D01*
X13817Y16684D02*
X13700Y16567D01*
Y16334D01*
X13817Y16217D01*
X14283D01*
X14400Y16334D01*
Y16567D01*
X14283Y16684D01*
X13700Y16917D02*
X14400D01*
Y17267D01*
X14283Y17383D01*
X14167D01*
X14050Y17267D01*
Y16917D01*
Y17267D01*
X13933Y17383D01*
X13817D01*
X13700Y17267D01*
Y16917D01*
Y17617D02*
X13817D01*
X14050Y17850D01*
X13817Y18083D01*
X13700D01*
X14050Y17850D02*
X14400D01*
Y18783D02*
Y18316D01*
X13933Y18783D01*
X13817D01*
X13700Y18666D01*
Y18433D01*
X13817Y18316D01*
X26450Y64333D02*
X26334Y64450D01*
X26100D01*
X25984Y64333D01*
Y63867D01*
X26100Y63750D01*
X26334D01*
X26450Y63867D01*
X26683Y64450D02*
Y63750D01*
X27033D01*
X27150Y63867D01*
Y63983D01*
X27033Y64100D01*
X26683D01*
X27033D01*
X27150Y64217D01*
Y64333D01*
X27033Y64450D01*
X26683D01*
X27383D02*
Y64333D01*
X27617Y64100D01*
X27850Y64333D01*
Y64450D01*
X27617Y64100D02*
Y63750D01*
X28083D02*
X28316D01*
X28200D01*
Y64450D01*
X28083Y64333D01*
X13967Y20133D02*
X13850Y20017D01*
Y19784D01*
X13967Y19667D01*
X14433D01*
X14550Y19784D01*
Y20017D01*
X14433Y20133D01*
X14550Y20367D02*
X14083D01*
X13850Y20600D01*
X14083Y20833D01*
X14550D01*
X14200D01*
Y20367D01*
X13850Y21533D02*
X13967Y21300D01*
X14200Y21067D01*
X14433D01*
X14550Y21183D01*
Y21416D01*
X14433Y21533D01*
X14317D01*
X14200Y21416D01*
Y21067D01*
X21017Y10883D02*
X20900Y10767D01*
Y10534D01*
X21017Y10417D01*
X21483D01*
X21600Y10534D01*
Y10767D01*
X21483Y10883D01*
X21600Y11117D02*
X21133D01*
X20900Y11350D01*
X21133Y11583D01*
X21600D01*
X21250D01*
Y11117D01*
X20900Y12283D02*
Y11817D01*
X21250D01*
X21133Y12050D01*
Y12166D01*
X21250Y12283D01*
X21483D01*
X21600Y12166D01*
Y11933D01*
X21483Y11817D01*
X18183Y8733D02*
X18067Y8850D01*
X17834D01*
X17717Y8733D01*
Y8267D01*
X17834Y8150D01*
X18067D01*
X18183Y8267D01*
X18417Y8150D02*
Y8617D01*
X18650Y8850D01*
X18883Y8617D01*
Y8150D01*
Y8500D01*
X18417D01*
X19466Y8150D02*
Y8850D01*
X19117Y8500D01*
X19583D01*
X15983Y12483D02*
X15867Y12600D01*
X15634D01*
X15517Y12483D01*
Y12017D01*
X15634Y11900D01*
X15867D01*
X15983Y12017D01*
X16217Y11900D02*
Y12367D01*
X16450Y12600D01*
X16683Y12367D01*
Y11900D01*
Y12250D01*
X16217D01*
X16917Y12483D02*
X17033Y12600D01*
X17266D01*
X17383Y12483D01*
Y12367D01*
X17266Y12250D01*
X17150D01*
X17266D01*
X17383Y12133D01*
Y12017D01*
X17266Y11900D01*
X17033D01*
X16917Y12017D01*
X13817Y14333D02*
X13700Y14217D01*
Y13984D01*
X13817Y13867D01*
X14283D01*
X14400Y13984D01*
Y14217D01*
X14283Y14333D01*
X14400Y14567D02*
X13933D01*
X13700Y14800D01*
X13933Y15033D01*
X14400D01*
X14050D01*
Y14567D01*
X14400Y15733D02*
Y15267D01*
X13933Y15733D01*
X13817D01*
X13700Y15616D01*
Y15383D01*
X13817Y15267D01*
X21217Y22450D02*
Y22917D01*
X21450Y23150D01*
X21683Y22917D01*
Y22450D01*
Y22800D01*
X21217D01*
X21917Y23150D02*
Y22450D01*
X22267D01*
X22383Y22567D01*
Y23033D01*
X22267Y23150D01*
X21917D01*
X23083Y23033D02*
X22966Y23150D01*
X22733D01*
X22617Y23033D01*
Y22567D01*
X22733Y22450D01*
X22966D01*
X23083Y22567D01*
D107*
X27555Y54400D02*
G03*
X27555Y54400I-1755J0D01*
G01*
X6905Y28850D02*
G03*
X6905Y28850I-1755J0D01*
G01*
X24650Y51405D02*
X26950D01*
X28795Y52100D02*
Y56700D01*
X24650Y57400D02*
X26950D01*
X22805Y52200D02*
Y56700D01*
X2950Y31845D02*
X7450D01*
X8150Y27700D02*
Y30000D01*
X2850Y25855D02*
X7450D01*
X2155Y27700D02*
Y30000D01*
X18374Y36947D02*
Y37600D01*
X18700Y37273D02*
X18047D01*
X39876Y61553D02*
Y60900D01*
X39550Y61227D02*
X40203D01*
X17124Y36947D02*
Y37600D01*
X17450Y37273D02*
X16797D01*
X18603Y63773D02*
X17950D01*
X18277Y64100D02*
Y63447D01*
D108*
X44962Y38400D02*
G03*
X44962Y38400I-112J0D01*
G01*
X41491Y47150D02*
G03*
X41491Y47150I-141J0D01*
G01*
X9521Y13300D02*
G03*
X9521Y13300I-71J0D01*
G01*
X5103Y15570D02*
G03*
X5103Y15570I-583J0D01*
G01*
X10016Y16675D02*
G03*
X10016Y16675I-141J0D01*
G01*
X17224Y16850D02*
G03*
X17224Y16850I-224J0D01*
G01*
X23409Y15058D02*
G03*
X23409Y15058I-141J0D01*
G01*
X24667Y60500D02*
G03*
X24667Y60500I-141J0D01*
G01*
X8650Y8750D02*
X8850Y9050D01*
X8650Y8750D02*
X9050D01*
X8850Y9050D02*
X9050Y8750D01*
X8850Y7750D02*
Y9050D01*
X13700Y5300D02*
X14000D01*
X13700D02*
X14000Y5600D01*
Y5300D02*
Y5600D01*
X13050Y6200D02*
X14000Y5300D01*
X19950Y64150D02*
X20250Y63800D01*
X19950Y63450D02*
X20250Y63800D01*
X19950Y63450D02*
Y64150D01*
X18850Y61650D02*
X19900D01*
X39600Y62900D02*
X40000Y63350D01*
X40350Y62900D01*
X39600D02*
X40350D01*
X18050Y35650D02*
X18350Y35300D01*
X16800Y35650D02*
X17150Y35300D01*
X17450Y35650D01*
X16800D02*
X17450D01*
X18350Y35300D02*
X18700Y35650D01*
X18050D02*
X18700D01*
X42100Y63350D02*
Y64500D01*
X12600Y17250D02*
X13350D01*
X7250Y15100D02*
X7900D01*
X14900Y20650D02*
X15700D01*
X23400Y63650D02*
Y64450D01*
X20850Y61300D02*
X21600D01*
X41400Y33050D02*
X42550D01*
X40050D02*
X40800D01*
X40300Y37000D02*
X41300D01*
X42900Y43300D02*
X43700D01*
X44550Y45500D02*
X45650D01*
X45500Y49050D02*
Y49900D01*
X37850Y57750D02*
Y58450D01*
X42800Y54800D02*
X43400D01*
X41150D02*
X41950D01*
X42350Y56350D02*
Y57150D01*
X21800Y46150D02*
Y46550D01*
X24150Y45500D02*
X25200D01*
X15750Y49850D02*
X16750D01*
X14050Y49200D02*
X14450D01*
X12800Y49500D02*
X13600D01*
X6950Y45300D02*
X7700D01*
X6950Y41100D02*
X7700D01*
X9900Y42900D02*
Y44050D01*
X10250Y39850D02*
Y40250D01*
Y40900D02*
Y41300D01*
X6750Y5150D02*
Y6850D01*
X9950D01*
X6750Y5150D02*
X9950D01*
Y6850D01*
X8300Y5450D02*
Y6600D01*
X12350Y12150D02*
X13150D01*
X10200Y19500D02*
Y20600D01*
Y21350D02*
Y22400D01*
X7450Y12200D02*
X8250D01*
X10920Y10550D02*
X12200D01*
X10900Y7550D02*
Y10550D01*
X12040Y7550D02*
X12200Y7710D01*
X10910Y7550D02*
X12040D01*
X12200Y7710D02*
Y10550D01*
X40950Y48550D02*
X43950D01*
Y46750D02*
Y48550D01*
X40950Y47050D02*
Y48550D01*
Y47050D02*
X41250Y46750D01*
X43950D01*
X10410Y11320D02*
Y13120D01*
X9710Y11120D02*
Y11320D01*
Y11120D02*
X11110D01*
Y11320D01*
X9710Y13120D02*
Y13320D01*
X10410D01*
X11110Y13120D02*
Y13320D01*
X10410D02*
X11110D01*
X4520Y14987D02*
Y16087D01*
X750Y6840D02*
X5750D01*
Y16840D01*
X750D02*
X5750D01*
X750Y6840D02*
Y7840D01*
X1250D01*
Y15840D01*
X750D02*
X1250D01*
X750Y16090D02*
Y16590D01*
Y16840D01*
Y15840D02*
Y16090D01*
X11275Y14075D02*
Y17075D01*
X9475Y14075D02*
X11275D01*
X9775Y17075D02*
X11275D01*
X9475Y16775D02*
X9775Y17075D01*
X9475Y14075D02*
Y16775D01*
X22868Y16458D02*
X25868D01*
Y14658D02*
Y16458D01*
X22868Y14958D02*
Y16458D01*
Y14958D02*
X23168Y14658D01*
X25868D01*
X23125Y60100D02*
Y63100D01*
X24925D01*
X23125Y60100D02*
X24625D01*
X24925Y60400D01*
Y63100D01*
D109*
X11598Y45742D02*
G03*
X11598Y45742I-59J0D01*
G01*
X40875Y40675D02*
G03*
X40875Y40675I-125J0D01*
G01*
X1267Y55123D02*
X1150Y55239D01*
X917D01*
X800Y55123D01*
Y54656D01*
X917Y54540D01*
X1150D01*
X1267Y54656D01*
Y54890D01*
X1033D01*
X1500Y54540D02*
Y55239D01*
X1966Y54540D01*
Y55239D01*
X2200D02*
Y54540D01*
X2549D01*
X2666Y54656D01*
Y55123D01*
X2549Y55239D01*
X2200D01*
X3832Y54540D02*
X3599Y54773D01*
Y55006D01*
X3832Y55239D01*
X4182Y55123D02*
X4299Y55239D01*
X4532D01*
X4649Y55123D01*
Y55006D01*
X4532Y54890D01*
X4416D01*
X4532D01*
X4649Y54773D01*
Y54656D01*
X4532Y54540D01*
X4299D01*
X4182Y54656D01*
X4882Y54540D02*
X5115Y54773D01*
Y55006D01*
X4882Y55239D01*
X6165Y55123D02*
X6282Y55239D01*
X6515D01*
X6631Y55123D01*
Y55006D01*
X6515Y54890D01*
X6398D01*
X6515D01*
X6631Y54773D01*
Y54656D01*
X6515Y54540D01*
X6282D01*
X6165Y54656D01*
X6865Y55239D02*
Y54773D01*
X7098Y54540D01*
X7331Y54773D01*
Y55239D01*
X7564Y55123D02*
X7681Y55239D01*
X7914D01*
X8031Y55123D01*
Y55006D01*
X7914Y54890D01*
X7798D01*
X7914D01*
X8031Y54773D01*
Y54656D01*
X7914Y54540D01*
X7681D01*
X7564Y54656D01*
X1267Y53683D02*
X1150Y53800D01*
X917D01*
X800Y53683D01*
Y53567D01*
X917Y53450D01*
X1150D01*
X1267Y53333D01*
Y53217D01*
X1150Y53100D01*
X917D01*
X800Y53217D01*
X1500Y53800D02*
Y53100D01*
X1733Y53333D01*
X1966Y53100D01*
Y53800D01*
X2549D02*
X2316D01*
X2200Y53683D01*
Y53217D01*
X2316Y53100D01*
X2549D01*
X2666Y53217D01*
Y53683D01*
X2549Y53800D01*
X4066Y53683D02*
X3949Y53800D01*
X3716D01*
X3599Y53683D01*
Y53567D01*
X3716Y53450D01*
X3949D01*
X4066Y53333D01*
Y53217D01*
X3949Y53100D01*
X3716D01*
X3599Y53217D01*
X4299Y53800D02*
Y53100D01*
X4532Y53333D01*
X4765Y53100D01*
Y53800D01*
X5465Y53683D02*
X5349Y53800D01*
X5115D01*
X4999Y53683D01*
Y53217D01*
X5115Y53100D01*
X5349D01*
X5465Y53217D01*
X5698Y53800D02*
Y53100D01*
X6165D01*
X6398Y53800D02*
Y53100D01*
Y53333D01*
X6865Y53800D01*
X6515Y53450D01*
X6865Y53100D01*
X8264Y53683D02*
X8148Y53800D01*
X7914D01*
X7798Y53683D01*
Y53567D01*
X7914Y53450D01*
X8148D01*
X8264Y53333D01*
Y53217D01*
X8148Y53100D01*
X7914D01*
X7798Y53217D01*
X8498Y53800D02*
Y53100D01*
X8731Y53333D01*
X8964Y53100D01*
Y53800D01*
X9197D02*
Y53100D01*
X9547D01*
X9664Y53217D01*
Y53683D01*
X9547Y53800D01*
X9197D01*
X9897D02*
X10130D01*
X10014D01*
Y53100D01*
X9897D01*
X10130D01*
X10830Y53800D02*
X10597D01*
X10480Y53683D01*
Y53217D01*
X10597Y53100D01*
X10830D01*
X10947Y53217D01*
Y53683D01*
X10830Y53800D01*
D110*
X13190Y39140D02*
Y39800D01*
Y39140D02*
X13850D01*
X20124D02*
X20810D01*
Y39800D01*
Y46125D02*
Y46760D01*
X20124D02*
X20810D01*
X13698D02*
X13876D01*
X13190Y46252D02*
X13698Y46760D01*
X13190Y46074D02*
Y46252D01*
X13960Y62570D02*
X13621D01*
X13791D01*
Y61554D01*
X13960Y61724D01*
X5383Y58954D02*
X5721Y59124D01*
X6060Y59462D01*
Y59801D01*
X5891Y59970D01*
X5552D01*
X5383Y59801D01*
Y59631D01*
X5552Y59462D01*
X6060D01*
X13583Y60030D02*
X14260D01*
X13583Y59353D01*
Y59184D01*
X13752Y59014D01*
X14091D01*
X14260Y59184D01*
X5383Y61494D02*
X6060D01*
Y62002D01*
X5721Y61833D01*
X5552D01*
X5383Y62002D01*
Y62341D01*
X5552Y62510D01*
X5891D01*
X6060Y62341D01*
D111*
X37450Y65050D02*
X37750D01*
X37450D02*
Y66250D01*
X30050D02*
X37450D01*
X30050Y65050D02*
Y66250D01*
X29750Y65050D02*
X30050D01*
X37750Y61250D02*
Y62700D01*
X29750Y61250D02*
Y62700D01*
X35550Y59650D02*
X36500D01*
X31000D02*
X31950D01*
D112*
X9860Y64870D02*
D03*
%TF.MD5,54d6eb86d343598207400481b4393313*%
M02*
