M48
;Layer_Color=9474304
;FILE_FORMAT=2:4
INCH,LZ
;TYPE=PLATED
T1F00S00C0.0118
T2F00S00C0.0197
T3F00S00C0.0236
T4F00S00C0.0354
T5F00S00C0.0390
T6F00S00C0.0394
T7F00S00C0.0394
T8F00S00C0.0433
T9F00S00C0.0472
T10F00S00C0.0787
%
T01
X013465Y00435
X015532
X01561Y012087
X016358Y011634
X010846Y007815
X009606Y005974
X010177Y005059
X008386Y006693
X007618
X007106
X006024Y006437
Y007539
X005118Y007461
X004843Y007894
X005231Y009435
X004154Y009744
X007047Y009744
Y009311
X007874
X007638Y009744
X00813Y009921
X007362Y010256
X007461Y012146
X006831Y012146
X001673Y012972
X002992Y006535
X003091Y004094
X00502Y004173
X006358Y003996
X006437Y005236
X005029Y005758
X004882Y01439
X004528Y014744
Y015413
X004961Y015472
X003543Y015768
Y016181
X002894Y015472
X002756Y013957
X000433
X000295Y017008
X000453Y020079
X002736
X002894Y018543
X005197Y020098
X00562Y019852
X007441Y019311
X008031Y01872
X008021Y017598
X009055Y018248
X009646Y019213
X011142Y019193
X010551Y024744
X009803Y025217
X009587Y024272
X008366Y024724
X008524Y025118
X008071Y014626
X016811Y014528
X016811Y014213
X017362Y014213
X017362Y014528
X017756Y017106
X016713Y017776
X016673Y01878
X01563Y019213
X015591Y022264
X016063Y022362
X01248Y022126
X012776Y023209
X01248Y023642
X012776Y024055
X017264Y025157
T02
X011575Y002106
X012067
X012559
X013051
X011083
X010591
X010098
X009606
X009114
X008622
X00813
X007638
X007146
X006654
T03
X00128Y003661
Y004661
Y005661
T04
X00937Y012862
Y013862
Y014862
X007394Y020846
X006394
X005394
T05
X000748Y010472
Y012244
X003307
Y010472
X009272Y020138
X011043
Y022697
X009272
T06
X011762Y025138
T07
X014813Y025138
T08
X002882Y023425
X003882
X004882
Y024425
X003882
X002882
T09
X011821Y023642
X014754
T10
X018602Y003543
X000846Y009075
M30
