%TF.GenerationSoftware,Altium Limited,Altium Designer,21.6.4 (81)*%
G04 Layer_Color=16711935*
%FSLAX43Y43*%
%MOMM*%
%TF.SameCoordinates,237B7D82-E972-44EC-B40D-EB97757C63C7*%
%TF.FilePolarity,Negative*%
%TF.FileFunction,Soldermask,Bot*%
%TF.Part,Single*%
G01*
G75*
%TA.AperFunction,SMDPad,CuDef*%
%ADD36R,1.700X0.400*%
%ADD37R,2.003X1.003*%
%TA.AperFunction,ComponentPad*%
%ADD38C,1.103*%
%ADD39C,0.703*%
%TA.AperFunction,ViaPad*%
%ADD40C,0.703*%
%ADD41C,0.903*%
D36*
X1975Y2225D02*
D03*
Y-2275D02*
D03*
Y-1775D02*
D03*
Y-1275D02*
D03*
Y-775D02*
D03*
Y-275D02*
D03*
Y225D02*
D03*
Y725D02*
D03*
Y1225D02*
D03*
Y1725D02*
D03*
X-2025Y-2275D02*
D03*
Y-1775D02*
D03*
Y-1275D02*
D03*
Y-775D02*
D03*
Y-275D02*
D03*
Y225D02*
D03*
Y725D02*
D03*
Y1225D02*
D03*
Y1725D02*
D03*
Y2225D02*
D03*
D37*
X-25Y-4025D02*
D03*
Y3975D02*
D03*
D38*
X-8675Y13700D02*
D03*
X-7425D02*
D03*
X-6175D02*
D03*
X-4925D02*
D03*
X-3675D02*
D03*
X-2425D02*
D03*
X-1175D02*
D03*
X75D02*
D03*
X1325D02*
D03*
X2575D02*
D03*
X3825D02*
D03*
X5075D02*
D03*
X6325D02*
D03*
X7575D02*
D03*
D39*
X-1525Y3275D02*
D03*
Y-3325D02*
D03*
D40*
X-2650Y-3100D02*
D03*
X-9700Y125D02*
D03*
X-6500Y2500D02*
D03*
X-11375Y3625D02*
D03*
X3950Y4150D02*
D03*
X-2825Y11250D02*
D03*
X-4900Y7150D02*
D03*
X-4400Y10250D02*
D03*
X-6650Y11500D02*
D03*
X-10250Y-8000D02*
D03*
X7675Y10050D02*
D03*
X8500Y-175D02*
D03*
X7600Y1100D02*
D03*
X6575D02*
D03*
X7625Y-3600D02*
D03*
X3925Y5400D02*
D03*
X-9225Y-9050D02*
D03*
X3325Y-8250D02*
D03*
X2025Y3000D02*
D03*
X-650Y2225D02*
D03*
X-3950Y125D02*
D03*
X4550Y-400D02*
D03*
X-3600Y8450D02*
D03*
X1925Y-3025D02*
D03*
X-10025Y8475D02*
D03*
X-1350Y5250D02*
D03*
X150Y5500D02*
D03*
X-9250Y10325D02*
D03*
X-5675Y4200D02*
D03*
X1175Y10400D02*
D03*
X3700Y9875D02*
D03*
X3950Y6350D02*
D03*
X6875Y6375D02*
D03*
X-675Y-8150D02*
D03*
X-7750Y-8725D02*
D03*
X-750Y-6825D02*
D03*
X3350Y-7325D02*
D03*
Y-6400D02*
D03*
Y-5450D02*
D03*
X5875Y100D02*
D03*
X-5675Y3200D02*
D03*
X-8700Y4200D02*
D03*
Y3200D02*
D03*
X-11400Y850D02*
D03*
X8950Y-6650D02*
D03*
X8950Y-3900D02*
D03*
X6575Y2750D02*
D03*
X7600D02*
D03*
X5925Y-6850D02*
D03*
Y-5825D02*
D03*
X-6250Y-5000D02*
D03*
Y-6200D02*
D03*
X-3925D02*
D03*
Y-5000D02*
D03*
D41*
X-7800Y-50D02*
D03*
X-5250Y-50D02*
D03*
X-8000Y-3000D02*
D03*
%TF.MD5,c9479f2515f17abf462e75389b742d16*%
M02*
