%TF.GenerationSoftware,Altium Limited,Altium Designer,21.6.4 (81)*%
G04 Layer_Color=8421504*
%FSLAX43Y43*%
%MOMM*%
%TF.SameCoordinates,237B7D82-E972-44EC-B40D-EB97757C63C7*%
%TF.FilePolarity,Positive*%
%TF.FileFunction,Paste,Top*%
%TF.Part,Single*%
G01*
G75*
%TA.AperFunction,SMDPad,CuDef*%
%ADD10R,0.800X0.900*%
%ADD11R,1.250X0.250*%
%ADD12R,0.900X1.300*%
G04:AMPARAMS|DCode=13|XSize=0.3mm|YSize=1mm|CornerRadius=0mm|HoleSize=0mm|Usage=FLASHONLY|Rotation=180.000|XOffset=0mm|YOffset=0mm|HoleType=Round|Shape=RoundedRectangle|*
%AMROUNDEDRECTD13*
21,1,0.300,1.000,0,0,180.0*
21,1,0.300,1.000,0,0,180.0*
1,1,0.000,-0.150,0.500*
1,1,0.000,0.150,0.500*
1,1,0.000,0.150,-0.500*
1,1,0.000,-0.150,-0.500*
%
%ADD13ROUNDEDRECTD13*%
G04:AMPARAMS|DCode=14|XSize=1.1mm|YSize=0.6mm|CornerRadius=0.021mm|HoleSize=0mm|Usage=FLASHONLY|Rotation=270.000|XOffset=0mm|YOffset=0mm|HoleType=Round|Shape=RoundedRectangle|*
%AMROUNDEDRECTD14*
21,1,1.100,0.558,0,0,270.0*
21,1,1.058,0.600,0,0,270.0*
1,1,0.042,-0.279,-0.529*
1,1,0.042,-0.279,0.529*
1,1,0.042,0.279,0.529*
1,1,0.042,0.279,-0.529*
%
%ADD14ROUNDEDRECTD14*%
%ADD15R,0.250X1.250*%
G04:AMPARAMS|DCode=16|XSize=1.1mm|YSize=0.6mm|CornerRadius=0.021mm|HoleSize=0mm|Usage=FLASHONLY|Rotation=0.000|XOffset=0mm|YOffset=0mm|HoleType=Round|Shape=RoundedRectangle|*
%AMROUNDEDRECTD16*
21,1,1.100,0.558,0,0,0.0*
21,1,1.058,0.600,0,0,0.0*
1,1,0.042,0.529,-0.279*
1,1,0.042,-0.529,-0.279*
1,1,0.042,-0.529,0.279*
1,1,0.042,0.529,0.279*
%
%ADD16ROUNDEDRECTD16*%
%ADD17R,1.300X1.600*%
%ADD18R,2.000X1.600*%
%ADD19C,0.500*%
%ADD20R,0.500X0.600*%
%ADD21R,0.500X0.400*%
%ADD22R,1.250X0.700*%
%ADD23R,0.600X0.500*%
%ADD24R,0.900X0.800*%
D10*
X-5250Y-50D02*
D03*
X-6650D02*
D03*
X-11550Y-5650D02*
D03*
X-10150D02*
D03*
D11*
X-10030Y1250D02*
D03*
Y1900D02*
D03*
Y2550D02*
D03*
Y3200D02*
D03*
Y3850D02*
D03*
Y4500D02*
D03*
Y5150D02*
D03*
X-4270D02*
D03*
Y4500D02*
D03*
Y3850D02*
D03*
Y3200D02*
D03*
Y2550D02*
D03*
Y1900D02*
D03*
Y1250D02*
D03*
X-1995Y-8150D02*
D03*
Y-7500D02*
D03*
Y-6850D02*
D03*
Y-6200D02*
D03*
Y-5550D02*
D03*
Y-4900D02*
D03*
Y-4250D02*
D03*
X-7755D02*
D03*
Y-4900D02*
D03*
Y-5550D02*
D03*
Y-6200D02*
D03*
Y-6850D02*
D03*
Y-7500D02*
D03*
Y-8150D02*
D03*
X7630Y-4250D02*
D03*
Y-4900D02*
D03*
Y-5550D02*
D03*
Y-6200D02*
D03*
Y-6850D02*
D03*
Y-7500D02*
D03*
Y-8150D02*
D03*
X1870D02*
D03*
Y-7500D02*
D03*
Y-6850D02*
D03*
Y-6200D02*
D03*
Y-5550D02*
D03*
Y-4900D02*
D03*
Y-4250D02*
D03*
D12*
X4950Y11700D02*
D03*
X6850D02*
D03*
D13*
X-6800Y-3000D02*
D03*
X-6150D02*
D03*
X-5500D02*
D03*
Y-1200D02*
D03*
X-6800D02*
D03*
D14*
X175Y7525D02*
D03*
X1125D02*
D03*
X2075D02*
D03*
Y10125D02*
D03*
X175D02*
D03*
X4950Y7600D02*
D03*
X5900D02*
D03*
X6850D02*
D03*
Y10200D02*
D03*
X4950D02*
D03*
D15*
X4550Y-1605D02*
D03*
X5200D02*
D03*
X5850D02*
D03*
X6500D02*
D03*
X7150D02*
D03*
X7800D02*
D03*
X8450D02*
D03*
Y4155D02*
D03*
X7800D02*
D03*
X7150D02*
D03*
X6500D02*
D03*
X5850D02*
D03*
X5200D02*
D03*
X4550D02*
D03*
D16*
X-5575Y8400D02*
D03*
Y9350D02*
D03*
Y10300D02*
D03*
X-8175D02*
D03*
Y8400D02*
D03*
D17*
X-12700Y-3975D02*
D03*
X-10200D02*
D03*
D18*
X-11450Y-1075D02*
D03*
D19*
X3375Y-3250D02*
D03*
D20*
X-9225Y-7950D02*
D03*
Y-6950D02*
D03*
X-11400Y1725D02*
D03*
Y2725D02*
D03*
X-9250Y9450D02*
D03*
Y8450D02*
D03*
X-4375Y8450D02*
D03*
Y9450D02*
D03*
X8950Y-4725D02*
D03*
Y-5725D02*
D03*
D21*
X-6625Y7175D02*
D03*
Y6275D02*
D03*
X-5600Y7175D02*
D03*
Y6275D02*
D03*
X-8700D02*
D03*
Y7175D02*
D03*
X-7650D02*
D03*
Y6275D02*
D03*
D22*
X-1325Y6100D02*
D03*
Y8100D02*
D03*
Y9250D02*
D03*
Y11250D02*
D03*
D23*
X1125Y6375D02*
D03*
X125D02*
D03*
X1175Y11250D02*
D03*
X175D02*
D03*
X4900Y6375D02*
D03*
X5900D02*
D03*
X-8500Y11500D02*
D03*
X-7500D02*
D03*
X5000Y5400D02*
D03*
X6000D02*
D03*
D24*
X3700Y8900D02*
D03*
Y7500D02*
D03*
%TF.MD5,aa604293242ad301bdd827665c89324d*%
M02*
