%TF.GenerationSoftware,Altium Limited,Altium Designer,21.6.4 (81)*%
G04 Layer_Physical_Order=3*
G04 Layer_Color=16440176*
%FSLAX43Y43*%
%MOMM*%
%TF.SameCoordinates,237B7D82-E972-44EC-B40D-EB97757C63C7*%
%TF.FilePolarity,Positive*%
%TF.FileFunction,Copper,L3,Inr,Signal*%
%TF.Part,Single*%
G01*
G75*
%TA.AperFunction,Conductor*%
%ADD26C,0.500*%
%TA.AperFunction,ComponentPad*%
%ADD29C,0.900*%
%ADD30C,0.500*%
%TA.AperFunction,ViaPad*%
%ADD31C,0.700*%
%ADD32C,0.500*%
G36*
X9600Y14951D02*
X9832Y14855D01*
X10040Y14716D01*
X10216Y14540D01*
X10355Y14332D01*
X10451Y14100D01*
X10500Y13855D01*
Y13730D01*
Y-8750D01*
X10500Y-8750D01*
X10500Y-8873D01*
X10452Y-9115D01*
X10358Y-9342D01*
X10221Y-9547D01*
X10047Y-9721D01*
X9842Y-9858D01*
X9615Y-9952D01*
X9373Y-10000D01*
X9250Y-10000D01*
X750D01*
Y2250D01*
X-1500Y4500D01*
X-2417Y5417D01*
Y7150D01*
Y11059D01*
X-2375Y11160D01*
Y11340D01*
X-2444Y11505D01*
X-2570Y11631D01*
X-2735Y11700D01*
X-2915D01*
X-3080Y11631D01*
X-3206Y11505D01*
X-3275Y11340D01*
Y11160D01*
X-3233Y11059D01*
Y8962D01*
X-3360Y8896D01*
X-3473Y8943D01*
Y8450D01*
Y7957D01*
X-3360Y8004D01*
X-3233Y7938D01*
Y7558D01*
X-4250D01*
Y9825D01*
X-4145Y9869D01*
X-4019Y9995D01*
X-3950Y10160D01*
Y10340D01*
X-4019Y10505D01*
X-4145Y10631D01*
X-4250Y10675D01*
Y13176D01*
X-4123Y13229D01*
X-4074Y13180D01*
X-3926Y13094D01*
X-3761Y13050D01*
X-3589D01*
X-3424Y13094D01*
X-3276Y13180D01*
X-3155Y13301D01*
X-3123Y13356D01*
X-2977D01*
X-2945Y13301D01*
X-2824Y13180D01*
X-2676Y13094D01*
X-2511Y13050D01*
X-2339D01*
X-2174Y13094D01*
X-2026Y13180D01*
X-1905Y13301D01*
X-1873Y13356D01*
X-1727D01*
X-1695Y13301D01*
X-1574Y13180D01*
X-1426Y13094D01*
X-1261Y13050D01*
X-1089D01*
X-924Y13094D01*
X-776Y13180D01*
X-655Y13301D01*
X-623Y13356D01*
X-477D01*
X-445Y13301D01*
X-324Y13180D01*
X-176Y13094D01*
X-11Y13050D01*
X161D01*
X326Y13094D01*
X474Y13180D01*
X595Y13301D01*
X627Y13356D01*
X773D01*
X805Y13301D01*
X926Y13180D01*
X1074Y13094D01*
X1239Y13050D01*
X1411D01*
X1576Y13094D01*
X1724Y13180D01*
X1845Y13301D01*
X1877Y13356D01*
X2023D01*
X2055Y13301D01*
X2176Y13180D01*
X2324Y13094D01*
X2489Y13050D01*
X2661D01*
X2826Y13094D01*
X2974Y13180D01*
X3095Y13301D01*
X3127Y13356D01*
X3273D01*
X3305Y13301D01*
X3426Y13180D01*
X3574Y13094D01*
X3739Y13050D01*
X3911D01*
X4076Y13094D01*
X4224Y13180D01*
X4345Y13301D01*
X4377Y13356D01*
X4523D01*
X4555Y13301D01*
X4676Y13180D01*
X4824Y13094D01*
X4989Y13050D01*
X5161D01*
X5326Y13094D01*
X5474Y13180D01*
X5595Y13301D01*
X5627Y13356D01*
X5773D01*
X5805Y13301D01*
X5926Y13180D01*
X6074Y13094D01*
X6239Y13050D01*
X6411D01*
X6576Y13094D01*
X6724Y13180D01*
X6845Y13301D01*
X6845Y13302D01*
X6992D01*
X7012Y13268D01*
X7143Y13137D01*
X7303Y13044D01*
X7448Y13005D01*
Y13700D01*
Y14395D01*
X7303Y14356D01*
X7143Y14263D01*
X7012Y14132D01*
X6992Y14098D01*
X6845D01*
X6845Y14099D01*
X6724Y14220D01*
X6576Y14306D01*
X6411Y14350D01*
X6239D01*
X6074Y14306D01*
X5926Y14220D01*
X5805Y14099D01*
X5773Y14044D01*
X5627D01*
X5595Y14099D01*
X5474Y14220D01*
X5326Y14306D01*
X5161Y14350D01*
X4989D01*
X4824Y14306D01*
X4676Y14220D01*
X4555Y14099D01*
X4523Y14044D01*
X4377D01*
X4345Y14099D01*
X4224Y14220D01*
X4076Y14306D01*
X3911Y14350D01*
X3739D01*
X3574Y14306D01*
X3426Y14220D01*
X3305Y14099D01*
X3273Y14044D01*
X3127D01*
X3095Y14099D01*
X2974Y14220D01*
X2826Y14306D01*
X2661Y14350D01*
X2489D01*
X2324Y14306D01*
X2176Y14220D01*
X2055Y14099D01*
X2023Y14044D01*
X1877D01*
X1845Y14099D01*
X1724Y14220D01*
X1576Y14306D01*
X1411Y14350D01*
X1239D01*
X1074Y14306D01*
X926Y14220D01*
X805Y14099D01*
X773Y14044D01*
X627D01*
X595Y14099D01*
X474Y14220D01*
X326Y14306D01*
X161Y14350D01*
X-11D01*
X-176Y14306D01*
X-324Y14220D01*
X-445Y14099D01*
X-477Y14044D01*
X-623D01*
X-655Y14099D01*
X-776Y14220D01*
X-924Y14306D01*
X-1089Y14350D01*
X-1261D01*
X-1426Y14306D01*
X-1574Y14220D01*
X-1695Y14099D01*
X-1727Y14044D01*
X-1873D01*
X-1905Y14099D01*
X-2026Y14220D01*
X-2174Y14306D01*
X-2339Y14350D01*
X-2511D01*
X-2676Y14306D01*
X-2824Y14220D01*
X-2945Y14099D01*
X-2977Y14044D01*
X-3123D01*
X-3155Y14099D01*
X-3276Y14220D01*
X-3424Y14306D01*
X-3589Y14350D01*
X-3761D01*
X-3926Y14306D01*
X-4074Y14220D01*
X-4123Y14171D01*
X-4250Y14224D01*
Y15000D01*
X9230Y15000D01*
X9355D01*
X9600Y14951D01*
D02*
G37*
%LPC*%
G36*
X7702Y14395D02*
Y13827D01*
X8270D01*
X8231Y13972D01*
X8138Y14132D01*
X8007Y14263D01*
X7847Y14356D01*
X7702Y14395D01*
D02*
G37*
G36*
X8270Y13573D02*
X7702D01*
Y13005D01*
X7847Y13044D01*
X8007Y13137D01*
X8138Y13268D01*
X8231Y13428D01*
X8270Y13573D01*
D02*
G37*
G36*
X1265Y10850D02*
X1085D01*
X920Y10781D01*
X794Y10655D01*
X725Y10490D01*
Y10310D01*
X794Y10145D01*
X920Y10019D01*
X1085Y9950D01*
X1265D01*
X1430Y10019D01*
X1556Y10145D01*
X1625Y10310D01*
Y10490D01*
X1556Y10655D01*
X1430Y10781D01*
X1265Y10850D01*
D02*
G37*
G36*
X7765Y10500D02*
X7585D01*
X7420Y10431D01*
X7294Y10305D01*
X7225Y10140D01*
Y9960D01*
X7294Y9795D01*
X7420Y9669D01*
X7585Y9600D01*
X7765D01*
X7930Y9669D01*
X8056Y9795D01*
X8125Y9960D01*
Y10140D01*
X8056Y10305D01*
X7930Y10431D01*
X7765Y10500D01*
D02*
G37*
G36*
X3790Y10325D02*
X3610D01*
X3445Y10256D01*
X3319Y10130D01*
X3250Y9965D01*
Y9785D01*
X3319Y9620D01*
X3445Y9494D01*
X3610Y9425D01*
X3790D01*
X3955Y9494D01*
X4081Y9620D01*
X4150Y9785D01*
Y9965D01*
X4081Y10130D01*
X3955Y10256D01*
X3790Y10325D01*
D02*
G37*
G36*
X-3727Y8943D02*
X-3885Y8877D01*
X-4027Y8735D01*
X-4093Y8577D01*
X-3727D01*
Y8943D01*
D02*
G37*
G36*
Y8323D02*
X-4093D01*
X-4027Y8165D01*
X-3885Y8023D01*
X-3727Y7957D01*
Y8323D01*
D02*
G37*
G36*
X7002Y6868D02*
Y6502D01*
X7368D01*
X7302Y6660D01*
X7160Y6802D01*
X7002Y6868D01*
D02*
G37*
G36*
X6748D02*
X6589Y6802D01*
X6448Y6660D01*
X6382Y6502D01*
X6748D01*
Y6868D01*
D02*
G37*
G36*
X7368Y6248D02*
X7002D01*
Y5882D01*
X7160Y5948D01*
X7302Y6090D01*
X7368Y6248D01*
D02*
G37*
G36*
X6748D02*
X6382D01*
X6448Y6090D01*
X6589Y5948D01*
X6748Y5882D01*
Y6248D01*
D02*
G37*
G36*
X240Y5950D02*
X60D01*
X-105Y5881D01*
X-231Y5755D01*
X-300Y5590D01*
Y5410D01*
X-231Y5245D01*
X-105Y5119D01*
X60Y5050D01*
X240D01*
X405Y5119D01*
X531Y5245D01*
X600Y5410D01*
Y5590D01*
X531Y5755D01*
X405Y5881D01*
X240Y5950D01*
D02*
G37*
G36*
X4040Y6800D02*
X3860D01*
X3695Y6731D01*
X3569Y6605D01*
X3500Y6440D01*
Y6260D01*
X3569Y6095D01*
X3695Y5969D01*
X3742Y5949D01*
Y5811D01*
X3670Y5781D01*
X3544Y5655D01*
X3475Y5490D01*
Y5310D01*
X3544Y5145D01*
X3670Y5019D01*
X3835Y4950D01*
X4015D01*
X4180Y5019D01*
X4306Y5145D01*
X4375Y5310D01*
Y5490D01*
X4306Y5655D01*
X4180Y5781D01*
X4133Y5801D01*
Y5939D01*
X4205Y5969D01*
X4331Y6095D01*
X4400Y6260D01*
Y6440D01*
X4331Y6605D01*
X4205Y6731D01*
X4040Y6800D01*
D02*
G37*
G36*
X-1260Y5700D02*
X-1440D01*
X-1605Y5631D01*
X-1731Y5505D01*
X-1800Y5340D01*
Y5160D01*
X-1731Y4995D01*
X-1605Y4869D01*
X-1440Y4800D01*
X-1260D01*
X-1095Y4869D01*
X-969Y4995D01*
X-900Y5160D01*
Y5340D01*
X-969Y5505D01*
X-1095Y5631D01*
X-1260Y5700D01*
D02*
G37*
G36*
X4040Y4600D02*
X3860D01*
X3695Y4531D01*
X3569Y4405D01*
X3500Y4240D01*
Y4060D01*
X3569Y3895D01*
X3695Y3769D01*
X3860Y3700D01*
X4040D01*
X4205Y3769D01*
X4331Y3895D01*
X4400Y4060D01*
Y4240D01*
X4331Y4405D01*
X4205Y4531D01*
X4040Y4600D01*
D02*
G37*
G36*
X7690Y3200D02*
X7510D01*
X7345Y3131D01*
X7219Y3005D01*
X7150Y2840D01*
X7025D01*
X6956Y3005D01*
X6830Y3131D01*
X6665Y3200D01*
X6485D01*
X6320Y3131D01*
X6194Y3005D01*
X6125Y2840D01*
Y2660D01*
X6194Y2495D01*
X6320Y2369D01*
X6485Y2300D01*
X6665D01*
X6830Y2369D01*
X6956Y2495D01*
X7025Y2660D01*
X7150D01*
X7219Y2495D01*
X7345Y2369D01*
X7510Y2300D01*
X7690D01*
X7855Y2369D01*
X7981Y2495D01*
X8050Y2660D01*
Y2840D01*
X7981Y3005D01*
X7855Y3131D01*
X7690Y3200D01*
D02*
G37*
G36*
X2115Y3450D02*
X1935D01*
X1770Y3381D01*
X1644Y3255D01*
X1575Y3090D01*
Y2910D01*
X1644Y2745D01*
X1770Y2619D01*
X1935Y2550D01*
X2115D01*
X2280Y2619D01*
X2406Y2745D01*
X2475Y2910D01*
Y3090D01*
X2406Y3255D01*
X2280Y3381D01*
X2115Y3450D01*
D02*
G37*
G36*
X7690Y1550D02*
X7510D01*
X7345Y1481D01*
X7219Y1355D01*
X7150Y1190D01*
X7025D01*
X6956Y1355D01*
X6830Y1481D01*
X6665Y1550D01*
X6485D01*
X6320Y1481D01*
X6194Y1355D01*
X6125Y1190D01*
Y1010D01*
X6194Y845D01*
X6320Y719D01*
X6485Y650D01*
X6665D01*
X6830Y719D01*
X6956Y845D01*
X7025Y1010D01*
X7150D01*
X7219Y845D01*
X7345Y719D01*
X7510Y650D01*
X7690D01*
X7855Y719D01*
X7981Y845D01*
X8050Y1010D01*
Y1190D01*
X7981Y1355D01*
X7855Y1481D01*
X7690Y1550D01*
D02*
G37*
G36*
X5965Y550D02*
X5785D01*
X5620Y481D01*
X5494Y355D01*
X5425Y190D01*
Y10D01*
X5494Y-155D01*
X5620Y-281D01*
X5785Y-350D01*
X5965D01*
X6130Y-281D01*
X6256Y-155D01*
X6325Y10D01*
Y190D01*
X6256Y355D01*
X6130Y481D01*
X5965Y550D01*
D02*
G37*
G36*
X8590Y275D02*
X8410D01*
X8245Y206D01*
X8119Y80D01*
X8050Y-85D01*
Y-265D01*
X8119Y-430D01*
X8245Y-556D01*
X8410Y-625D01*
X8590D01*
X8755Y-556D01*
X8881Y-430D01*
X8950Y-265D01*
Y-85D01*
X8881Y80D01*
X8755Y206D01*
X8590Y275D01*
D02*
G37*
G36*
X4640Y50D02*
X4460D01*
X4295Y-19D01*
X4169Y-145D01*
X4100Y-310D01*
Y-490D01*
X4169Y-655D01*
X4295Y-781D01*
X4460Y-850D01*
X4640D01*
X4805Y-781D01*
X4931Y-655D01*
X5000Y-490D01*
Y-310D01*
X4931Y-145D01*
X4805Y-19D01*
X4640Y50D01*
D02*
G37*
G36*
X2015Y-2575D02*
X1835D01*
X1670Y-2644D01*
X1544Y-2770D01*
X1475Y-2935D01*
Y-3115D01*
X1544Y-3280D01*
X1670Y-3406D01*
X1835Y-3475D01*
X2015D01*
X2180Y-3406D01*
X2306Y-3280D01*
X2375Y-3115D01*
Y-2935D01*
X2306Y-2770D01*
X2180Y-2644D01*
X2015Y-2575D01*
D02*
G37*
G36*
X7715Y-3150D02*
X7535D01*
X7370Y-3219D01*
X7244Y-3345D01*
X7175Y-3510D01*
Y-3690D01*
X7244Y-3855D01*
X7370Y-3981D01*
X7535Y-4050D01*
X7715D01*
X7880Y-3981D01*
X8006Y-3855D01*
X8075Y-3690D01*
Y-3510D01*
X8006Y-3345D01*
X7880Y-3219D01*
X7715Y-3150D01*
D02*
G37*
G36*
X9040Y-3450D02*
X8860D01*
X8695Y-3519D01*
X8569Y-3645D01*
X8500Y-3810D01*
Y-3990D01*
X8569Y-4155D01*
X8695Y-4281D01*
X8860Y-4350D01*
X9040D01*
X9205Y-4281D01*
X9331Y-4155D01*
X9400Y-3990D01*
Y-3810D01*
X9331Y-3645D01*
X9205Y-3519D01*
X9040Y-3450D01*
D02*
G37*
G36*
X9077Y-6157D02*
Y-6523D01*
X9443D01*
X9377Y-6365D01*
X9235Y-6223D01*
X9077Y-6157D01*
D02*
G37*
G36*
X8823D02*
X8665Y-6223D01*
X8523Y-6365D01*
X8457Y-6523D01*
X8823D01*
Y-6157D01*
D02*
G37*
G36*
X9443Y-6777D02*
X9077D01*
Y-7143D01*
X9235Y-7077D01*
X9377Y-6935D01*
X9443Y-6777D01*
D02*
G37*
G36*
X8823D02*
X8457D01*
X8523Y-6935D01*
X8665Y-7077D01*
X8823Y-7143D01*
Y-6777D01*
D02*
G37*
G36*
X6015Y-5375D02*
X5835D01*
X5670Y-5444D01*
X5544Y-5570D01*
X5475Y-5735D01*
Y-5915D01*
X5544Y-6080D01*
X5670Y-6207D01*
X5835Y-6275D01*
Y-6400D01*
X5670Y-6469D01*
X5544Y-6595D01*
X5475Y-6760D01*
Y-6940D01*
X5544Y-7105D01*
X5670Y-7231D01*
X5835Y-7300D01*
X6015D01*
X6180Y-7231D01*
X6306Y-7105D01*
X6375Y-6940D01*
Y-6760D01*
X6306Y-6595D01*
X6180Y-6469D01*
X6015Y-6400D01*
Y-6275D01*
X6180Y-6207D01*
X6306Y-6080D01*
X6375Y-5915D01*
Y-5735D01*
X6306Y-5570D01*
X6180Y-5444D01*
X6015Y-5375D01*
D02*
G37*
G36*
X3440Y-5000D02*
X3260D01*
X3095Y-5069D01*
X2969Y-5195D01*
X2900Y-5360D01*
Y-5540D01*
X2969Y-5705D01*
X3095Y-5831D01*
X3155Y-5856D01*
Y-5994D01*
X3095Y-6019D01*
X2969Y-6145D01*
X2900Y-6310D01*
Y-6490D01*
X2969Y-6655D01*
X3095Y-6781D01*
X3125Y-6794D01*
Y-6931D01*
X3095Y-6944D01*
X2969Y-7070D01*
X2900Y-7235D01*
Y-7415D01*
X2969Y-7580D01*
X3095Y-7706D01*
X3112Y-7714D01*
Y-7851D01*
X3070Y-7869D01*
X2944Y-7995D01*
X2875Y-8160D01*
Y-8340D01*
X2944Y-8505D01*
X3070Y-8631D01*
X3235Y-8700D01*
X3415D01*
X3580Y-8631D01*
X3706Y-8505D01*
X3775Y-8340D01*
Y-8160D01*
X3706Y-7995D01*
X3580Y-7869D01*
X3563Y-7861D01*
Y-7724D01*
X3605Y-7706D01*
X3731Y-7580D01*
X3800Y-7415D01*
Y-7235D01*
X3731Y-7070D01*
X3605Y-6944D01*
X3575Y-6931D01*
Y-6794D01*
X3605Y-6781D01*
X3731Y-6655D01*
X3800Y-6490D01*
Y-6310D01*
X3731Y-6145D01*
X3605Y-6019D01*
X3545Y-5994D01*
Y-5856D01*
X3605Y-5831D01*
X3731Y-5705D01*
X3800Y-5540D01*
Y-5360D01*
X3731Y-5195D01*
X3605Y-5069D01*
X3440Y-5000D01*
D02*
G37*
%LPD*%
D26*
X-7800Y12075D02*
X-6175Y13700D01*
X-7800Y-50D02*
Y12075D01*
X-6500Y2500D02*
X-2825D01*
X-750Y-6825D02*
Y375D01*
X-2825Y2450D02*
X-750Y375D01*
X-12250Y3625D02*
X-11375D01*
X-12250D02*
Y6250D01*
X-10025Y8475D01*
X-12250Y-6000D02*
X-10250Y-8000D01*
X-12250Y-6000D02*
Y3625D01*
X-2825Y7150D02*
Y11250D01*
Y2450D02*
Y7150D01*
X-4900D02*
X-2825D01*
D29*
X-8675Y13700D02*
D03*
X-7425D02*
D03*
X-6175D02*
D03*
X-4925D02*
D03*
X-3675D02*
D03*
X-2425D02*
D03*
X-1175D02*
D03*
X75D02*
D03*
X1325D02*
D03*
X2575D02*
D03*
X3825D02*
D03*
X5075D02*
D03*
X6325D02*
D03*
X7575D02*
D03*
D30*
X-1525Y3275D02*
D03*
Y-3325D02*
D03*
D31*
X-7800Y-50D02*
D03*
X-5250Y-50D02*
D03*
X-8000Y-3000D02*
D03*
D32*
X-2650Y-3100D02*
D03*
X-9700Y125D02*
D03*
X-6500Y2500D02*
D03*
X-11375Y3625D02*
D03*
X3950Y4150D02*
D03*
X-2825Y11250D02*
D03*
X-4900Y7150D02*
D03*
X-4400Y10250D02*
D03*
X-6650Y11500D02*
D03*
X-10250Y-8000D02*
D03*
X7675Y10050D02*
D03*
X8500Y-175D02*
D03*
X7600Y1100D02*
D03*
X6575D02*
D03*
X7625Y-3600D02*
D03*
X3925Y5400D02*
D03*
X-9225Y-9050D02*
D03*
X3325Y-8250D02*
D03*
X2025Y3000D02*
D03*
X-650Y2225D02*
D03*
X-3950Y125D02*
D03*
X4550Y-400D02*
D03*
X-3600Y8450D02*
D03*
X1925Y-3025D02*
D03*
X-10025Y8475D02*
D03*
X-1350Y5250D02*
D03*
X150Y5500D02*
D03*
X-9250Y10325D02*
D03*
X-5675Y4200D02*
D03*
X1175Y10400D02*
D03*
X3700Y9875D02*
D03*
X3950Y6350D02*
D03*
X6875Y6375D02*
D03*
X-675Y-8150D02*
D03*
X-7750Y-8725D02*
D03*
X-750Y-6825D02*
D03*
X3350Y-7325D02*
D03*
Y-6400D02*
D03*
Y-5450D02*
D03*
X5875Y100D02*
D03*
X-5675Y3200D02*
D03*
X-8700Y4200D02*
D03*
Y3200D02*
D03*
X-11400Y850D02*
D03*
X8950Y-6650D02*
D03*
X8950Y-3900D02*
D03*
X6575Y2750D02*
D03*
X7600D02*
D03*
X5925Y-6850D02*
D03*
Y-5825D02*
D03*
X-6250Y-5000D02*
D03*
Y-6200D02*
D03*
X-3925D02*
D03*
Y-5000D02*
D03*
%TF.MD5,3112843fa7349b9ddef92370b8956f88*%
M02*
