%TF.GenerationSoftware,Altium Limited,Altium Designer,21.6.4 (81)*%
G04 Layer_Physical_Order=2*
G04 Layer_Color=36540*
%FSLAX43Y43*%
%MOMM*%
%TF.SameCoordinates,237B7D82-E972-44EC-B40D-EB97757C63C7*%
%TF.FilePolarity,Positive*%
%TF.FileFunction,Copper,L2,Inr,Signal*%
%TF.Part,Single*%
G01*
G75*
%TA.AperFunction,ComponentPad*%
%ADD29C,0.900*%
%ADD30C,0.500*%
%TA.AperFunction,ViaPad*%
%ADD31C,0.700*%
%ADD32C,0.500*%
G36*
X9600Y14951D02*
X9832Y14855D01*
X10040Y14716D01*
X10216Y14540D01*
X10355Y14332D01*
X10451Y14100D01*
X10500Y13855D01*
Y13730D01*
Y-8750D01*
Y-8873D01*
X10452Y-9115D01*
X10358Y-9342D01*
X10221Y-9547D01*
X10047Y-9721D01*
X9842Y-9858D01*
X9615Y-9952D01*
X9373Y-10000D01*
X-13123D01*
X-13365Y-9952D01*
X-13592Y-9858D01*
X-13797Y-9721D01*
X-13971Y-9547D01*
X-14108Y-9342D01*
X-14202Y-9115D01*
X-14250Y-8873D01*
Y-8750D01*
Y13750D01*
Y13873D01*
X-14202Y14115D01*
X-14108Y14342D01*
X-13971Y14547D01*
X-13797Y14721D01*
X-13592Y14858D01*
X-13365Y14952D01*
X-13123Y15000D01*
X9355D01*
X9600Y14951D01*
D02*
G37*
%LPC*%
G36*
X-7552Y14395D02*
X-7697Y14356D01*
X-7857Y14263D01*
X-7988Y14132D01*
X-8008Y14098D01*
X-8155D01*
X-8155Y14099D01*
X-8276Y14220D01*
X-8424Y14306D01*
X-8589Y14350D01*
X-8761D01*
X-8926Y14306D01*
X-9074Y14220D01*
X-9195Y14099D01*
X-9281Y13951D01*
X-9325Y13786D01*
Y13614D01*
X-9281Y13449D01*
X-9195Y13301D01*
X-9074Y13180D01*
X-8926Y13094D01*
X-8761Y13050D01*
X-8589D01*
X-8424Y13094D01*
X-8276Y13180D01*
X-8155Y13301D01*
X-8155Y13302D01*
X-8008D01*
X-7988Y13268D01*
X-7857Y13137D01*
X-7697Y13044D01*
X-7552Y13005D01*
Y13700D01*
Y14395D01*
D02*
G37*
G36*
X-7298Y14395D02*
Y13700D01*
Y13005D01*
X-7153Y13044D01*
X-6993Y13137D01*
X-6862Y13268D01*
X-6842Y13302D01*
X-6695D01*
X-6695Y13301D01*
X-6574Y13180D01*
X-6426Y13094D01*
X-6261Y13050D01*
X-6089D01*
X-5924Y13094D01*
X-5776Y13180D01*
X-5655Y13301D01*
X-5623Y13356D01*
X-5477D01*
X-5445Y13301D01*
X-5324Y13180D01*
X-5176Y13094D01*
X-5011Y13050D01*
X-4839D01*
X-4674Y13094D01*
X-4526Y13180D01*
X-4405Y13301D01*
X-4373Y13356D01*
X-4227D01*
X-4195Y13301D01*
X-4074Y13180D01*
X-3926Y13094D01*
X-3761Y13050D01*
X-3589D01*
X-3424Y13094D01*
X-3276Y13180D01*
X-3155Y13301D01*
X-3123Y13356D01*
X-2977D01*
X-2945Y13301D01*
X-2824Y13180D01*
X-2676Y13094D01*
X-2511Y13050D01*
X-2339D01*
X-2174Y13094D01*
X-2026Y13180D01*
X-1905Y13301D01*
X-1873Y13356D01*
X-1727D01*
X-1695Y13301D01*
X-1574Y13180D01*
X-1426Y13094D01*
X-1261Y13050D01*
X-1089D01*
X-924Y13094D01*
X-776Y13180D01*
X-655Y13301D01*
X-623Y13356D01*
X-477D01*
X-445Y13301D01*
X-324Y13180D01*
X-176Y13094D01*
X-11Y13050D01*
X161D01*
X326Y13094D01*
X474Y13180D01*
X595Y13301D01*
X627Y13356D01*
X773D01*
X805Y13301D01*
X926Y13180D01*
X1074Y13094D01*
X1239Y13050D01*
X1411D01*
X1576Y13094D01*
X1724Y13180D01*
X1845Y13301D01*
X1877Y13356D01*
X2023D01*
X2055Y13301D01*
X2176Y13180D01*
X2324Y13094D01*
X2489Y13050D01*
X2661D01*
X2826Y13094D01*
X2974Y13180D01*
X3095Y13301D01*
X3127Y13356D01*
X3273D01*
X3305Y13301D01*
X3426Y13180D01*
X3574Y13094D01*
X3739Y13050D01*
X3911D01*
X4076Y13094D01*
X4224Y13180D01*
X4345Y13301D01*
X4377Y13356D01*
X4523D01*
X4555Y13301D01*
X4676Y13180D01*
X4824Y13094D01*
X4989Y13050D01*
X5161D01*
X5326Y13094D01*
X5474Y13180D01*
X5595Y13301D01*
X5627Y13356D01*
X5773D01*
X5805Y13301D01*
X5926Y13180D01*
X6074Y13094D01*
X6239Y13050D01*
X6411D01*
X6576Y13094D01*
X6724Y13180D01*
X6845Y13301D01*
X6877Y13356D01*
X7023D01*
X7055Y13301D01*
X7176Y13180D01*
X7324Y13094D01*
X7489Y13050D01*
X7661D01*
X7826Y13094D01*
X7974Y13180D01*
X8095Y13301D01*
X8181Y13449D01*
X8225Y13614D01*
Y13786D01*
X8181Y13951D01*
X8095Y14099D01*
X7974Y14220D01*
X7826Y14306D01*
X7661Y14350D01*
X7489D01*
X7324Y14306D01*
X7176Y14220D01*
X7055Y14099D01*
X7023Y14044D01*
X6877D01*
X6845Y14099D01*
X6724Y14220D01*
X6576Y14306D01*
X6411Y14350D01*
X6239D01*
X6074Y14306D01*
X5926Y14220D01*
X5805Y14099D01*
X5773Y14044D01*
X5627D01*
X5595Y14099D01*
X5474Y14220D01*
X5326Y14306D01*
X5161Y14350D01*
X4989D01*
X4824Y14306D01*
X4676Y14220D01*
X4555Y14099D01*
X4523Y14044D01*
X4377D01*
X4345Y14099D01*
X4224Y14220D01*
X4076Y14306D01*
X3911Y14350D01*
X3739D01*
X3574Y14306D01*
X3426Y14220D01*
X3305Y14099D01*
X3273Y14044D01*
X3127D01*
X3095Y14099D01*
X2974Y14220D01*
X2826Y14306D01*
X2661Y14350D01*
X2489D01*
X2324Y14306D01*
X2176Y14220D01*
X2055Y14099D01*
X2023Y14044D01*
X1877D01*
X1845Y14099D01*
X1724Y14220D01*
X1576Y14306D01*
X1411Y14350D01*
X1239D01*
X1074Y14306D01*
X926Y14220D01*
X805Y14099D01*
X773Y14044D01*
X627D01*
X595Y14099D01*
X474Y14220D01*
X326Y14306D01*
X161Y14350D01*
X-11D01*
X-176Y14306D01*
X-324Y14220D01*
X-445Y14099D01*
X-477Y14044D01*
X-623D01*
X-655Y14099D01*
X-776Y14220D01*
X-924Y14306D01*
X-1089Y14350D01*
X-1261D01*
X-1426Y14306D01*
X-1574Y14220D01*
X-1695Y14099D01*
X-1727Y14044D01*
X-1873D01*
X-1905Y14099D01*
X-2026Y14220D01*
X-2174Y14306D01*
X-2339Y14350D01*
X-2511D01*
X-2676Y14306D01*
X-2824Y14220D01*
X-2945Y14099D01*
X-2977Y14044D01*
X-3123D01*
X-3155Y14099D01*
X-3276Y14220D01*
X-3424Y14306D01*
X-3589Y14350D01*
X-3761D01*
X-3926Y14306D01*
X-4074Y14220D01*
X-4195Y14099D01*
X-4227Y14044D01*
X-4373D01*
X-4405Y14099D01*
X-4526Y14220D01*
X-4674Y14306D01*
X-4839Y14350D01*
X-5011D01*
X-5176Y14306D01*
X-5324Y14220D01*
X-5445Y14099D01*
X-5477Y14044D01*
X-5623D01*
X-5655Y14099D01*
X-5776Y14220D01*
X-5924Y14306D01*
X-6089Y14350D01*
X-6261D01*
X-6426Y14306D01*
X-6574Y14220D01*
X-6695Y14099D01*
X-6695Y14098D01*
X-6842D01*
X-6862Y14132D01*
X-6993Y14263D01*
X-7153Y14356D01*
X-7298Y14395D01*
D02*
G37*
G36*
X-6523Y11993D02*
Y11627D01*
X-6157D01*
X-6223Y11785D01*
X-6365Y11927D01*
X-6523Y11993D01*
D02*
G37*
G36*
X-6777D02*
X-6935Y11927D01*
X-7077Y11785D01*
X-7143Y11627D01*
X-6777D01*
Y11993D01*
D02*
G37*
G36*
X-6157Y11373D02*
X-6523D01*
Y11007D01*
X-6365Y11073D01*
X-6223Y11215D01*
X-6157Y11373D01*
D02*
G37*
G36*
X-6777D02*
X-7143D01*
X-7077Y11215D01*
X-6935Y11073D01*
X-6777Y11007D01*
Y11373D01*
D02*
G37*
G36*
X-2735Y11700D02*
X-2915D01*
X-3080Y11631D01*
X-3206Y11505D01*
X-3275Y11340D01*
Y11160D01*
X-3206Y10995D01*
X-3080Y10869D01*
X-2915Y10800D01*
X-2735D01*
X-2570Y10869D01*
X-2444Y10995D01*
X-2375Y11160D01*
Y11340D01*
X-2444Y11505D01*
X-2570Y11631D01*
X-2735Y11700D01*
D02*
G37*
G36*
X1302Y10893D02*
Y10527D01*
X1668D01*
X1602Y10686D01*
X1460Y10827D01*
X1302Y10893D01*
D02*
G37*
G36*
X1048D02*
X890Y10827D01*
X748Y10686D01*
X682Y10527D01*
X1048D01*
Y10893D01*
D02*
G37*
G36*
X-9123Y10818D02*
Y10452D01*
X-8757D01*
X-8823Y10610D01*
X-8965Y10752D01*
X-9123Y10818D01*
D02*
G37*
G36*
X-9377D02*
X-9535Y10752D01*
X-9677Y10610D01*
X-9743Y10452D01*
X-9377D01*
Y10818D01*
D02*
G37*
G36*
X-4273Y10743D02*
Y10377D01*
X-3907D01*
X-3973Y10535D01*
X-4115Y10677D01*
X-4273Y10743D01*
D02*
G37*
G36*
X-4527D02*
X-4685Y10677D01*
X-4827Y10535D01*
X-4893Y10377D01*
X-4527D01*
Y10743D01*
D02*
G37*
G36*
X7802Y10543D02*
Y10177D01*
X8168D01*
X8102Y10335D01*
X7960Y10477D01*
X7802Y10543D01*
D02*
G37*
G36*
X7548D02*
X7390Y10477D01*
X7248Y10335D01*
X7182Y10177D01*
X7548D01*
Y10543D01*
D02*
G37*
G36*
X3827Y10368D02*
Y10002D01*
X4193D01*
X4127Y10160D01*
X3985Y10302D01*
X3827Y10368D01*
D02*
G37*
G36*
X3573D02*
X3414Y10302D01*
X3273Y10160D01*
X3207Y10002D01*
X3573D01*
Y10368D01*
D02*
G37*
G36*
X1668Y10273D02*
X1302D01*
Y9907D01*
X1460Y9973D01*
X1602Y10115D01*
X1668Y10273D01*
D02*
G37*
G36*
X1048D02*
X682D01*
X748Y10115D01*
X890Y9973D01*
X1048Y9907D01*
Y10273D01*
D02*
G37*
G36*
X-8757Y10198D02*
X-9123D01*
Y9832D01*
X-8965Y9898D01*
X-8823Y10040D01*
X-8757Y10198D01*
D02*
G37*
G36*
X-9377D02*
X-9743D01*
X-9677Y10040D01*
X-9535Y9898D01*
X-9377Y9832D01*
Y10198D01*
D02*
G37*
G36*
X-3907Y10123D02*
X-4273D01*
Y9757D01*
X-4115Y9823D01*
X-3973Y9965D01*
X-3907Y10123D01*
D02*
G37*
G36*
X-4527D02*
X-4893D01*
X-4827Y9965D01*
X-4685Y9823D01*
X-4527Y9757D01*
Y10123D01*
D02*
G37*
G36*
X8168Y9923D02*
X7802D01*
Y9557D01*
X7960Y9623D01*
X8102Y9765D01*
X8168Y9923D01*
D02*
G37*
G36*
X7548D02*
X7182D01*
X7248Y9765D01*
X7390Y9623D01*
X7548Y9557D01*
Y9923D01*
D02*
G37*
G36*
X4193Y9748D02*
X3827D01*
Y9382D01*
X3985Y9448D01*
X4127Y9590D01*
X4193Y9748D01*
D02*
G37*
G36*
X3573D02*
X3207D01*
X3273Y9590D01*
X3414Y9448D01*
X3573Y9382D01*
Y9748D01*
D02*
G37*
G36*
X-9935Y8925D02*
X-10115D01*
X-10280Y8856D01*
X-10406Y8730D01*
X-10475Y8565D01*
Y8385D01*
X-10406Y8220D01*
X-10280Y8094D01*
X-10115Y8025D01*
X-9935D01*
X-9770Y8094D01*
X-9644Y8220D01*
X-9575Y8385D01*
Y8565D01*
X-9644Y8730D01*
X-9770Y8856D01*
X-9935Y8925D01*
D02*
G37*
G36*
X-3510Y8900D02*
X-3690D01*
X-3855Y8831D01*
X-3981Y8705D01*
X-4050Y8540D01*
Y8360D01*
X-3981Y8195D01*
X-3855Y8069D01*
X-3690Y8000D01*
X-3510D01*
X-3345Y8069D01*
X-3219Y8195D01*
X-3150Y8360D01*
Y8540D01*
X-3219Y8705D01*
X-3345Y8831D01*
X-3510Y8900D01*
D02*
G37*
G36*
X-4810Y7600D02*
X-4990D01*
X-5155Y7531D01*
X-5281Y7405D01*
X-5350Y7240D01*
Y7060D01*
X-5281Y6895D01*
X-5155Y6769D01*
X-4990Y6700D01*
X-4810D01*
X-4645Y6769D01*
X-4519Y6895D01*
X-4450Y7060D01*
Y7240D01*
X-4519Y7405D01*
X-4645Y7531D01*
X-4810Y7600D01*
D02*
G37*
G36*
X4077Y6843D02*
Y6477D01*
X4443D01*
X4377Y6635D01*
X4235Y6777D01*
X4077Y6843D01*
D02*
G37*
G36*
X3823D02*
X3665Y6777D01*
X3523Y6635D01*
X3457Y6477D01*
X3823D01*
Y6843D01*
D02*
G37*
G36*
X6965Y6825D02*
X6785D01*
X6620Y6756D01*
X6494Y6630D01*
X6425Y6465D01*
Y6285D01*
X6494Y6120D01*
X6620Y5994D01*
X6785Y5925D01*
X6965D01*
X7130Y5994D01*
X7256Y6120D01*
X7325Y6285D01*
Y6465D01*
X7256Y6630D01*
X7130Y6756D01*
X6965Y6825D01*
D02*
G37*
G36*
X277Y5993D02*
Y5627D01*
X643D01*
X577Y5786D01*
X435Y5927D01*
X277Y5993D01*
D02*
G37*
G36*
X23D02*
X-135Y5927D01*
X-277Y5786D01*
X-343Y5627D01*
X23D01*
Y5993D01*
D02*
G37*
G36*
X4443Y6223D02*
X3457D01*
X3523Y6065D01*
X3627Y5960D01*
X3637Y5854D01*
X3617Y5805D01*
X3498Y5686D01*
X3432Y5527D01*
X4418D01*
X4352Y5686D01*
X4248Y5790D01*
X4238Y5896D01*
X4258Y5945D01*
X4377Y6065D01*
X4443Y6223D01*
D02*
G37*
G36*
X-1223Y5743D02*
Y5377D01*
X-857D01*
X-923Y5535D01*
X-1065Y5677D01*
X-1223Y5743D01*
D02*
G37*
G36*
X-1477D02*
X-1635Y5677D01*
X-1777Y5535D01*
X-1843Y5377D01*
X-1477D01*
Y5743D01*
D02*
G37*
G36*
X643Y5373D02*
X277D01*
Y5007D01*
X435Y5073D01*
X577Y5215D01*
X643Y5373D01*
D02*
G37*
G36*
X23D02*
X-343D01*
X-277Y5215D01*
X-135Y5073D01*
X23Y5007D01*
Y5373D01*
D02*
G37*
G36*
X4418Y5273D02*
X4052D01*
Y4907D01*
X4210Y4973D01*
X4352Y5115D01*
X4418Y5273D01*
D02*
G37*
G36*
X3798D02*
X3432D01*
X3498Y5115D01*
X3640Y4973D01*
X3798Y4907D01*
Y5273D01*
D02*
G37*
G36*
X-857Y5123D02*
X-1223D01*
Y4757D01*
X-1065Y4823D01*
X-923Y4965D01*
X-857Y5123D01*
D02*
G37*
G36*
X-1477D02*
X-1843D01*
X-1777Y4965D01*
X-1635Y4823D01*
X-1477Y4757D01*
Y5123D01*
D02*
G37*
G36*
X4040Y4600D02*
X3860D01*
X3695Y4531D01*
X3569Y4405D01*
X3500Y4240D01*
Y4060D01*
X3569Y3895D01*
X3695Y3769D01*
X3860Y3700D01*
X4040D01*
X4205Y3769D01*
X4331Y3895D01*
X4400Y4060D01*
Y4240D01*
X4331Y4405D01*
X4205Y4531D01*
X4040Y4600D01*
D02*
G37*
G36*
X-11285Y4075D02*
X-11465D01*
X-11630Y4006D01*
X-11756Y3880D01*
X-11825Y3715D01*
Y3535D01*
X-11756Y3370D01*
X-11630Y3244D01*
X-11465Y3175D01*
X-11285D01*
X-11120Y3244D01*
X-10994Y3370D01*
X-10925Y3535D01*
Y3715D01*
X-10994Y3880D01*
X-11120Y4006D01*
X-11285Y4075D01*
D02*
G37*
G36*
X2152Y3493D02*
Y3127D01*
X2518D01*
X2452Y3285D01*
X2310Y3427D01*
X2152Y3493D01*
D02*
G37*
G36*
X1898D02*
X1740Y3427D01*
X1598Y3285D01*
X1532Y3127D01*
X1898D01*
Y3493D01*
D02*
G37*
G36*
X7690Y3200D02*
X7510D01*
X7345Y3131D01*
X7219Y3005D01*
X7150Y2840D01*
X7025D01*
X6956Y3005D01*
X6830Y3131D01*
X6665Y3200D01*
X6485D01*
X6320Y3131D01*
X6194Y3005D01*
X6125Y2840D01*
Y2660D01*
X6194Y2495D01*
X6320Y2369D01*
X6485Y2300D01*
X6665D01*
X6830Y2369D01*
X6956Y2495D01*
X7025Y2660D01*
X7150D01*
X7219Y2495D01*
X7345Y2369D01*
X7510Y2300D01*
X7690D01*
X7855Y2369D01*
X7981Y2495D01*
X8050Y2660D01*
Y2840D01*
X7981Y3005D01*
X7855Y3131D01*
X7690Y3200D01*
D02*
G37*
G36*
X-1435Y3725D02*
X-1615D01*
X-1780Y3656D01*
X-1906Y3530D01*
X-1975Y3365D01*
Y3185D01*
X-1906Y3020D01*
X-1780Y2894D01*
X-1615Y2825D01*
X-1435D01*
X-1270Y2894D01*
X-1144Y3020D01*
X-1075Y3185D01*
Y3365D01*
X-1144Y3530D01*
X-1270Y3656D01*
X-1435Y3725D01*
D02*
G37*
G36*
X-5585Y4650D02*
X-5765D01*
X-5930Y4581D01*
X-6056Y4455D01*
X-6125Y4290D01*
Y4110D01*
X-6056Y3945D01*
X-5930Y3819D01*
X-5806Y3767D01*
Y3633D01*
X-5930Y3581D01*
X-6056Y3455D01*
X-6125Y3290D01*
Y3110D01*
X-6056Y2945D01*
X-5930Y2819D01*
X-5765Y2750D01*
X-5585D01*
X-5420Y2819D01*
X-5294Y2945D01*
X-5225Y3110D01*
Y3290D01*
X-5294Y3455D01*
X-5420Y3581D01*
X-5544Y3633D01*
Y3767D01*
X-5420Y3819D01*
X-5294Y3945D01*
X-5225Y4110D01*
Y4290D01*
X-5294Y4455D01*
X-5420Y4581D01*
X-5585Y4650D01*
D02*
G37*
G36*
X-8610D02*
X-8790D01*
X-8955Y4581D01*
X-9081Y4455D01*
X-9150Y4290D01*
Y4110D01*
X-9081Y3945D01*
X-8955Y3819D01*
X-8831Y3767D01*
Y3633D01*
X-8955Y3581D01*
X-9081Y3455D01*
X-9150Y3290D01*
Y3110D01*
X-9081Y2945D01*
X-8955Y2819D01*
X-8790Y2750D01*
X-8610D01*
X-8445Y2819D01*
X-8319Y2945D01*
X-8250Y3110D01*
Y3290D01*
X-8319Y3455D01*
X-8445Y3581D01*
X-8569Y3633D01*
Y3767D01*
X-8445Y3819D01*
X-8319Y3945D01*
X-8250Y4110D01*
Y4290D01*
X-8319Y4455D01*
X-8445Y4581D01*
X-8610Y4650D01*
D02*
G37*
G36*
X2518Y2873D02*
X2152D01*
Y2507D01*
X2310Y2573D01*
X2452Y2715D01*
X2518Y2873D01*
D02*
G37*
G36*
X1898D02*
X1532D01*
X1598Y2715D01*
X1740Y2573D01*
X1898Y2507D01*
Y2873D01*
D02*
G37*
G36*
X-523Y2718D02*
Y2352D01*
X-157D01*
X-223Y2510D01*
X-365Y2652D01*
X-523Y2718D01*
D02*
G37*
G36*
X-777D02*
X-935Y2652D01*
X-1077Y2510D01*
X-1143Y2352D01*
X-777D01*
Y2718D01*
D02*
G37*
G36*
X-6410Y2950D02*
X-6590D01*
X-6755Y2881D01*
X-6881Y2755D01*
X-6950Y2590D01*
Y2410D01*
X-6881Y2245D01*
X-6755Y2119D01*
X-6590Y2050D01*
X-6410D01*
X-6245Y2119D01*
X-6119Y2245D01*
X-6050Y2410D01*
Y2590D01*
X-6119Y2755D01*
X-6245Y2881D01*
X-6410Y2950D01*
D02*
G37*
G36*
X-157Y2098D02*
X-523D01*
Y1732D01*
X-365Y1798D01*
X-223Y1940D01*
X-157Y2098D01*
D02*
G37*
G36*
X-777D02*
X-1143D01*
X-1077Y1940D01*
X-935Y1798D01*
X-777Y1732D01*
Y2098D01*
D02*
G37*
G36*
X7690Y1550D02*
X7510D01*
X7345Y1481D01*
X7219Y1355D01*
X7150Y1190D01*
X7025D01*
X6956Y1355D01*
X6830Y1481D01*
X6665Y1550D01*
X6485D01*
X6320Y1481D01*
X6194Y1355D01*
X6125Y1190D01*
Y1010D01*
X6194Y845D01*
X6320Y719D01*
X6485Y650D01*
X6665D01*
X6830Y719D01*
X6956Y845D01*
X7025Y1010D01*
X7150D01*
X7219Y845D01*
X7345Y719D01*
X7510Y650D01*
X7690D01*
X7855Y719D01*
X7981Y845D01*
X8050Y1010D01*
Y1190D01*
X7981Y1355D01*
X7855Y1481D01*
X7690Y1550D01*
D02*
G37*
G36*
X-11273Y1343D02*
Y977D01*
X-10907D01*
X-10973Y1135D01*
X-11115Y1277D01*
X-11273Y1343D01*
D02*
G37*
G36*
X-11527D02*
X-11685Y1277D01*
X-11827Y1135D01*
X-11893Y977D01*
X-11527D01*
Y1343D01*
D02*
G37*
G36*
X-10907Y723D02*
X-11273D01*
Y357D01*
X-11115Y423D01*
X-10973Y565D01*
X-10907Y723D01*
D02*
G37*
G36*
X-11527D02*
X-11893D01*
X-11827Y565D01*
X-11685Y423D01*
X-11527Y357D01*
Y723D01*
D02*
G37*
G36*
X6002Y593D02*
Y227D01*
X6368D01*
X6302Y385D01*
X6160Y527D01*
X6002Y593D01*
D02*
G37*
G36*
X5748D02*
X5590Y527D01*
X5448Y385D01*
X5382Y227D01*
X5748D01*
Y593D01*
D02*
G37*
G36*
X-5123Y551D02*
Y77D01*
X-4649D01*
X-4738Y292D01*
X-4908Y462D01*
X-5123Y551D01*
D02*
G37*
G36*
X-5377D02*
X-5592Y462D01*
X-5762Y292D01*
X-5851Y77D01*
X-5377D01*
Y551D01*
D02*
G37*
G36*
X-3860Y575D02*
X-4040D01*
X-4205Y506D01*
X-4331Y380D01*
X-4400Y215D01*
Y35D01*
X-4331Y-130D01*
X-4205Y-256D01*
X-4040Y-325D01*
X-3860D01*
X-3695Y-256D01*
X-3569Y-130D01*
X-3500Y35D01*
Y215D01*
X-3569Y380D01*
X-3695Y506D01*
X-3860Y575D01*
D02*
G37*
G36*
X-9610D02*
X-9790D01*
X-9955Y506D01*
X-10081Y380D01*
X-10150Y215D01*
Y35D01*
X-10081Y-130D01*
X-9955Y-256D01*
X-9790Y-325D01*
X-9610D01*
X-9445Y-256D01*
X-9319Y-130D01*
X-9250Y35D01*
Y215D01*
X-9319Y380D01*
X-9445Y506D01*
X-9610Y575D01*
D02*
G37*
G36*
X6368Y-27D02*
X6002D01*
Y-393D01*
X6160Y-327D01*
X6302Y-185D01*
X6368Y-27D01*
D02*
G37*
G36*
X5748D02*
X5382D01*
X5448Y-185D01*
X5590Y-327D01*
X5748Y-393D01*
Y-27D01*
D02*
G37*
G36*
X-7691Y500D02*
X-7909D01*
X-8112Y416D01*
X-8266Y262D01*
X-8350Y59D01*
Y-159D01*
X-8266Y-362D01*
X-8112Y-516D01*
X-7909Y-600D01*
X-7691D01*
X-7488Y-516D01*
X-7334Y-362D01*
X-7250Y-159D01*
Y59D01*
X-7334Y262D01*
X-7488Y416D01*
X-7691Y500D01*
D02*
G37*
G36*
X8590Y275D02*
X8410D01*
X8245Y206D01*
X8119Y80D01*
X8050Y-85D01*
Y-265D01*
X8119Y-430D01*
X8245Y-556D01*
X8410Y-625D01*
X8590D01*
X8755Y-556D01*
X8881Y-430D01*
X8950Y-265D01*
Y-85D01*
X8881Y80D01*
X8755Y206D01*
X8590Y275D01*
D02*
G37*
G36*
X-4649Y-177D02*
X-5123D01*
Y-651D01*
X-4908Y-562D01*
X-4738Y-392D01*
X-4649Y-177D01*
D02*
G37*
G36*
X-5377D02*
X-5851D01*
X-5762Y-392D01*
X-5592Y-562D01*
X-5377Y-651D01*
Y-177D01*
D02*
G37*
G36*
X4640Y50D02*
X4460D01*
X4295Y-19D01*
X4169Y-145D01*
X4100Y-310D01*
Y-490D01*
X4169Y-655D01*
X4295Y-781D01*
X4460Y-850D01*
X4640D01*
X4805Y-781D01*
X4931Y-655D01*
X5000Y-490D01*
Y-310D01*
X4931Y-145D01*
X4805Y-19D01*
X4640Y50D01*
D02*
G37*
G36*
X-7873Y-2399D02*
Y-2873D01*
X-7399D01*
X-7488Y-2658D01*
X-7658Y-2488D01*
X-7873Y-2399D01*
D02*
G37*
G36*
X-8127D02*
X-8342Y-2488D01*
X-8512Y-2658D01*
X-8601Y-2873D01*
X-8127D01*
Y-2399D01*
D02*
G37*
G36*
X2052Y-2532D02*
Y-2898D01*
X2418D01*
X2352Y-2740D01*
X2210Y-2598D01*
X2052Y-2532D01*
D02*
G37*
G36*
X1798D02*
X1640Y-2598D01*
X1498Y-2740D01*
X1432Y-2898D01*
X1798D01*
Y-2532D01*
D02*
G37*
G36*
X-2523Y-2607D02*
Y-2973D01*
X-2157D01*
X-2223Y-2815D01*
X-2365Y-2673D01*
X-2523Y-2607D01*
D02*
G37*
G36*
X-2777D02*
X-2935Y-2673D01*
X-3077Y-2815D01*
X-3143Y-2973D01*
X-2777D01*
Y-2607D01*
D02*
G37*
G36*
X2418Y-3152D02*
X2052D01*
Y-3518D01*
X2210Y-3452D01*
X2352Y-3310D01*
X2418Y-3152D01*
D02*
G37*
G36*
X1798D02*
X1432D01*
X1498Y-3310D01*
X1640Y-3452D01*
X1798Y-3518D01*
Y-3152D01*
D02*
G37*
G36*
X-2157Y-3227D02*
X-2523D01*
Y-3593D01*
X-2365Y-3527D01*
X-2223Y-3385D01*
X-2157Y-3227D01*
D02*
G37*
G36*
X-2777D02*
X-3143D01*
X-3077Y-3385D01*
X-2935Y-3527D01*
X-2777Y-3593D01*
Y-3227D01*
D02*
G37*
G36*
X-7399Y-3127D02*
X-7873D01*
Y-3601D01*
X-7658Y-3512D01*
X-7488Y-3342D01*
X-7399Y-3127D01*
D02*
G37*
G36*
X-8127D02*
X-8601D01*
X-8512Y-3342D01*
X-8342Y-3512D01*
X-8127Y-3601D01*
Y-3127D01*
D02*
G37*
G36*
X9077Y-3407D02*
Y-3773D01*
X9443D01*
X9377Y-3615D01*
X9236Y-3473D01*
X9077Y-3407D01*
D02*
G37*
G36*
X8823D02*
X8665Y-3473D01*
X8523Y-3615D01*
X8457Y-3773D01*
X8823D01*
Y-3407D01*
D02*
G37*
G36*
X-1435Y-2875D02*
X-1615D01*
X-1780Y-2944D01*
X-1906Y-3070D01*
X-1975Y-3236D01*
Y-3415D01*
X-1906Y-3580D01*
X-1780Y-3706D01*
X-1615Y-3775D01*
X-1435D01*
X-1270Y-3706D01*
X-1144Y-3580D01*
X-1075Y-3415D01*
Y-3236D01*
X-1144Y-3070D01*
X-1270Y-2944D01*
X-1435Y-2875D01*
D02*
G37*
G36*
X7715Y-3150D02*
X7535D01*
X7370Y-3219D01*
X7244Y-3345D01*
X7175Y-3510D01*
Y-3690D01*
X7244Y-3855D01*
X7370Y-3981D01*
X7535Y-4050D01*
X7715D01*
X7880Y-3981D01*
X8006Y-3855D01*
X8075Y-3690D01*
Y-3510D01*
X8006Y-3345D01*
X7880Y-3219D01*
X7715Y-3150D01*
D02*
G37*
G36*
X9443Y-4027D02*
X9077D01*
Y-4393D01*
X9236Y-4327D01*
X9377Y-4185D01*
X9443Y-4027D01*
D02*
G37*
G36*
X8823D02*
X8457D01*
X8523Y-4185D01*
X8665Y-4327D01*
X8823Y-4393D01*
Y-4027D01*
D02*
G37*
G36*
X3477Y-4957D02*
Y-5323D01*
X3843D01*
X3777Y-5165D01*
X3635Y-5023D01*
X3477Y-4957D01*
D02*
G37*
G36*
X3223D02*
X3065Y-5023D01*
X2923Y-5165D01*
X2857Y-5323D01*
X3223D01*
Y-4957D01*
D02*
G37*
G36*
X-3835Y-4550D02*
X-4015D01*
X-4180Y-4619D01*
X-4306Y-4745D01*
X-4375Y-4911D01*
Y-5090D01*
X-4306Y-5255D01*
X-4180Y-5381D01*
X-4015Y-5450D01*
X-3835D01*
X-3670Y-5381D01*
X-3544Y-5255D01*
X-3475Y-5090D01*
Y-4911D01*
X-3544Y-4745D01*
X-3670Y-4619D01*
X-3835Y-4550D01*
D02*
G37*
G36*
X-6160D02*
X-6339D01*
X-6505Y-4619D01*
X-6631Y-4745D01*
X-6700Y-4911D01*
Y-5090D01*
X-6631Y-5255D01*
X-6505Y-5381D01*
X-6339Y-5450D01*
X-6160D01*
X-5995Y-5381D01*
X-5869Y-5255D01*
X-5800Y-5090D01*
Y-4911D01*
X-5869Y-4745D01*
X-5995Y-4619D01*
X-6160Y-4550D01*
D02*
G37*
G36*
X-3835Y-5750D02*
X-4015D01*
X-4180Y-5819D01*
X-4306Y-5945D01*
X-4375Y-6110D01*
Y-6290D01*
X-4306Y-6455D01*
X-4180Y-6582D01*
X-4015Y-6650D01*
X-3835D01*
X-3670Y-6582D01*
X-3544Y-6455D01*
X-3475Y-6290D01*
Y-6110D01*
X-3544Y-5945D01*
X-3670Y-5819D01*
X-3835Y-5750D01*
D02*
G37*
G36*
X-6160D02*
X-6339D01*
X-6505Y-5819D01*
X-6631Y-5945D01*
X-6700Y-6110D01*
Y-6290D01*
X-6631Y-6455D01*
X-6505Y-6582D01*
X-6339Y-6650D01*
X-6160D01*
X-5995Y-6582D01*
X-5869Y-6455D01*
X-5800Y-6290D01*
Y-6110D01*
X-5869Y-5945D01*
X-5995Y-5819D01*
X-6160Y-5750D01*
D02*
G37*
G36*
X9040Y-6200D02*
X8860D01*
X8695Y-6269D01*
X8569Y-6395D01*
X8500Y-6560D01*
Y-6740D01*
X8569Y-6905D01*
X8695Y-7031D01*
X8860Y-7100D01*
X9040D01*
X9205Y-7031D01*
X9331Y-6905D01*
X9400Y-6740D01*
Y-6560D01*
X9331Y-6395D01*
X9205Y-6269D01*
X9040Y-6200D01*
D02*
G37*
G36*
X-660Y-6375D02*
X-840D01*
X-1005Y-6444D01*
X-1131Y-6570D01*
X-1200Y-6735D01*
Y-6915D01*
X-1131Y-7080D01*
X-1005Y-7206D01*
X-840Y-7275D01*
X-660D01*
X-495Y-7206D01*
X-369Y-7080D01*
X-300Y-6915D01*
Y-6735D01*
X-369Y-6570D01*
X-495Y-6444D01*
X-660Y-6375D01*
D02*
G37*
G36*
X6015Y-5375D02*
X5835D01*
X5670Y-5444D01*
X5544Y-5570D01*
X5475Y-5735D01*
Y-5915D01*
X5544Y-6080D01*
X5670Y-6207D01*
X5835Y-6275D01*
Y-6400D01*
X5670Y-6469D01*
X5544Y-6595D01*
X5475Y-6760D01*
Y-6940D01*
X5544Y-7105D01*
X5670Y-7231D01*
X5835Y-7300D01*
X6015D01*
X6180Y-7231D01*
X6306Y-7105D01*
X6375Y-6940D01*
Y-6760D01*
X6306Y-6595D01*
X6180Y-6469D01*
X6015Y-6400D01*
Y-6275D01*
X6180Y-6207D01*
X6306Y-6080D01*
X6375Y-5915D01*
Y-5735D01*
X6306Y-5570D01*
X6180Y-5444D01*
X6015Y-5375D01*
D02*
G37*
G36*
X-10160Y-7550D02*
X-10340D01*
X-10505Y-7619D01*
X-10631Y-7745D01*
X-10700Y-7910D01*
Y-8090D01*
X-10631Y-8255D01*
X-10505Y-8381D01*
X-10340Y-8450D01*
X-10160D01*
X-9995Y-8381D01*
X-9869Y-8255D01*
X-9800Y-8090D01*
Y-7910D01*
X-9869Y-7745D01*
X-9995Y-7619D01*
X-10160Y-7550D01*
D02*
G37*
G36*
X-586Y-7700D02*
X-765D01*
X-930Y-7769D01*
X-1056Y-7895D01*
X-1125Y-8061D01*
Y-8240D01*
X-1056Y-8405D01*
X-930Y-8531D01*
X-765Y-8600D01*
X-586D01*
X-420Y-8531D01*
X-294Y-8405D01*
X-225Y-8240D01*
Y-8061D01*
X-294Y-7895D01*
X-420Y-7769D01*
X-586Y-7700D01*
D02*
G37*
G36*
X3843Y-5577D02*
X2857D01*
X2923Y-5735D01*
X3065Y-5877D01*
X3084Y-5885D01*
X3095Y-6019D01*
X2969Y-6145D01*
X2900Y-6310D01*
Y-6490D01*
X2969Y-6655D01*
X3095Y-6781D01*
X3125Y-6794D01*
Y-6931D01*
X3095Y-6944D01*
X2969Y-7070D01*
X2900Y-7235D01*
Y-7415D01*
X2969Y-7580D01*
X3095Y-7706D01*
X3112Y-7714D01*
Y-7851D01*
X3070Y-7869D01*
X2944Y-7995D01*
X2875Y-8160D01*
Y-8340D01*
X2944Y-8505D01*
X3070Y-8631D01*
X3235Y-8700D01*
X3415D01*
X3580Y-8631D01*
X3706Y-8505D01*
X3775Y-8340D01*
Y-8160D01*
X3706Y-7995D01*
X3580Y-7869D01*
X3563Y-7861D01*
Y-7724D01*
X3605Y-7706D01*
X3731Y-7580D01*
X3800Y-7415D01*
Y-7235D01*
X3731Y-7070D01*
X3605Y-6944D01*
X3575Y-6931D01*
Y-6794D01*
X3605Y-6781D01*
X3731Y-6655D01*
X3800Y-6490D01*
Y-6310D01*
X3731Y-6145D01*
X3605Y-6019D01*
X3616Y-5885D01*
X3635Y-5877D01*
X3777Y-5735D01*
X3843Y-5577D01*
D02*
G37*
G36*
X-9098Y-8557D02*
Y-8923D01*
X-8732D01*
X-8798Y-8765D01*
X-8940Y-8623D01*
X-9098Y-8557D01*
D02*
G37*
G36*
X-9352D02*
X-9510Y-8623D01*
X-9652Y-8765D01*
X-9718Y-8923D01*
X-9352D01*
Y-8557D01*
D02*
G37*
G36*
X-7660Y-8275D02*
X-7840D01*
X-8005Y-8344D01*
X-8131Y-8470D01*
X-8200Y-8635D01*
Y-8815D01*
X-8131Y-8980D01*
X-8005Y-9106D01*
X-7840Y-9175D01*
X-7660D01*
X-7495Y-9106D01*
X-7369Y-8980D01*
X-7300Y-8815D01*
Y-8635D01*
X-7369Y-8470D01*
X-7495Y-8344D01*
X-7660Y-8275D01*
D02*
G37*
G36*
X-8732Y-9177D02*
X-9098D01*
Y-9543D01*
X-8940Y-9477D01*
X-8798Y-9335D01*
X-8732Y-9177D01*
D02*
G37*
G36*
X-9352D02*
X-9718D01*
X-9652Y-9335D01*
X-9510Y-9477D01*
X-9352Y-9543D01*
Y-9177D01*
D02*
G37*
%LPD*%
D29*
X-8675Y13700D02*
D03*
X-7425D02*
D03*
X-6175D02*
D03*
X-4925D02*
D03*
X-3675D02*
D03*
X-2425D02*
D03*
X-1175D02*
D03*
X75D02*
D03*
X1325D02*
D03*
X2575D02*
D03*
X3825D02*
D03*
X5075D02*
D03*
X6325D02*
D03*
X7575D02*
D03*
D30*
X-1525Y3275D02*
D03*
Y-3325D02*
D03*
D31*
X-7800Y-50D02*
D03*
X-5250Y-50D02*
D03*
X-8000Y-3000D02*
D03*
D32*
X-2650Y-3100D02*
D03*
X-9700Y125D02*
D03*
X-6500Y2500D02*
D03*
X-11375Y3625D02*
D03*
X3950Y4150D02*
D03*
X-2825Y11250D02*
D03*
X-4900Y7150D02*
D03*
X-4400Y10250D02*
D03*
X-6650Y11500D02*
D03*
X-10250Y-8000D02*
D03*
X7675Y10050D02*
D03*
X8500Y-175D02*
D03*
X7600Y1100D02*
D03*
X6575D02*
D03*
X7625Y-3600D02*
D03*
X3925Y5400D02*
D03*
X-9225Y-9050D02*
D03*
X3325Y-8250D02*
D03*
X2025Y3000D02*
D03*
X-650Y2225D02*
D03*
X-3950Y125D02*
D03*
X4550Y-400D02*
D03*
X-3600Y8450D02*
D03*
X1925Y-3025D02*
D03*
X-10025Y8475D02*
D03*
X-1350Y5250D02*
D03*
X150Y5500D02*
D03*
X-9250Y10325D02*
D03*
X-5675Y4200D02*
D03*
X1175Y10400D02*
D03*
X3700Y9875D02*
D03*
X3950Y6350D02*
D03*
X6875Y6375D02*
D03*
X-675Y-8150D02*
D03*
X-7750Y-8725D02*
D03*
X-750Y-6825D02*
D03*
X3350Y-7325D02*
D03*
Y-6400D02*
D03*
Y-5450D02*
D03*
X5875Y100D02*
D03*
X-5675Y3200D02*
D03*
X-8700Y4200D02*
D03*
Y3200D02*
D03*
X-11400Y850D02*
D03*
X8950Y-6650D02*
D03*
X8950Y-3900D02*
D03*
X6575Y2750D02*
D03*
X7600D02*
D03*
X5925Y-6850D02*
D03*
Y-5825D02*
D03*
X-6250Y-5000D02*
D03*
Y-6200D02*
D03*
X-3925D02*
D03*
Y-5000D02*
D03*
%TF.MD5,4d359c2861c97041742213ed590b626e*%
M02*
