%TF.GenerationSoftware,Altium Limited,Altium Designer,21.6.4 (81)*%
G04 Layer_Color=8388736*
%FSLAX43Y43*%
%MOMM*%
%TF.SameCoordinates,237B7D82-E972-44EC-B40D-EB97757C63C7*%
%TF.FilePolarity,Negative*%
%TF.FileFunction,Soldermask,Top*%
%TF.Part,Single*%
G01*
G75*
%TA.AperFunction,ComponentPad*%
%ADD38C,1.103*%
%ADD39C,0.703*%
%TA.AperFunction,ViaPad*%
%ADD41C,0.903*%
%TA.AperFunction,SMDPad,CuDef*%
%ADD42R,1.003X1.103*%
%ADD43R,1.453X0.453*%
%ADD44R,1.103X1.503*%
G04:AMPARAMS|DCode=45|XSize=0.44mm|YSize=1.14mm|CornerRadius=0mm|HoleSize=0mm|Usage=FLASHONLY|Rotation=180.000|XOffset=0mm|YOffset=0mm|HoleType=Round|Shape=RoundedRectangle|*
%AMROUNDEDRECTD45*
21,1,0.440,1.140,0,0,180.0*
21,1,0.440,1.140,0,0,180.0*
1,1,0.000,-0.220,0.570*
1,1,0.000,0.220,0.570*
1,1,0.000,0.220,-0.570*
1,1,0.000,-0.220,-0.570*
%
%ADD45ROUNDEDRECTD45*%
G04:AMPARAMS|DCode=46|XSize=1.303mm|YSize=0.803mm|CornerRadius=0.123mm|HoleSize=0mm|Usage=FLASHONLY|Rotation=270.000|XOffset=0mm|YOffset=0mm|HoleType=Round|Shape=RoundedRectangle|*
%AMROUNDEDRECTD46*
21,1,1.303,0.558,0,0,270.0*
21,1,1.058,0.803,0,0,270.0*
1,1,0.245,-0.279,-0.529*
1,1,0.245,-0.279,0.529*
1,1,0.245,0.279,0.529*
1,1,0.245,0.279,-0.529*
%
%ADD46ROUNDEDRECTD46*%
%ADD47R,0.453X1.453*%
G04:AMPARAMS|DCode=48|XSize=1.303mm|YSize=0.803mm|CornerRadius=0.123mm|HoleSize=0mm|Usage=FLASHONLY|Rotation=0.000|XOffset=0mm|YOffset=0mm|HoleType=Round|Shape=RoundedRectangle|*
%AMROUNDEDRECTD48*
21,1,1.303,0.558,0,0,0.0*
21,1,1.058,0.803,0,0,0.0*
1,1,0.245,0.529,-0.279*
1,1,0.245,-0.529,-0.279*
1,1,0.245,-0.529,0.279*
1,1,0.245,0.529,0.279*
%
%ADD48ROUNDEDRECTD48*%
%ADD49R,1.503X1.803*%
%ADD50R,2.203X1.803*%
%ADD51C,0.703*%
%ADD52R,0.703X0.803*%
%ADD53R,0.703X0.603*%
%ADD54R,1.453X0.903*%
%ADD55R,0.803X0.703*%
%ADD56R,1.103X1.003*%
D38*
X-8675Y13700D02*
D03*
X-7425D02*
D03*
X-6175D02*
D03*
X-4925D02*
D03*
X-3675D02*
D03*
X-2425D02*
D03*
X-1175D02*
D03*
X75D02*
D03*
X1325D02*
D03*
X2575D02*
D03*
X3825D02*
D03*
X5075D02*
D03*
X6325D02*
D03*
X7575D02*
D03*
D39*
X-1525Y3275D02*
D03*
Y-3325D02*
D03*
D41*
X-2650Y-3100D02*
D03*
X-7800Y-50D02*
D03*
X-5250Y-50D02*
D03*
X-8000Y-3000D02*
D03*
X-9700Y125D02*
D03*
X-6500Y2500D02*
D03*
X-11375Y3625D02*
D03*
X3950Y4150D02*
D03*
X-2825Y11250D02*
D03*
X-4900Y7150D02*
D03*
X-4400Y10250D02*
D03*
X-6650Y11500D02*
D03*
X-10250Y-8000D02*
D03*
X7675Y10050D02*
D03*
X8500Y-175D02*
D03*
X7600Y1100D02*
D03*
X6575D02*
D03*
X7625Y-3600D02*
D03*
X3925Y5400D02*
D03*
X-9225Y-9050D02*
D03*
X3325Y-8250D02*
D03*
X2025Y3000D02*
D03*
X-650Y2225D02*
D03*
X-3950Y125D02*
D03*
X4550Y-400D02*
D03*
X-3600Y8450D02*
D03*
X1925Y-3025D02*
D03*
X-10025Y8475D02*
D03*
X-1350Y5250D02*
D03*
X150Y5500D02*
D03*
X-9250Y10325D02*
D03*
X-5675Y4200D02*
D03*
X1175Y10400D02*
D03*
X3700Y9875D02*
D03*
X3950Y6350D02*
D03*
X6875Y6375D02*
D03*
X-675Y-8150D02*
D03*
X-7750Y-8725D02*
D03*
X-750Y-6825D02*
D03*
X3350Y-7325D02*
D03*
Y-6400D02*
D03*
Y-5450D02*
D03*
X5875Y100D02*
D03*
X-5675Y3200D02*
D03*
X-8700Y4200D02*
D03*
Y3200D02*
D03*
X-11400Y850D02*
D03*
X8950Y-6650D02*
D03*
X8950Y-3900D02*
D03*
X6575Y2750D02*
D03*
X7600D02*
D03*
X5925Y-6850D02*
D03*
Y-5825D02*
D03*
X-6250Y-5000D02*
D03*
Y-6200D02*
D03*
X-3925D02*
D03*
Y-5000D02*
D03*
D42*
X-5250Y-50D02*
D03*
X-6650D02*
D03*
X-11550Y-5650D02*
D03*
X-10150D02*
D03*
D43*
X-10030Y1250D02*
D03*
Y1900D02*
D03*
Y2550D02*
D03*
Y3200D02*
D03*
Y3850D02*
D03*
Y4500D02*
D03*
Y5150D02*
D03*
X-4270D02*
D03*
Y4500D02*
D03*
Y3850D02*
D03*
Y3200D02*
D03*
Y2550D02*
D03*
Y1900D02*
D03*
Y1250D02*
D03*
X-1995Y-8150D02*
D03*
Y-7500D02*
D03*
Y-6850D02*
D03*
Y-6200D02*
D03*
Y-5550D02*
D03*
Y-4900D02*
D03*
Y-4250D02*
D03*
X-7755D02*
D03*
Y-4900D02*
D03*
Y-5550D02*
D03*
Y-6200D02*
D03*
Y-6850D02*
D03*
Y-7500D02*
D03*
Y-8150D02*
D03*
X7630Y-4250D02*
D03*
Y-4900D02*
D03*
Y-5550D02*
D03*
Y-6200D02*
D03*
Y-6850D02*
D03*
Y-7500D02*
D03*
Y-8150D02*
D03*
X1870D02*
D03*
Y-7500D02*
D03*
Y-6850D02*
D03*
Y-6200D02*
D03*
Y-5550D02*
D03*
Y-4900D02*
D03*
Y-4250D02*
D03*
D44*
X4950Y11700D02*
D03*
X6850D02*
D03*
D45*
X-6800Y-3000D02*
D03*
X-6150D02*
D03*
X-5500D02*
D03*
Y-1200D02*
D03*
X-6800D02*
D03*
D46*
X175Y7525D02*
D03*
X1125D02*
D03*
X2075D02*
D03*
Y10125D02*
D03*
X175D02*
D03*
X4950Y7600D02*
D03*
X5900D02*
D03*
X6850D02*
D03*
Y10200D02*
D03*
X4950D02*
D03*
D47*
X4550Y-1605D02*
D03*
X5200D02*
D03*
X5850D02*
D03*
X6500D02*
D03*
X7150D02*
D03*
X7800D02*
D03*
X8450D02*
D03*
Y4155D02*
D03*
X7800D02*
D03*
X7150D02*
D03*
X6500D02*
D03*
X5850D02*
D03*
X5200D02*
D03*
X4550D02*
D03*
D48*
X-5575Y8400D02*
D03*
Y9350D02*
D03*
Y10300D02*
D03*
X-8175D02*
D03*
Y8400D02*
D03*
D49*
X-12700Y-3975D02*
D03*
X-10200D02*
D03*
D50*
X-11450Y-1075D02*
D03*
D51*
X3375Y-3250D02*
D03*
D52*
X-9225Y-7950D02*
D03*
Y-6950D02*
D03*
X-11400Y1725D02*
D03*
Y2725D02*
D03*
X-9250Y9450D02*
D03*
Y8450D02*
D03*
X-4375Y8450D02*
D03*
Y9450D02*
D03*
X8950Y-4725D02*
D03*
Y-5725D02*
D03*
D53*
X-6625Y7175D02*
D03*
Y6275D02*
D03*
X-5600Y7175D02*
D03*
Y6275D02*
D03*
X-8700D02*
D03*
Y7175D02*
D03*
X-7650D02*
D03*
Y6275D02*
D03*
D54*
X-1325Y6100D02*
D03*
Y8100D02*
D03*
Y9250D02*
D03*
Y11250D02*
D03*
D55*
X1125Y6375D02*
D03*
X125D02*
D03*
X1175Y11250D02*
D03*
X175D02*
D03*
X4900Y6375D02*
D03*
X5900D02*
D03*
X-8500Y11500D02*
D03*
X-7500D02*
D03*
X5000Y5400D02*
D03*
X6000D02*
D03*
D56*
X3700Y8900D02*
D03*
Y7500D02*
D03*
%TF.MD5,505ebec27c6d0cd741bd012bdffab35b*%
M02*
