%TF.GenerationSoftware,Altium Limited,Altium Designer,21.6.4 (81)*%
G04 Layer_Color=65535*
%FSLAX43Y43*%
%MOMM*%
%TF.SameCoordinates,237B7D82-E972-44EC-B40D-EB97757C63C7*%
%TF.FilePolarity,Positive*%
%TF.FileFunction,Legend,Top*%
%TF.Part,Single*%
G01*
G75*
%TA.AperFunction,NonConductor*%
%ADD57C,0.200*%
%ADD58C,0.100*%
D57*
X-13950Y-475D02*
X-13600D01*
X-13950Y-4575D02*
Y-475D01*
Y-4575D02*
X-13600D01*
X-11800D02*
X-11150D01*
X-9250D02*
X-9000D01*
Y-475D01*
X-10150D02*
X-9000D01*
X-13150Y-625D02*
Y-375D01*
Y-625D02*
X-12850Y-375D01*
X-13150D02*
X-12850D01*
X-13150D02*
X-12700Y-875D01*
Y-1525D02*
Y-875D01*
X-13100Y8683D02*
X-12983Y8800D01*
X-12750D01*
X-12633Y8683D01*
Y8567D01*
X-12750Y8450D01*
X-12867D01*
X-12750D01*
X-12633Y8333D01*
Y8217D01*
X-12750Y8100D01*
X-12983D01*
X-13100Y8217D01*
X-12400Y8800D02*
Y8333D01*
X-12167Y8100D01*
X-11934Y8333D01*
Y8800D01*
X-11700Y8683D02*
X-11584Y8800D01*
X-11351D01*
X-11234Y8683D01*
Y8567D01*
X-11351Y8450D01*
X-11467D01*
X-11351D01*
X-11234Y8333D01*
Y8217D01*
X-11351Y8100D01*
X-11584D01*
X-11700Y8217D01*
X-4750Y6600D02*
Y6133D01*
X-4517Y5900D01*
X-4283Y6133D01*
Y6600D01*
X-4050Y6250D02*
X-3584D01*
X-6500Y8617D02*
X-7200D01*
Y8967D01*
X-7083Y9083D01*
X-6850D01*
X-6733Y8967D01*
Y8617D01*
X-7200Y9667D02*
Y9433D01*
X-7083Y9317D01*
X-6617D01*
X-6500Y9433D01*
Y9667D01*
X-6617Y9783D01*
X-7083D01*
X-7200Y9667D01*
X-7083Y10483D02*
X-7200Y10366D01*
Y10133D01*
X-7083Y10017D01*
X-6967D01*
X-6850Y10133D01*
Y10366D01*
X-6733Y10483D01*
X-6617D01*
X-6500Y10366D01*
Y10133D01*
X-6617Y10017D01*
X-12625Y-2850D02*
Y-2150D01*
X-12275D01*
X-12158Y-2267D01*
Y-2500D01*
X-12275Y-2617D01*
X-12625D01*
X-12391D02*
X-12158Y-2850D01*
X-11925Y-2150D02*
X-11458D01*
X-11692D01*
Y-2850D01*
X-11225Y-2150D02*
X-10992D01*
X-11108D01*
Y-2850D01*
X-11225D01*
X-10992D01*
X-10642D02*
Y-2383D01*
X-10409Y-2150D01*
X-10175Y-2383D01*
Y-2850D01*
Y-2500D01*
X-10642D01*
X-1668Y-290D02*
X-2134D01*
X-1901D01*
Y410D01*
X-2368Y-290D02*
X-2601D01*
X-2484D01*
Y410D01*
X-2368D01*
X-2601D01*
X-2951D02*
Y-56D01*
X-3184Y-290D01*
X-3417Y-56D01*
Y410D01*
Y60D01*
X-2951D01*
X-2250Y5875D02*
X-2950D01*
Y6225D01*
X-2833Y6342D01*
X-2600D01*
X-2483Y6225D01*
Y5875D01*
Y6109D02*
X-2250Y6342D01*
Y6692D02*
X-2833D01*
X-2600D01*
Y6575D01*
Y6808D01*
Y6692D01*
X-2833D01*
X-2950Y6808D01*
Y7158D02*
X-2250D01*
Y7508D01*
X-2367Y7625D01*
X-2483D01*
X-2600D01*
X-2717Y7508D01*
Y7158D01*
X-2250Y8325D02*
Y7858D01*
X-2717Y8325D01*
X-2833D01*
X-2950Y8208D01*
Y7975D01*
X-2833Y7858D01*
X-2250Y8692D02*
X-2950D01*
Y9042D01*
X-2833Y9159D01*
X-2600D01*
X-2483Y9042D01*
Y8692D01*
Y8925D02*
X-2250Y9159D01*
Y9508D02*
X-2833D01*
X-2600D01*
Y9392D01*
Y9625D01*
Y9508D01*
X-2833D01*
X-2950Y9625D01*
Y9975D02*
X-2250D01*
Y10325D01*
X-2367Y10441D01*
X-2483D01*
X-2600D01*
X-2717Y10325D01*
Y9975D01*
X-2250Y10675D02*
Y10908D01*
Y10791D01*
X-2950D01*
X-2833Y10675D01*
X467Y8550D02*
Y9250D01*
X933Y8550D01*
Y9250D01*
X1633D02*
X1167D01*
Y8550D01*
X1633D01*
X1167Y8900D02*
X1400D01*
X2333Y9133D02*
X2216Y9250D01*
X1983D01*
X1867Y9133D01*
Y8667D01*
X1983Y8550D01*
X2216D01*
X2333Y8667D01*
Y8900D01*
X2100D01*
X5325Y9300D02*
X5559D01*
X5442D01*
Y8600D01*
X5325D01*
X5559D01*
X5908D02*
Y9300D01*
X6375Y8600D01*
Y9300D01*
X6608D02*
Y8833D01*
X6841Y8600D01*
X7075Y8833D01*
Y9300D01*
X2792Y-1133D02*
X3492D01*
Y-666D01*
X2792Y34D02*
Y-433D01*
X3492D01*
Y34D01*
X3142Y-433D02*
Y-200D01*
X2792Y267D02*
X3492D01*
Y617D01*
X3375Y733D01*
X2908D01*
X2792Y617D01*
Y267D01*
X3608Y967D02*
Y1433D01*
X3492Y1667D02*
X2792D01*
Y2016D01*
X2908Y2133D01*
X3142D01*
X3258Y2016D01*
Y1667D01*
Y1900D02*
X3492Y2133D01*
X2792Y2833D02*
Y2366D01*
X3492D01*
Y2833D01*
X3142Y2366D02*
Y2600D01*
X2792Y3066D02*
Y3533D01*
Y3299D01*
X3492D01*
X92Y-8124D02*
X792D01*
Y-7658D01*
X92Y-6958D02*
Y-7425D01*
X792D01*
Y-6958D01*
X442Y-7425D02*
Y-7191D01*
X92Y-6725D02*
X792D01*
Y-6375D01*
X675Y-6258D01*
X208D01*
X92Y-6375D01*
Y-6725D01*
X908Y-6025D02*
Y-5559D01*
X92Y-5325D02*
Y-5092D01*
Y-5209D01*
X792D01*
Y-5325D01*
Y-5092D01*
Y-4742D02*
X92D01*
X792Y-4276D01*
X92D01*
X-12108Y7133D02*
X-12225Y7250D01*
X-12458D01*
X-12574Y7133D01*
Y6667D01*
X-12458Y6550D01*
X-12225D01*
X-12108Y6667D01*
Y6900D01*
X-12341D01*
X-11758Y7017D02*
X-11525D01*
X-11408Y6900D01*
Y6550D01*
X-11758D01*
X-11875Y6667D01*
X-11758Y6783D01*
X-11408D01*
X-11058Y7133D02*
Y7017D01*
X-11175D01*
X-10942D01*
X-11058D01*
Y6667D01*
X-10942Y6550D01*
X-10242D02*
X-10475D01*
X-10592Y6667D01*
Y6900D01*
X-10475Y7017D01*
X-10242D01*
X-10125Y6900D01*
Y6783D01*
X-10592D01*
X-9892Y6550D02*
X-9542D01*
X-9426Y6667D01*
X-9542Y6783D01*
X-9775D01*
X-9892Y6900D01*
X-9775Y7017D01*
X-9426D01*
X-4633Y-3350D02*
Y-2650D01*
X-4283D01*
X-4167Y-2767D01*
Y-3000D01*
X-4283Y-3117D01*
X-4633D01*
X-3933Y-2650D02*
Y-3350D01*
X-3583D01*
X-3467Y-3233D01*
Y-2767D01*
X-3583Y-2650D01*
X-3933D01*
X-13233Y-7258D02*
X-13350Y-7375D01*
Y-7608D01*
X-13233Y-7725D01*
X-12767D01*
X-12650Y-7608D01*
Y-7375D01*
X-12767Y-7258D01*
X-13350Y-7025D02*
Y-6558D01*
Y-6792D01*
X-12650D01*
X-13350Y-6325D02*
Y-6092D01*
Y-6208D01*
X-12650D01*
Y-6325D01*
Y-6092D01*
Y-5742D02*
X-13117D01*
X-13350Y-5509D01*
X-13117Y-5275D01*
X-12650D01*
X-13000D01*
Y-5742D01*
X-12616Y9733D02*
X-12733Y9850D01*
X-12966D01*
X-13083Y9733D01*
Y9267D01*
X-12966Y9150D01*
X-12733D01*
X-12616Y9267D01*
X-12033Y9850D02*
X-12266D01*
X-12383Y9733D01*
Y9267D01*
X-12266Y9150D01*
X-12033D01*
X-11917Y9267D01*
Y9733D01*
X-12033Y9850D01*
X-11683D02*
Y9267D01*
X-11567Y9150D01*
X-11333D01*
X-11217Y9267D01*
Y9850D01*
X-10983D02*
X-10517D01*
X-10750D01*
Y9150D01*
X-10284Y9733D02*
X-10167Y9850D01*
X-9934D01*
X-9817Y9733D01*
Y9617D01*
X-9934Y9500D01*
X-10050D01*
X-9934D01*
X-9817Y9383D01*
Y9267D01*
X-9934Y9150D01*
X-10167D01*
X-10284Y9267D01*
X-66Y12283D02*
X-183Y12400D01*
X-416D01*
X-533Y12283D01*
Y11817D01*
X-416Y11700D01*
X-183D01*
X-66Y11817D01*
X517Y12400D02*
X284D01*
X167Y12283D01*
Y11817D01*
X284Y11700D01*
X517D01*
X633Y11817D01*
Y12283D01*
X517Y12400D01*
X867D02*
Y11817D01*
X983Y11700D01*
X1217D01*
X1333Y11817D01*
Y12400D01*
X1567D02*
X2033D01*
X1800D01*
Y11700D01*
X2733D02*
X2266D01*
X2733Y12167D01*
Y12283D01*
X2616Y12400D01*
X2383D01*
X2266Y12283D01*
X2717Y4400D02*
X2600Y4284D01*
Y4050D01*
X2717Y3934D01*
X3183D01*
X3300Y4050D01*
Y4284D01*
X3183Y4400D01*
X2600Y4983D02*
Y4750D01*
X2717Y4634D01*
X3183D01*
X3300Y4750D01*
Y4983D01*
X3183Y5100D01*
X2717D01*
X2600Y4983D01*
Y5333D02*
X3183D01*
X3300Y5450D01*
Y5683D01*
X3183Y5800D01*
X2600D01*
Y6033D02*
Y6500D01*
Y6266D01*
X3300D01*
Y6733D02*
Y6966D01*
Y6850D01*
X2600D01*
X2717Y6733D01*
X7208Y5758D02*
X7092Y5875D01*
X6859D01*
X6742Y5758D01*
Y5292D01*
X6859Y5175D01*
X7092D01*
X7208Y5292D01*
X7442Y5175D02*
Y5875D01*
X7675Y5642D01*
X7908Y5875D01*
Y5175D01*
X8491D02*
Y5875D01*
X8142Y5525D01*
X8608D01*
X9233Y-7833D02*
X9350Y-7717D01*
Y-7484D01*
X9233Y-7367D01*
X8767D01*
X8650Y-7484D01*
Y-7717D01*
X8767Y-7833D01*
X8650Y-8067D02*
X9350D01*
X9117Y-8300D01*
X9350Y-8533D01*
X8650D01*
X9233Y-8767D02*
X9350Y-8883D01*
Y-9116D01*
X9233Y-9233D01*
X9117D01*
X9000Y-9116D01*
Y-9000D01*
Y-9116D01*
X8883Y-9233D01*
X8767D01*
X8650Y-9116D01*
Y-8883D01*
X8767Y-8767D01*
X-12633Y1783D02*
X-12750Y1667D01*
Y1434D01*
X-12633Y1317D01*
X-12167D01*
X-12050Y1434D01*
Y1667D01*
X-12167Y1783D01*
X-12050Y2017D02*
X-12750D01*
X-12517Y2250D01*
X-12750Y2483D01*
X-12050D01*
Y3183D02*
Y2717D01*
X-12517Y3183D01*
X-12633D01*
X-12750Y3066D01*
Y2833D01*
X-12633Y2717D01*
X-11150Y-6667D02*
X-11267Y-6550D01*
X-11500D01*
X-11616Y-6667D01*
Y-7133D01*
X-11500Y-7250D01*
X-11267D01*
X-11150Y-7133D01*
X-10917Y-7250D02*
Y-6550D01*
X-10683Y-6783D01*
X-10450Y-6550D01*
Y-7250D01*
X-10217D02*
X-9984D01*
X-10100D01*
Y-6550D01*
X-10217Y-6667D01*
X867Y3684D02*
X750Y3567D01*
Y3334D01*
X867Y3217D01*
X1333D01*
X1450Y3334D01*
Y3567D01*
X1333Y3684D01*
X750Y3917D02*
X1450D01*
Y4383D01*
X750Y4617D02*
X1450D01*
Y4967D01*
X1333Y5083D01*
X867D01*
X750Y4967D01*
Y4617D01*
Y5666D02*
Y5433D01*
X867Y5316D01*
X1333D01*
X1450Y5433D01*
Y5666D01*
X1333Y5783D01*
X867D01*
X750Y5666D01*
X3883Y11442D02*
X4000Y11325D01*
X4233D01*
X4350Y11442D01*
Y11908D01*
X4233Y12025D01*
X4000D01*
X3883Y11908D01*
X3650Y11325D02*
X3417D01*
X3533D01*
Y12025D01*
X3650D01*
X3417D01*
X3067D02*
Y11325D01*
X2600Y12025D01*
Y11325D01*
X2367D02*
Y11792D01*
X2134Y12025D01*
X1900Y11792D01*
Y11325D01*
X-5358Y11733D02*
X-5475Y11850D01*
X-5708D01*
X-5825Y11733D01*
Y11267D01*
X-5708Y11150D01*
X-5475D01*
X-5358Y11267D01*
X-5125Y11850D02*
X-4892D01*
X-5008D01*
Y11150D01*
X-5125D01*
X-4892D01*
X-4542D02*
Y11850D01*
X-4075Y11150D01*
Y11850D01*
X-3375Y11150D02*
X-3842D01*
X-3375Y11617D01*
Y11733D01*
X-3492Y11850D01*
X-3725D01*
X-3842Y11733D01*
X8259Y6733D02*
X8142Y6850D01*
X7909D01*
X7792Y6733D01*
Y6267D01*
X7909Y6150D01*
X8142D01*
X8259Y6267D01*
X8492Y6850D02*
X8725D01*
X8608D01*
Y6150D01*
X8492D01*
X8725D01*
X9075D02*
Y6850D01*
X9541Y6150D01*
Y6850D01*
X9775Y6150D02*
X10008D01*
X9891D01*
Y6850D01*
X9775Y6733D01*
X-10567Y11733D02*
X-10683Y11850D01*
X-10916D01*
X-11033Y11733D01*
Y11267D01*
X-10916Y11150D01*
X-10683D01*
X-10567Y11267D01*
X-10333Y11850D02*
Y11150D01*
X-9983D01*
X-9867Y11267D01*
Y11383D01*
X-9983Y11500D01*
X-10333D01*
X-9983D01*
X-9867Y11617D01*
Y11733D01*
X-9983Y11850D01*
X-10333D01*
X-9633Y11150D02*
Y11850D01*
X-9284D01*
X-9167Y11733D01*
Y11500D01*
X-9284Y11383D01*
X-9633D01*
X-6325Y1408D02*
X-6442Y1525D01*
X-6675D01*
X-6792Y1408D01*
Y942D01*
X-6675Y825D01*
X-6442D01*
X-6325Y942D01*
X-6092Y825D02*
X-5858D01*
X-5975D01*
Y1525D01*
X-6092Y1408D01*
D58*
X-5294Y1250D02*
G03*
X-5294Y1250I-206J0D01*
G01*
X-7159Y-3060D02*
G03*
X-7159Y-3060I-71J0D01*
G01*
X166Y8325D02*
G03*
X166Y8325I-141J0D01*
G01*
X4756Y-375D02*
G03*
X4756Y-375I-206J0D01*
G01*
X-3019Y-8150D02*
G03*
X-3019Y-8150I-206J0D01*
G01*
X-6233Y8250D02*
G03*
X-6233Y8250I-141J0D01*
G01*
X3306Y-4250D02*
G03*
X3306Y-4250I-206J0D01*
G01*
X4942Y8400D02*
G03*
X4942Y8400I-141J0D01*
G01*
X-4950Y700D02*
Y900D01*
X-5100Y700D02*
X-4950D01*
X-9350D02*
X-5100D01*
X-9350Y5500D02*
Y5700D01*
Y700D02*
Y900D01*
Y5700D02*
X-4950D01*
Y5500D02*
Y5700D01*
X-7050Y-2100D02*
X-5250D01*
Y-2800D02*
X-5050D01*
Y-1400D01*
X-5250D02*
X-5050D01*
X-7250Y-2800D02*
X-7050D01*
X-7250D02*
Y-2100D01*
Y-1400D02*
X-7050D01*
X-7250Y-2100D02*
Y-1400D01*
X-375Y9725D02*
X2625D01*
Y7925D02*
Y9725D01*
X-375Y8225D02*
Y9725D01*
Y8225D02*
X-75Y7925D01*
X2625D01*
X8800Y-925D02*
X9000D01*
Y3475D01*
X4000D02*
X4200D01*
X8800D02*
X9000D01*
X4000Y-775D02*
Y3475D01*
Y-925D02*
Y-775D01*
Y-925D02*
X4200D01*
X-2675Y-3900D02*
Y-3700D01*
X-7075D02*
X-2675D01*
X-7075Y-8700D02*
Y-8500D01*
Y-3900D02*
Y-3700D01*
Y-8700D02*
X-2825D01*
X-2675D01*
Y-8500D01*
X-7775Y7850D02*
Y10850D01*
X-5975D01*
X-7775Y7850D02*
X-6275D01*
X-5975Y8150D01*
Y10850D01*
X2550Y-3900D02*
Y-3700D01*
X2700D01*
X6950D01*
Y-8700D02*
Y-8500D01*
Y-3900D02*
Y-3700D01*
X2550Y-8700D02*
X6950D01*
X2550D02*
Y-8500D01*
X4400Y9800D02*
X7400D01*
Y8000D02*
Y9800D01*
X4400Y8300D02*
Y9800D01*
Y8300D02*
X4700Y8000D01*
X7400D01*
%TF.MD5,6d5edcd01fee11f84634b1f8f5ac4200*%
M02*
