M48
;Layer_Color=9474304
;FILE_FORMAT=2:4
INCH,LZ
;TYPE=PLATED
T1F00S00C0.0118
T2F00S00C0.0197
%
T01
X-003632Y-003563
X-003051Y-003435
X-004035Y-00315
X-000266Y-003209
X001309Y-003248
X001319Y-002884
Y-00252
Y-002146
X002333Y-002293
Y-002697
X003524Y-002618
X003524Y-001535
X003002Y-001417
X003346Y-000069
X002992Y000433
X002589
Y001083
X002992
X002707Y00251
X001555Y0025
X001545Y002126
X001555Y001634
X000797Y001181
X-000256Y000876
X-000531Y002067
X000059Y002165
X000463Y004094
X001457Y003888
X003022Y003957
X-001112Y004429
X-001732Y004035
X-001417Y003327
X-001929Y002815
X-002234Y001654
Y00126
X-002559Y000984
X-003425Y00126
Y001654
X-004478Y001427
X-004488Y000335
X-003819Y000049
X-003071Y-00002
X-002067Y-00002
X-001555Y000049
X-001043Y-00122
X-001545Y-001969
Y-002441
X-002461
Y-001969
X-00315Y-001181
X000758Y-001191
X001791Y-000157
X002313Y000039
X-000295Y-002687
X-002618Y004528
X-003642Y004065
X-003947Y003337
T02
X-003415Y005394
X-002923
X-002431
X-001939
X-001447
X-000955
X-000463
X00003
X000522
X001014
X001506
X001998
X00249
X002982
M30
